<?xml version="1.0" encoding="UTF-8"?>
<svg id="_レイヤー_1" data-name="レイヤー_1" xmlns="http://www.w3.org/2000/svg" version="1.1" xmlns:xlink="http://www.w3.org/1999/xlink" viewBox="0 0 420 30">
  <!-- Generator: Adobe Illustrator 30.3.0, SVG Export Plug-In . SVG Version: 2.1.3 Build 182)  -->
  <defs>
    <style>
      .st0 {
        fill: #ed7c9b;
      }

      .st1 {
        fill: #fff;
      }

      .st2 {
        fill: none;
      }

      .st3 {
        fill: #727171;
      }

      .st4 {
        clip-path: url(#clippath);
      }
    </style>
    <clipPath id="clippath">
      <rect class="st2" y="0" width="420" height="30"/>
    </clipPath>
  </defs>
  <g class="st4">
    <g>
      <path class="st1" d="M.45,15.02c0-.08-.16-.18-.16-.26s.18-.17.19-.25c0-.08-.12-.18-.11-.26v-.26c0-.08.03-.17.03-.26,0-.08.1-.16.12-.24,0-.08.05-.17.07-.25,0-.08-.08-.19-.07-.27,0-.08.04-.17.05-.25.02-.08-.05-.19-.03-.27.02-.08.2-.14.21-.22.02-.08-.14-.21-.13-.3.02-.08.15-.14.18-.23.02-.08.07-.16.09-.25.03-.08-.07-.19-.05-.28.03-.08.15-.14.18-.22.03-.08-.09-.21-.07-.3.03-.08.06-.16.08-.24.03-.08.17-.13.2-.2.03-.08.08-.15.11-.24.03-.08-.03-.19,0-.28.03-.08.13-.14.16-.22.03-.08.03-.17.07-.25.03-.08.16-.11.2-.19.03-.08-.07-.22-.03-.3.03-.08.06-.17.09-.24.04-.08.07-.16.11-.24.04-.08.14-.13.18-.2.04-.08.09-.14.14-.22.04-.08.09-.15.14-.23.04-.08.16-.1.2-.18.04-.08-.06-.24,0-.31.05-.07.25-.04.3-.11.05-.08.08-.16.13-.23.05-.08.08-.15.14-.22.05-.08.07-.17.12-.24.05-.07.16-.09.21-.16.05-.07,0-.22.05-.29.05-.07.22-.04.27-.11.06-.07.11-.14.16-.2.06-.06.09-.14.15-.2.06-.07.09-.14.15-.2.06-.06.12-.12.18-.18.06-.07.05-.19.11-.25.06-.06.11-.14.17-.19.06-.06.13-.12.2-.18.06-.06.16-.08.23-.14.07-.06.07-.19.13-.24.07-.06.23,0,.3-.06.07-.05.14-.1.2-.16.07-.05.06-.2.13-.25.07-.05.12-.13.19-.19.07-.05.14-.11.2-.16.07-.05.21,0,.29-.04.07-.05.07-.21.14-.25.07-.05.16-.08.24-.12.08-.05.15-.08.23-.13.08-.04.15-.08.22-.14.08-.04.17-.05.25-.1.08-.04.2,0,.27-.05.08-.04.08-.23.15-.26.08-.04.17-.05.25-.08.08-.04.19,0,.26-.05.08-.03.18-.03.25-.07.08-.03.14-.09.22-.13.08-.03.15-.08.23-.11.08-.03.14-.11.22-.14.08-.03.14-.1.23-.14.08-.03.15-.08.24-.11.08-.03.19,0,.26-.03.08-.03.13-.15.21-.19.09-.03.17-.06.25-.08.09-.03.2.08.29.05.09-.03.15-.09.24-.11.09-.03.19.03.27,0,.09-.02.14-.16.22-.18.09-.02.2.08.28.07.09-.02.15-.09.24-.11.09-.02.18.05.27.03.09-.02.16-.08.25-.1.09,0,.15-.12.25-.14.09-.02.18.03.26.02.09-.02.17-.05.25-.06.09,0,.18.02.26,0,.09,0,.18.06.26.06s.16-.08.25-.08c.09,0,.17-.08.25-.09.09,0,.18.12.26.12s.17-.06.26-.06v.03c.09,0,.17-.04.25-.04s.17.06.26.06c.09,0,.18-.09.26-.08.09,0,.17.08.25.08s.17.06.25.07c.08,0,.17,0,.26,0,.08,0,.19-.1.27-.09.08,0,.16.08.25.1.09.02.17.03.25.04.09.02.17.03.25.04.09.02.18-.02.26,0,.08.02.17.06.25.08.09.02.15.11.24.14.08.03.18,0,.25.03.08.02.15.09.24.12.08.03.16.06.25.08.09.03.19-.02.27,0,.09.03.2-.03.27,0,.09.03.1.23.19.25.08.03.15.08.24.1.08.03.24-.12.31-.09.08.03.11.19.19.23.09.03.14.12.21.15.08.03.17.04.25.08.08.03.17.03.25.08.08.03.2,0,.27.03.08.04.15.08.23.12.08.04.12.14.2.19.08.04.13.13.2.17.08.04.18.03.25.08.08.04.2,0,.28.04s.14.09.21.14c.08.04.09.17.17.21.07.05.12.13.2.18.07.05.21,0,.28.05.07.05.08.18.15.24.07.05.13.12.2.17.07.05.22,0,.29.05.07.05.08.19.14.24.07.05.08.17.15.22.07.06.23,0,.29.06.07.06.05.2.11.26.07.06.2.03.26.09.06.06.14.1.2.16.06.06,0,.24.06.3.06.06.13.11.19.18.06.07.22.03.27.1.06.06.03.21.08.28.06.06.2.06.25.13.05.07.13.12.18.19.05.07.03.19.08.26.05.07.07.17.12.24.05.07.1.14.15.21.05.07.08.14.14.22.05.07.22.05.27.13.05.07.03.19.07.26.05.07.15.11.2.18.05.08.12.13.16.2.04.08.11.14.15.21.04.08-.04.22,0,.3.04.08.17.1.21.18.04.08,0,.19.04.27.04.08.23.08.26.15.04.08-.06.22-.02.3.03.08.16.12.2.19.03.08-.07.22-.03.3.03.08.25.08.27.16.03.08-.07.21-.03.3.03.08.14.13.17.21.03.08.11.14.14.22.03.08-.06.2-.03.29s.14.14.17.22c.03.08-.1.21-.08.3.03.08.08.15.11.24.03.08.17.14.2.22.03.08-.1.2-.08.29.02.08.05.16.07.24.02.08.07.16.08.24s.02.17.03.26c.02.08.14.15.15.24.02.08.03.17.03.26.02.08-.08.19-.07.27,0,.08.06.17.07.25,0,.08-.05.18-.04.26,0,.08.04.17.05.25,0,.08.04.17.05.25,0,.08-.06.18-.05.26,0,.08.12.17.13.25,0,.08-.11.18-.11.26h.03c0,.08.09.18.09.26s-.02.17-.02.26c0,.08-.08.17-.08.25v.26c0,.08-.1.16-.11.25,0,.08.13.19.12.27,0,.08-.02.17-.03.26,0,.08-.12.16-.13.24-.02.08-.06.17-.08.25,0,.08.14.19.12.28-.02.08-.03.17-.05.25-.02.08-.14.14-.16.24-.02.08-.03.17-.05.25-.02.08.06.19.03.28-.03.08-.13.14-.15.23s-.06.16-.08.24c-.03.08-.1.14-.13.23-.03.08-.03.17-.05.25-.03.08.07.2.04.29-.03.08-.1.15-.13.23-.03.08-.14.14-.16.22-.03.08-.02.18-.05.26-.03.08-.08.15-.11.24-.03.08,0,.19-.03.27-.03.08-.07.16-.11.24-.03.08-.19.1-.23.18-.04.08-.02.19-.06.26-.04.08-.05.17-.09.24-.04.08-.08.16-.12.24s-.19.09-.23.17c-.04.08-.1.14-.14.21-.05.08,0,.2-.06.27-.04.07-.12.13-.17.2-.05.08-.03.19-.08.25-.05.08-.14.12-.19.19-.05.07-.16.09-.21.16-.05.07,0,.22-.05.29-.05.07-.25.03-.31.08-.05.07-.02.21-.07.28-.06.07-.14.11-.2.18-.06.07-.13.12-.19.19-.06.07-.03.22-.08.28-.06.06-.17.08-.23.14-.06.06-.15.09-.21.15-.06.06-.03.21-.09.27-.06.06-.13.12-.19.18-.07.06-.23,0-.3.07-.06.06-.11.13-.18.19-.06.06-.1.14-.17.2-.07.05-.09.15-.16.21-.07.05-.2.03-.26.08-.07.05-.12.13-.19.18-.07.06-.09.17-.16.22-.07.05-.23-.03-.31.02-.07.05-.14.1-.21.14-.07.05-.08.2-.14.25-.07.04-.22-.02-.29.03-.07.04-.09.17-.17.22-.08.04-.16.06-.24.1-.08.04-.16.06-.24.1-.08.04-.08.21-.16.25-.08.04-.21-.03-.29,0-.08.04-.12.14-.2.18-.08.03-.15.08-.23.12-.08.03-.2-.03-.28,0-.08.03-.14.09-.23.13-.08.03-.1.19-.19.23-.08.03-.18.03-.25.06-.08.03-.14.12-.22.14-.08.03-.16.08-.24.1-.08.03-.17.04-.25.07-.09.03-.21-.09-.29-.06-.08.03-.15.08-.24.11-.09.03-.14.11-.23.14-.08.03-.18.03-.25.04-.08.03-.19-.06-.27-.04-.08.03-.14.18-.22.19-.08.02-.17.06-.25.08-.08.02-.2-.13-.29-.11-.08.02-.17.03-.25.04-.08,0-.17.03-.25.03-.08,0-.16.07-.25.08-.09,0-.18-.03-.26-.02-.08,0-.16.08-.25.08-.08,0-.17.03-.25.03-.09,0-.17.03-.25.03s-.17.03-.25.04c-.09,0-.18-.08-.26-.08-.09,0-.17-.02-.25-.02v.08c-.09,0-.18.05-.26.05s-.18,0-.26-.02c-.09,0-.17-.03-.26-.03-.09,0-.16-.13-.25-.14-.09,0-.19.16-.27.15-.08,0-.16-.09-.25-.1-.09,0-.17-.08-.25-.08-.09,0-.19.09-.27.08-.08,0-.16-.1-.25-.12-.09-.02-.18,0-.26,0-.09-.02-.17-.03-.25-.03-.09-.02-.18,0-.26-.03-.08-.02-.18,0-.26-.02-.08-.02-.16-.06-.25-.08-.09-.03-.18-.03-.25-.05-.09-.03-.13-.19-.21-.21-.09-.03-.2.05-.28.03-.09-.03-.16-.06-.25-.09-.09-.03-.18-.02-.26-.04-.09-.03-.15-.09-.24-.12-.08-.03-.14-.14-.21-.16-.08-.03-.15-.08-.23-.12s-.18,0-.26-.04c-.08-.03-.19,0-.26-.05-.08-.03-.14-.11-.22-.14-.08-.04-.18-.04-.25-.08-.08-.04-.14-.09-.22-.14-.08-.03-.08-.21-.16-.25-.08-.04-.22.04-.3,0-.08-.04-.13-.13-.2-.17-.08-.04-.13-.12-.2-.17-.08-.04-.2,0-.27-.06-.08-.04-.11-.15-.18-.2-.08-.04-.17-.06-.25-.1-.08-.05-.18-.04-.25-.09-.07-.05-.08-.17-.16-.23-.07-.05-.12-.13-.19-.18-.07-.05-.12-.14-.19-.19-.07-.06-.23,0-.3-.05-.07-.05-.02-.25-.08-.3-.07-.06-.15-.08-.22-.14-.06-.06-.14-.1-.2-.16-.06-.06-.12-.13-.18-.19-.07-.06-.24,0-.3-.07-.06-.06-.12-.14-.18-.19-.06-.07-.05-.19-.11-.26-.06-.06-.17-.08-.22-.14-.06-.07-.08-.16-.14-.23-.06-.07-.07-.17-.13-.24-.06-.07-.14-.11-.2-.18-.05-.07-.19-.07-.25-.14-.05-.07-.12-.13-.17-.19-.05-.07.04-.24-.02-.31-.05-.07-.25-.03-.3-.11-.05-.07-.06-.17-.11-.24-.05-.07-.07-.17-.11-.24-.05-.08-.17-.1-.21-.17-.05-.08-.04-.18-.08-.25-.04-.08-.03-.19-.07-.26s-.12-.14-.15-.21c-.04-.08-.14-.12-.19-.19-.04-.08,0-.19-.03-.27-.04-.08-.16-.11-.2-.19-.03-.08-.06-.17-.09-.25-.03-.08.05-.21,0-.29-.03-.08-.1-.14-.14-.22-.03-.08-.05-.16-.08-.25-.03-.08-.18-.12-.2-.19-.03-.08-.08-.15-.11-.24-.03-.08.08-.21.05-.3-.03-.08-.19-.12-.21-.2s-.03-.18-.05-.25c-.03-.08-.12-.14-.14-.23-.02-.08,0-.18-.03-.26-.03-.08.1-.2.08-.29-.02-.08-.09-.15-.11-.24-.02-.08-.04-.17-.06-.25-.02-.08-.02-.17-.03-.25-.02-.08-.05-.17-.06-.25-.02-.08-.02-.17-.03-.25-.02-.08-.05-.17-.06-.25-.02-.08-.06-.17-.07-.25,0-.08-.07-.17-.08-.25,0-.08.07-.18.07-.26,0-.08.04-.18.03-.26,0-.08-.19-.16-.2-.25,0-.08.12-.18.12-.26s.03-.17.03-.26c0-.08-.14-.22-.14-.3.02-.03.13.04.13.04l.03.07Z"/>
      <path class="st0" d="M30.15,15.54c0-.09.03-.18.03-.26s-.09-.18-.09-.26c0,0,.08-.18.08-.26s-.13-.18-.13-.26.06-.18.06-.26-.04-.18-.05-.26c0-.09-.04-.17-.05-.26,0-.08.05-.18.04-.27-.02-.08-.06-.17-.07-.25,0-.09.09-.19.07-.28-.02-.08-.02-.18-.03-.26-.02-.08-.14-.15-.16-.24-.02-.08,0-.18-.03-.26-.02-.08-.07-.16-.09-.25-.02-.08-.05-.17-.07-.25-.03-.08.11-.2.09-.29-.03-.08-.18-.14-.2-.22-.03-.08-.09-.15-.11-.24-.03-.08.11-.22.08-.3-.03-.08-.14-.14-.17-.22-.03-.08.06-.21.03-.3-.03-.08-.11-.14-.14-.23-.03-.08-.14-.14-.18-.21-.03-.08.07-.22.03-.3-.03-.08-.25-.08-.28-.17s.07-.22.03-.3c-.04-.08-.17-.12-.2-.19-.04-.08.06-.22.02-.3-.03-.08-.23-.08-.27-.16-.04-.08,0-.19-.04-.28-.04-.08-.17-.11-.21-.19-.04-.08.04-.23,0-.3-.04-.08-.11-.14-.15-.21-.04-.08-.12-.14-.17-.21-.04-.08-.15-.11-.2-.19-.05-.08-.03-.2-.07-.27-.05-.08-.23-.06-.28-.13-.05-.08-.08-.15-.14-.23-.05-.07-.1-.14-.15-.21-.06-.07-.07-.17-.12-.24-.05-.07-.04-.19-.09-.26-.06-.07-.13-.13-.19-.19-.06-.07-.2-.07-.25-.13-.06-.07-.03-.22-.08-.28-.06-.07-.22-.03-.28-.1-.06-.06-.14-.11-.2-.18-.06-.06,0-.25-.06-.31-.06-.06-.14-.11-.2-.17-.07-.06-.2-.04-.27-.1-.07-.06-.05-.21-.11-.27-.07-.06-.23,0-.3-.06-.07-.06-.08-.17-.15-.23-.07-.06-.08-.19-.14-.25-.07-.05-.23,0-.3-.05-.07-.05-.13-.12-.2-.17-.07-.05-.08-.19-.15-.24-.07-.05-.21,0-.29-.06-.07-.05-.12-.13-.2-.18-.08-.05-.09-.17-.17-.22-.08-.05-.14-.1-.22-.14-.08-.05-.21,0-.28-.04-.08-.04-.19-.03-.26-.08-.08-.04-.13-.14-.2-.17-.08-.04-.12-.14-.2-.19-.08-.04-.15-.08-.24-.13-.08-.03-.2,0-.28-.03-.08-.04-.18-.04-.25-.08-.09-.03-.17-.05-.25-.08-.09-.03-.14-.13-.22-.16-.09-.03-.11-.2-.2-.24-.09-.03-.24.13-.32.09-.08-.03-.16-.08-.24-.11-.08-.03-.11-.23-.2-.26-.08-.03-.2.03-.28,0-.09-.03-.2.02-.27,0-.09-.03-.17-.06-.25-.08-.08-.03-.16-.09-.25-.12-.09-.03-.18,0-.26-.03-.08-.02-.15-.12-.25-.14-.09-.02-.17-.07-.25-.08-.09-.02-.19.03-.27,0-.09-.02-.17-.03-.26-.04-.08-.02-.18-.03-.26-.05-.09,0-.17-.08-.25-.1-.09,0-.19.1-.28.09-.09,0-.18,0-.26,0-.08,0-.17-.07-.26-.07-.09,0-.17-.08-.25-.09-.09,0-.18.09-.27.09s-.18-.06-.26-.06-.18.04-.26.04v-.03c-.09,0-.18.06-.26.06S14.67,0,14.57,0C14.49,0,14.39.08,14.31.09c-.09,0-.17.08-.26.08-.08,0-.18-.07-.27-.06-.08,0-.18-.02-.26,0-.08,0-.17.05-.26.06-.08,0-.18-.03-.27-.02-.08.02-.16.13-.25.14-.08.02-.16.08-.25.1-.08.02-.19-.06-.27-.03-.08.02-.16.09-.25.11-.08.02-.2-.08-.29-.07-.08.02-.14.16-.23.18-.08.03-.19-.03-.27,0-.08.03-.15.09-.25.12-.08.03-.2-.08-.29-.05-.08.03-.17.06-.25.08-.08.03-.14.15-.21.19-.08.03-.19,0-.27.03-.08.03-.16.08-.24.11-.08.03-.15.1-.23.14-.08.03-.14.11-.23.14-.08.03-.16.08-.24.12-.08.03-.15.09-.23.14-.08.03-.18.03-.26.07-.08.04-.19,0-.27.05-.08.04-.17.05-.25.09-.08.04-.08.23-.15.27-.08.04-.2,0-.27.05-.08.04-.17.06-.25.1-.08.04-.15.08-.23.14-.08.04-.16.08-.23.13-.08.05-.17.07-.24.12-.07.05-.07.21-.14.26-.07.05-.22,0-.3.04-.07.05-.14.11-.21.16-.07.05-.12.14-.19.19-.07.05-.06.21-.13.26-.07.06-.14.1-.2.16-.07.06-.24,0-.31.06-.07.06-.07.19-.13.25-.07.06-.18.08-.24.14-.06.06-.13.12-.2.18-.06.06-.11.14-.18.2-.06.06-.05.19-.11.26-.06.06-.13.12-.19.19-.06.07-.1.14-.16.21-.06.07-.1.14-.16.21-.06.07-.11.14-.16.21-.06.07-.23.04-.28.11-.05.07,0,.22-.05.29-.05.07-.16.09-.22.17-.05.07-.07.17-.12.24-.05.07-.08.15-.14.22-.05.07-.08.16-.13.23-.05.08-.25.04-.31.12-.04.08.06.24.02.32-.05.08-.17.1-.21.18-.04.08-.09.15-.14.23-.04.08-.1.14-.14.22-.04.08-.14.13-.18.2-.04.08-.07.16-.11.24-.04.08-.06.17-.09.24-.04.08.07.22.03.3-.03.08-.17.11-.2.19-.03.08-.03.18-.07.26-.03.08-.13.14-.16.22-.03.08.03.2,0,.28-.03.08-.08.16-.11.24-.03.08-.18.13-.2.21-.03.08-.06.17-.08.25-.03.08.09.21.07.3s-.16.14-.18.22c-.03.08.07.2.05.29-.03.08-.08.16-.09.24-.02.08-.16.14-.18.23-.02.08.15.21.14.3-.02.08-.2.14-.22.23-.02.09.05.19.04.28-.02.08-.04.18-.06.26,0,.08.08.19.07.28,0,.08-.06.17-.07.25,0,.08-.11.17-.12.25,0,.09-.03.18-.03.26v.26c0,.09.11.18.11.27s-.19.17-.19.26c0,.08.16.18.16.26,0,0-.1-.07-.13-.04,0,.09.14.22.14.31,0,.08-.03.18-.03.26,0,.09-.12.19-.12.27,0,.09.19.17.2.25,0,.09-.04.18-.03.27,0,.08-.08.18-.07.27,0,.09.07.17.08.26,0,.08.06.17.07.25.02.08.05.17.06.25.02.08.02.18.03.26.02.08.05.17.07.26.02.08.02.18.03.26.02.08.04.17.07.25.02.08.09.16.11.24.02.08-.1.2-.08.29.03.08,0,.19.03.26.03.08.12.15.15.24.03.08.03.18.05.26.03.08.19.12.22.2.03.08-.08.22-.06.3.03.08.08.16.12.24.03.08.18.12.21.19.03.08.05.17.08.25.03.08.1.14.14.23.03.08-.05.21-.02.3.03.08.06.17.1.25.03.08.16.12.2.19.04.08,0,.2.03.28.04.08.15.12.2.19.04.08.11.14.16.21.04.08.03.19.07.26.04.08.03.19.08.26.05.08.17.1.22.18.05.08.07.17.11.24.05.08.06.18.11.25.05.08.25.03.31.11.05.08-.04.25.02.32.05.07.12.13.17.19.06.07.2.08.25.14.06.07.14.11.2.18.06.07.07.17.13.24s.08.16.14.23c.06.06.17.08.23.14.06.06.05.19.11.26.06.06.11.14.18.19.06.07.24,0,.31.07.06.06.12.13.18.19.07.06.14.1.2.17.07.06.15.08.22.14.07.06.02.25.08.3.07.06.23,0,.3.05.07.05.12.14.19.19.07.05.12.14.19.19.07.05.09.18.16.23.08.05.19.04.25.09.08.05.17.06.25.11.08.05.11.16.18.2.08.04.2.02.27.06.08.05.13.13.2.17.08.04.13.13.2.17.08.04.23-.04.31,0,.08.04.08.22.16.26.08.04.14.1.23.14.08.03.18.04.25.08.08.03.14.11.22.14.08.03.19.02.27.05.08.03.19,0,.27.04.08.03.15.08.24.12.08.03.14.14.22.17.08.03.16.09.24.12.09.03.18.02.26.04.09.03.17.07.25.09.09.03.2-.05.28-.03.09.03.13.19.21.22.08.03.18.03.26.05.09.02.17.07.26.08.08.02.18,0,.27.02.09.02.18,0,.26.03.09.02.17.03.26.03.09.02.18,0,.26,0,.09.02.16.11.25.12.09,0,.2-.1.28-.08.09,0,.17.08.25.08.09,0,.16.1.25.1.09,0,.2-.16.28-.15.09,0,.17.14.25.14s.18.03.26.03c.09,0,.18,0,.26.02.09,0,.18-.05.26-.05v-.08c.09,0,.18.02.26.02s.18.08.26.08.18-.04.26-.04.18-.03.26-.03c.09,0,.18-.03.26-.03.08,0,.16-.08.25-.08.09,0,.18.03.27.02.08,0,.17-.07.25-.08.08,0,.17-.03.26-.03.09-.02.17-.03.26-.05.08,0,.2.14.29.12.08-.02.17-.06.25-.08.08-.02.14-.18.23-.2.09-.02.2.06.28.04.08-.03.18-.02.26-.04.08-.02.15-.11.24-.14.09-.03.15-.08.24-.11.09-.03.21.09.3.07.08-.03.18-.04.25-.07.08-.03.16-.08.25-.1.08-.03.14-.12.23-.14.08-.03.18-.03.26-.06.09-.03.11-.2.19-.24.08-.03.15-.09.23-.13.08-.03.21.04.29,0,.08-.03.15-.08.24-.12.08-.04.12-.14.2-.19.08-.04.22.03.3,0,.08-.04.08-.21.16-.25.08-.04.17-.06.25-.1.08-.04.17-.06.24-.1.08-.05.1-.18.17-.22.08-.04.23.02.3-.03.08-.05.08-.2.15-.25.07-.05.14-.1.21-.15.07-.05.24.03.31-.02.07-.06.09-.17.16-.23.07-.05.12-.14.2-.19.07-.06.2-.03.26-.08.07-.06.1-.16.16-.22.07-.06.11-.14.17-.2.07-.06.12-.13.19-.19.07-.06.23,0,.3-.07.07-.06.14-.12.2-.19.06-.06.03-.21.09-.28.06-.06.16-.09.22-.15.06-.06.17-.08.23-.14.06-.07.03-.21.09-.29.06-.06.13-.12.19-.19.06-.07.14-.11.2-.18s.02-.21.08-.28c.05-.07.26-.02.31-.09.06-.07,0-.22.05-.3.05-.08.17-.09.22-.17.05-.08.14-.12.2-.19.05-.07.03-.19.08-.26.05-.08.12-.14.17-.2.05-.08,0-.2.06-.28.05-.08.11-.14.15-.21.04-.08.2-.09.24-.17s.08-.16.12-.24c.04-.08.05-.17.09-.25.04-.08.02-.19.06-.27.03-.08.19-.1.23-.19.04-.08.08-.16.11-.25.03-.08,0-.19.03-.28.03-.08.09-.16.12-.24.03-.08.02-.19.05-.26.03-.08.14-.14.17-.22.03-.08.1-.15.13-.24.03-.08-.07-.21-.04-.3.03-.08.03-.17.05-.26.03-.08.11-.15.14-.23.03-.08.06-.17.08-.25.03-.08.14-.14.15-.23.03-.08-.05-.19-.03-.28.03-.08.03-.17.05-.25.02-.08.14-.15.16-.24.02-.08.03-.17.05-.26.02-.08-.13-.2-.12-.29,0-.08.06-.17.08-.25,0-.08.12-.16.13-.24,0-.09.02-.18.03-.26,0-.08-.13-.19-.13-.28,0-.08.1-.17.11-.25v-.26c0-.08.08-.18.08-.26l.02-.03ZM29.28,14.74c0,.08.05.19.05.28v.25c0,.09-.08.18-.08.26v.26c0,.08-.08.17-.09.25,0,.09.12.19.11.27,0,.08-.08.17-.09.25,0,.08.03.18,0,.27,0,.08-.07.17-.08.25,0,.09-.03.18-.04.26-.02.08.07.19.05.28-.02.08-.14.15-.15.24-.02.08,0,.18-.02.27-.02.08-.13.15-.14.24-.03.08-.06.17-.08.25-.03.08-.03.17-.05.26-.03.08.08.2.06.29-.03.08-.17.14-.2.21-.03.08.02.19,0,.28-.03.08-.04.17-.08.25-.03.08-.07.16-.1.25-.03.08-.04.17-.08.25-.03.08-.16.12-.2.2-.03.08.03.2,0,.29-.03.08-.08.15-.13.24-.04.08-.12.14-.16.22-.04.08-.02.19-.06.27s-.07.17-.11.24c-.04.08-.08.16-.13.24-.05.08-.25.06-.3.14-.04.08,0,.19-.06.27-.05.08-.07.17-.11.24-.05.08-.1.14-.15.22-.05.08-.09.15-.14.23-.05.07-.09.15-.14.22-.05.08-.14.12-.2.19-.05.08-.1.14-.15.22-.06.07-.2.07-.25.14-.06.07-.03.19-.09.26-.06.07-.09.16-.15.22-.06.07-.2.06-.25.13-.06.07-.13.12-.2.19-.06.07-.09.15-.15.22l.06.07c-.06.07-.25,0-.31.06-.07.06-.12.13-.19.19-.07.06-.07.19-.14.25-.07.06-.12.14-.19.19-.07.06-.14.12-.2.17-.07.06-.18.06-.25.12-.07.06-.14.09-.22.15-.07.05-.15.09-.22.14-.07.05-.05.24-.12.29-.08.05-.14.11-.21.16-.08.05-.24-.04-.31,0-.08.05-.14.1-.21.15-.08.04-.11.15-.19.2-.08.04-.14.1-.22.14-.08.04-.11.17-.19.2-.08.04-.2,0-.28.05-.08.04-.12.16-.2.2-.08.04-.17.07-.25.1-.08.04-.15.09-.24.13-.08.03-.2,0-.28.03-.08.03-.14.14-.21.18-.08.03-.23-.1-.31-.07-.08.03-.15.1-.23.14-.09.03-.17.05-.25.08-.09.03-.13.19-.21.21-.09.03-.19,0-.27.02-.09.03-.18.03-.26.06-.08.03-.18.02-.26.04-.08.03-.14.15-.23.18-.08.03-.21-.11-.3-.08-.08.02-.14.19-.22.21-.09.02-.2-.07-.28-.05-.09.02-.19-.04-.27-.03-.09.02-.17.03-.26.04-.08,0-.16.11-.25.13-.08,0-.16.12-.25.13-.08,0-.2-.14-.28-.13-.09,0-.18.03-.26.03s-.18-.03-.26-.03c-.09,0-.17.11-.26.12-.09,0-.18.08-.26.08-.09,0-.18-.15-.27-.15v.04c-.08,0-.18-.08-.26-.08s-.18.18-.27.18-.18-.02-.26-.02c-.09,0-.18-.05-.26-.06-.09,0-.17-.09-.26-.1-.08,0-.17-.03-.26-.03-.09,0-.17-.05-.26-.06-.08,0-.18,0-.26-.02-.08-.02-.18-.02-.26-.03-.08-.02-.17-.07-.25-.08-.09-.02-.2.07-.28.05-.09-.02-.15-.13-.24-.14-.08-.02-.16-.06-.25-.08-.08-.02-.18,0-.26-.03-.08-.03-.18-.03-.26-.04-.08-.03-.19,0-.27-.02-.09-.03-.18-.03-.26-.05-.09-.03-.14-.15-.22-.19-.08-.03-.16-.06-.25-.09-.08-.03-.2.03-.29,0-.08-.03-.11-.2-.2-.24-.08-.03-.2.03-.29,0-.08-.03-.14-.12-.22-.15-.08-.03-.21.03-.29,0-.08-.03-.14-.12-.22-.16-.08-.04-.13-.14-.2-.18-.08-.04-.2,0-.28-.04-.08-.04-.16-.07-.24-.12-.08-.04-.11-.15-.19-.2-.08-.04-.11-.16-.18-.2-.08-.05-.21.02-.29-.03-.08-.05-.09-.18-.17-.23-.08-.05-.21,0-.29-.06-.07-.05-.05-.22-.13-.27-.07-.05-.2-.03-.26-.08-.07-.05-.08-.18-.15-.24-.07-.06-.17-.07-.24-.12-.07-.06-.1-.16-.16-.22-.07-.06-.16-.08-.22-.14-.07-.06-.11-.14-.17-.2-.07-.06-.21-.03-.28-.09-.06-.06-.08-.18-.14-.24l-.02.02c-.06-.06-.12-.13-.18-.19-.06-.06-.1-.14-.16-.2-.06-.07-.08-.16-.14-.23-.06-.07-.2-.06-.25-.13-.06-.07-.14-.11-.2-.18-.06-.07-.07-.17-.13-.24-.06-.07-.18-.08-.23-.16-.05-.07-.09-.15-.14-.23-.05-.07-.12-.13-.17-.2-.05-.08.03-.24-.03-.3-.05-.08-.09-.15-.14-.23-.05-.08-.17-.09-.22-.17-.04-.08-.06-.17-.11-.25-.05-.08-.18-.1-.22-.18-.04-.08-.07-.17-.11-.25-.04-.08-.02-.19-.06-.27-.04-.08-.16-.12-.2-.19-.04-.08-.08-.16-.12-.24-.04-.08-.05-.17-.08-.25-.04-.08,0-.19-.05-.27-.03-.08-.17-.12-.2-.19-.03-.08-.07-.17-.1-.24-.03-.08-.03-.18-.05-.26-.03-.08-.09-.15-.13-.24-.03-.08-.07-.16-.09-.25-.03-.08.07-.2.03-.29-.03-.08-.05-.17-.08-.25-.03-.08-.05-.17-.08-.25-.03-.08-.04-.17-.06-.25-.03-.08-.05-.17-.08-.25-.02-.08.03-.19,0-.27-.02-.08-.15-.15-.17-.24-.02-.08.03-.19.02-.27-.02-.08-.04-.17-.05-.26-.02-.08,0-.18,0-.27,0-.08-.1-.16-.12-.25,0-.08.05-.18.03-.27,0-.08-.08-.17-.08-.25,0-.08.06-.19.05-.27,0-.08-.15-.17-.15-.26,0-.08.07-.18.07-.27s.04-.18.04-.26h-.11c0-.08.18-.18.18-.26s-.12-.18-.12-.27.03-.17.03-.26c0-.08.04-.17.05-.26,0-.08-.05-.18-.03-.27,0-.08.08-.17.09-.25,0-.08-.03-.18,0-.27,0-.08.08-.17.08-.25,0-.08.03-.18.03-.26.02-.08.05-.17.07-.25.02-.08.03-.18.05-.26.02-.08.03-.17.05-.25.02-.08.07-.16.09-.24.02-.08.04-.17.07-.25.03-.08-.12-.22-.09-.3.03-.08.13-.14.15-.23.03-.08-.02-.19,0-.28.03-.08.14-.14.17-.22.03-.08,0-.19.04-.26.03-.08.03-.18.07-.26.03-.08.15-.13.19-.21.03-.08,0-.19.04-.27.03-.08.19-.11.23-.19.03-.08,0-.19.05-.27.03-.08.03-.19.06-.26.04-.08.04-.18.08-.25.04-.08.22-.08.26-.16.04-.08.08-.16.12-.24.04-.08.11-.14.15-.21.04-.08,0-.22.03-.29.05-.08.09-.15.14-.23.05-.07.07-.17.12-.24.05-.08.13-.13.18-.2.05-.07.16-.09.22-.17.05-.07.06-.18.11-.25.05-.07.13-.13.18-.19.06-.07.12-.14.17-.2.06-.07.09-.16.14-.22.06-.07.17-.08.23-.15.06-.07.06-.19.13-.25.06-.07.12-.13.18-.19.06-.07.16-.09.22-.15,0,0,.03.03.04.02.06-.07.11-.12.18-.18.06-.06.13-.12.2-.18.07-.06.02-.24.08-.3.07-.06.22-.02.29-.08.07-.06.13-.12.2-.18.07-.06.14-.1.21-.16.07-.05.08-.18.15-.23.07-.05.13-.12.2-.18.07-.05.14-.11.21-.16s.14-.12.2-.17c.08-.05.18-.05.25-.1.08-.05.2-.02.27-.06.08-.05.08-.22.15-.26.08-.04.15-.09.23-.14.08-.04.17-.06.25-.1.08-.04.19-.03.26-.08.08-.04.18-.04.25-.08s.19-.03.26-.07c.08-.03.08-.24.16-.28.08-.03.2,0,.28-.03.08-.03.2.02.28-.02.08-.03.11-.21.19-.24.08-.03.15-.1.24-.14.08-.03.2.02.28-.02.08-.03.14-.12.23-.14.08-.03.22.11.31.08.08-.03.14-.13.23-.15.08-.03.19.03.28,0,.08-.03.16-.07.25-.09.08-.02.16-.08.25-.1.08-.02.18-.03.26-.04.08-.02.16-.08.25-.09.08-.02.19.02.27,0,.08-.02.15-.15.25-.16.08-.02.19.06.28.04.09,0,.18.04.27.03.09,0,.17-.08.25-.08.09,0,.18-.04.26-.05h.27c.09,0,.17-.06.26-.06s.18.09.26.09.18-.07.26-.07v.03c.09,0,.18-.1.27-.1.09,0,.17.19.25.19.09,0,.18-.02.26-.02.09,0,.18,0,.26.02.08,0,.19-.1.27-.09.09,0,.16.15.25.16.09,0,.18-.03.26-.02.08,0,.19-.07.27-.05.08.02.18.02.26.03.09.02.17.07.25.08.09.02.16.11.25.13.08.02.2-.08.28-.07.09.02.14.16.23.19.08.02.19-.02.27,0,.08.03.18,0,.26.03.09.03.15.1.24.14.09.03.15.11.24.14.09.03.2-.03.28,0,.08.03.2,0,.28.02.09.03.13.16.21.19.08.03.17.04.25.08.08.03.16.07.25.1.08.03.2,0,.28.03.08.03.16.08.24.12.08.04.13.14.21.18.08.04.12.16.2.2.08.04.16.06.25.11.08.04.13.13.2.18.08.04.2,0,.27.06.08.04.2,0,.28.04.08.05.14.11.21.15.08.05.05.24.13.29.08.05.14.11.2.16.08.05.21,0,.28.06.07.05.17.06.25.12.07.05.13.13.2.18.07.05.17.08.24.14.07.06.08.17.15.23.07.06.13.13.19.19.07.06.18.07.25.13.07.06.09.16.16.22.07.06.13.13.19.19l-.08.08c.06.06.16.08.22.15.06.06.09.15.15.22.06.07.25.02.31.08.06.07-.03.27.03.33.06.07.13.12.19.19.06.07.12.14.17.2.06.07.2.07.25.14.06.07,0,.21.06.29.05.08.11.14.16.21.05.08.23.05.28.13.05.08-.03.23.02.3.05.08.07.16.12.24.04.08.25.06.29.13.05.08-.05.24,0,.31.04.08.12.14.16.21.04.08.12.14.16.21.04.08,0,.19.05.27.03.08.08.15.12.24.03.08.09.15.13.23.03.08.15.13.19.2.03.08,0,.19.04.27.03.08.05.17.09.25.03.08.13.14.16.22.03.08.09.15.13.24.03.08,0,.19.03.27.03.08,0,.19.03.27.03.08.13.14.15.23.03.08.09.16.12.24.03.08-.09.2-.08.3.03.08.05.17.08.25.02.08.13.15.14.24.02.08-.04.19-.03.28.02.08.15.15.17.24.02.08-.04.19-.03.27.02.08.04.17.06.26,0,.08.05.17.06.26,0,.08.02.18.03.26,0,.09.02.18.03.26,0,.08.05.18.05.26,0,.09.03.18.04.26,0,.08-.1.18-.1.26l.05.03Z"/>
      <path class="st0" d="M7.08,5.5s.03.05.03.07c.03.11.04.14.05.16,0,0,.02.02.03.04.02.02.03.04.05.07,0,0,0,0,.02.04,0,.03.03.06.04.08,0,.02.03.03.04.04,0,0,0,.03.02.07.02.08.03.11.04.13,0,0,.02.02.03.03,0,0,.02,0,.03.02,0,0,0,.02,0,.03,0,.03,0,.06.02.08,0,.02.03.03.06.05.02.02.03.03.03.03,0,.03.02.08.06.13,0,0,.03.03.08.15.04.09.08.17.12.22,0,.03,0,.05.02.07,0,0,.02.03.04.04,0,0,.02.02.03.03.03.05.07.06.09.06s.05-.02.06-.02c0,0,0,0,.03-.03.03,0,.06,0,.08-.03.1-.08,0-.24-.03-.32-.04-.08-.09-.15-.14-.22,0,0,0,0-.02-.05,0-.05-.03-.08-.04-.11,0-.02-.03-.03-.05-.05-.02-.02-.03-.03-.03-.03,0,0,0,0,0-.02-.03-.07-.07-.14-.11-.22,0-.03-.03-.07-.06-.11,0,0,0,0-.02-.03,0,0,.02.02.02.03.02.03.04.05.09.05h0s.03.03.04.04h.03s0,0,0,.02c.02.03.05.03.08.03.02,0,.03.03.05.03.02,0,.03.02.03.03,0,0,.02.02.03.03.08.04.13.07.16.08.04.05.11.09.2.13.11.04.14.07.14.08.03.04.08.06.15.06s.12,0,.15-.03c.03-.03.08-.08.07-.19,0-.05-.02-.1-.04-.14h0s.02-.06,0-.08l-.03-.08v-.03s0-.07-.02-.09c0-.02,0-.03,0-.04,0,0-.02-.04-.03-.12,0-.06-.03-.11-.04-.14v-.03s-.02-.06-.03-.08v-.05s0-.03-.03-.06v-.05c0-.06-.02-.12-.05-.18h.02s0,.02.02.02c0,.03,0,.04.03.06.02.02.04.03.06.03l.03.03s.03.03.07.04c0,.03.02.04.03.05,0,0,.02.02.04.04.02.02.03.04.05.06.02.02.04.04.08.05,0,.03.02.04.03.05.02.02.03.03.1.07,0,0,.06.03.18.19.02.02.04.04.09.04,0,0,0,0,.02.02.05.05.1.03.11.03.02,0,.03-.02.03-.03.02-.03.03-.05.07-.08.03-.02.04-.04.04-.08,0-.04-.03-.08-.05-.12v-.03s0-.03-.02-.03c0-.02-.03-.03-.07-.04,0,0,0-.03-.02-.03-.02-.03-.04-.03-.08-.04-.03-.03-.08-.08-.14-.13-.08-.07-.11-.09-.11-.09v-.02s-.02-.04-.03-.06c-.03-.03-.08-.08-.14-.14-.06-.05-.11-.09-.13-.13-.02-.03-.04-.04-.08-.05l-.02-.02s-.02,0-.03-.02c0-.02,0-.03-.02-.04,0-.02-.03-.03-.06-.04,0,0-.02-.02-.04-.04t0,0s-.04-.04-.06-.06c-.02-.02-.03-.03-.06-.06-.02-.02-.03-.03-.04-.04-.03-.03-.06-.05-.11-.08,0,0-.02,0-.03,0,0-.02-.02-.03-.03-.03-.03,0-.05,0-.08,0,0,0-.02,0-.03.02-.03,0-.04.03-.06.03-.04.03-.08.09-.06.21l.03.12c-.03.08,0,.11.03.12,0,.03.03.09.06.2-.02.03-.02.06,0,.08,0,0,.02.03.03.07h0c-.03.06,0,.11.03.15v.04c0,.05,0,.08.03.1,0,0,.02.02.03.03v.15s.04.11.08.19c0,0,0,.05.02.07v.03s-.03-.02-.03-.03c-.08-.05-.1-.08-.12-.09-.02-.02-.03-.03-.06-.03,0-.02-.04-.03-.2-.13-.14-.08-.18-.11-.18-.11-.03-.03-.06-.05-.1-.05h-.03s-.05-.03-.13-.1c0,0-.03-.02-.04-.02,0,0-.02,0-.07-.03v-.02s-.04-.05-.07-.05c0,0-.03,0-.07-.03-.03-.02-.04-.03-.04-.03-.02-.03-.06-.06-.14-.05-.05,0-.09,0-.12.03,0,0-.02,0-.03.03-.03,0-.04.03-.06.04-.02.03-.02.07,0,.09,0,0,0,.03.03.05l.04.08Z"/>
      <path class="st0" d="M10.04,3.75v.07s.02.04.04.08c.02.03.03.05.03.07v.03s0,.04.02.06c0,.03.03.06.05.11.03.04.03.07.04.08,0,0,0,.03,0,.06,0,.05.02.08.02.08,0,.02.02.03.05.06v.03s0,.05.02.07c0,.02.02.03.03.07,0,.02.02.03.02.03h0s0,.05,0,.06c0,.02.03.05.05.09.02.03.03.04.03.05v.06s.02.03.03.05c0,.02,0,.03.02.03-.02.03-.02.06,0,.08.05.07.06.08.06.09,0,.02.02.03.03.05,0,.03,0,.03,0,.04,0,.03.03.04.06.06.02,0,.03,0,.05,0,.03,0,.07,0,.11-.03h.07s.03-.02.03-.03c0,0,.04-.03.06-.04h0s.02,0,.06-.02c.04,0,.07,0,.09-.02.03-.02.07-.03.09-.07h.05s.02,0,.03-.03h.06s.03-.02.05-.03c0,0,.02,0,.07,0,.05,0,.08-.02.11-.03.02,0,.03-.03.05-.04.02,0,.03,0,.03,0,.06-.03.1-.08.13-.17v-.05s-.02-.03-.03-.03v-.03c-.04-.1-.12-.11-.17-.09,0,0-.02,0-.03.02h-.06s-.04.02-.06.03h-.03s-.04.03-.08.05c-.02,0-.03.02-.03.02-.03,0-.06,0-.09,0-.02,0-.03.02-.04.03,0,0-.02,0-.03,0-.02,0-.03.02-.04.03-.03,0-.06,0-.08,0-.03,0-.05.03-.07.06h-.14s-.02-.03-.03-.05c0-.02-.02-.03-.03-.05h0v-.03s0-.06-.02-.08c-.02-.03-.03-.05-.03-.07,0,0,0-.03-.02-.05,0-.03-.02-.04-.02-.06.02,0,.04,0,.05-.02,0,0,.03-.03.07-.06,0,0,.03-.02.03-.03.04.02.07,0,.09,0,.02,0,.04-.03.07-.05.02-.02.03-.02.03-.02h.03s.05,0,.07,0c.02,0,.03-.02.05-.03h.09s.03-.02.04-.03c.02,0,.03,0,.04,0l.05-.03s.03-.03.03-.04c.05-.02.09-.08.05-.17-.05-.13-.16-.18-.29-.13-.02,0-.03.02-.05.04h-.1s-.04.03-.05.05c-.02,0-.03,0-.04,0-.02,0-.03.02-.04.03-.03,0-.06.02-.08.03h-.07s-.03.03-.06.04h0s-.08,0-.09.04c-.03,0-.04,0-.05,0v-.06s-.02-.03-.03-.05c0-.03,0-.06,0-.08,0-.02-.03-.04-.05-.08-.02-.02-.02-.03-.03-.04.02,0,.03-.02.06-.04,0,0,0,0,0,0h.09s.03,0,.03-.03h0l.04-.03s.03-.02.06-.04h.09s.03,0,.04-.03h.04s.04-.03.06-.05c.02,0,.04-.02.08-.03.04,0,.08-.02.1-.03.07-.03.1-.05.12-.08.03-.05,0-.1,0-.14v-.02s0-.05,0-.07h0s-.02-.04-.03-.05l-.06-.03h-.05s-.03,0-.04.03c0,0-.03,0-.07.02-.05,0-.09.02-.1.02-.03,0-.03.03-.04.04-.02,0-.03,0-.08.02-.05,0-.09.02-.11.03,0,0-.02,0-.03.03-.03,0-.05,0-.07,0,0,0-.02,0-.05.03-.02,0-.03,0-.03.02h0s-.04,0-.05.02h0s-.03.02-.03.03c-.02,0-.05,0-.08,0-.03,0-.05.03-.06.07h0s-.06,0-.07.02c-.03.02-.06.04-.08.08-.03.05-.02.09,0,.12,0,0,0,.03.02.03l-.05.03Z"/>
      <path class="st0" d="M12.6,2.96s0,.03.02.04v.03l.04.25s0,.04.02.08c0,.03,0,.05.02.07v.04s.02.04.03.06c0,.02,0,.03,0,.03,0,.03-.02.05,0,.08,0,.02,0,.03.02.04v.04c.02.06.03.08.03.09v.18s.02.05.03.08c-.02.03-.02.05-.02.08t.03.07c0,.09,0,.11,0,.13,0,.03.02.04.03.06v.04s0,.02,0,.03v.02s.03.02.03.03c.02.05.06.08.11.08h0s.05,0,.08-.02c.02,0,.03,0,.04,0,.03.02.06.02.09.02s.05-.02.08-.04h.07s.05-.02.08-.04h0s.06.02.09,0h.03s.03-.02.03-.03h.02s.06-.03.07-.06h0s.05,0,.07-.03c0,0,.02,0,.07-.04.06-.03.09-.06.11-.09v-.02h.03s.07-.03.09-.08c.02-.05.04-.09.08-.15.02-.02.02-.04.02-.06v-.02s0-.02,0-.03c0-.02,0-.04,0-.07v-.02c0-.05,0-.11,0-.16.02-.08.02-.17,0-.25,0-.03-.02-.05-.04-.08,0-.03-.03-.09-.06-.17-.04-.1-.04-.12-.04-.13,0-.04-.03-.08-.06-.09h-.04s-.03-.03-.05-.05c-.06-.06-.07-.08-.07-.08-.02-.03-.04-.04-.16-.08l-.14-.04h-.07s-.08-.03-.14-.02h-.12s-.06-.04-.09-.03c-.02,0-.03.02-.07.03-.03,0-.05,0-.09,0-.02,0-.03,0-.04,0h-.17s-.06.03-.09.08c-.03.05-.04.08-.03.13,0,0,0,.06,0,.08h.02ZM13.29,3.05s.03,0,.05-.03c.03,0,.04,0,.06,0,0,0,.03,0,.03,0,.02,0,.07.02.17.13.13.14.15.2.15.23,0,.02,0,.03.03.06,0,.03,0,.05,0,.07,0,.02,0,.03.03.06,0,.02,0,.02,0,.03v.04s0,.05,0,.08v.09s-.02.04-.02.04c-.03,0-.05.04-.05.07-.02,0-.04.03-.06.03-.02,0-.03.03-.03.04,0,0,0,.02,0,.03h-.02s-.03,0-.03.02l-.03.03h-.03s-.03.03-.05.05h-.05s-.06.02-.08.04h0s-.05,0-.07,0c-.03,0-.04.02-.05.03v-.03s0-.04-.03-.07h0s.02-.05,0-.07c0-.03-.02-.05-.04-.08,0-.03.02-.05,0-.1,0,0,0-.03-.03-.14v-.07c-.03-.08-.03-.14-.04-.19,0-.02,0-.03-.03-.05,0-.02,0-.03,0-.06,0-.02,0-.03-.02-.04,0-.02.02-.04.02-.07,0-.02,0-.03-.03-.06,0-.02,0-.03,0-.03,0-.02,0-.03-.02-.04,0,0,0-.03.02-.03v-.03h.06s.03,0,.07-.03c0,0,.03,0,.03,0,.03.03.08.04.11.03v.03Z"/>
      <path class="st0" d="M15.52,4.29c0,.05.02.08.04.09.02,0,.04.03.08.02.02,0,.03.02.05.02,0,0,.03,0,.04,0,0,0,.07-.02.09-.04l.03-.03s.02-.02.02-.03v-.07s.04-.06.04-.08c0-.02,0-.04,0-.07h0s.02-.05.02-.08,0-.05-.03-.08c0-.03.02-.05.02-.07v-.15s.03-.04.03-.07c0-.02,0-.03-.02-.07,0-.03,0-.05,0-.08v-.03s0-.05,0-.07v-.02s.03-.06.03-.08c0-.02,0-.03,0-.03v-.29s0-.04,0-.05c0-.02,0-.03,0-.05.03-.03.03-.05.03-.08,0-.02,0-.04,0-.07v-.04s0-.04,0-.06c0-.07-.02-.12-.05-.15-.03-.03-.08-.05-.14-.05-.02,0-.03,0-.04.02h-.07s-.06.05-.07.08c0,.03,0,.05,0,.08v.05s-.02.04-.02.06c0,.03,0,.04.02.08v.03s0,.04,0,.06v.28s-.02.03-.02.05v.08s-.02.05-.02.08c0,.03,0,.08,0,.14,0,.04,0,.08,0,.09s-.02.03-.02.06v.06s0,.02,0,.02c0,.02,0,.03,0,.07,0,.04,0,.07-.02.09v.07c-.03.09-.03.13-.03.14s0,.03,0,.05c0,0,0,.02-.02.03v.03s0,.04.02.07v.02h-.02Z"/>
      <path class="st0" d="M17.22,4.02s0,.08.03.14c0,.02.02.03.02.03,0,.03,0,.08.08.14,0,.02,0,.04.02.06.02.03.04.03.07.03,0,0,.03.03.05.04,0,.04.02.09.07.1h.04s.09.07.13.08h.06l.03.02s.02.02.03.02h.07s.04.02.06,0h.03s.05.04.07.05h.08s.07.02.1,0c0,0,.02.02.03.02h.02s.06-.02.1-.03c0,0,.03,0,.03-.02h.03s.08,0,.12-.05c0,0,.02-.02.02-.03h.03s.08-.05.08-.08v-.03s.04-.03.05-.07v-.05h0v-.04s-.03-.04-.04-.05c0,0-.03-.03-.07-.06,0,0-.02,0-.03-.02-.03,0-.06,0-.09,0-.03,0-.06.02-.08.04-.02,0-.03,0-.05,0-.02,0-.03.03-.03.05,0,0-.02.02-.08.03-.05,0-.09,0-.12,0,0-.02-.03-.03-.05-.03h-.09s-.03,0-.11-.04c-.03-.02-.06-.03-.07-.03,0-.02,0-.03-.03-.05,0-.02-.02-.03-.03-.03-.03-.02-.08-.04-.11-.07-.03-.02-.03-.03-.02-.03,0-.02,0-.04-.02-.16-.02-.08-.02-.1-.02-.1.02-.02.02-.03.03-.05,0-.03,0-.06-.02-.11,0,0,0-.02,0-.03.02-.03.03-.08.05-.11.02-.02.03-.03.03-.06v-.03s0,0,.02-.02c.03-.02.03-.04.05-.09,0,0,0-.04.15-.1.14-.06.2-.06.22-.05.02,0,.03,0,.03.02.02.02.04.03.07.03h.06s.03.03.04.03h.03s.03.02.04.02.03.02.04.02c0,.02.03.04.04.06,0,0,.02.02.03.02h.02v.04s.02.03.03.04c0,.03.03.06.06.11.04.06.08.08.12.09.06.02.11,0,.15-.02.03-.02.07-.05.09-.12v-.14s0-.03-.03-.05l-.02-.03s0-.06-.02-.08c-.02-.02-.03-.03-.05-.03,0-.02,0-.03-.02-.07,0-.03-.03-.04-.05-.05-.02-.05-.06-.07-.08-.08h-.06s-.06-.05-.09-.06l-.02-.02s-.06-.04-.08-.05c-.02,0-.05,0-.09,0h-.04l-.06-.06s-.06-.03-.09,0c0,0-.03.02-.08,0-.05-.02-.08-.03-.12-.02-.02,0-.03-.02-.04-.02s-.08,0-.11.06c-.02,0-.04.02-.09.04-.05.03-.07.03-.08.03-.05,0-.08.03-.11.07,0,.02-.02.03-.03.03-.02.02-.03.04-.04.07,0,0-.02.02-.04.04-.06.05-.09.08-.09.11v.03s-.02.03-.05.08c-.06.08-.07.09-.07.12v.08s-.03.04-.03.07c0,.03,0,.05,0,.09s0,.07,0,.08v.08h0s0,.05,0,.07v.02s-.02.03-.02.04c0,.03,0,.06.02.08h0s0,0,0,0Z"/>
      <path class="st0" d="M19.66,5.26s.04.05.06.06c.08.04.18,0,.37-.19.12-.12.18-.15.2-.16,0,0,.03,0,.03.02,0,.02.02.04.04.05h.02l.14.04s.03.06.06.07h.03s.06,0,.06.02h.02l.02.03s.02.02.03.03h.02s0,.03,0,.03c0,.02,0,.03-.02.04v.04c.03.06.03.11,0,.18-.03.04-.03.09,0,.14v.03c-.03.07,0,.13.11.19.02,0,.04.02.07,0h.07s.08-.02.09-.06c0-.03.02-.05.02-.09v-.03s.03-.09.03-.15c0-.05,0-.08.02-.09,0,0,0-.07,0-.09.02-.03.02-.05.02-.08,0,0,.02-.02.02-.03.02-.03.02-.06,0-.13v-.08s0-.07,0-.11c0,0,0,0,.02-.04,0-.02,0-.03,0-.15v-.11s.03-.06.03-.12c0-.04.02-.08.03-.1v-.02s.02-.05,0-.07c0,0,0,0,0-.02v-.04s.02-.05,0-.07c.02-.03.03-.06,0-.08v-.02s.02-.03.02-.09v-.06s0-.06-.03-.08c-.03-.03-.06-.04-.08-.05,0,0-.02-.02-.03-.02-.06-.03-.13-.02-.22.03-.09.05-.14.09-.16.14v.02c-.06.04-.09.07-.11.09-.02,0-.05.02-.07.04,0,.02,0,.03,0,.04-.02,0-.03.02-.06.03-.09.03-.14.08-.16.12,0,.02,0,.03,0,.05,0,0-.02,0-.04.02,0,0-.02,0-.03,0-.03.02-.05.04-.07.07v.03s-.03,0-.05.02c-.03,0-.04.02-.05.04l-.03.07s-.03.02-.04.03c-.03.02-.05.05-.08.08,0,0,0,0-.03,0-.04.02-.08.03-.09.07,0,.02,0,.04,0,.06,0,0-.03.02-.05.03-.06.03-.11.06-.14.1-.03,0-.04.03-.06.05,0,.02,0,.03,0,.08v.03s0,.06.03.08c0,0,0,0,.03.03h.04ZM20.85,4.51s-.02.05,0,.08c0,0,0,.02-.03.03-.03.03-.03.06-.02.09,0,0,0,.02.02.03,0,0,0,.02,0,.03h0v.03s0,.03,0,.05c0,0-.02,0-.03,0h-.03s-.02-.02-.03-.03c-.02,0-.03,0-.05,0,0-.02-.03-.04-.05-.06-.02,0-.03,0-.05-.02,0,0,0-.02,0-.03v-.03s.02,0,.02,0c.02,0,.03,0,.05-.02.05-.03.09-.07.1-.11,0,0,0,0,.04-.03.03-.02.05-.03.07-.05v.04s0,0,0,.02h0Z"/>
      <path class="st0" d="M21.94,6.63s.02.03.03.04c.05.03.07.03.07.03,0,0,.03.02.04.02,0,.03.03.05.05.06.04.03.08.05.1.08,0,.02,0,.05.03.08.02.02.04.02.07.02,0,0,0,0,0,.02.02.03.03.06.05.08.03.03.06.03.08.03,0,0,.02.02.03.04.03.03.04.05.06.07.02,0,.03.02.05.02.02.03.03.04.04.05,0,0,.03.03.06.04.03.02.03.03.05.03.06.05.08.06.08.07.03,0,.05.02.07.02.04,0,.08-.02.1-.05,0,0,0-.02.02-.03v-.03h0l.03-.02h0s.03-.08.03-.1c0-.02-.02-.05-.06-.07-.03-.03-.05-.06-.05-.07,0-.02-.02-.03-.03-.04-.06-.03-.08-.06-.1-.07,0-.02,0-.03-.03-.04-.03-.02-.06-.03-.09-.03v-.02s-.03-.06-.05-.08l-.04-.03-.03-.02s0-.02-.02-.03c0,0-.02-.02-.03-.02,0,0,0-.02-.02-.03,0,0,0,0-.02,0,0-.03-.02-.04-.03-.06,0,0-.03-.02-.05-.02,0,0-.03-.02-.03-.02h-.02l-.02-.03s-.02-.03-.03-.03l-.03-.02v-.03s.02-.02.03-.03c.03-.02.04-.04.05-.05.02-.02.03-.04.03-.08.03-.02.04-.03.06-.04.02-.02.03-.04.05-.08,0-.02.02-.03.02-.03.03,0,.05-.02.07-.03,0,0,.02-.03.02-.04.03,0,.06-.03.08-.04.04-.05.07-.1.08-.16.04-.02.06-.03.08-.04,0-.02.02-.03.03-.06.02,0,.03-.02.04-.03.03,0,.04-.02.06-.03.02-.02.04-.05.07-.09.03-.05.04-.07.05-.08h0s.05-.03.07-.04c0,0,.02-.03.03-.07,0-.03.02-.03.02-.03.03-.04.04-.09.02-.14,0,0,0-.02-.02-.03h-.02v-.03s-.02-.03-.03-.03h-.02v-.02s-.03-.03-.03-.03l-.06-.02s-.06,0-.08.02h0s-.04.02-.05.03c0,0-.02.03-.03.04-.03.02-.06.03-.08.05s-.03.05-.06.09c-.03.04-.03.06-.04.07l-.03.03s-.04.03-.05.05c-.02.02-.03.04-.05.08-.03.03-.03.05-.03.05,0,0-.03.03-.06.05-.05.04-.08.06-.08.07-.02.02-.03.04-.05.08-.02.03-.03.05-.03.05-.03,0-.04.03-.06.04,0,.02-.03.03-.03.06v.02l-.14.16c-.04.05-.07.08-.08.08-.03,0-.07.03-.08.07-.03,0-.05.02-.06.03-.02.02-.03.03-.03.07v.02c-.05.06,0,.14,0,.16.03.03.03.06.04.07h-.03Z"/>
      <path class="st0" d="M9.99,24.61l-.04-.03s-.07-.02-.09,0l-.06.05s-.02,0-.03.02c-.02,0-.03,0-.06.02-.02,0-.03.02-.03.03-.02,0-.03,0-.03.02,0,0-.03.02-.03.03,0,.02-.02.04-.03.07-.02,0-.05,0-.07.03,0,0,0,0-.02.02,0,0-.02.02-.06.05,0,0-.02.02-.03.03,0,0,0,.02,0,.03-.03.02-.07.04-.13.08-.11.08-.18.14-.21.19l-.12.03s-.03.02-.04.03c0,.02-.02.03-.02.05,0,0-.02,0-.03.02,0-.02.02-.03.03-.04.03-.03.03-.08,0-.13,0,0,0-.02.02-.03.02-.03.03-.04.04-.05h0s.02-.08,0-.12h0s.06-.09.06-.09c0,0,.04-.05.04-.06.02-.03.03-.06.03-.11,0-.03.02-.05.03-.08,0,0,0-.02,0-.03v-.04s0-.02,0-.03v-.03s.02-.03.02-.03c0-.03,0-.07.02-.1,0-.03.02-.04.03-.08v-.02s.02-.05,0-.08c.03-.04.03-.09.03-.14,0-.04-.03-.08-.07-.1,0,0-.02,0-.03-.02,0-.02-.03-.03-.03-.03-.07-.05-.16.02-.24.08-.06.05-.08.07-.1.08h-.05s-.05.03-.06.05c0,0-.05.03-.08.07,0,0-.03.03-.05.03-.03,0-.05.02-.06.04,0,0,0,0-.03.03-.02.03-.03.03-.04.04l-.04.03s-.08.05-.14.12c-.04.04-.06.07-.08.08h-.07s-.03.02-.07.07v-.03s0,0,0-.02c0-.02.02-.03.02-.06l.02-.03s0-.02,0-.03,0-.03.03-.08c.02-.07.03-.09.04-.11.02-.03.03-.06,0-.12,0,0,0-.02.03-.04.02-.02.03-.06.05-.16,0-.05.03-.1.05-.14.03-.03.02-.08.02-.1h0s.02-.03.03-.04c.02-.02.03-.04.03-.07s0-.05-.02-.07c0-.02,0-.03.02-.04,0-.03,0-.04,0-.06l-.02-.03s0-.02-.02-.03c0,0,0,0-.02-.02-.02,0-.03-.02-.09-.03-.05,0-.09-.02-.13,0-.02,0-.03.03-.03.05v.02s-.03.03-.04.04c-.02.03-.03.07-.04.13,0,.03-.02.06-.03.08-.02.03-.03.05-.03.11,0,.03-.02.07-.04.09,0,0-.02.03-.08.24-.04.13-.06.19-.06.21-.06.12-.1.2-.08.25,0,0,0,0-.03.02-.02,0-.03.03-.03.05s0,.03,0,.05c-.03.03-.03.08-.02.11-.02,0-.03.03-.03.03-.02.02-.02.04-.02.06,0,0-.02.02-.03.03-.02.03-.02.05,0,.07,0,0,0,0,0,.02v.03s-.02.03,0,.05c-.03.05,0,.11,0,.13.03.04.04.08.07.08.02.02.04.02.06.02s.03,0,.04,0c0,0,.03-.02.08-.03h.07s.05-.03.08-.07c.02-.02.03-.03.03-.03.09-.04.12-.06.14-.09v-.03s.05-.03.08-.05c.04-.03.07-.06.09-.09,0,0,0-.02.06-.04.07-.04.08-.05.1-.07,0-.02.04-.04.11-.11.08-.07.11-.08.11-.08.04,0,.07-.04.09-.08,0-.02.03-.03.03-.05.03,0,.04,0,.06-.03h0c0,.08-.02.1,0,.09l-.03.03s-.03.03-.04.05c-.02.02-.03.05-.03.1,0,.03,0,.04-.02.05,0,0-.02.02-.03.03-.02,0-.03.03-.03.05v.03s-.03.03-.03.05v.08h0s-.03.03-.03.05c0,.02,0,.04,0,.05-.02,0-.03.02-.04.03,0,.02-.02.03-.02.06-.02,0-.03.03-.03.03-.02.03-.02.04-.02.12,0,0,0,.02-.02.02-.02.02-.03.05-.05.14,0,.03-.02.07-.02.08-.02.03-.02.06,0,.1-.03.05,0,.08,0,.1,0,0,.02.02.03.02,0,0,0,0,.02,0h0s.03.05.05.06c.02.02.04.02.06.02.04,0,.08-.02.12-.03.06-.03.11-.07.14-.11,0,0,0-.02.06-.04.07-.03.09-.05.11-.07,0-.02.03-.03.04-.06,0-.02.02-.03.02-.03.03-.02.06-.03.1-.04.03,0,.04-.03.05-.06l.04-.03s.02-.02.03-.03h.03s.04-.03.05-.04v-.02c.06-.03.11-.06.17-.09.08-.05.13-.1.16-.14,0,0,.02-.03.05-.04.04-.03.08-.06.09-.08,0,0,0,0,.04-.03.03-.02.06-.04.08-.07.02,0,.04,0,.05-.03,0,0,0-.02.04-.03.04-.03.07-.05.08-.07,0,0,0-.02,0-.03v-.03s0-.02,0-.03c0-.05-.02-.08-.03-.11-.02-.02-.04-.04-.09-.06l.06.08Z"/>
      <path class="st0" d="M12.27,25.6s-.03-.03-.04-.03c0,0-.03,0-.04,0,0,0-.03,0-.06-.03-.04-.03-.07-.04-.09-.05-.03,0-.05,0-.06,0-.02,0-.03-.02-.07-.03-.04-.03-.08-.04-.1-.05h-.04s-.03-.03-.05-.04c0,0-.03,0-.06,0-.02,0-.03,0-.04,0h0s-.03-.02-.05-.03h-.05s-.03-.05-.05-.06c-.03,0-.06,0-.09,0h0s-.05-.03-.06-.03c-.03,0-.08,0-.11,0-.05.03-.08.06-.08.08v.03s-.04.04-.04.06-.02.05-.02.08,0,.06-.02.07l-.02.03s-.03.04-.03.06c0,.03-.02.07-.03.12,0,.04-.02.08-.03.09,0,0-.02.03-.03.05q-.03.06-.04.07v.08s0,0,0,.02c-.02.03-.03.04-.03.06,0,.02,0,.04-.02.07v.03h0s-.03.04-.03.06,0,.04-.03.11c0,.03,0,.05,0,.06-.03.03-.03.03-.03.05v.06s0,.03-.02.03c-.03,0-.05.03-.05.06,0,.08-.02.1-.02.11v.06s-.02.03-.03.04c0,.03,0,.05,0,.08.02.03.06.07.13.09.02.02.03.03.05.03h.05s.04,0,.06.02h.02s.02,0,.05.03c.03.03.06.03.09.04.03,0,.08.02.12,0,.02.02.03.03.04.03h.03s.03.03.05.04h.06s.02,0,.06.03c.04.03.08.05.1.06h.07s.03,0,.03.02c.02,0,.03,0,.05,0,.04,0,.09-.02.16-.05.02,0,.03-.03.03-.04v-.04s0-.02.02-.03c.02-.05.02-.08,0-.12-.02-.03-.03-.05-.07-.06,0,0-.02,0-.04,0h0l-.03-.03s-.04-.02-.07-.02h0s-.02,0-.03-.02c-.02,0-.05,0-.09-.02h-.03s-.04-.05-.06-.06h-.06s-.02,0-.03-.02h-.06s-.04-.03-.07-.04c-.03,0-.06,0-.09,0,0,0-.03-.02-.04-.03-.03-.02-.04-.03-.04-.03,0,0-.02-.02-.03-.03,0-.02,0-.03.02-.06,0-.02,0-.03,0-.07v-.02h0s.03-.06.04-.08c0-.03.02-.05.02-.08,0,0,0-.03.02-.04,0-.03.02-.04.03-.06.02.02.03.03.05.03h.12s.05.05.07.06c.02,0,.04,0,.08,0h.03s.02,0,.03.02c.03.02.04.03.06.03h.07s.04.04.07.05h.05s.03.02.03.02l.06.02h.06c.05.02.12,0,.15-.09.03-.07.03-.13,0-.18-.03-.05-.07-.08-.14-.11h-.09s-.05-.05-.07-.06h-.07s-.03-.02-.04-.02h-.05s-.06-.03-.09-.04c-.02-.02-.03-.03-.05-.03h-.07s-.06-.04-.09-.03c-.04-.02-.04-.03-.04-.03.02-.02.03-.03.03-.05v-.06s.04-.03.06-.07c0-.02.02-.05.02-.09v-.05s.04,0,.07,0h.02s.04.04.07.05h.05l.04.02s.04,0,.07,0c.02.03.04.04.06.05,0,0,.03,0,.05,0,0,0,.02.02.03.03.03,0,.05,0,.08,0,.02,0,.04.02.08.03.04.02.07.03.09.04.07.03.11.03.14,0,.05-.02.07-.07.09-.11h0s.03-.05.03-.07v-.08l-.03-.06-.06.04Z"/>
      <path class="st0" d="M14.92,27.14c0-.05-.03-.11-.09-.18-.05-.05-.05-.07-.05-.07,0-.02,0-.04-.02-.06,0,0,.02,0,.02,0,.04-.03.05-.06.06-.08h0s.03-.03.03-.06v-.07s0-.04,0-.08c0-.04,0-.07.02-.08.02-.03.03-.04.03-.07s0-.05-.03-.07l-.03-.02v-.04s-.03-.08-.09-.14c-.05-.05-.09-.08-.14-.09,0,0,0-.02-.02-.03-.02-.02-.04-.03-.07-.03-.02,0-.04,0-.07,0-.09-.04-.12-.05-.14-.05h-.07s-.09-.02-.2-.03h-.03s-.04-.02-.07-.02c-.11,0-.19.02-.24.08-.03.04-.05.11-.06.21v.06s-.02.07-.03.11v.06s.02.03.02.04v.02s-.02.04-.02.06v.03s-.03.03-.03.05v.15s0,.02,0,.04c0,.03-.02.05-.02.08,0,.02,0,.04.02.07-.02.03-.03.05-.03.08,0,.03,0,.06.03.09-.02.02-.03.04-.03.07v.03s0,.04,0,.13c0,.02-.02.03-.03.03v.04s-.02.03-.02.05,0,.03,0,.05c0,.02-.02.03-.02.06v.1c0,.08.03.14.09.17.02,0,.04.02.13.03,0,0,.02,0,.05.03,0,0,.03.02.03.02.03,0,.05,0,.09,0h.03s0,0,.03.02c.02.02.04.02.06.02.03,0,.05,0,.08-.02.02,0,.03,0,.04,0h.06s.03.02.05.02c.03,0,.05,0,.08,0h.03s.05,0,.07,0h0s.07-.02.1-.04h.03s.08-.02.1-.08h0s.06-.02.07-.04c0-.02,0-.03,0-.04h.02s.05-.06.04-.09c.06-.13.07-.17.08-.2,0-.11,0-.19-.02-.23,0,0,0-.02-.02-.02l.06-.05ZM13.99,27.47s-.02,0-.02-.02v-.12s0-.03.02-.08c0-.05.02-.08.02-.1h0s.03-.05.03-.08c0-.02,0-.03,0-.06.02,0,.04,0,.05-.03,0,0,.03,0,.09.03.08.03.09.03.09.03h.03s.06.03.1.03c0,0,.02,0,.03,0,.02,0,.03.02.05.02,0,0,.02.02.03.03v.02s.03.05.05.06c0,0,0,0,0,.02,0,0,0,.03,0,.04,0,.03,0,.06.02.09v.02s-.05.04-.06.06v.03h0s-.03,0-.05.02c-.03.02-.05.03-.08.04-.02,0-.03,0-.04,0,0,0-.03,0-.08-.02h-.09s-.03-.02-.04-.02c-.03,0-.05,0-.08.03h-.03s0-.03-.03-.03ZM14.05,26.35v-.04s0-.02.02-.03c.02,0,.04,0,.06-.02.02,0,.03.03.05.03h.09s.03,0,.14.04c0,.03.03.06.05.07h.03s.02.03.03.06v.08s-.02.03-.03.03c-.03.02-.07.03-.09.03-.03,0-.07,0-.11.03h-.02s-.03-.02-.04-.02c-.03,0-.04,0-.08.02,0,0-.03,0-.1-.03h-.03v-.1s.02-.05.02-.07v-.08h.03Z"/>
      <path class="st0" d="M17.62,26.74v-.08s-.03-.04-.04-.06c-.02-.03-.04-.06-.06-.09,0,0,0,0,0,0-.06-.07-.15-.09-.28-.08-.03-.02-.05-.03-.08-.02-.03,0-.05.03-.08.06-.04.03-.08.06-.13.09-.06.06-.09.14-.07.24,0,.03.02.05.03.08.02.03.02.04.02.05,0,.03.03.07.06.08v.03s.03.03.05.03c0,0,.02,0,.09.03.02,0,.04,0,.07,0s.05,0,.09,0h.1s.06-.03.09-.06l.02-.02c.05,0,.08-.04.08-.06v-.03s.03-.04.04-.08c.02-.05.03-.08.02-.11,0-.02,0-.03-.02-.04v.02Z"/>
      <path class="st0" d="M20.12,26.74s-.02-.04-.04-.06v-.07s-.03-.04-.06-.06c0-.03,0-.05,0-.07,0-.02-.03-.05-.04-.08,0-.03-.02-.04-.03-.05v-.07s-.02-.03-.04-.05c0-.03,0-.05-.02-.08,0-.02,0-.03,0-.03,0-.03,0-.05-.03-.06h-.02v-.1s-.02-.03-.03-.03c0,0,0-.02-.03-.06,0-.03-.03-.05-.05-.1-.02-.03-.03-.07-.04-.08v-.02s0-.04,0-.05c0-.02-.02-.03-.03-.04,0-.03,0-.06,0-.09,0-.02-.02-.03-.03-.06,0,0-.02-.02-.02-.03v-.02s0-.04-.02-.06c-.03-.06-.06-.1-.1-.12-.04-.02-.09-.02-.14,0-.02,0-.03.02-.03.03h-.03s-.03.02-.03.03c-.03.03-.03.07-.03.1,0,.03,0,.05.03.08,0,.03.02.03.02.04h0v.08s.03.04.05.06v.03s0,.05.02.06c0,.03.03.08.07.14.03.05.04.08.05.11v.05s0,.03.02.05l.03.03v.08s.03.07.07.12c.03.04.03.07.04.08v.06s.02.04.03.05c0,0,.02.02.02,0,0,.02,0,.03.02.07,0,.04.02.07.03.09,0,.03.02.04.03.06.02.09.03.13.03.14,0,.02.02.03.03.04v.05h0s.02.04.04.07v.02c.03.05.06.06.08.07h.02s.03,0,.06-.02h.05s.03-.02.04-.03c0,0,.06-.04.07-.08v-.03s.02-.03,0-.03c0-.02,0-.04-.03-.06.02-.04,0-.07,0-.09v-.02Z"/>
      <path class="st0" d="M22.3,25.68s-.03-.03-.04-.03v-.03s0-.02,0-.03c-.02-.03-.04-.07-.08-.12,0,0,0-.02-.02-.02h-.02s0-.05-.02-.06c0-.02-.03-.03-.05-.06-.02-.02-.03-.03-.03-.03-.02-.03-.04-.07-.07-.13-.03-.07-.05-.11-.08-.14,0-.02-.03-.03-.05-.04-.02-.02-.04-.06-.09-.14,0,0,0,0-.02-.06,0-.04-.03-.08-.03-.1-.02-.03-.04-.05-.08-.08-.02,0-.03-.03-.03-.03,0-.02,0-.04-.02-.05,0,0,0,0,0-.02,0-.03,0-.06-.03-.08,0,0,.02-.02.03-.03,0,0,.03,0,.06-.03.04,0,.08-.03.09-.03,0,0,.03-.02.08-.06,0,0,.03-.02.04-.02s.03-.02.04-.03c0,0,.02-.02.02-.03.02,0,.03,0,.04-.02.07-.04.11-.13.04-.24v-.02s0-.04-.02-.06c0,0-.02-.03-.03-.03-.03-.02-.1-.03-.18.02-.03,0-.04,0-.06.02,0,0-.02.02-.03.03,0,0-.02.02-.03.03h-.02s-.05.03-.06.03c-.02,0-.03.03-.05.05h-.03s-.03,0-.04.03l-.02.02h-.02s-.04.03-.07.06c-.03.03-.03.03-.03.03-.16.1-.2.11-.21.11h-.04s-.03.02-.05.03c0,0-.02.03-.02.03,0,0,0,.02-.03.03,0,0-.02.02-.03.03l-.03.02s-.05.02-.07.03c-.02,0-.03.03-.04.04-.03,0-.06,0-.09.02-.02,0-.03.03-.06.04-.03.02-.04.03-.05.04-.03.02-.04.05-.05.08,0,0-.03.05,0,.08v.02s0,0,0,.02c.03.04.11.17.21.14,0,0,.03,0,.03-.02.03,0,.04,0,.07-.02,0,0,.02,0,.02-.02h.03l.05-.03s.03-.03.04-.04c0,0,.02,0,.02-.02,0,0,.06-.02.08-.03.02,0,.03-.03.05-.05,0,0,.02-.02.02-.02.05-.03.08-.03.08-.04h0s.02.03.03.05c.02.03.03.05.03.06,0,.02.02.03.03.03,0,.03,0,.05.02.08,0,.02.03.03.05.04.05.11.06.12.06.13,0,.02.03.03.05.06.02.02.03.03.03.03v.02s0,.05.03.07c.02.02.03.03.06.05,0,.03,0,.05.03.07.02.03.06.08.11.14.02.08.03.1.04.12,0,.02.03.03.04.04,0,.03,0,.04.02.06,0,0,.02.02.03.03,0,.02,0,.03.02.05,0,0,.02.03.04.05,0,0,0,.02.02.03,0,.02.02.03.03.04,0,0,.02.02.03.03l.03.02s.04.04.07.04h.04s.06-.03.08-.05h.02s.04-.02.05-.03l.03-.03s0-.02.02-.03c0-.03,0-.06-.02-.08,0-.02,0-.05-.02-.08h-.03Z"/>
      <path class="st0" d="M26.17,20.83c-.09-.05-.11-.03-.21-.08-.09-.05-.09-.09-.2-.1-.04.08-.11.13-.16.2-.04.08,0,.19-.05.26-.04.08-.16.1-.2.18-.04.07-.03.19-.08.25-.05.07-.14.12-.18.19-.05.07-.09.14-.14.21s-.11.13-.17.19l.09.09c.06.03.06,0,.2.1.14.1.14.08.28.18l.03-.07c.05-.07.02-.06.07-.13.05-.08.11-.14.16-.21.05-.08.18-.1.23-.18.05-.08.07-.17.11-.25.05-.08.06-.18.1-.25.05-.08.14-.13.18-.21.04-.08.08-.16.13-.24l-.03-.02c-.09-.05-.07-.06-.16-.12h0Z"/>
      <path class="st0" d="M26.92,17.56c-.02.08-.1.14-.12.23s.08.19.05.28c-.03.08-.13.14-.15.23-.03.08.02.18-.02.26-.03.08-.11.14-.14.22-.03.08-.02.17-.04.25-.03.08-.08.15-.1.23v.02c.16.06.14.09.3.15.15.06.15,0,.31.06.02,0,.04-.08.04-.08.03-.08,0-.1.04-.19.03-.08.06-.17.09-.25.03-.08.03-.18.06-.26.03-.08.1-.16.12-.25.03-.08.03-.18.06-.26.03-.08.02-.18.04-.27.03-.08.07-.17.09-.25v-.04c-.16-.03-.14-.04-.3-.08-.16-.03-.17-.03-.33-.02v.02Z"/>
      <path class="st0" d="M27.85,15.01c0-.09-.02-.18-.03-.27,0-.09,0-.18-.02-.26,0-.02.02-.07,0-.15v-.06h-.05c-.1,0-.13-.06-.24-.07h-.06c-.16,0-.16.03-.32.08,0,.08-.03.14-.02.23,0,.08,0,.17,0,.25s.03.17.03.25v.25c0,.08-.03.17-.03.25,0,.08.08.17.08.26,0,.08-.05.12-.05.2l-.02.08c.16,0,.16.03.33.04h.05c.09,0,.09-.02.19-.02h.08c0-.09.04-.18.04-.26,0-.09-.04-.19-.03-.27,0-.09.08-.18.08-.27s-.03-.18-.03-.27h0Z"/>
      <path class="st0" d="M26.59,11.51c.03.08.08.15.1.24.03.08.04.16.07.24.03.08.08.15.1.24.03.08.04.17.06.25.02.08.03.1.04.19l.03.04s.02,0,.05,0c.05-.02.11-.03.11-.03.09,0,.09,0,.18,0,.17-.02.29-.06.29-.06-.02-.08-.06-.18-.08-.27-.02-.08-.06-.17-.08-.25s-.04-.18-.06-.26c-.03-.08-.08-.16-.1-.25-.03-.08,0-.19-.02-.28-.03-.08-.06-.17-.09-.25s0-.1-.03-.19l-.04-.02c-.07.03-.14.05-.2.08-.1.03-.12,0-.22.03-.1.04-.12.03-.2.1.03.08.07.14.09.22.03.08,0,.17.02.25Z"/>
      <path class="st0" d="M26.44,9.3c-.04-.08-.1-.15-.14-.23-.04-.08-.13-.14-.17-.21-.05-.08-.05-.18-.09-.25-.05-.08-.05-.19-.1-.25-.05-.08-.18-.1-.23-.17-.05-.08-.03-.19-.08-.27-.05-.08-.12-.14-.17-.21h-.03c-.14.1-.15.08-.28.18-.14.1-.17.08-.28.2.05.07.17.14.22.2.05.07.08.15.13.22.05.07.04.18.09.25.04.08.15.1.2.18.04.07.04.18.08.24.04.08.12.13.15.2.04.08.06.1.09.17l.02.06h0c.14-.08.17-.03.3-.14.06-.04.18-.08.25-.12l.05-.05h0Z"/>
      <path class="st0" d="M4.07,18.76c-.03-.08-.12-.14-.14-.22-.03-.08,0-.18-.02-.26s-.13-.14-.15-.23c-.02-.08.07-.19.05-.28-.02-.08-.1-.14-.12-.23-.16,0-.17-.03-.33.02-.16.03-.15.05-.31.08l.03.03c.02.09.07.17.09.25.03.08.02.18.04.27.03.08.03.18.05.26.03.08.1.16.13.24.03.08.03.18.06.26.03.08.06.17.08.25.03.08,0,.1.04.19,0,0,.03.08.04.08.15-.06.14,0,.31-.06.15-.06.14-.1.3-.15v-.02c-.03-.08-.08-.15-.1-.23-.03-.08-.02-.17-.04-.25h0Z"/>
      <path class="st0" d="M3.54,12.66s.06.04.05.03c-.03-.03.05,0,.05,0l.02-.04c.02-.08.03-.1.04-.19.02-.08.04-.17.06-.25.02-.08.08-.15.1-.24.03-.08.04-.17.07-.24.03-.08.08-.15.1-.24.03-.08,0-.17.02-.25.03-.08.07-.14.09-.22-.08-.08-.1-.06-.2-.1-.1-.03-.12,0-.22-.03-.07-.03-.14-.05-.2-.08l-.04.02c-.03.08,0,.1-.03.19-.03.08-.07.17-.09.25-.03.08,0,.19-.02.28-.03.08-.08.17-.1.25-.03.08-.04.18-.06.26-.03.08-.06.17-.08.25-.02.08-.06.18-.08.27,0,0,.12.03.29.06.08,0,.08-.02.24.02h0Z"/>
      <path class="st0" d="M5.51,21.71c-.04-.07-.14-.12-.18-.19-.04-.07-.03-.19-.08-.25-.04-.08-.16-.1-.2-.18-.04-.08,0-.19-.05-.26-.04-.08-.12-.13-.16-.2-.11.02-.09.05-.2.1-.09.05-.11.03-.2.08-.1.05-.07.07-.17.12l-.03.02c.04.08.08.16.13.24.04.08.14.14.18.21.04.08.05.18.1.25.05.08.07.18.11.25.05.08.17.1.22.18.05.08.11.14.16.21.05.08.02.06.07.13l.04.07c.13-.1.14-.08.28-.18.14-.1.13-.07.2-.1l.09-.09c-.05-.07-.12-.13-.17-.19-.05-.07-.09-.14-.14-.21h0Z"/>
      <path class="st0" d="M3.14,16.09c.17,0,.16-.03.33-.03v-.08c-.02-.08-.06-.12-.07-.2,0-.08.08-.18.08-.26,0-.08-.03-.17-.03-.25v-.25c0-.08.03-.17.03-.25s-.02-.17,0-.25c0-.08-.03-.14-.02-.23-.15-.05-.15-.07-.32-.08-.17,0-.17.08-.33.07v.06c0,.09,0,.14,0,.15,0,.08-.02.18-.02.26,0,.09-.03.18-.03.27s-.03.18-.03.27c0,.08.08.18.08.27s-.04.18-.03.27c0,.08.03.18.04.26h.04c.17,0,.11.03.28.02h0Z"/>
      <path class="st0" d="M4.75,9.6s.08-.16.12-.24c.04-.08.11-.13.15-.2.04-.08.04-.18.08-.25.04-.08.15-.1.2-.18.05-.07.03-.18.08-.25.05-.07.08-.15.13-.22.05-.07.17-.14.22-.2-.1-.13-.14-.1-.28-.2-.13-.09-.15-.08-.28-.17h-.02c-.05.07-.12.14-.17.2-.05.08-.03.19-.08.27-.05.08-.18.09-.23.17-.05.08-.05.18-.1.25-.05.08-.05.18-.09.25-.05.08-.13.14-.17.21-.04.08-.13.21-.13.21.14.08.13.11.27.19.14.08.15.07.3.14h0Z"/>
      <path class="st0" d="M24.35,13.65h0c0-.08-.02-.15-.03-.2,0-.03,0-.04,0-.07v-.12c0-.06,0-.13-.02-.19v-.02c0-.08.02-.2-.02-.35-.02-.11-.05-.19-.08-.26.02-.1.02-.24-.03-.4-.04-.14-.12-.25-.15-.32,0,0,0,0,0-.02-.04-.09-.08-.17-.12-.22v-.02s0,0,0-.02c-.02-.08-.03-.19-.1-.32-.03-.08-.07-.14-.1-.19-.02-.03-.03-.06-.05-.08,0,0,0,0,0-.02-.05-.08-.09-.15-.14-.21-.02-.02-.03-.04-.04-.06,0-.02-.02-.03-.03-.04-.03-.07-.08-.16-.14-.25-.06-.08-.13-.15-.18-.2-.03-.08-.09-.22-.2-.35h0c-.14-.15-.29-.22-.4-.25-.03-.03-.05-.06-.08-.08-.05-.09-.14-.25-.31-.37-.14-.09-.26-.13-.35-.16h-.03c-.15-.08-.29-.09-.37-.1-.08-.03-.19-.08-.3-.11h-.02c-.15-.04-.29-.04-.37-.03-.06-.02-.12-.03-.18-.03l-.08-.02s-.03,0-.03-.02c-.06-.02-.14-.04-.22-.07-.08-.03-.2-.08-.37-.1-.14-.02-.27,0-.35.03h-.02c-.07-.02-.17-.03-.3-.03h-.4c-.08,0-.17.02-.27.03-.2.03-.35.12-.43.19-.04,0-.08.02-.11.03-.1,0-.26-.02-.45.05-.13.05-.22.11-.29.16-.08.02-.2.04-.32.11h-.02c-.07.03-.14.08-.2.12,0,0-.02,0-.03.02-.09.03-.24.06-.38.17-.16.12-.25.26-.3.35-.05.04-.09.09-.14.13l-.02.02s-.03.03-.05.03c-.05.04-.13.09-.2.16-.15.15-.22.36-.21.56-.03-.12-.08-.23-.15-.33-.02-.03-.03-.04-.05-.07-.04-.06-.09-.12-.15-.19l-.02-.02c-.09-.09-.19-.15-.26-.19-.04-.07-.11-.16-.2-.24-.05-.07-.14-.18-.28-.27-.14-.09-.29-.13-.4-.14-.06-.05-.14-.11-.25-.16-.13-.06-.25-.08-.36-.08-.08-.06-.18-.13-.31-.16-.13-.03-.25-.04-.34-.03-.09-.04-.19-.09-.32-.12h-.02s-.03,0-.05,0c-.07-.02-.16-.04-.27-.05-.2-.02-.35.03-.44.07-.06,0-.12,0-.17.02h-.05c-.08-.02-.2-.03-.35-.03-.14,0-.26.05-.33.08h-.05c-.07,0-.17,0-.28.03-.03,0-.05,0-.08,0-.07,0-.14.02-.25.04-.13.03-.23.08-.3.13-.09,0-.23,0-.37.07-.1.04-.2.09-.27.13-.03,0-.04.03-.06.03l-.06.03c-.08.03-.18.08-.27.15-.08.06-.16.11-.23.17l-.04.03s-.03.02-.04.03c-.07.04-.15.09-.25.17-.08.07-.14.14-.2.19,0,.02-.03.03-.03.04h-.02c-.07.04-.18.11-.27.22-.09.09-.14.19-.18.26,0,0,0,.02-.02.03-.08.1-.13.2-.15.29-.08.05-.17.14-.24.24,0,0,0,0,0,.02-.07.11-.1.22-.13.3-.06.06-.14.15-.2.27-.08.18-.09.34-.09.44-.02.06-.03.11-.05.15,0,.03-.02.05-.03.08-.03.1-.05.19-.07.26-.05.08-.13.19-.16.33,0,0,0,.02-.02.03-.03.07-.08.18-.1.31v.02c-.03.17,0,.31.03.41,0,.03-.02.05-.02.08-.06.1-.15.26-.16.48v.02c0,.15.03.28.05.35v.03c0,.07-.02.17,0,.28.02.16.06.28.09.35h0c.02.13.06.22.09.3,0,.08,0,.19,0,.3v.08c0,.07.02.15.04.25v.02c.03.1.07.19.09.25,0,.02.02.04.03.06.05.14.12.25.17.31v.02c.02.07.04.16.08.25.03.08.08.16.11.21,0,.1.02.25.1.41v.02c.03.07.08.13.11.19.02.03.03.06.05.08v.02c.07.12.16.19.25.25.03.08.06.16.12.25h0s.02.04.03.07c.03.04.06.1.1.17.03.08.08.2.17.33.06.08.12.14.16.19.02.02.04.04.06.06.02.03.04.05.06.08.04.05.08.11.13.16.07.08.13.14.19.19.02.02.03.03.05.05.07.08.14.13.19.17.02,0,.03.03.04.03.02.02.04.04.06.06.05.05.1.11.17.17.08.07.16.12.23.15.04.08.11.19.21.27.12.1.24.15.35.19.04.06.1.13.18.19.05.04.11.08.16.12.03.02.06.04.08.06.1.08.2.12.26.15,0,0,.03,0,.03.02.03.02.05.03.08.05.02.02.04.03.06.04.06.09.15.24.31.34.12.08.23.11.31.14h.02c.15.08.31.11.41.11.03.02.04.03.07.04.05.06.12.14.23.22.06.07.15.17.31.24.15.08.31.11.4.12.03.02.07.03.1.04.03.02.06.03.09.04h.02c.08.04.16.07.22.08.02,0,.03.02.05.02,0,0,0,0,.02.02.06.04.14.11.25.16.09.04.18.06.25.08.06.06.14.14.25.19h0c.06.04.15.13.29.18.09.04.18.07.25.08.02,0,.03,0,.05.02.11.04.2.07.27.08h.04c.09.03.17.04.25.04.11,0,.22-.03.31-.08.08.03.16.04.24.04.07,0,.14,0,.21-.03.02,0,.03,0,.05,0,.07,0,.16-.03.26-.07.02,0,.04,0,.06-.02.07-.02.15-.03.25-.08.09-.03.17-.08.23-.11.02,0,.03-.02.04-.03.14-.05.23-.13.3-.18.07,0,.15-.03.25-.07h.03c.07-.02.17-.03.29-.08.1-.04.2-.08.29-.12h0c.14-.06.23-.14.29-.19.06-.03.11-.06.15-.08.03-.02.05-.03.08-.04.03-.02.07-.03.1-.05.05-.03.11-.05.17-.08.03,0,.04-.02.07-.03.06-.03.14-.05.21-.09h.02s.08-.04.12-.06c.04-.02.08-.04.13-.06,0,0,.02,0,.03-.02.07-.04.13-.08.17-.11.03-.02.04-.03.07-.05,0,0,0,0,.02,0,.03-.02.06-.03.09-.05.06-.03.11-.06.16-.09,0,0,.02,0,.03,0,.06-.03.15-.06.25-.12,0,0,.02,0,.03-.02.08-.05.14-.1.18-.14.02-.02.03-.03.05-.04.08-.05.13-.1.18-.14.1-.02.24-.06.37-.16h0c.1-.08.17-.16.22-.21,0,0,0-.02.02-.03.12-.09.19-.2.23-.26.08-.06.14-.12.2-.17.02-.02.04-.03.06-.05.04-.03.09-.07.15-.12.07-.03.19-.09.3-.2.09-.08.14-.17.18-.26.09-.04.18-.1.26-.19.11-.12.17-.25.2-.35.05-.04.11-.09.16-.16h0c.1-.14.15-.27.18-.35.03-.04.06-.08.09-.13,0,0,.02-.03.03-.03.07-.05.18-.14.26-.27.06-.09.09-.18.13-.24,0,0,0-.02,0-.03.06-.05.14-.14.21-.27v-.02c.05-.1.08-.2.09-.29.07-.07.14-.15.2-.27,0,0,0-.03.02-.03.04-.11.06-.2.08-.27v-.03s0-.02.02-.03c.03-.06.08-.14.13-.25.06-.17.06-.32.06-.41.03-.08.05-.16.07-.24.03-.08.04-.18.06-.26.04-.08.11-.19.14-.36.03-.16,0-.3-.02-.4.02-.07.04-.16.05-.26v-.28h0c.03-.08.06-.21.05-.36v-.02c0-.15-.04-.27-.07-.35h.06ZM14.95,15.99s-.06-.05-.09-.08l-.03-.02-.02-.03-.03-.07-.03-.12s-.03-.07-.03-.1l-.03-.06v-.15s-.03-.08-.03-.12l-.02-.07v-.24s0-.06,0-.08l-.02-.08.02-.17v-.14h0v-.13s0-.08,0-.13v-.04l.02-.03s0-.03.02-.04l.07-.24.05-.1s.02-.04.03-.07l.02-.03c.08-.09.14-.2.16-.33l.02-.08.05-.11s.04.06.07.09v.06c.02.05.03.11.04.15l.03.1.03.11s.02.08.03.11l.03.09.02.09s.03.08.04.12c0,.11.02.23.07.33-.02.08-.02.17,0,.26l.02.08-.02.1c-.03.09-.03.19,0,.3-.04.09-.07.19-.08.29v.14l-.03.06s-.03.07-.03.1v.03c-.07.05-.11.11-.15.18-.04.02-.08.04-.12.07h-.08v-.02ZM22.93,14.28v.26c-.02.06-.04.15-.06.26,0,.11,0,.21,0,.29-.03.06-.06.14-.08.23-.02.08-.03.16-.06.25-.02.08-.04.15-.07.24-.03.13-.04.23-.04.31-.03.05-.07.12-.1.19-.03.06-.04.11-.05.16-.08.07-.17.16-.23.3-.06.12-.08.23-.08.32-.04.05-.08.1-.13.18-.04.07-.07.14-.09.19-.07.05-.15.13-.23.25-.03.03-.05.08-.08.11-.03.03-.05.08-.07.11-.07.09-.11.19-.14.25-.05.04-.12.1-.19.18-.05.07-.09.13-.13.19-.08.04-.18.1-.27.19-.1.11-.16.23-.2.32-.04.03-.08.06-.14.1-.02.02-.04.03-.07.05-.05.03-.1.08-.14.12,0,0,0,0-.02.02-.07.06-.13.11-.2.17-.12.09-.19.2-.24.26-.03.03-.07.06-.09.09-.09.03-.22.06-.34.15-.08.05-.14.11-.18.14,0,0-.03.03-.03.03-.08.05-.14.1-.18.14,0,0-.02.02-.03.03h-.02c-.06.03-.15.06-.25.12-.03.02-.06.03-.09.05-.06.03-.11.06-.16.09-.07.04-.13.08-.17.11-.02.02-.04.03-.06.04-.03,0-.05.03-.08.03-.06.03-.12.06-.18.09,0,0-.04.02-.07.03-.05.02-.12.05-.19.08-.04.03-.08.04-.14.06-.04.02-.08.04-.13.06h0c-.05.03-.1.05-.15.08-.03.02-.06.03-.08.05-.14.06-.23.14-.29.19-.06.03-.13.05-.2.08h-.03c-.06,0-.14.03-.25.07h-.03c-.07,0-.16.03-.27.08h-.02c-.14.06-.25.14-.31.19-.06.03-.1.05-.14.08-.02,0-.03.02-.05.03-.02,0-.04,0-.06.02-.05,0-.12.03-.2.05h-.05c-.06,0-.14.03-.23.05-.03,0-.07.03-.1.04-.09-.03-.16-.05-.22-.06-.02,0-.03,0-.04,0-.09-.03-.16-.06-.22-.07h-.02s-.09-.07-.14-.1c-.07-.08-.18-.2-.36-.29-.13-.06-.24-.08-.32-.08-.05-.03-.12-.08-.21-.13-.08-.03-.15-.06-.2-.08-.03,0-.04-.02-.06-.03-.05-.03-.09-.04-.14-.07-.03-.02-.07-.03-.1-.04h0c-.11-.06-.21-.08-.3-.09-.03-.03-.08-.07-.13-.11-.05-.07-.14-.18-.3-.26-.06-.03-.12-.08-.18-.11l-.05-.03h0c-.18-.1-.36-.13-.47-.13,0,0-.03,0-.03-.02-.05-.08-.13-.17-.24-.25,0,0-.02-.02-.03-.02-.04-.03-.09-.06-.14-.09-.03-.02-.06-.04-.08-.06-.08-.06-.17-.09-.23-.13,0,0-.02,0-.03-.02-.03-.03-.08-.05-.11-.08,0,0-.02,0-.02-.02-.04-.08-.12-.2-.24-.3,0,0,0,0-.02,0-.09-.07-.18-.11-.26-.14-.04-.07-.09-.14-.17-.2-.12-.11-.25-.16-.34-.19,0,0-.02-.02-.02-.03-.03-.03-.06-.07-.09-.09h0c-.06-.07-.12-.11-.16-.15-.02,0-.03-.03-.04-.03,0,0,0,0,0-.02-.03-.03-.06-.06-.08-.08-.03-.03-.07-.07-.1-.1-.03-.03-.05-.06-.07-.09-.03-.04-.07-.09-.11-.14-.04-.04-.08-.08-.12-.13,0,0-.02-.02-.03-.03-.03-.08-.07-.19-.15-.3,0-.02-.03-.03-.03-.06-.02-.03-.03-.05-.04-.08-.02-.09-.04-.23-.13-.36,0,0,0,0,0-.02-.09-.14-.22-.24-.31-.3,0-.1-.02-.23-.08-.37-.04-.09-.08-.16-.12-.21,0,0,0-.02-.02-.03,0-.02,0-.04-.02-.07-.02-.06-.03-.11-.05-.17,0-.02,0-.03-.02-.03-.05-.12-.11-.21-.15-.26-.02-.05-.03-.09-.05-.13,0-.02-.02-.03-.02-.04v-.04s0-.08-.02-.14c0-.08.03-.21,0-.35-.03-.15-.08-.26-.13-.34-.02-.08-.04-.15-.07-.2v-.03c0-.05,0-.12,0-.19,0-.07,0-.13-.02-.19.04-.08.08-.19.1-.32,0-.02,0-.03,0-.04.02-.06.03-.14.05-.24.02-.13,0-.25-.02-.33,0-.03.02-.04.03-.07.05-.07.14-.19.18-.34.03-.08.03-.16.04-.22v-.03s.03-.09.04-.14c0-.04.03-.08.03-.09.04-.1.06-.2.07-.28.04-.05.09-.11.14-.19,0,0,0-.02.02-.03.03-.06.05-.13.07-.18.08-.05.15-.13.22-.22.09-.14.13-.27.15-.36.03-.03.04-.07.06-.09.06-.03.14-.09.22-.17.03-.03.08-.08.11-.11.02-.02.04-.05.05-.06.02,0,.03-.02.05-.03.04-.03.1-.06.16-.1,0,0,0,0,.02,0l.07-.05c.05-.03.09-.07.13-.09,0,0,0,0,.02,0,.03-.02.08-.04.12-.06l.08-.04s.07-.03.09-.05c0,0,.03-.02.04-.03.08,0,.18,0,.3-.04.13-.03.22-.09.29-.13h.03c.05,0,.11,0,.18-.03h.05c.06,0,.13,0,.21-.02.1-.02.19-.04.25-.06.07,0,.16.03.26.02.06,0,.13,0,.19-.02h.06c.14,0,.25-.03.34-.05.02,0,.03,0,.06.02.08.05.19.11.33.14.08.02.14.03.2.03.06.05.14.1.24.14h.02c.11.04.21.05.31.05.04.03.09.07.14.09.11.06.21.09.31.1.02.02.03.03.06.06.04.07.1.17.2.26.09.08.2.14.26.18,0,.02.03.03.03.05.03.03.05.07.08.09.05.06.11.11.18.15.02.08.04.16.09.24l.03.06-.03.05-.15.23s-.03.04-.04.07l-.07.14s-.04.08-.05.14c-.07.08-.13.18-.15.29l-.03.09-.11.23s-.03.08-.04.12c-.06.07-.1.14-.13.23l-.03.12-.05.11s-.02.05-.03.08l-.05.15v.03l-.03.13-.04.13c-.03.08-.04.15-.04.23v.09l-.02.09c0,.07-.02.14,0,.2v.36s0,.09,0,.14l.02.11v.24c0,.06,0,.11.02.17l.03.09v.09s0,.04.02.07l.03.15c0,.06.03.12.05.18l.04.09.03.09s0,.04.02.06l.05.14s.03.07.04.09l.08.14s.03.06.05.08l.09.13c.05.07.1.12.17.17l.07.05.06.06c.08.08.17.14.27.17l.29.1c.08.03.16.04.25.04h.49c.19,0,.37-.08.5-.22.07-.03.14-.06.19-.1l.13-.09c.1-.08.19-.19.23-.3.07-.06.12-.14.16-.22l.07-.14s.03-.08.04-.12l.03-.09.04-.09c.03-.05.04-.11.05-.17l.03-.15v-.04c.06-.1.09-.21.1-.33v-.15c0-.06,0-.13,0-.19,0-.05.02-.09.02-.14v-.19c.08-.17.08-.37,0-.55l-.04-.11c.03-.19-.03-.4-.16-.55,0-.03-.02-.06-.03-.09l-.03-.09-.03-.09s-.02-.06-.03-.08l-.03-.07v-.08s-.02-.05-.03-.08l-.03-.15c-.02-.09-.06-.18-.11-.24,0-.03,0-.05-.02-.08l-.04-.15v-.03l-.05-.15c-.03-.09-.09-.18-.14-.25v-.02c-.02-.14-.07-.26-.14-.37.03-.1.03-.2.02-.3.19,0,.37-.07.51-.21.02-.02.03-.03.05-.04.04-.03.09-.07.15-.12,0,0,.02-.02.03-.02l.03-.03s.09-.08.12-.11c0,0,0,0,.02-.02.08-.07.14-.14.19-.21.06-.02.12-.05.18-.08.03-.02.06-.03.08-.05.03-.02.05-.03.08-.05.07-.02.17-.03.28-.08.06-.03.12-.06.16-.08.08,0,.18,0,.29-.03.03,0,.06-.02.09-.03.05-.02.09-.03.13-.03h.02c.14-.03.25-.09.34-.15h.37c.06,0,.14.03.25.03.09,0,.17,0,.23-.02.06.03.14.05.23.07,0,0,.02,0,.03,0,.06.02.14.05.25.07l.08.02c.06,0,.11.03.17.03h0c.13.03.24.03.31.03.04.02.09.03.15.06.12.05.23.07.3.08.03,0,.05.02.08.03.04.08.11.16.2.24,0,0,.04.04.06.06.03.03.07.07.1.1.08.08.16.13.24.16.03.05.06.11.11.17.05.07.1.12.14.15,0,0,.03.03.03.03,0,0,0,.03.02.03.03.05.06.12.11.2.03.03.04.07.07.1.03.03.05.08.07.1.03.04.05.09.08.14,0,.02.03.03.03.06,0,.07.03.16.08.27.04.09.09.17.12.23,0,0,.02.03.02.03.03.06.05.11.08.15,0,.09,0,.21.03.34.03.09.06.18.08.23v.26s0,.08,0,.13,0,.09,0,.14c0,.08.02.14.03.19,0,.03,0,.06,0,.07v.02c0,.1.03.19.05.25-.02.07-.03.15-.04.25h-.06Z"/>
      <path class="st3" d="M48.77,8.25h5.17c2.12,0,2.13,1.42,2.13,2.78v5.27c0,2.1-1.5,2.1-2.8,2.1h-1.56c.95,2.31,3.06,4.49,5.57,6.34.19.16.48.36.48.86,0,.55-.4.92-.83.92s-4.94-1.83-8.17-5.74v4.72c0,1.42-.83,1.83-2.23,1.83-1.68,0-2.16-.76-2.16-1.83v-4.67c-3.51,4.09-7.76,5.69-8.14,5.69s-.81-.34-.81-.92c0-.52.29-.74.57-.95,2.7-1.94,4.75-4.51,5.45-6.27h-2.23c-2.13,0-2.13-1.42-2.13-2.78v-5.25c0-2.12,1.5-2.12,2.8-2.12h4.49v-1.6h-8.23c-.36,0-.86-.08-.86-.95,0-.92.64-.92.86-.92h8.23v-.68c0-1.42.81-1.86,2.23-1.86,1.68,0,2.16.76,2.16,1.86v.68h8.28c.31,0,.88.05.88.95s-.64.92-.88.92h-8.28v1.6h0ZM44.38,10.12h-2.49c-.36,0-.5.03-.5.55v1.73h2.99v-2.28ZM44.38,14.26h-2.99v1.73c0,.52.14.55.5.55h2.49v-2.28ZM48.77,12.4h3.02v-1.73c0-.52-.14-.55-.5-.55h-2.51v2.28ZM48.77,16.54h2.51c.36,0,.5-.03.5-.55v-1.73h-3.02v2.28Z"/>
      <path class="st3" d="M68.09,4.11c0-1.21.59-1.86,2.18-1.86,1.33,0,2.25.36,2.25,1.86v1.28h8.23c.21,0,.88,0,.88.92s-.62.95-.88.95h-20.88c-.26,0-.88,0-.88-.92,0-.79.42-.95.88-.95h8.21v-1.28h0ZM67.18,19.97c0,2.12-6.59,6.24-7.31,6.24-.45,0-.83-.4-.83-.92,0-.4.14-.52.48-.9,1.78-1.89,2.35-3.23,3.06-4.96.17-.4.57-1.31,1.47-1.31,2.58,0,3.14,1.33,3.14,1.83h0ZM72.46,17.07v6.9c0,1.66-.14,2.42-1.05,2.86-.57.29-.81.29-2.09.29h-4.18c-.36,0-.88-.08-.88-.95,0-.92.66-.92.88-.92h2.45c.5,0,.57-.14.57-.63v-7.55h-5c-1.88,0-2.06-.92-2.06-2.65v-3.23c0-1.99,1.43-1.99,2.68-1.99h13.74c2.04,0,2.04,1.33,2.04,2.65v3.23c0,1.99-1.43,1.99-2.68,1.99h-4.42,0ZM65.38,14.68c0,.47.07.55.48.55h8.92c.36,0,.5-.03.5-.55v-3.09c0-.45-.09-.55-.5-.55h-8.92c-.36,0-.48.05-.48.55v3.09ZM76.83,24.54c-.81-1.62-1.76-3.18-2.82-4.59-.14-.19-.26-.47-.26-.71,0-.47.33-.92.83-.92s2.12,1.05,2.68,1.42c3.82,2.52,3.89,3.35,3.89,3.91,0,1.28-1.56,2.31-2.46,2.31-.95,0-1.28-.26-1.85-1.42h0Z"/>
      <path class="st3" d="M88.08,24.2c0,.57.12.63.57.63h15.76c.52,0,.86.21.86.92s-.26.95-.86.95h-17.56c-1.5,0-3.18,0-3.18-2.38V6.46c0-1.57,0-3.15,2.42-3.15h17.89c.52,0,.86.21.86.9s-.26.95-.86.95h-15.33c-.5,0-.57.14-.57.66v18.38h0ZM92.96,9.88c-1.55,1.99-3.16,3.33-3.65,3.33s-.86-.42-.86-.92c0-.21.05-.34.19-.66.14-.31.83-1.94,1.26-4.2.26-1.33.42-2.1,1.61-2.1s2.82.68,2.82,1.89c0,.29-.12.55-.24.79h8.73c.64,0,.86.34.86.95,0,.81-.45.92-.86.92h-4.1c0,2.1-.05,3.07-.07,3.62h5.27c.64,0,.83.31.83.95,0,.79-.42.9-.83.9h-4.75c1.52,4.09,3.94,5.85,5.36,6.87.17.14.52.37.52.9,0,.4-.31.9-.86.9-.31,0-4.51-1.33-7.38-5.09-2.61,3.75-7.5,5.17-7.6,5.17-.36,0-.81-.34-.81-.9s.36-.79.5-.9c2.12-1.42,4.34-2.91,5.08-6.95h-4.87c-.57,0-.83-.24-.83-.95s.38-.9.83-.9h5.11c.05-.73.12-1.83.12-3.62h-1.4.02Z"/>
      <path class="st3" d="M127.45,9.98c1.28.4,1.28,1.52,1.28,1.62,0,.42,0,.76-1.73,1.36.36.36.81.86,1.71,1.5.26.19.54.36.54.86,0,.55-.4.92-.83.92-.33,0-.78-.21-1.35-.47v3.38c0,2.15-1.61,2.15-2.92,2.15h-1.19v3.23c0,2.57-1.92,2.57-3.49,2.57h-2.75c-.36,0-.88-.08-.88-.95,0-.92.64-.92.88-.92h1.56c.54,0,.54-.45.54-.81v-3.12h-2.04c-2.13,0-2.13-1.52-2.13-2.91v-2.68c-.88.47-1.11.52-1.31.52-.21,0-.38-.14-.48-.21-.17,2.36-.43,4.87-2.57,7.95-.9,1.31-2.51,3.09-3.14,3.09-.48,0-.83-.45-.83-.95,0-.26.05-.34.4-.97,1.23-2.1,1.67-4.87,1.85-6.24-.71,1.02-1.05,1.33-1.43,1.33-.69,0-1.14-1.02-1.14-2.02,0-1.23.54-1.52.83-1.68.29-.16,1.68-.84,2-1.02v-1.86c-.4.37-.71.42-.86.42-.52,0-.78-.42-.88-.68-.15-.34-.4-2.07-.5-2.47-.07-.34-.54-2.1-.54-2.23,0-.55.42-.9.83-.9.52,0,1.38,1.07,1.95,1.92v-2.97c0-2.33,1.76-2.33,3.18-2.33h4.46c0-1.07,0-2.21,2.28-2.21,2.16,0,2.18,1.21,2.18,2.21h7.33c.74,0,.81.57.81.97,0,.79-.45.9-.86.9h-7.24c.9.4,1.02.92,1.02,1.36,0,.16-.03.29-.05.45h5.86c.64,0,.86.31.86.95,0,.81-.45.92-.86.92h-.4l.03.02ZM115.94,25.17c-1.26.84-3.2,1.81-3.7,1.81-.54,0-.81-.52-.81-.86s.19-.57.45-.86c.81-.9,1.21-1.71,1.73-2.75.38-.79.66-1.26,1.59-1.26,1.33,0,2.49,1.02,2.49,1.78,0,.52-.17,1.07-1.76,2.15h0ZM117.53,8.12c.5-1.36.54-1.52.88-1.81h-5c-.36,0-.45.24-.45.5v7.74c.24-.21,1.38-1.13,1.59-1.33-.24-.14-.26-.21-.5-.84-.12-.26-.76-1.42-.76-1.68,0-.34.24-.6.54-.71-.29-.03-.71-.14-.71-.92,0-.63.21-.95.86-.95h3.56ZM114.04,9.98c.57.16,1.76.84,2.04,1.28.29-.47.36-.6.71-1.28h-2.75ZM123.62,13.47c-.71-.63-1.94-1.73-2.75-3.2-1.16,1.68-2.46,2.8-2.94,3.2h5.69ZM123.13,16.41v-.6c0-.47-.26-.47-.54-.47h-3.44c-.29,0-.54,0-.54.47v.6h4.54,0ZM118.6,18.25v.74c0,.47.26.47.54.47h3.44c.29,0,.54,0,.54-.45v-.76h-4.54,0ZM124.2,21.5c.26,0,1.83.68,3.06,1.39,1.52.9,1.71,1.36,1.71,1.94,0,1.28-1.38,2.18-2.33,2.18-.86,0-1.11-.52-1.64-1.57-.69-1.36-1.04-1.86-1.44-2.44-.14-.21-.31-.5-.21-.84.07-.29.36-.66.86-.66h0ZM124.99,9.98c.26.66.5,1.05.69,1.36.71-1.13.81-1.23,1.1-1.36h-1.78Z"/>
      <path class="st3" d="M132.61,20.29c-1.33,2.1-1.52,2.1-1.85,2.1-.5,0-.83-.47-.83-.92,0-.19.05-.31.24-.73,1.73-3.89,2.11-6.79,2.35-9.28h-1.43c-.36,0-.88-.08-.88-.95s.64-.92.88-.92h1.52v-3.15c-.5.08-1.31.19-1.5.19-.5,0-.78-.5-.78-.95,0-.08,0-.76.66-.92,2.24-.57,3.18-.81,5.15-1.92.66-.36.93-.47,1.35-.47,1.11,0,1.78,1,1.78,1.78s-.33,1.07-2.58,1.6v3.83h1.35c.45,0,.86.19.86.95,0,.92-.64.92-.86.92h-1.35v.52c.5,1.89,1.11,3.07,1.71,4.09.52-1.81.71-3.12.9-4.93.12-.97.74-.97.9-.97.86,0,.86.76.86,1.66,0,1.28-.09,6.11-.81,8.39-.17.55-.52,1-1.07,1-.78,0-1.89-.71-1.89-1.97,0-.5.07-.68.45-1.44-.29-.14-.78-.68-1.04-.97v8.74c0,1.13-.52,1.78-2.07,1.78-1.73,0-2.01-.92-2.01-1.78v-5.27.03ZM141.58,9.85c0-.92.36-1.71,1.95-1.71,1.38,0,2.01.5,2.01,1.71v4.2c.76-2.36.86-2.97,1.47-6.63-.71.86-1.45.92-1.68.92-.71,0-1.11-.55-1.52-1.1-1.28-1.71-1.47-1.86-3.23-3.23-.14-.1-.43-.34-.43-.81,0-.5.36-.95.86-.95.05,0,2.21.45,4.55,1.5,1.56.71,2.01,1.07,2.07,2.02.48-.47,1.19-.47,1.35-.47.78,0,2.54.47,2.54,2.1,0,1.18-1.43,5.32-1.44,5.46.38.08.54.26.81.71,1.47,2.49,2.33,4.77,2.33,5.8s-.86,1.78-1.66,1.99c.38.4.52.74.52,1.31,0,.21-.02,1.31-.62,2.68-.36.79-.95,1.76-2.92,1.76h-4.77c-1.21,0-2.18-.57-2.18-1.99v-.47c-1.55,1.13-3.25,2.15-3.61,2.15-.43,0-.83-.36-.83-.92,0-.5.24-.71.6-.97,1.97-1.55,3.16-2.8,3.85-3.62v-11.42ZM147.2,25.22c.62,0,.83-.31,1.07-2.04.24-1.73.31-2.26,1.4-2.42-.19-.4-.19-.52-.19-1.81,0-2.49-.12-3.54-.19-4.17-1.16,2.59-2.45,4.56-3.75,6.08v3.78c0,.31,0,.57.43.57h1.23,0Z"/>
      <path class="st3" d="M167.38,12.66h6.58c.52,0,.86.21.86.92s-.26.95-.86.95h-6.58v.95h8.4c.52,0,.86.21.86.9s-.26.95-.86.95h-20.98c-.38,0-.86-.08-.86-.9,0-.63.21-.95.86-.95h8.26v-.95h-6.48c-.38,0-.86-.08-.86-.92,0-.63.21-.95.86-.95h6.48v-.95h-5.91c-.38,0-.86-.08-.86-.92,0-.63.21-.95.86-.95h5.91v-.95h-8.23c-.38,0-.86-.08-.86-.9,0-.63.24-.95.86-.95h8.23v-.95h-5.91c-.38,0-.86-.1-.86-.92,0-.63.21-.95.86-.95h5.91c0-.84.05-2.02,2.12-2.02,1.92,0,2.21.86,2.21,2.02h4.32c1.19,0,2.54,0,2.54,1.92v.9h1.59c.5,0,.86.19.86.9s-.26.95-.86.95h-1.59c0,1.55,0,2.8-1.92,2.8h-4.94v.95h0ZM158.79,26.98c-1.23,0-2.66,0-2.66-2.02v-4.2c0-1.31,0-2.65,2.01-2.65h13.58c1.26,0,2.68,0,2.68,2.02v4.17c0,1.33,0,2.68-2.04,2.68h-13.58ZM170.18,21.58v-1.07c0-.5-.15-.52-.5-.52h-8.85c-.4,0-.48.08-.48.52v1.07h9.83ZM160.35,23.44v1.16c0,.45.07.52.48.52h8.85c.36,0,.5-.03.5-.52v-1.16h-9.83ZM167.38,7.08h2.68v-.45c0-.42-.07-.5-.45-.5h-2.23v.95ZM167.38,9.86h2.23c.36,0,.45-.05.45-.5v-.45h-2.68v.95Z"/>
      <path class="st3" d="M187.32,8.88v-4.77c0-1.47.83-1.86,2.16-1.86,1.56,0,2.09.68,2.09,1.86v.63h6.24c.64,0,.86.31.86.95,0,.79-.45.9-.86.9h-6.24v2.31h7.93c.64,0,.86.31.86.95,0,.81-.45.92-.86.92h-20.98c-.59,0-.86-.26-.86-.95,0-.76.4-.92.86-.92h1.97v-2.94c0-1.47.86-1.86,2.18-1.86,1.55,0,2.12.66,2.12,1.86v2.94h2.54,0ZM180.83,11.09c1.16,0,2.12.21,2.12,1.66v11.73c0,.57.14.63.54.63h10.99c.45,0,.54-.08.54-.63v-11.73c0-1.26.74-1.66,2-1.66,1.14,0,2.09.21,2.09,1.66v11.17c0,1.5,0,3.04-2.33,3.04h-14.86c-1.43,0-3.06-.03-3.06-2.31v-11.9c0-1.26.74-1.66,1.97-1.66ZM186.76,13.87c0,.92-1.16,1.62-2.12,1.62s-1.07-.5-1.23-1.89c-.03-.26-.38-1.47-.38-1.62,0-.73.57-.76.74-.76.31,0,2.99,1.36,2.99,2.65ZM190.9,22.99c0,1.05-.48,1.68-1.88,1.68-1.23,0-1.95-.36-1.95-1.68v-2.07c-1.07,1.02-2.68,2.31-3.18,2.31-.43,0-.83-.42-.83-.92,0-.34.14-.55.45-.95.62-.79,1.55-2.44,2.01-3.83h-1.55c-.38,0-.86-.1-.86-.92,0-.63.21-.95.86-.95h3.09v-3.04c0-1.05.48-1.66,1.85-1.66,1.16,0,1.97.31,1.97,1.66v3.04h3.08c.31,0,.86.05.86.92s-.45.95-.86.95h-1.56c.14.4.86,2.23,2.21,4.04.12.16.29.4.29.73,0,.52-.4.92-.83.92-.5,0-2.13-1.28-3.18-2.31v2.07ZM191.13,14.58c0-.16.4-1.73.48-2.07.12-.73.24-1.44,1.23-1.44,1.14,0,2.09.97,2.09,1.76,0,1.16-2.75,2.54-3.08,2.54-.42,0-.71-.45-.71-.79Z"/>
      <path class="st3" d="M208.8,25.56c0,1.13-.57,1.78-2,1.78-1.59,0-2.04-.73-2.04-1.78v-6.11c-.69.95-1.4,1.86-2.18,2.7-.12.14-.29.31-.62.31-.45,0-.86-.4-.86-.95,0-.24.05-.34.29-.73,2.01-3.54,2.8-7.08,3.23-9.34h-2.33c-.26,0-.88,0-.88-.92,0-.79.4-.95.88-.95h2.47v-3.18c-.74.1-2,.21-2.21.21-.62,0-.88-.52-.88-.95,0-.81.64-.95,1.19-1.05,2.99-.52,4.55-1.36,5.48-1.86.54-.29.83-.42,1.28-.42,1.16,0,2.01.95,2.01,1.81,0,.97-.95,1.26-2.85,1.62v3.8h1.8c.24,0,.86.03.86.92,0,.84-.48.95-.86.95h-1.8v.14c.24.9.93,3.46,2.58,5.96.29.45.36.52.36.81,0,.47-.36.95-.86.95s-1.44-1.13-2.09-1.89v8.15h0ZM222.95,15.89c.07-.03.24-.05.36-.05.64,0,.71.86.71,1.1,0,.16,0,.52-.64.73l-1.26.4v7.5c0,1.13-.52,1.78-2.06,1.78-1.33,0-2.16-.37-2.16-1.78v-6.19l-6.22,1.94c-.17.05-.21.05-.33.05-.54,0-.76-.55-.76-1.1,0-.42.26-.63.64-.74l6.67-2.07V7.61c-.33,1.33-1.28,1.83-1.92,1.83-.78,0-1.14-.73-1.4-1.31-.59-1.26-1.31-2.49-2.21-3.73-.17-.24-.29-.36-.29-.71,0-.52.4-.92.83-.92.33,0,4.55,2.26,4.99,3.73v-2.47c0-1.18.59-1.78,2.06-1.78,1.26,0,2.16.34,2.16,1.78v12.09l.83-.24h0ZM212.48,9.22c.42,0,2.09,1.21,2.63,1.62,2.52,1.83,2.57,2.42,2.57,3.04,0,1.5-1.19,2.68-2.33,2.68-.86,0-1.07-.55-1.56-1.83-.74-1.81-.88-2.1-1.9-3.85-.19-.31-.24-.42-.24-.81,0-.29.29-.84.83-.84h0Z"/>
      <path class="st3" d="M232.96,6.46c-.45,0-.99,0-.99-.92,0-.63.21-.95.86-.95h.48l.21-1.18c.07-.36.26-1.26,1.31-1.26.17,0,2.3,0,2.3,1.6,0,.26,0,.31-.09.84h1.28c1.04,0,2.24,0,2.24,1.68v2.38c.64,0,1.19,0,1.19.92,0,.19-.03.24-.05.34h5.24c.21,0,.88,0,.88.92s-.54.95-1.26.95v12.11c0,1.31,0,1.6-.28,2.13-.21.4-.76,1.07-2,1.07h-3.11c-.38,0-.86-.1-.86-.92,0-.63.21-.95.86-.95h.93c.48,0,.54-.14.54-.6v-12.85h-1.07c-.26,0-.88-.03-.88-.95,0-.16.03-.24.05-.31h-8.43c-.26,0-.33-.03-.52-.14-.24.45-.86,1.39-1.26,1.99v13.3c0,1.02-.43,1.66-1.85,1.66-1.19,0-1.92-.34-1.92-1.66v-8.39c-.59.68-.78.86-1.14.86-.5,0-.86-.42-.86-.92,0-.29.05-.37.4-.97,1.55-2.65,2.57-5.64,3.08-7.13.12-.37.17-.45.26-.6-.69.76-2.16,2.33-2.68,2.33-.45,0-.86-.4-.86-.92,0-.24.05-.31.42-1,1.5-2.73,1.95-4.3,2.25-5.41.24-.81.71-1.23,1.52-1.23,1.02,0,2.28.74,2.28,1.89,0,.79-1.67,2.86-2.4,3.7.17-.08.38-.19.81-.19.62,0,1.43.31,1.9,1.07.21-.14.33-.14.83-.14l.38-2.21v.03ZM234.88,23.8h-3.39c-.38,0-.88-.08-.88-.95s.62-.9.98-.9v-2.1c0-1.68,1.19-1.68,2.24-1.68h1.07v-.92h-1.49c-1.62,0-1.62-1.13-1.62-2.23v-1.99c0-1.68,1.11-1.68,2.12-1.68h5.44c1.59,0,1.61,1.13,1.61,2.2v2.02c0,1.68-1.14,1.68-2,1.68v.92h1.44c.64,0,.86.34.86.95,0,.81-.45.92-.86.92h-1.44v1.92h2.01c.52,0,.88.21.88.92,0,.92-.64.92-.88.92h-2.01v1.83c0,1.36-.83,1.71-2.07,1.71-1.5,0-2-.63-2-1.71v-1.83h-.02ZM234.88,20.05h-.4c-.24,0-.36,0-.36.36v1.55h.76v-1.92h0ZM235.86,13.11c-.36,0-.45.08-.45.52v1.36c0,.42.05.52.45.52h.95c.36,0,.48-.05.48-.52v-1.36c0-.42-.07-.52-.48-.52h-.95ZM237.25,8.67v-1.83c0-.36-.07-.36-.57-.36l-.4,2.21h.98,0ZM246.63,3.63c.21,0,.86,0,.86.92s-.62.95-.86.95h-4.75c-.26,0-.88,0-.88-.92,0-.81.43-.95.88-.95h4.75Z"/>
      <path class="st3" d="M258.09,7.31v-3.2c0-1.13.5-1.86,2.16-1.86,1.35,0,2.25.36,2.25,1.86v3.2h7.19c.52,0,.86.21.86.92s-.26.95-.86.95h-7.19v6.27h6.02c.52,0,.86.19.86.9s-.26.95-.86.95h-6.02v7.58h8.21c.5,0,.83.21.83.92s-.24.95-.83.95h-21c-.38,0-.86-.08-.86-.92,0-.63.24-.95.86-.95h8.38v-7.58h-6.22c-.36,0-.83-.08-.83-.9,0-.63.21-.95.83-.95h6.22v-6.27h-3.54c-1.04,1.99-2.73,4.38-4.1,5.74-.24.24-.38.4-.71.4-.45,0-.83-.4-.83-.92,0-.29.86-2.15.99-2.57.98-2.65,1.35-4.51,1.76-7.39.19-1.31.93-1.62,1.97-1.62.95,0,2.7.42,2.7,1.89,0,.74-.24,1.23-.86,2.62h2.61l.02-.02Z"/>
      <path class="st3" d="M294.58,22.51c.26.28.81.84.81,1.64,0,1.42-1.29,2.97-2.76,2.97-.63,0-.99-.39-1.42-.84l-1.32-1.42c-1.01.78-2.97,2.26-7.09,2.26s-7.82-1.28-7.82-6.37c0-3.31,1.42-4.72,4.83-6.72-1.27-1.89-1.97-3.23-1.97-5.17,0-3.45,2.33-4.92,6.58-4.92,1.21,0,3.72.19,5.09,1.75.26.3.81,1.06.81,2.67,0,2.75-1.37,3.51-4.43,5.17l3.8,3.92c.08-.75.23-2.48,2.51-2.48,1.09,0,2.35.67,2.35,2.22,0,1.33-.68,2.64-1.37,3.86l1.39,1.44h0ZM281.62,16.01c-1.7,1.33-1.82,3.51-1.82,4.65,0,2.67.88,4.33,3.47,4.33,1.01,0,2.51-.22,4.4-2.5l-6.05-6.48ZM285.8,8.19c0-1.2-.46-2.17-1.67-2.17-1.57,0-1.6,1.36-1.6,2.06,0,1.5.54,2.28,1.52,3.51,1.09-.95,1.75-1.64,1.75-3.39h0Z"/>
      <path class="st3" d="M304.49,24.6c0,.64.02,1.08-.31,1.55-.46.67-1.34.97-2.07.97-.51,0-1.21-.14-1.75-.58-.68-.56-.68-1.23-.68-1.94V6.5c0-.64,0-1.08.33-1.55.46-.69,1.32-1,2.05-1,.51,0,1.21.17,1.78.61.65.56.65,1.23.65,1.94v18.1Z"/>
      <path class="st3" d="M318.08,24.6c0,.64,0,1.08-.33,1.55-.46.67-1.32.97-2.05.97-.51,0-1.24-.14-1.78-.58-.65-.56-.65-1.23-.65-1.94V6.47h-4.73c-.6,0-.99-.53-.99-1.03,0-.56.38-1.06.99-1.06h14.27c.59,0,.96.53.96,1.03,0,.56-.36,1.06-.96,1.06h-4.73v18.12h0Z"/>
      <path class="st3" d="M326.86,20.82c-.38,0-.86-.08-.86-.9,0-.63.21-.95.86-.95h12.8v-.86c0-.4.05-.6.09-.76h-8.95c-1.31,0-2.8,0-2.8-2.13v-4.82c0-1.39,0-2.78,2.13-2.78h4.99v-1.5h-8.26c-.38,0-.86-.08-.86-.9,0-.63.21-.95.86-.95h8.26c0-.81.02-2.04,2.16-2.04,2.01,0,2.24.95,2.24,2.04h8.33c.52,0,.86.19.86.9s-.26.95-.86.95h-8.33v1.5h4.27c1.31,0,2.8,0,2.8,2.1v4.85c0,1.36,0,2.78-2.13,2.78h-.5c.07.24.12.52.12.76v.86h3.77c.52,0,.86.21.86.9s-.26.95-.86.95h-3.77v2.94c0,1.36,0,1.68-.3,2.23-.62,1.1-1.73,1.1-2.25,1.1h-5.56c-.24,0-.86,0-.86-.92,0-.76.4-.92.86-.92h2.94c.36,0,.76,0,.76-.63v-3.8h-8.79c1.89.71,3.35,1.6,3.65,1.81.26.19.78.52.78,1.28,0,1.36-1.33,2.52-2.51,2.52-.78,0-.99-.36-1.64-1.44-.81-1.39-.9-1.55-1.95-2.86-.14-.19-.31-.36-.31-.71,0-.31.12-.47.19-.6h-2.23,0ZM335.12,9.48h-2.33c-.38,0-.52.03-.52.55v1.47h2.85v-2.02ZM335.12,13.34h-2.85v1.6c0,.52.14.55.52.55h2.33v-2.15h0ZM339.51,11.5h2.8v-1.47c0-.52-.14-.55-.52-.55h-2.28v2.02h0ZM339.51,15.49h2.28c.38,0,.52-.03.52-.55v-1.6h-2.8v2.15h0Z"/>
      <path class="st3" d="M354.8,25.56c0,1.07-.45,1.78-2.07,1.78-1.31,0-2.13-.37-2.13-1.78V6.28c0-1.57,0-3.15,2.42-3.15h5.45c2.13,0,2.21,1.26,2.21,2.21v6.22c0,2.12-1.23,2.23-2.21,2.23h-3.68v11.78h0ZM356.74,7.52v-1.99c0-.5-.14-.52-.5-.52h-.98c-.4,0-.48.08-.48.52v1.99h1.95ZM354.8,9.38v2.54h1.44c.36,0,.5-.03.5-.52v-2.02h-1.95ZM363.65,13.78c-2.13,0-2.21-1.26-2.21-2.2v-6.22c0-2.12,1.23-2.23,2.21-2.23h4.7c1.5,0,3.18,0,3.18,2.39v18.38c0,1.57,0,3.15-2.42,3.15h-4.75c-.38,0-.86-.08-.86-.9,0-.63.21-.95.86-.95h2.42c.5,0,.57-.14.57-.66v-10.78h-3.7,0ZM367.35,7.52v-1.99c0-.5-.12-.52-.48-.52h-.99c-.4,0-.48.08-.48.52v1.99h1.95ZM365.41,9.38v2.02c0,.45.07.52.48.52h1.47v-2.54h-1.95Z"/>
      <path class="st3" d="M395.24,18.24c.21,0,.88.03.88.92,0,.95-.62.95-.88.95h-8.14v3.85c0,1.31,0,1.94-.62,2.54-.59.6-1.31.6-2.54.6h-4.79c-.26,0-.88,0-.88-.92,0-.79.42-.95.88-.95h2.75c.33,0,.74,0,.74-.63v-4.51h-8.28c-.26,0-.88,0-.88-.92,0-.79.42-.95.88-.95h8.28v-1.36c0-1.62,1.16-1.81,2.45-1.78.26-.21,1.26-1.07,1.26-1.26,0-.14-.09-.26-.26-.26h-7.19c-.38,0-.86-.08-.86-.92,0-.63.21-.95.86-.95h11.49c.64,0,1.43.57,1.43,1.6,0,1.16-.38,1.52-4.7,3.35v1.57h8.14v.02ZM384.02,7.81c-.83-.21-.93-.63-1.28-2.04-.19-.81-.36-1.23-.66-2.02-.05-.14-.12-.31-.12-.52,0-.45.33-.92.93-.92.5,0,1.56.81,2.13,1.23.57.45,2.01,1.55,2.01,2.52,0,.34-.14,1.36-1.8,1.76h3.32c-.07-.14-.12-.24-.12-.57,0-.37.57-1.94.66-2.26.48-1.62.64-2.26,2.07-2.26s2.78.74,2.78,1.78c0,1.21-2.3,2.65-3.61,3.3h2.92c1.19,0,2.54.03,2.54,1.94v1.89c0,1.18-.52,1.86-2.09,1.86-1.33,0-2.16-.4-2.16-1.86v-1.44c0-.45-.09-.52-.45-.52h-12.6c-.38,0-.45.1-.45.52v1.44c0,1.16-.5,1.86-2.07,1.86-1.38,0-2.16-.42-2.16-1.86v-1.28c0-1.26,0-2.54,1.92-2.54h1.61c-.26-.24-.31-.4-.86-1.94-.12-.36-.86-1.86-.86-2.21,0-.55.48-.92.88-.92.33,0,4.42,1.99,4.42,3.62,0,.79-.62,1.18-1.19,1.44h4.28Z"/>
      <path class="st3" d="M404.17,9.59v1.23c.57,2.49,1.44,4.77,2.66,6.95.26.47.29.52.29.76,0,.5-.36.92-.83.92-.24,0-.42-.1-.52-.21-.76-.76-1.38-1.68-1.59-1.97v8.29c0,1.42-.83,1.78-2.16,1.78-1.55,0-2.07-.66-2.07-1.78v-6.11c-.4.6-.86,1.23-1.56,2.1-.09.14-.26.34-.64.34-.45,0-.86-.4-.86-.92,0-.24.07-.4.17-.57,1.05-2.04,2.3-5.09,2.9-10.38v-.42h-1.85c-.38,0-.88-.08-.88-.95,0-.92.64-.92.88-.92h1.85v-3.7c0-1.44.9-1.78,2.16-1.78,1.47,0,2.07.6,2.07,1.78v3.7h1.14c.52,0,.88.21.88.95,0,.92-.64.92-.88.92h-1.15ZM414.83,7.94c1.8,1.05,3.16,1.97,4.65,3.38.26.24.52.57.52,1.23,0,1.26-.98,2.38-2,2.38-.52,0-.71-.21-.83-.36,0,.4-.21,3.44-2.9,6.95,1.89,2.36,3.75,3.25,5.12,3.94.24.1.57.37.57.9s-.36.92-.83.92c-.29,0-3.94-1.07-6.98-3.59-3.42,2.86-6.88,3.59-6.91,3.59-.48,0-.86-.42-.86-.92,0-.6.43-.81.6-.9,1.31-.66,3.23-1.57,5.08-3.94-2.07-2.62-2.85-5.96-2.85-6.82,0-.24.03-.36.07-.55-.78.5-.88.55-1.11.55-.47,0-.86-.42-.86-.95,0-.34.14-.5.26-.66.45-.63,1.33-1.76,2.06-3.83.17-.45.38-1.07.99-1.33h-2.25c-.36,0-.88-.08-.88-.92,0-.92.64-.92.88-.92h3.65v-1.99c0-1.47.88-1.86,2.21-1.86,1.59,0,2.13.68,2.13,1.86v1.99h4.55c.52,0,.88.21.88.95,0,.9-.64.9-.88.9h-4.13.03ZM410.03,7.94c1.04.29,1.8.97,1.8,1.81,0,.95-1.73,2.31-2.63,3.02.14-.03.31-.05.59-.05,1.11,0,1.55.5,1.68,1.62.12.81.31,2.12.71,3.38.38-1.21.4-1.44.74-3.54.17-1.1.74-1.47,1.68-1.47.26,0,.95,0,1.76.55-.83-1.36-1.71-2.7-2.73-3.88-.17-.21-.33-.4-.33-.76s.17-.55.26-.68h-3.54Z"/>
    </g>
  </g>
</svg>