<?xml version="1.0" encoding="UTF-8"?>
<svg id="_レイヤー_1" xmlns="http://www.w3.org/2000/svg" version="1.1" viewBox="0 0 199.32 199.49">
  <!-- Generator: Adobe Illustrator 29.8.3, SVG Export Plug-In . SVG Version: 2.1.1 Build 3)  -->
  <defs>
    <style>
      .st0 {
        fill: #ed7c9b;
      }

      .st1 {
        fill: #fff;
      }
    </style>
  </defs>
  <circle class="st1" cx="99.66" cy="100" r="98.11"/>
  <path class="st0" d="M199.15,103.22c0-.6.13-1.19.13-1.75,0-.6-.64-1.19-.64-1.75,0,0,.55-1.19.55-1.75,0-.6-.81-1.15-.85-1.75,0-.6.43-1.19.38-1.75,0-.6-.26-1.15-.34-1.75,0-.6-.3-1.15-.34-1.75,0-.6.34-1.19.3-1.79-.09-.6-.38-1.11-.43-1.71-.09-.6.55-1.24.47-1.83s-.13-1.15-.21-1.75c-.09-.55-.94-1.02-1.07-1.62-.09-.6-.09-1.15-.17-1.75-.13-.55-.47-1.07-.6-1.66-.13-.55-.34-1.11-.47-1.66s.72-1.36.55-1.92c-.17-.55-1.15-.9-1.32-1.45-.17-.55-.6-1.02-.77-1.62-.17-.55.72-1.45.55-2s-.98-.94-1.11-1.49c-.21-.55.38-1.41.21-1.96-.21-.55-.77-.98-.94-1.53-.21-.55-.98-.9-1.15-1.45-.21-.55.47-1.45.26-2s-1.66-.6-1.88-1.11c-.21-.55.47-1.49.21-2s-1.11-.77-1.36-1.32c-.26-.51.38-1.49.13-2-.26-.51-1.53-.55-1.79-1.07-.26-.51,0-1.32-.3-1.83s-1.15-.72-1.41-1.24c-.3-.51.3-1.53,0-2-.3-.51-.72-.94-1.02-1.45-.3-.51-.77-.9-1.11-1.36-.3-.51-1.02-.77-1.32-1.24-.34-.51-.17-1.32-.47-1.79-.34-.47-1.49-.38-1.83-.85-.34-.51-.55-1.02-.9-1.49-.34-.47-.68-.94-1.02-1.41-.38-.47-.47-1.15-.81-1.58s-.26-1.32-.6-1.75c-.38-.47-.85-.81-1.24-1.28-.38-.43-1.28-.43-1.66-.85-.38-.43-.17-1.45-.55-1.88s-1.49-.21-1.88-.68c-.43-.43-.9-.77-1.28-1.19-.38-.43,0-1.66-.38-2.05-.43-.38-.94-.72-1.36-1.11s-1.36-.26-1.79-.64-.34-1.41-.77-1.79c-.47-.38-1.53,0-2-.38-.43-.38-.55-1.15-1.02-1.49-.47-.38-.47-1.24-.94-1.62-.47-.34-1.49,0-1.96-.34s-.85-.77-1.32-1.11-.55-1.24-1.02-1.58-1.41,0-1.92-.38c-.47-.34-.81-.85-1.28-1.19-.51-.34-.64-1.15-1.15-1.45-.47-.34-.94-.68-1.45-.98-.47-.3-1.41,0-1.88-.26-.51-.3-1.24-.21-1.75-.51s-.85-.9-1.36-1.15c-.51-.3-.81-.98-1.32-1.24-.51-.26-1.02-.55-1.53-.81s-1.32,0-1.83-.21c-.51-.26-1.15-.26-1.71-.51s-1.11-.34-1.66-.55c-.55-.26-.9-.85-1.45-1.07-.55-.26-.72-1.32-1.28-1.53-.55-.17-1.53.85-2.09.64-.55-.21-1.07-.51-1.58-.72-.55-.17-.72-1.49-1.28-1.71-.51-.17-1.28.26-1.83.09s-1.28.13-1.83,0-1.11-.38-1.66-.55c-.6-.13-1.02-.64-1.62-.77-.55-.13-1.19,0-1.75-.17-.55-.13-1.02-.81-1.62-.9-.55-.13-1.11-.43-1.66-.51-.6-.09-1.24.13-1.79,0-.55-.09-1.15-.21-1.71-.3-.6-.09-1.15-.21-1.75-.3-.55-.09-1.11-.6-1.66-.68-.55,0-1.24.68-1.83.6h-1.75c-.6,0-1.15-.43-1.75-.47-.55,0-1.11-.55-1.71-.6-.6,0-1.19.6-1.79.6s-1.19-.38-1.75-.43c-.6,0-1.19.3-1.75.3v-.17c-.6,0-1.15.38-1.75.38s-1.18-.83-1.78-.79c-.6,0-1.15.6-1.71.6-.6,0-1.15.55-1.71.55s-1.19-.43-1.79-.38c-.55,0-1.19-.09-1.75,0-.6.09-1.15.3-1.71.38-.6.09-1.19-.17-1.79-.09-.6.08-1.07.81-1.62.9-.6.09-1.07.6-1.66.68s-1.24-.38-1.83-.26c-.6.09-1.07.64-1.62.77s-1.32-.55-1.92-.43c-.55.13-.94,1.07-1.49,1.19-.55.17-1.24-.17-1.79,0-.55.17-1.02.6-1.62.77-.55.17-1.36-.51-1.92-.34-.55.17-1.11.38-1.66.55s-.9,1.02-1.45,1.24c-.55.21-1.24,0-1.79.21s-1.07.51-1.58.72c-.55.21-.98.68-1.53.94-.51.21-.94.68-1.49.94-.55.26-1.07.51-1.58.77-.51.21-.98.64-1.49.9s-1.19.21-1.71.47c-.51.26-1.28.09-1.79.34s-1.15.3-1.66.6c-.51.26-.51,1.49-1.02,1.79-.51.3-1.32.04-1.83.34-.51.3-1.15.38-1.62.68-.51.3-1.02.6-1.53.9s-1.07.51-1.53.85c-.47.3-1.11.47-1.58.81s-.43,1.41-.94,1.75c-.47.34-1.49-.04-1.96.3-.47.34-.94.72-1.41,1.07s-.77.9-1.24,1.24-.38,1.41-.85,1.75c-.43.38-.94.68-1.36,1.07-.47.38-1.58,0-2,.38s-.43,1.28-.85,1.66c-.43.38-1.15.51-1.58.9-.43.38-.85.77-1.28,1.19-.43.43-.72.9-1.15,1.32-.38.43-.34,1.28-.72,1.71-.38.43-.85.81-1.24,1.24-.38.47-.68.98-1.07,1.41s-.68.94-1.07,1.36c-.38.47-.72.94-1.07,1.36-.38.43-1.49.3-1.88.77-.34.47,0,1.45-.34,1.92s-1.07.64-1.45,1.11c-.34.47-.43,1.11-.81,1.62-.34.47-.55.98-.9,1.49-.34.47-.51,1.07-.81,1.53-.34.47-1.71.3-2.05.77-.3.51.38,1.62.09,2.13s-1.11.68-1.41,1.19-.6,1.02-.9,1.53c-.3.51-.64.98-.94,1.45-.26.51-.94.85-1.19,1.36-.26.51-.47,1.07-.72,1.62-.26.51-.38,1.11-.64,1.62-.26.55.43,1.49.17,2.05-.21.51-1.11.77-1.32,1.28-.26.55-.21,1.19-.47,1.71-.21.55-.85.94-1.07,1.49-.21.55.21,1.32,0,1.88-.21.55-.51,1.07-.72,1.58-.17.55-1.19.85-1.36,1.41s-.38,1.11-.6,1.66c-.17.55.64,1.41.47,2-.17.55-1.07.9-1.19,1.49-.17.55.47,1.32.34,1.92-.17.55-.51,1.07-.64,1.62-.13.6-1.07.98-1.19,1.53-.13.55.98,1.41.9,1.96-.13.55-1.36.9-1.45,1.49-.09.6.34,1.24.26,1.83s-.3,1.15-.38,1.71c-.09.6.55,1.24.47,1.83s-.38,1.11-.43,1.71c0,.6-.72,1.11-.77,1.71-.04.6-.17,1.15-.21,1.75v1.75c0,.6.77,1.19.72,1.79,0,.6-1.24,1.15-1.24,1.75s1.07,1.19,1.07,1.75c0,0-.68-.47-.85-.3,0,.6.94,1.49.94,2.05,0,.6-.21,1.15-.21,1.75s-.81,1.24-.77,1.79c0,.6,1.28,1.11,1.28,1.71.04.6-.3,1.19-.21,1.79,0,.55-.51,1.19-.43,1.79.04.6.43,1.15.51,1.71s.38,1.11.47,1.71c.09.55.34,1.15.43,1.71.09.6.13,1.15.21,1.71.13.6.3,1.11.43,1.71.09.55.13,1.15.26,1.75.13.55.3,1.11.43,1.71.13.55.6,1.07.77,1.62.13.55-.68,1.36-.55,1.92.13.55.04,1.19.21,1.75.17.56.81,1.02.98,1.53.17.55.17,1.19.34,1.75s1.24.81,1.45,1.36c.17.55-.55,1.45-.38,2,.21.55.55,1.07.77,1.58.21.55,1.15.77,1.41,1.32.21.55.34,1.15.55,1.66.26.55.68.98.94,1.53.21.51-.34,1.41-.09,1.96.26.51.38,1.11.64,1.62.26.55,1.07.77,1.32,1.28.3.51,0,1.32.26,1.83s.98.81,1.28,1.32c.26.51.77.9,1.07,1.41.3.51.17,1.28.47,1.75s.26,1.24.55,1.71c.3.51,1.11.68,1.45,1.15.3.47.43,1.15.77,1.62.34.51.43,1.15.77,1.62s1.66.26,2,.72c.34.47-.26,1.66.09,2.13.34.43.77.85,1.15,1.32s1.28.51,1.66.94c.38.47.94.77,1.32,1.19.38.47.47,1.15.85,1.58s.55,1.07.94,1.53c.43.43,1.11.55,1.53.98.43.43.34,1.32.77,1.75.38.38.72.9,1.15,1.28.43.43,1.58,0,2.05.47.43.38.77.85,1.19,1.24.43.38.94.68,1.36,1.11.43.38,1.02.55,1.49.94.47.38.09,1.66.55,2.05.43.38,1.53,0,2,.34s.77.9,1.24,1.28c.47.34.81.85,1.28,1.24.47.34.6,1.19,1.07,1.53s1.19.3,1.71.64c.47.34,1.15.38,1.62.72.47.34.72,1.07,1.19,1.36.51.3,1.32.09,1.83.38.51.34.85.85,1.36,1.15.51.3.85.85,1.36,1.15.51.3,1.49-.26,2,0,.51.3.55,1.49,1.07,1.75.51.3.98.64,1.53.94.51.26,1.19.26,1.71.51.51.26.94.72,1.45.98.55.26,1.28.09,1.79.34.55.21,1.24,0,1.79.26.55.21,1.02.55,1.58.77.55.21.94.9,1.45,1.11.55.21,1.07.64,1.58.81.55.21,1.19.09,1.75.3s1.11.43,1.66.6,1.32-.34,1.88-.17c.55.17.85,1.28,1.41,1.45.55.13,1.19.21,1.75.34.55.13,1.11.43,1.66.55.55.13,1.19,0,1.79.13.55.13,1.19,0,1.75.17.55.09,1.15.13,1.75.26.55.13,1.19,0,1.75.09.6.09,1.07.72,1.66.77.6.09,1.28-.64,1.83-.55.55,0,1.11.51,1.71.55.55,0,1.11.64,1.66.68.6,0,1.28-1.07,1.83-1.02.6,0,1.11.9,1.71.9.55,0,1.15.17,1.75.17s1.19.09,1.75.09c.6,0,1.19-.34,1.75-.34v-.51c.6,0,1.19.09,1.75.09.6,0,1.19.55,1.75.55.6,0,1.15-.26,1.75-.3.6,0,1.15-.17,1.75-.17s1.19-.13,1.75-.17c.55,0,1.11-.51,1.66-.6.6-.09,1.19.17,1.79.13.55-.09,1.11-.47,1.71-.55.55-.09,1.15-.13,1.71-.21s1.15-.17,1.71-.3c.6-.09,1.32.9,1.92.77.55-.13,1.15-.38,1.71-.51s.94-1.19,1.49-1.32c.55-.13,1.28.43,1.83.26.55-.13,1.19-.13,1.75-.3.6-.13,1.02-.72,1.58-.9.55-.17,1.02-.55,1.58-.77.55-.17,1.41.6,1.96.43.55-.17,1.15-.26,1.71-.47.55-.17,1.07-.47,1.62-.68.51-.17.98-.77,1.49-.98.55-.21,1.19-.17,1.71-.38.55-.21.72-1.32,1.24-1.53.55-.21,1.02-.6,1.53-.85.55-.26,1.41.26,1.92,0,.55-.26,1.02-.55,1.58-.81.51-.26.81-.98,1.32-1.24.51-.26,1.45.26,1.96,0s.55-1.45,1.07-1.71c.51-.3,1.11-.38,1.62-.68.51-.3,1.11-.38,1.58-.68.51-.3.64-1.15,1.15-1.49.51-.3,1.49.13,1.96-.17.47-.34.51-1.36.98-1.66.47-.34.94-.64,1.41-.98s1.58.21,2.05-.13c.47-.38.64-1.11,1.11-1.49.47-.34.81-.85,1.28-1.19.43-.38,1.32-.21,1.75-.6.47-.38.64-1.07,1.11-1.45.47-.38.72-.98,1.15-1.36s.81-.85,1.24-1.24c.43-.43,1.53-.09,1.96-.47.43-.43.9-.81,1.28-1.24.38-.38.21-1.41.64-1.83.38-.43,1.07-.6,1.45-1.02.38-.43,1.15-.55,1.53-.98s.17-1.45.55-1.88.85-.77,1.24-1.24.94-.72,1.28-1.19c.38-.47.13-1.41.47-1.88.34-.43,1.71-.13,2.05-.6.38-.47,0-1.45.34-1.96.34-.47,1.11-.64,1.45-1.11s.94-.77,1.28-1.28c.34-.47.26-1.24.55-1.75.34-.51.81-.9,1.11-1.36.3-.51,0-1.32.38-1.83.3-.51.72-.94,1.02-1.45s1.28-.64,1.53-1.11c.3-.51.51-1.07.81-1.58s.34-1.15.6-1.66c.3-.51.13-1.28.38-1.79s1.28-.68,1.49-1.19c.26-.51.51-1.07.77-1.62.26-.51-.09-1.32.17-1.83.21-.55.55-1.02.77-1.58.21-.55.13-1.19.34-1.75.21-.51.9-.9,1.11-1.45s.68-1.02.85-1.58c.17-.55-.47-1.36-.3-1.96.21-.55.21-1.15.34-1.71.17-.55.72-.98.9-1.53.17-.6.43-1.11.55-1.66.17-.55.9-.98,1.02-1.53.13-.6-.34-1.32-.21-1.88.13-.55.21-1.15.34-1.71.13-.6.98-.98,1.07-1.58.09-.55.26-1.15.34-1.71.13-.6-.85-1.32-.77-1.92.09-.6.38-1.11.47-1.71.09-.55.77-1.07.85-1.62.09-.6.09-1.19.17-1.75.09-.6-.85-1.24-.81-1.83,0-.6.68-1.11.72-1.71v-1.75c0-.6.55-1.15.55-1.71l-.17-.21v-.09l-.06-.05ZM193.44,97.89c0,.6.34,1.28.34,1.88v1.71c0,.6-.51,1.15-.55,1.75v1.75c0,.55-.51,1.11-.55,1.71,0,.6.77,1.24.72,1.83,0,.6-.55,1.11-.6,1.71-.09.6.13,1.19.09,1.79-.09.55-.43,1.11-.51,1.66-.09.6-.17,1.15-.3,1.75-.09.6.47,1.28.34,1.83-.09.6-.94,1.02-1.02,1.58-.13.55,0,1.19-.13,1.79-.13.55-.81,1.02-.94,1.58-.17.6-.38,1.11-.51,1.66-.17.55-.17,1.15-.34,1.71s.55,1.36.38,1.92c-.17.56-1.11.9-1.32,1.45-.17.55.13,1.28-.09,1.83s-.26,1.15-.47,1.71-.47,1.07-.68,1.62-.3,1.15-.51,1.66c-.21.55-1.07.81-1.32,1.36-.21.55.21,1.36,0,1.92-.26.55-.6,1.02-.85,1.58-.26.55-.81.94-1.02,1.45-.3.51-.13,1.28-.38,1.79s-.43,1.11-.72,1.58c-.3.51-.55,1.07-.85,1.53-.3.51-1.62.43-1.96.94-.3.51,0,1.32-.38,1.83-.3.47-.43,1.11-.77,1.58-.34.51-.68.98-1.02,1.45s-.6,1.02-.94,1.49-.6,1.02-.98,1.45c-.34.47-.94.77-1.32,1.24-.34.47-.68.98-1.02,1.45-.38.47-1.32.43-1.71.9-.38.43-.26,1.32-.64,1.75s-.6,1.02-.98,1.49c-.38.43-1.28.43-1.66.85-.38.43-.85.77-1.28,1.19-.38.43-.6,1.02-.98,1.45l.43.43c-.43.43-1.66,0-2.09.38-.43.43-.81.85-1.19,1.28-.43.38-.47,1.19-.9,1.62-.43.38-.81.9-1.24,1.24-.43.38-.9.77-1.32,1.15-.43.38-1.15.43-1.62.77-.47.38-.98.64-1.45.98s-.98.6-1.45.94-.34,1.53-.81,1.92c-.47.34-.94.72-1.41,1.07s-1.62-.3-2.09,0c-.51.3-.94.68-1.41,1.02-.51.3-.72,1.02-1.24,1.32-.47.3-.98.64-1.45.94-.51.3-.72,1.11-1.24,1.36-.51.3-1.28.09-1.83.34-.51.3-.77,1.07-1.28,1.32s-1.11.43-1.62.68c-.51.26-1.02.6-1.58.85-.51.21-1.28,0-1.83.17s-.9.98-1.41,1.19c-.55.26-1.53-.64-2.09-.43-.55.21-.98.68-1.53.9s-1.15.34-1.71.51c-.55.17-.81,1.24-1.36,1.41s-1.24,0-1.79.13c-.55.17-1.15.21-1.71.38s-1.15.13-1.75.3c-.55.17-.94,1.02-1.49,1.19-.55.13-1.36-.72-1.96-.55-.55.13-.9,1.28-1.49,1.41-.55.13-1.28-.43-1.88-.34-.55.13-1.24-.3-1.79-.17-.55.09-1.15.21-1.71.3-.6.09-1.07.77-1.66.81-.6.09-1.07.81-1.66.85-.6,0-1.28-.9-1.83-.85-.6.09-1.15.21-1.75.26-.55,0-1.15-.26-1.75-.21-.6,0-1.15.77-1.71.77-.6,0-1.15.51-1.75.51s-1.19-.98-1.79-.98v.26c-.6,0-1.15-.51-1.75-.51s-1.19,1.19-1.79,1.15c-.6,0-1.19-.09-1.75-.13-.6,0-1.15-.34-1.75-.38s-1.15-.6-1.71-.64c-.6,0-1.15-.13-1.75-.21s-1.15-.34-1.71-.38c-.55-.09-1.15,0-1.75-.13-.55-.09-1.15-.13-1.75-.21-.55-.13-1.11-.47-1.66-.55-.6-.13-1.32.47-1.88.34-.55-.13-1.02-.81-1.58-.98-.55-.13-1.07-.43-1.66-.55-.55-.13-1.19,0-1.75-.17s-1.19-.13-1.75-.3-1.24,0-1.79-.13c-.55-.21-1.19-.17-1.75-.34s-.9-1.02-1.45-1.24c-.55-.21-1.11-.43-1.66-.6-.55-.21-1.32.21-1.88,0-.55-.21-.72-1.32-1.28-1.58-.55-.21-1.32.21-1.88,0-.51-.21-.94-.77-1.45-1.02-.55-.21-1.41.21-1.92,0-.51-.26-.94-.77-1.45-1.07-.51-.26-.85-.9-1.36-1.19-.51-.3-1.32,0-1.83-.3s-1.07-.47-1.58-.77-.77-1.02-1.28-1.32-.72-1.07-1.19-1.36c-.51-.3-1.45.09-1.92-.26-.51-.3-.64-1.19-1.11-1.49-.47-.34-1.41,0-1.88-.38-.47-.34-.34-1.45-.81-1.83-.47-.34-1.28-.21-1.75-.6-.47-.34-.51-1.19-1.02-1.58-.47-.38-1.15-.43-1.58-.81-.47-.38-.64-1.02-1.11-1.45-.43-.38-1.07-.55-1.45-.94-.47-.38-.72-.94-1.15-1.36-.43-.38-1.41-.17-1.83-.6s-.47-1.19-.9-1.62l-.09.09c-.43-.43-.81-.85-1.19-1.28s-.68-.98-1.07-1.36c-.38-.43-.55-1.07-.94-1.53-.38-.43-1.32-.38-1.66-.85-.38-.43-.94-.72-1.32-1.19-.38-.43-.47-1.15-.81-1.58-.38-.47-1.19-.55-1.53-1.02s-.6-1.02-.94-1.49-.81-.85-1.15-1.36.17-1.53-.17-2-.6-.98-.94-1.49c-.3-.47-1.15-.64-1.45-1.15s-.43-1.11-.72-1.62c-.3-.51-1.19-.64-1.45-1.15-.3-.51-.43-1.11-.72-1.62-.3-.51-.13-1.28-.38-1.79s-1.07-.77-1.32-1.28-.55-1.07-.81-1.58-.34-1.15-.6-1.66c-.26-.55-.09-1.24-.3-1.79-.21-.51-1.15-.77-1.36-1.32s-.43-1.11-.64-1.66-.17-1.19-.34-1.75c-.21-.55-.64-1.02-.85-1.58-.17-.55-.43-1.11-.6-1.66s.43-1.36.26-1.92-.34-1.11-.51-1.66-.34-1.11-.47-1.66c-.17-.55-.26-1.15-.38-1.71-.17-.55-.34-1.11-.47-1.71s.17-1.24.09-1.79c-.13-.6-1.02-.98-1.11-1.58-.13-.6.21-1.24.09-1.83-.09-.55-.26-1.15-.34-1.71-.09-.6,0-1.19-.04-1.79-.09-.55-.68-1.07-.77-1.66s.3-1.19.26-1.79-.51-1.15-.55-1.71c-.04-.6.38-1.19.34-1.79,0-.6-.98-1.11-1.02-1.71,0-.6.47-1.19.47-1.79s.3-1.15.3-1.75h-.72c0-.6,1.15-1.15,1.19-1.75,0-.6-.81-1.19-.77-1.79,0-.6.17-1.15.21-1.75,0-.6.3-1.15.34-1.75s-.3-1.19-.26-1.79c.04-.55.55-1.11.6-1.71.09-.6-.13-1.19-.09-1.79.09-.55.47-1.11.55-1.66.09-.6.17-1.15.26-1.75.13-.6.34-1.11.43-1.71.13-.6.21-1.15.34-1.75.13-.55.26-1.11.34-1.71.13-.55.47-1.07.6-1.66.13-.55.26-1.11.43-1.71.13-.55-.81-1.45-.64-2,.13-.55.85-.98,1.02-1.53.17-.55-.13-1.28,0-1.83.21-.55.98-.9,1.15-1.45.21-.55.09-1.24.3-1.75.21-.55.26-1.19.47-1.71.21-.51,1.02-.85,1.24-1.41s0-1.24.26-1.79,1.28-.72,1.49-1.24c.26-.51.09-1.24.34-1.79.26-.51.17-1.24.43-1.75s.3-1.15.55-1.71c.26-.51,1.45-.51,1.75-1.02.3-.51.51-1.07.81-1.58s.72-.9,1.02-1.41-.09-1.45.21-1.92c.3-.51.64-.98.94-1.49.34-.47.43-1.11.77-1.58s.85-.81,1.19-1.32c.34-.47,1.11-.64,1.45-1.11s.38-1.15.77-1.62c.34-.47.81-.85,1.19-1.32.38-.47.77-.9,1.15-1.32s.6-1.07.98-1.49c.38-.43,1.11-.55,1.53-.98.38-.43.43-1.19.81-1.62s.77-.85,1.19-1.28c.43-.43,1.07-.6,1.49-1.02,0,0,.26.21.26.13.43-.43.72-.77,1.15-1.15s.85-.81,1.28-1.19.13-1.58.55-2c.43-.38,1.45-.13,1.88-.47.47-.38.85-.81,1.32-1.19.43-.38.94-.68,1.41-1.07.47-.34.55-1.15,1.02-1.53.47-.34.85-.81,1.36-1.15.47-.34.94-.72,1.41-1.07s.9-.81,1.32-1.11c.51-.34,1.19-.34,1.66-.68.51-.3,1.32-.13,1.83-.43s.51-1.45.98-1.75c.51-.3,1.02-.6,1.49-.9.51-.3,1.11-.38,1.62-.68.51-.3,1.24-.21,1.75-.47.51-.3,1.15-.3,1.71-.55.51-.26,1.24-.17,1.75-.43s.51-1.58,1.07-1.83,1.32,0,1.83-.21c.55-.21,1.32.09,1.83-.13.51-.26.72-1.36,1.24-1.58.55-.21,1.02-.68,1.58-.85.55-.17,1.28.09,1.83-.09.55-.17.98-.77,1.53-.94.55-.21,1.45.68,2,.51s.98-.85,1.53-.98c.55-.17,1.24.17,1.83,0,.55-.17,1.07-.43,1.66-.6.55-.13,1.07-.55,1.62-.68s1.15-.13,1.75-.26c.55-.13,1.07-.51,1.66-.6.6-.13,1.19.09,1.79,0s1.02-1.02,1.62-1.11c.55-.09,1.24.38,1.83.3.55-.09,1.19.3,1.79.21.55-.04,1.11-.51,1.71-.55.55-.04,1.15-.3,1.75-.34s1.19,0,1.79,0c.55-.04,1.15-.38,1.75-.43.6,0,1.19.6,1.75.6.6,0,1.19-.47,1.75-.47v.26c.6,0,1.19-.68,1.79-.64.6,0,1.11,1.28,1.71,1.28s1.19-.13,1.75-.09c.6,0,1.15.09,1.75.13s1.24-.68,1.83-.64c.6,0,1.07.98,1.66,1.07.55.04,1.19-.17,1.75-.09.6.09,1.24-.43,1.83-.34s1.19.13,1.75.21c.55.09,1.11.43,1.71.55.6.13,1.07.77,1.62.85.55.13,1.32-.55,1.88-.43.6.13.94,1.07,1.53,1.19.55.13,1.24-.13,1.79,0s1.19.09,1.75.21c.55.17,1.02.68,1.58.85.55.17.98.68,1.58.9.55.17,1.28-.17,1.83.04.55.17,1.28-.04,1.83.13.55.21.85,1.02,1.41,1.24s1.15.3,1.71.51c.51.21,1.07.43,1.62.68.51.26,1.32,0,1.83.21.55.26,1.07.55,1.58.77.51.26.85.94,1.41,1.19.51.26.77,1.07,1.28,1.32s1.07.43,1.62.72c.51.26.81.85,1.32,1.15.51.3,1.32.09,1.83.38s1.36,0,1.88.3c.47.34.94.72,1.41,1.02.51.34.34,1.58.85,1.92.47.34.9.72,1.36,1.07s1.41.09,1.88.43,1.15.43,1.62.77.85.81,1.32,1.19,1.11.51,1.53.9c.43.38.6,1.11,1.02,1.49.47.38.81.85,1.24,1.24.43.38,1.19.43,1.62.81s.64,1.02,1.07,1.45c.43.38.85.81,1.24,1.28l-.51.51c.43.38,1.07.6,1.49,1.02.38.43.6,1.02,1.02,1.45.38.43,1.62.13,2,.55.38.47-.21,1.79.17,2.22.38.47.85.81,1.19,1.24.38.47.77.9,1.11,1.32.38.47,1.36.43,1.71.9.38.47,0,1.41.38,1.88s.72.94,1.07,1.41,1.53.34,1.88.85c.3.47-.21,1.53.13,2,.34.51.47,1.07.81,1.58.3.47,1.62.38,1.92.85.3.51-.34,1.58,0,2.05.3.51.77.9,1.07,1.41s.81.9,1.07,1.41,0,1.28.34,1.79c.26.51.51,1.02.77,1.58.26.51.6.98.85,1.53.26.51.98.81,1.24,1.36.21.51,0,1.24.3,1.79.21.51.34,1.11.55,1.66s.85.94,1.07,1.49c.21.55.64,1.02.81,1.53.21.55,0,1.24.21,1.79.17.55,0,1.24.17,1.79s.85.98.98,1.53c.17.55.64,1.07.77,1.62s-.64,1.36-.51,1.96c.13.55.34,1.11.51,1.66.13.55.81,1.02.94,1.58.13.6-.3,1.24-.17,1.83.13.55,1.02.98,1.11,1.58s-.3,1.24-.21,1.83c.09.55.3,1.11.38,1.71s.34,1.11.43,1.71c0,.6.13,1.15.17,1.75.09.6.09,1.15.13,1.75,0,.6.3,1.15.34,1.75,0,.6.26,1.15.26,1.75s-.68,1.15-.68,1.75h-.34.04l-.02-.02Z"/>
  <path class="st0" d="M46.73,36.46s.13.34.21.47c.17.72.26.94.34,1.07,0,0,.09.13.26.3.13.13.26.26.34.43,0,0,.04.09.13.26.09.26.17.43.26.51.04.09.17.17.3.26h0s.04.21.13.47c.13.6.17.77.26.85.04.04.09.13.17.13s.13.09.17.09c0,.04,0,.13.04.17,0,.21,0,.38.13.55.09.09.17.21.38.34.13.09.17.17.21.21,0,.26.13.51.38.81,0,0,.13.21.51,1.02.3.64.55,1.11.77,1.45,0,.17,0,.34.13.47.04.09.13.17.26.3l.17.17c.21.3.47.38.64.38s.3-.09.38-.13c0,0,.09-.04.17-.17.21,0,.38-.09.51-.17.68-.51.09-1.66-.17-2.13-.3-.55-.6-1.02-.94-1.45,0,0-.04-.09-.09-.34-.04-.34-.17-.6-.26-.77-.09-.09-.17-.21-.34-.34-.13-.09-.17-.13-.17-.13,0,0,0-.09-.04-.13-.17-.47-.43-.98-.72-1.49,0-.21-.17-.47-.38-.72,0,0-.04-.04-.09-.21.04.04.09.09.13.17.09.13.3.34.64.34l.09.09s.17.17.3.26c.09,0,.17.04.26.04h0s.04.09.09.09c.13.17.34.26.51.17.09.09.21.17.34.26.09.04.17.13.21.21.04.04.09.13.17.13.55.3.85.43,1.02.51.26.34.72.6,1.32.85.72.3.9.47.94.51.21.26.55.38,1.02.43.47,0,.77-.09,1.02-.26.21-.17.47-.51.43-1.19,0-.34-.13-.68-.3-.9h0s.13-.34.04-.51l-.17-.47v-.21c0-.21,0-.47-.13-.64,0-.09,0-.21-.04-.3s-.13-.3-.21-.81c-.04-.38-.17-.68-.3-.94v-.13c0-.21-.09-.38-.21-.55,0-.09,0-.17-.04-.26v-.09s-.09-.17-.26-.38v-.3c0-.38-.09-.81-.34-1.19h.13l.13.13c0,.17,0,.3.17.43.13.09.26.17.43.21,0,0,.04,0,.17.17.09.13.26.21.47.3.04.17.09.26.17.38,0,0,.09.13.3.3.13.13.26.26.34.43.09.13.26.26.55.3h0s.13.26.17.38c.09.13.26.26.68.47.09,0,.38.26,1.19,1.32.09.13.3.26.64.3,0,0,.09.09.13.09.34.3.68.21.77.17s.17-.13.21-.21c.09-.17.26-.34.47-.47.17-.13.26-.3.3-.51,0-.3-.17-.55-.34-.77v-.17s-.09-.17-.13-.21c-.09-.09-.21-.21-.47-.26,0-.09-.04-.13-.09-.21-.13-.17-.3-.26-.55-.3-.21-.26-.51-.51-.9-.85-.6-.47-.72-.64-.72-.64v-.09s-.13-.3-.17-.38c-.17-.21-.47-.55-.94-.94-.43-.34-.68-.64-.85-.85-.13-.17-.3-.3-.51-.38l-.13-.13s-.09-.09-.13-.09c0-.13-.09-.21-.13-.3-.09-.09-.17-.17-.38-.3,0,0-.13-.09-.26-.3,0,0,0-.04-.04-.09-.13-.13-.26-.26-.38-.43-.09-.13-.21-.26-.38-.38-.13-.13-.21-.21-.3-.3-.13-.21-.38-.34-.72-.47-.09,0-.13-.04-.17-.09-.04-.09-.13-.17-.26-.21-.17-.04-.34,0-.47.04,0,0-.13.04-.21.13-.17.09-.3.17-.38.21-.26.21-.55.6-.38,1.41l.21.77h0c-.21.47.09.72.17.77h0c.04.21.17.6.38,1.36-.09.17-.09.38,0,.51,0,.09.13.21.21.47v.09c-.13.34,0,.68.17.94v.26c0,.38.04.51.13.64.04.09.13.13.21.17v.68s-.04.26,0,.34c.09.3.3.72.51,1.28v.09s0,.26.13.38h.04v.17s-.17-.09-.26-.17c-.51-.34-.68-.51-.77-.6-.09-.13-.21-.21-.38-.26-.09-.09-.26-.26-1.36-.81-.98-.51-1.15-.72-1.19-.77-.17-.21-.38-.34-.64-.34h-.21s-.3-.21-.85-.68c-.09-.09-.21-.13-.3-.13,0,0-.13,0-.47-.21v-.13s-.26-.3-.47-.34c-.09,0-.21,0-.43-.17-.26-.13-.3-.21-.3-.21-.13-.17-.38-.38-.9-.34-.34,0-.6.09-.81.21l-.21.21s-.3.17-.38.3c-.13.17-.13.43,0,.6,0,.04.09.17.13.34v.3h.04v-.02Z"/>
  <path class="st0" d="M66.3,24.86v.47s.13.3.3.51c.13.17.17.34.21.43v.17s.04.3.09.38c.09.17.17.43.34.72.13.26.26.47.3.6,0,.09.04.21.09.38.04.3.09.47.09.51.04.13.13.26.3.38v.13c0,.21.04.34.09.47,0,.09.13.26.21.43.09.13.13.17.13.21v.09s0,.26.04.38.17.34.34.64c.09.17.17.26.21.34,0,.21,0,.34.04.43.04.13.13.21.26.3,0,.09.09.17.09.21h0c-.09.21-.09.43,0,.55.3.47.38.6.38.6,0,.09.13.21.26.3,0,.17.04.26.09.3.09.17.21.3.38.38.09,0,.21.04.34.04.21,0,.43-.04.72-.17.17,0,.3,0,.43-.04.09,0,.17-.09.21-.17v-.09s.3-.09.43-.17c0,0,.04,0,.09-.04,0,0,.13-.04.43-.09.3,0,.47-.09.6-.13.21-.09.43-.26.64-.47.13,0,.21,0,.34-.04.09,0,.13-.04.21-.13h.43s.17-.13.3-.21c0,0,.09,0,.47-.09.34-.04.6-.09.77-.17.13-.04.21-.13.34-.26.09,0,.17-.04.21-.09.38-.13.64-.51.85-1.15v-.34s-.09-.17-.17-.21c0-.09,0-.13-.04-.21-.26-.68-.77-.72-1.11-.6-.04,0-.13.04-.21.13h-.38s-.3.09-.38.21c-.06.09-.07.1-.04.04h-.21s-.3.17-.47.3c-.09.09-.13.13-.17.13h0s-.38-.09-.55,0c-.09,0-.17.09-.3.21h0s-.13,0-.21.04c-.09,0-.21.13-.3.21t0,0c.09-.09-.38,0-.55.09-.17.09-.34.21-.43.38-.09,0-.17,0-.34.04-.21,0-.34,0-.34.04h-.26s-.09-.21-.17-.34c-.04-.13-.13-.21-.21-.34,0-.04-.04-.09-.04-.09v-.09c0-.21,0-.43-.13-.51-.09-.17-.17-.3-.26-.43,0-.09-.04-.17-.09-.3-.04-.17-.09-.3-.13-.43h0s.26,0,.38-.09c.09-.04.21-.17.43-.38.09-.09.13-.13.17-.17.26.09.47.04.6,0s.26-.17.47-.34c.09-.09.13-.13.17-.13h.17s.34-.04.43-.09c.13-.04.21-.13.34-.26h.04s.38,0,.55-.04c.09,0,.17-.13.26-.21.13,0,.21,0,.3-.04l.34-.17s.21-.17.26-.3h0c.3-.13.6-.51.34-1.11-.34-.85-1.07-1.19-1.92-.85-.13.04-.21.13-.34.26h-.04s-.04.04-.09.04c-.26,0-.43,0-.55.04-.13.04-.26.17-.34.3-.13,0-.21,0-.3.04-.09,0-.21.13-.3.21-.17.09-.38.13-.6.17-.13,0-.3,0-.43.04s-.26.13-.38.3h-.04c-.26-.04-.47.04-.6.3h0s-.3.04-.34.04h-.04s0-.26-.04-.38c0-.09-.13-.21-.21-.34h0c.09-.21.09-.38,0-.55-.04-.13-.13-.3-.3-.55-.09-.13-.13-.21-.17-.3h0s.21-.13.38-.26l.09-.09h.55c.09,0,.13-.09.21-.13v-.09l.34-.09s.26-.13.38-.26h.6s.21-.09.3-.17h.3s.26-.17.38-.34c.09,0,.26-.09.51-.13.3-.09.51-.13.64-.21.43-.17.64-.34.77-.55.13-.3,0-.68-.04-.9v-.09s0-.34-.09-.47c0,0,0-.04-.04-.09v-.09s-.21-.17-.3-.17l-.38-.17s-.26-.04-.34,0c-.09,0-.17.09-.3.17,0,0-.13.04-.47.09-.34,0-.55.09-.68.13-.17.09-.26.21-.3.3-.09,0-.26.09-.47.13-.34.09-.55.13-.72.21-.04,0-.13.04-.26.17-.13,0-.3-.04-.47,0-.09,0-.13.09-.34.21-.09,0-.17.09-.26.13,0,0-.04.04-.09.04-.17,0-.26.09-.34.09h-.04s-.17.09-.21.17h-.04s-.34-.04-.47,0c-.17.09-.3.21-.43.43h-.09c-.3.04-.38.09-.43.09-.21.09-.38.26-.55.55-.17.34-.13.64-.09.81,0,.09.09.13.13.21l-.09.09-.03.07Z"/>
  <path class="st0" d="M83.18,19.61s0,.13.13.3v.17l.26,1.71s.04.26.09.47c0,.17.09.34.09.43,0,.04,0,.09.04.13v.09s.13.26.17.43c0,.13.09.17.09.21h0s-.09.34-.09.51c0,.13.04.21.13.3,0,.09-.04.21,0,.3.09.38.13.6.17.64v1.19s.09.3.21.51h0c-.09.21-.13.38-.09.55,0,.09,0,.13.21.43-.09.6-.09.77-.04.85,0,.13.09.3.21.38v.3s0,.13.04.17v.09s.17.13.21.17c.13.34.38.51.72.51h.04s.34,0,.51-.09c.13,0,.26-.09.3-.09h0s.38.13.55.13.34-.13.51-.26h.43s.34-.13.55-.3h.04s.43.09.55.09h.17s.13-.13.21-.17h.13c.26,0,.38-.26.47-.43h.09s.34-.04.43-.17c0,0,.09-.09.47-.3.43-.26.64-.43.77-.6,0-.04.04-.09.09-.13h.13c.26-.04.47-.21.55-.51.09-.3.3-.64.55-.98.09-.13.13-.26.13-.38v-.13s0-.09.09-.17c.09-.13.09-.3,0-.43h0v-.13c.04-.34,0-.72-.04-1.11.09-.55.09-1.15,0-1.71,0-.17-.13-.34-.3-.51-.09-.26-.21-.6-.43-1.15-.26-.64-.3-.81-.3-.81-.04-.3-.17-.47-.38-.6-.04,0-.13-.04-.17-.04h-.13s-.17-.13-.34-.38c-.38-.43-.47-.51-.47-.51-.13-.17-.3-.3-1.07-.55l-.94-.3h-.43c-.26-.13-.55-.17-.9-.09h-.77s-.38-.26-.6-.13c-.09.04-.26.09-.43.17-.13,0-.34,0-.55-.04-.09,0-.21,0-.3.04h-1.11c-.26,0-.43.21-.64.6-.21.34-.3.55-.26.81v.51h.25ZM87.74,20.21s.17-.04.34-.13c.13.04.26.09.38.04.09,0,.13,0,.21-.09.09,0,.43.13,1.11.85.81.9,1.02,1.32,1.02,1.53,0,.13.09.26.17.38-.04.17-.09.3-.04.43,0,.09.04.21.17.38.04.09.04.13.09.17t0,0v1.45c-.04.21-.13.26-.13.26-.21.09-.34.26-.34.47-.13.04-.26.13-.43.26-.09.04-.17.17-.21.26,0,.04,0,.13-.04.17h-.09s-.13.04-.21.13l-.26.21h-.26s-.26.17-.34.3h-.3s-.38.13-.55.3c0,0-.04,0-.04.04-.17-.04-.3-.09-.43-.04-.17,0-.3.13-.34.17,0,0,0-.09-.04-.17,0-.13-.09-.3-.17-.47v-.09s.09-.3.09-.43c0-.17-.13-.34-.26-.51h0s.13-.34,0-.64c0,0-.04-.21-.17-.94v-.09s.04-.21,0-.34c-.13-.51-.26-.94-.3-1.28,0-.09-.04-.21-.13-.34,0-.13.09-.26.04-.38,0-.09-.09-.21-.13-.26.04-.13.13-.26.09-.43,0-.09-.04-.21-.17-.43-.04-.09-.09-.17-.09-.17,0-.13-.04-.21-.13-.3.04-.09.09-.17.09-.26v-.21h.43s.17,0,.43-.13c.09,0,.13-.04.17-.09h0c.26.21.51.26.72.21v.17h.04v.04Z"/>
  <path class="st0" d="M102.54,28.44c0,.34.13.51.26.6.09.09.26.13.51.13.13.09.21.13.34.13h0s.17,0,.3-.09h0s.43-.09.6-.26l.17-.21s.09-.13.09-.21v-.43s.26-.38.26-.55c0-.13,0-.3-.09-.47v-.09s.13-.3.13-.43c0-.17-.04-.34-.17-.51h0s.13-.34.13-.47v-.98s.13-.3.13-.43,0-.26-.09-.43c.04-.13.09-.3.09-.51v-.21s.09-.34,0-.47v-.09h-.04c.13-.21.17-.38.17-.55h0s0-.21-.04-.26v-.09s-.04-.09-.04-.38v-1.49s.09-.26.09-.34c0-.13,0-.21-.09-.38.17-.17.21-.34.26-.55,0-.13,0-.26-.04-.47,0-.09,0-.13-.04-.21v-.13s.09-.3.09-.38c0-.43-.09-.77-.34-.98-.21-.21-.55-.34-.9-.34-.13,0-.21,0-.3.09h-.17s-.17,0-.26.04c-.26.13-.43.34-.47.55-.04.17-.04.34,0,.51v.34s-.13.3-.13.43,0,.3.13.51v.13s-.09.3-.09.43v1.83s-.09.21-.13.3c-.04.13-.04.26,0,.34l.09.21s-.17.34-.21.51c0,.21,0,.51.09.9,0,.3.04.47.04.6-.04.13-.09.26-.13.38,0,.13,0,.3.04.38s.04.13.09.13h0s0,.26-.09.47c-.04.26-.09.47-.09.6,0,.17,0,.3.04.47-.13.6-.17.85-.17.94,0,.13,0,.21.09.34-.04.04-.09.13-.09.21v.21s0,.26.09.47v.13l-.09.09h-.02Z"/>
  <path class="st0" d="M113.75,26.69c-.09.26,0,.55.21.94.09.13.09.21.09.17,0,.17-.04.6.51.94,0,.13,0,.26.09.38.09.17.3.21.47.21.09.09.17.13.34.26-.09.3.13.6.43.68h.3c.26.26.55.43.81.51,0,0,.17,0,.3.04h.09l.17.13s.13.09.21.09h.43s.26.13.43.09c.09,0,.17,0,.21-.04h0s.3.26.47.3h.26s.09,0,.26.04c.21.09.43.09.64.04,0,.04.13.09.21.13h.13s.38-.09.64-.26c.09-.04.13-.09.21-.13h.17c.3.13.55,0,.81-.38,0-.09.09-.13.13-.17,0,0,.09,0,.13-.04.3-.13.51-.34.51-.55v-.21s.3-.21.34-.43v-.68s-.17-.26-.3-.34c-.09-.04-.21-.17-.47-.38,0-.04-.09-.09-.17-.09-.17-.09-.38-.09-.6.04-.21,0-.43.13-.55.26-.13,0-.26,0-.34.09-.13.09-.21.17-.21.34,0,0-.09.13-.47.17-.34.09-.6.09-.81.04-.09-.09-.21-.21-.34-.26h-.55s-.26-.09-.72-.3c-.26-.13-.38-.17-.43-.21,0-.09-.09-.21-.13-.34,0-.09-.13-.17-.21-.21-.26-.13-.51-.3-.72-.43-.17-.09-.13-.17-.13-.21,0-.13,0-.3-.13-1.07-.09-.51-.13-.68-.13-.68h0s.13-.26.17-.38c0-.17,0-.43-.09-.72,0-.04,0-.09.09-.13.13-.26.26-.51.3-.77h0s.21-.21.21-.38v-.21h0s.09-.09.13-.09h0s.26-.3.34-.64c0,0,.09-.3,1.02-.68.9-.38,1.28-.38,1.45-.34.09,0,.17.04.21.09.13.13.26.17.43.17h.38s.17.17.3.17h.21s.21.09.3.13c.13.04.21.09.3.13,0,.13.13.26.3.43,0,.04.13.09.17.13h.13v.26c0,.13.13.26.21.3,0,.21.17.38.38.72.3.38.51.6.77.64.38.09.72.04.98-.09.21-.13.47-.34.55-.81v-.9s0-.21-.13-.3c0,0,0-.04-.13-.17,0-.26,0-.43-.13-.51-.09-.09-.21-.17-.3-.17,0-.09-.09-.26-.13-.43,0-.17-.17-.3-.3-.34-.09-.38-.38-.47-.47-.51h-.38c-.17-.21-.38-.34-.6-.43l-.13-.13c-.21-.17-.38-.3-.55-.34-.13,0-.3-.04-.6-.09h-.3l-.43-.38s-.43-.17-.6-.04c0,0-.17.13-.51,0-.34-.09-.6-.13-.81-.13-.09-.04-.17-.09-.26-.13-.13,0-.51-.09-.72.38-.13.04-.3.13-.6.3-.34.17-.47.17-.55.13-.34-.09-.51.13-.72.43-.09.09-.13.17-.17.21h0s-.21.3-.26.51c0,0-.13.13-.3.26-.38.34-.55.51-.55.77v.26s-.13.21-.34.51c-.38.55-.43.64-.47.77v.51s-.21.3-.21.43-.04.34-.09.64c0,.26,0,.43-.04.51v.6s-.09.26,0,.38c0,.04,0,.09.04.13-.04.09-.09.17-.13.3-.04.21,0,.43.13.55v.09h-.04l-.04-.04v-.04Z"/>
  <path class="st0" d="M129.83,34.83c.17.21.26.34.38.43.51.26,1.19-.09,2.43-1.24.81-.77,1.15-.98,1.28-1.07.09.04.13.09.21.09,0,.13.13.26.3.34h.09l.94.3c.09.21.21.38.38.47,0,0,.13.04.17.04.3,0,.38.09.38.09h.13l.13.21s.13.13.21.13h.13v.09s0,.09-.09.13c0,.09-.09.17-.09.3v.3c.17.38.17.77,0,1.15-.17.3-.17.64,0,.94v.13c-.21.43,0,.85.77,1.24.13.09.3.09.47.09h.13s.09,0,.13.04h.21c.26,0,.51-.13.64-.38.09-.17.13-.34.13-.6h0v-.26c.13-.26.21-.6.26-1.02,0-.34.09-.51.13-.6v-.09s.09-.38,0-.55c.09-.17.13-.34.13-.51,0-.04.09-.13.13-.17.09-.17.09-.38.09-.81v-.47c.13-.21,0-.47,0-.72,0,0,0-.09.09-.3.09-.13.09-.17,0-1.02v-.72c.09-.17.17-.43.21-.81,0-.3.13-.51.21-.68v-.09s.09-.3,0-.47v-.09h0v-.3h0s.13-.3,0-.47c.13-.17.17-.38,0-.55h0v-.09s.13-.26.13-.6v-.38c0-.21,0-.38-.17-.51-.26-.17-.38-.3-.47-.38,0-.04-.09-.09-.17-.13h0c-.38-.21-.85-.13-1.49.21-.6.3-.94.6-1.02.94v.13c-.43.3-.6.47-.72.6-.13,0-.34.09-.43.3,0,.09-.09.17-.09.26-.09.04-.21.09-.38.17-.55.26-.9.51-1.07.81,0,.09-.09.21-.09.34,0,0-.09.09-.26.09,0,0-.13,0-.17.09-.21.13-.34.3-.47.47v.13s-.13.04-.34.09c-.13,0-.26.13-.34.26l-.21.43s-.17.13-.3.21c-.17.13-.34.3-.47.55,0,0-.09,0-.13.04-.3.13-.51.21-.64.43-.09.13-.09.26,0,.38,0,0-.17.09-.34.17-.43.17-.72.38-.9.68-.17.09-.3.21-.38.34,0,.13-.09.26-.09.47v.21s0,.38.17.47c0,0,.09.09.17.21l-.09.13h.04v-.04ZM137.76,29.93s-.09.34,0,.51c0,0,0,.09-.13.17-.17.17-.21.38-.09.6,0,.09.09.13.09.17s0,.09-.09.17v.55c-.09,0-.13-.09-.21-.09h-.17s-.13-.13-.17-.17c-.09-.04-.21-.09-.34-.09-.09-.13-.17-.3-.34-.38-.09-.04-.17-.09-.34-.09,0-.04,0-.09.09-.13v-.21s.09-.04.09-.09c.13,0,.21,0,.34-.09.3-.21.55-.47.68-.72,0,0,0-.04.26-.17.17-.09.34-.21.47-.34v.43h-.04l-.09-.04h0Z"/>
  <path class="st0" d="M144.92,44s.13.26.26.3c.34.17.43.21.43.26.09.09.17.13.26.13.09.17.21.34.34.38.26.17.51.34.68.47,0,.13,0,.34.26.51.13.09.26.13.43.13v.13c.13.26.21.38.34.51.17.13.38.21.6.21,0,.04.13.13.26.3.17.21.3.34.38.47.09.09.21.13.3.13h0s.17.26.26.3c.09.09.21.17.38.3.13.09.26.17.3.26.38.3.51.38.6.43.17.09.3.13.47.13.26,0,.51-.13.68-.34,0-.04.09-.09.09-.17l.09-.21h0l.17-.13s0-.04.09-.09c.21-.26.21-.47.17-.64,0-.13-.13-.3-.38-.43-.26-.21-.34-.38-.34-.47,0-.13-.13-.21-.21-.3-.38-.21-.6-.38-.68-.47,0-.09-.09-.21-.17-.3-.17-.13-.38-.17-.55-.17h0v-.09c-.09-.21-.21-.38-.34-.51l-.26-.21s-.13-.09-.21-.09c0-.04-.09-.13-.13-.17s-.13-.09-.21-.13c0-.09-.09-.13-.13-.17,0,0,0-.04-.09-.09,0-.17-.09-.3-.21-.38,0,0-.17-.13-.34-.13-.09-.04-.13-.09-.21-.13h-.13l-.09-.21s-.09-.17-.17-.21l-.17-.13v-.13s.13-.13.26-.21c.17-.13.3-.26.34-.34.09-.13.17-.26.21-.47h0s.3-.17.38-.3c.13-.13.21-.3.34-.55,0-.13.09-.21.13-.26.21,0,.34-.09.47-.21,0-.09.13-.17.13-.26.26-.09.38-.17.47-.3.26-.3.43-.68.51-1.02h0c.3-.09.38-.17.51-.26.09-.09.13-.21.17-.38.09-.04.17-.13.26-.21h0s.3-.13.38-.21c.13-.13.26-.34.43-.64.21-.3.3-.47.34-.51h.09s.34-.17.47-.3c.09-.09.13-.21.26-.43.09-.17.13-.21.13-.21.21-.26.26-.6.09-.94,0-.04-.09-.13-.13-.17l-.09-.09v-.09s-.17-.21-.3-.26h-.13v-.09s-.13-.13-.26-.17l-.38-.13s-.38,0-.51.13h-.09s-.26.13-.34.21-.13.17-.17.3c-.26.13-.38.26-.51.34-.13.13-.26.34-.38.6-.17.26-.26.38-.3.43,0,0,0,.04-.17.17s-.26.21-.34.3c-.09.13-.21.26-.34.51-.13.26-.21.34-.21.34,0,.04-.13.13-.43.34-.34.26-.47.38-.55.47-.09.09-.21.26-.34.51-.13.26-.21.34-.26.34-.17.09-.3.17-.38.26s-.17.21-.21.38v.13h0l-.9,1.07c-.3.34-.47.51-.51.55-.26.04-.43.21-.51.47h0s-.3.13-.43.26c-.09.09-.13.21-.21.43v.13c-.34.38,0,.9,0,1.07.17.26.26.38.26.43h-.04.04-.07Z"/>
  <path class="st0" d="M66,163.51l-.3-.17s-.43-.09-.6,0l-.38.34s-.13.09-.21.09c-.13,0-.21,0-.38.13-.13,0-.21.13-.26.26-.09,0-.17,0-.26.09-.09,0-.13.13-.21.21-.09.13-.13.26-.21.47h0s-.3,0-.47.17c0,0-.09.09-.09.13,0,0-.09.13-.43.34-.04,0-.13.09-.13.13s-.04.09-.09.13c-.21.13-.47.3-.85.55-.72.51-1.19.9-1.41,1.24h0l-.77.26s-.21.09-.26.17c-.09.13-.09.26-.09.34,0,0-.09.09-.17.13.09-.13.13-.21.17-.26.17-.26.17-.55,0-.81h0s.04-.09.13-.13c.13-.17.21-.3.3-.38,0,0,.04,0,.09-.09.17-.21.09-.47,0-.68v-.09l.38-.6s.26-.34.3-.38h0s.17-.38.21-.72c0-.17.09-.34.21-.51l.09-.17v-.26s.09-.13.09-.17v-.17h0l.13-.26s.09-.43.13-.64c0-.13.09-.3.21-.51v-.13s.13-.34,0-.51h0c.17-.3.26-.6.17-.94-.09-.3-.26-.51-.47-.68-.04,0-.13-.09-.17-.09-.09-.09-.17-.17-.26-.21-.47-.34-1.07.09-1.58.51-.38.3-.6.47-.68.55h-.34s-.34.17-.38.34h0s-.34.17-.55.43h0s-.26.13-.34.21c-.17,0-.34.13-.43.26l-.17.21c-.13.13-.21.26-.26.3l-.3.13c-.26.13-.55.38-.9.77-.26.3-.43.43-.51.51h-.43c-.13,0-.17.13-.43.47v-.26s.04,0,.09-.09c.09-.09.13-.21.13-.38l.09-.17s.09-.13.09-.17.09-.26.17-.51c.13-.43.26-.64.3-.68.09-.17.21-.38.09-.77,0,0,.04-.13.17-.26.09-.13.21-.38.3-1.07.04-.38.17-.68.34-.94.17-.21.13-.47.09-.68v-.09s.09-.13.21-.21c.13-.09.21-.26.17-.43,0-.13,0-.3-.09-.47,0-.09.09-.17.09-.3s0-.3-.04-.43l-.13-.21s-.09-.13-.09-.17-.09-.09-.13-.13c-.09-.09-.21-.13-.64-.17-.38,0-.6-.09-.81.09-.09.09-.17.21-.17.34v.13s-.21.17-.3.26c-.13.17-.21.43-.26.81,0,.21-.09.38-.17.51s-.17.38-.21.77c0,.21-.13.43-.26.64-.04.09-.13.17-.55,1.58-.26.85-.38,1.24-.38,1.41-.38.77-.64,1.32-.47,1.66,0,0-.09,0-.13.09-.13.09-.21.21-.21.34s0,.21.04.3h0c-.13.26-.17.51-.13.77-.09.09-.17.13-.21.21-.09.13-.13.26-.13.38-.09,0-.13.09-.21.17-.09.17-.09.3-.09.43h0s-.04.09-.04.13l-.09.21s-.04.26,0,.34c-.21.34,0,.68.04.85.13.3.26.47.43.6.13.09.26.13.43.13.09,0,.17,0,.26-.09.09,0,.21-.13.51-.21h.47s.38-.21.55-.43c.13-.13.17-.17.21-.17.6-.26.81-.43.9-.64l.09-.17s.26-.17.43-.3c.26-.17.47-.38.6-.6,0,0,.09-.09.38-.26.47-.26.6-.34.64-.43.09-.09.26-.3.77-.72s.72-.51.72-.55c.26-.09.47-.26.64-.55.09-.13.17-.26.21-.34.17,0,.3-.09.38-.13h.09v.09c-.04.43-.09.6-.09.6l-.17.17c-.13.13-.21.21-.3.34-.09.13-.13.34-.17.68,0,.13,0,.26-.09.34-.04.09-.13.13-.21.21-.13.09-.17.21-.21.34v.17s-.17.21-.13.38v.47h-.09c-.13.09-.21.21-.21.34s0,.26.09.34c-.09,0-.21.13-.3.21s-.13.21-.13.43c-.09.09-.17.13-.21.21-.09.13-.13.3-.13.77,0,0-.09.09-.13.13-.09.13-.17.34-.34.98-.04.26-.09.43-.13.6-.09.17-.13.43,0,.64-.17.34,0,.6.09.68h0s.13.09.17.13h.09l.04.09c.09.17.21.26.3.34.13.09.26.13.43.13.26,0,.55-.13.77-.26.43-.21.72-.47.9-.77,0,0,.09-.09.43-.26.47-.21.6-.34.72-.43.09-.09.17-.21.26-.38.04-.13.09-.21.09-.26.17-.09.38-.17.68-.26.17,0,.3-.21.34-.38l.3-.17s.13-.09.17-.17h.13s.26-.13.34-.26v-.09c.38-.21.72-.43,1.11-.64.47-.34.85-.64,1.07-.98,0,0,.13-.13.34-.3.3-.17.47-.38.64-.55,0,0,.04-.09.3-.21.21-.13.38-.3.55-.47.13,0,.26-.09.34-.17,0,0,.09-.09.3-.21.26-.17.43-.3.51-.47l.09-.17v-.21s.09-.13.09-.17c0-.34-.09-.55-.21-.72-.09-.13-.26-.26-.55-.43l.13.09v.21h-.03Z"/>
  <path class="st0" d="M81.01,170.08s-.17-.21-.26-.26h-.34s-.13,0-.43-.26c-.26-.17-.47-.3-.6-.34h-.43c-.09,0-.21-.09-.43-.21-.3-.17-.51-.26-.68-.34h-.3s-.17-.26-.34-.3c-.09,0-.13,0-.38-.09-.09,0-.17-.09-.3,0h-.09s-.26-.13-.3-.13h-.34s-.21-.3-.34-.34h-.64c-.26-.13-.34-.17-.38-.21-.21-.09-.47,0-.77,0-.38.17-.51.38-.55.55v.26s-.26.26-.3.38-.09.3-.13.6c0,.21-.09.38-.13.47l-.09.17c-.09.13-.17.26-.21.38-.04.17-.13.43-.21.77-.09.3-.13.51-.17.64,0,0-.09.17-.21.34-.17.26-.26.4-.26.43,0,.04-.04.26,0,.51,0,0-.04.09-.09.13-.13.17-.17.3-.21.43,0,.09-.09.26-.09.47v.26h-.04s-.17.26-.17.34-.09.26-.17.68c0,.17-.04.3-.09.38-.13.17-.21.26-.26.34-.04.13-.04.26,0,.38,0,.09-.09.17-.09.21h-.04s-.3.21-.34.43c-.09.55-.13.68-.13.72,0,.09-.04.21,0,.38-.09.17-.13.21-.13.26-.04.17-.04.34,0,.51.13.26.38.43.85.6.13.13.21.21.34.26h.38s.26.09.43.09h.09s.13,0,.38.21c.3.21.47.26.55.3.21.09.47.09.81.09.09.09.17.13.26.17h.26s.17.21.34.26h.38s.09,0,.38.26c.3.21.51.3.68.38h.43c.09,0,.17.09.21.09h.34c.3,0,.64-.13,1.02-.34.09,0,.17-.17.21-.26v-.26s.09-.13.09-.21c.26-.68-.09-1.07-.43-1.19-.04,0-.13,0-.26-.09h-.04l-.26-.21s-.3-.13-.43-.09h-.09s-.13-.09-.17-.09c-.13,0-.3-.09-.55-.09h-.21s-.26-.34-.43-.38h-.43s-.13,0-.17-.09h-.38s-.3-.21-.47-.3c-.17,0-.34-.09-.6,0-.09,0-.17-.09-.26-.17-.17-.13-.3-.21-.3-.21-.04-.09-.13-.13-.17-.13,0-.09.04-.21.13-.38,0-.13.09-.26.09-.43v-.09l.09-.09s.26-.34.26-.47c.04-.17.09-.34.13-.47,0-.09.09-.17.13-.3.09-.17.13-.3.17-.38h0s.21.17.34.17h.81c.13.26.3.34.43.43.13,0,.3.09.55,0h.21s.09,0,.17.09c.17.13.3.21.38.21h.43s.3.26.43.3h.34c.09.09.17.13.26.13l.38.13h.38c.3.13.77,0,.98-.6.17-.43.17-.81,0-1.15s-.47-.6-.9-.72h-.51l-.09-.09s-.3-.3-.47-.34h-.47c-.09-.09-.17-.13-.26-.13h-.34c-.17-.09-.38-.17-.55-.26-.09-.13-.21-.21-.34-.26h-.47c-.13-.26-.38-.34-.64-.21h0c-.26-.13-.3-.21-.3-.26.13-.13.17-.21.21-.34,0-.13.04-.26.04-.43h0s.3-.21.38-.43c.04-.13.09-.34.13-.6,0-.17,0-.26.04-.34h.6s.26.3.43.34h.34l.26.13h.55s.26.3.38.34c.09,0,.17.09.34.09.04.09.13.13.26.17h.51c.13,0,.26.13.47.21.26.13.47.21.64.3.43.17.72.17.94.09.3-.13.47-.47.55-.72v-.09s.26-.26.3-.38v-.47l-.21-.38h-.3v.13h.07Z"/>
  <path class="st0" d="M98.53,180.35h0c0-.34-.17-.72-.6-1.19-.3-.34-.34-.47-.34-.47,0-.13,0-.26-.09-.38h0s.09,0,.13-.09c.26-.17.34-.38.38-.55h.09s.21-.26.21-.43v-.43s0-.3.09-.51c.04-.26.09-.47.09-.6.09-.17.17-.3.17-.43,0-.17-.09-.34-.21-.47l-.13-.09s0-.13-.04-.17v-.09c0-.26-.13-.51-.64-.98-.34-.34-.64-.55-.9-.64,0,0-.09-.13-.13-.17-.13-.13-.3-.17-.47-.21-.13,0-.26,0-.43.09h0c-.55-.3-.81-.34-.98-.34h-.43s-.6-.09-1.32-.17h-.13s-.3-.13-.43-.17c-.72,0-1.24.09-1.58.47-.21.3-.34.72-.43,1.41v.38s-.13.43-.21.77v.09s0,.17.04.26c.04.13.09.21.13.26v.09s-.09.3-.09.38v.26s-.13.21-.17.3v1.02s0,.09-.09.3c-.04.21-.09.38-.13.51,0,.13,0,.3.13.47h0s-.17.34-.21.51c0,.17,0,.38.17.6-.13.13-.21.26-.21.43v.17s.09.3,0,.85c-.09.09-.13.17-.13.26s-.04.17,0,.26c-.09.13-.13.26-.13.34,0,.13,0,.21.04.34-.09.13-.13.26-.13.38v.68c-.04.51.17.94.6,1.11.13,0,.3.13.85.17,0,0,.09,0,.34.17.09,0,.17.09.26.09.13,0,.34,0,.6-.09h.26s.09,0,.17.13c.13.09.26.13.43.09.17,0,.34-.09.51-.13.13,0,.21.09.3.09h.38c.13,0,.26.09.34.09.17,0,.34,0,.51-.09h.17s.34.09.43.09h.09s.47-.09.68-.3h.21c.26,0,.51-.13.68-.47h.09s.38-.13.47-.3c0-.09.04-.21.04-.3h.13s.34-.43.26-.64c.38-.85.47-1.15.47-1.32h0c.04-.72,0-1.24-.09-1.53,0,0-.04-.09-.09-.13v.09-.09l.02-.03ZM92.35,182.53s-.09-.09-.13-.09v-.77s0-.26.13-.55c.09-.3.13-.55.13-.68v-.09s.17-.3.17-.43,0-.26-.04-.38c.13,0,.26,0,.34-.17.09,0,.21,0,.6.13.51.17.55.17.6.17h.21s.38.17.64.17h.17c.13,0,.21.09.34.13.04,0,.13.09.17.13v.13s.17.34.34.38c0,0,.04.09.09.09h0s-.04.26-.09.3c0,.17,0,.38.09.64v.13s-.3.26-.38.38v.21h-.09s-.17,0-.26.09c-.17.09-.34.21-.51.3-.09,0-.21.09-.3.09,0,0-.21,0-.6-.09h-.55s-.17-.09-.26-.09c-.17,0-.34,0-.51.17h-.17s-.09-.17-.17-.21v-.13l.04.04h0ZM92.78,175.02v-.3s0-.09.13-.13h0s.26,0,.43-.09c.09.09.21.13.34.17h.64s.21,0,.9.26c0,.21.17.38.34.43h.17c.04.13.09.26.17.38v.51s-.13.17-.26.21c-.21.13-.43.17-.6.17-.21,0-.43,0-.72.17h-.13c-.09,0-.21-.09-.3-.09-.13,0-.3,0-.51.13-.04,0-.21,0-.64-.13h-.17v-.47h0v-.13s.17-.34.17-.43v-.68h.04v.02Z"/>
  <path class="st0" d="M116.4,177.62v-.55s-.17-.26-.3-.38c-.13-.21-.26-.38-.38-.6v-.09c-.43-.43-1.02-.6-1.83-.51-.17-.13-.34-.17-.51-.13-.17,0-.34.13-.55.38-.3.21-.55.38-.85.64-.43.38-.55.94-.43,1.66,0,.17.09.34.21.55.09.17.13.3.13.34,0,.26.17.43.38.55,0,0,0,.09.04.13.09.13.17.21.3.26,0,0,.13,0,.6.26.13,0,.26.09.47.09h1.28c.21,0,.43-.17.64-.38l.13-.13h0c.38,0,.47-.3.51-.43v-.13s.17-.26.26-.51c.13-.34.17-.55.13-.72,0-.09,0-.17-.13-.26h-.04l-.04-.04h-.02Z"/>
  <path class="st0" d="M132.9,177.62s-.13-.26-.26-.38h0v-.47s-.17-.3-.38-.38h0s0-.34-.09-.47c0-.13-.13-.3-.26-.55-.09-.13-.13-.26-.17-.34v-.47s-.13-.21-.26-.34c0-.17,0-.34-.13-.51v-.21c0-.17-.09-.34-.21-.43l-.09-.09h0v-.55h0s-.09-.17-.17-.21h0s0-.13-.17-.38c0-.17-.17-.34-.34-.64-.13-.26-.21-.43-.3-.55v-.47c0-.09-.09-.21-.21-.3.09-.21.09-.43,0-.6,0-.13-.13-.26-.26-.38,0-.09-.09-.13-.13-.17v-.13s0-.3-.09-.38c-.17-.38-.38-.68-.68-.77-.3-.13-.6-.09-.94,0-.13,0-.17.09-.26.21l-.17.09s-.17.09-.21.17c-.17.21-.26.47-.21.68,0,.17.09.34.17.51.09.13.13.26.13.26v.51s.13.26.3.43v.17s0,.3.09.43c.09.21.21.51.43.9.17.3.26.55.34.72v.34s0,.26.13.34l.17.17v.55s.21.47.43.81c.17.26.26.43.3.51v.38s.09.26.21.34c.09,0,.09.09.13.09,0,.09.09.26.13.43,0,.26.13.47.17.6,0,.13.13.3.21.38.09.6.17.81.21.94,0,.09.09.21.21.3v.43c0,.13.13.26.26.38l.09.09c.13.3.34.43.47.43h.13s.26,0,.38-.13h.38s.17-.09.26-.17h0s.38-.26.43-.47l.09-.26v-.26s-.09-.26-.17-.38c.13-.26.09-.47,0-.6l.09-.17-.17.04v-.02Z"/>
  <path class="st0" d="M147.26,170.63s-.17-.21-.3-.26v-.17s0-.13-.09-.17c-.13-.17-.3-.43-.51-.77l-.13-.13-.09-.09s-.09-.26-.13-.34c-.09-.09-.17-.21-.34-.38l-.17-.17s-.26-.47-.43-.85c-.21-.43-.34-.77-.47-.94-.09-.13-.21-.21-.34-.26-.09-.13-.26-.38-.6-.94,0,0,0-.09-.13-.38s-.17-.51-.26-.68c-.09-.13-.26-.3-.51-.51-.09-.09-.17-.13-.21-.17,0-.13,0-.26-.09-.38,0,0,0-.09-.09-.09,0-.21,0-.38-.17-.51,0-.09.09-.13.13-.17,0,0,.17-.09.38-.17.3-.09.47-.17.6-.26,0,0,.13-.09.47-.43.09-.09.17-.13.26-.13s.21-.09.26-.17c0,0,.09-.13.13-.17.09,0,.17,0,.26-.09.43-.3.77-.85.3-1.58v-.09s-.09-.3-.13-.38-.13-.13-.21-.17c-.26-.13-.64-.21-1.15.09-.13,0-.26.09-.38.13,0,0-.13.09-.13.13,0,0-.09.13-.21.26h-.09c-.26.13-.34.17-.43.21-.13.09-.21.17-.34.34h-.17s-.21.09-.3.13l-.09.09h-.13c-.13.09-.3.17-.47.38-.13.17-.21.17-.21.21-1.07.68-1.36.72-1.36.72h-.26s-.26.09-.34.21c0,.09-.09.17-.13.21l-.17.17s-.13.13-.13.17l-.21.09c-.21.09-.34.13-.43.21-.13.09-.21.17-.3.3-.21,0-.38,0-.55.13-.09,0-.26.17-.43.3s-.26.21-.34.26c-.21.13-.3.3-.3.51h0s-.13.34-.09.51v.09l.09.09c.21.3.72,1.11,1.41.9.09,0,.13-.09.21-.13.13,0,.3,0,.43-.13l.13-.13h.17l.3-.17s.17-.13.26-.3l.13-.13h0s.43-.13.55-.21c.13-.09.21-.17.34-.34.09-.09.09-.13.09-.13h0c.34-.21.47-.26.47-.26v.09s.13.13.21.3.17.3.26.43c0,.09.13.17.21.21,0,.21,0,.38.13.47,0,.09.17.17.34.3.34.72.38.77.38.81.09.13.17.26.34.38l.17.17h0v.09s.09.3.17.43.21.26.43.34h0s.09.34.17.47c.13.21.38.51.72.94.13.47.21.68.3.77,0,.09.17.17.3.26,0,.13.09.26.13.38,0,0,.09.13.17.17,0,.13,0,.26.09.34,0,.09.13.17.26.34,0,0,.09.13.13.21,0,.13.13.21.26.26,0,.09.09.13.17.17l.17.09h0s.3.26.43.3h.3s.43-.17.6-.3h.09s.26-.09.34-.21l.13-.21s.09-.13.09-.21c0-.21,0-.38-.13-.51,0-.13,0-.3-.09-.51l-.09.3v.04-.02Z"/>
  <path class="st0" d="M172.85,138.4c-.64-.34-.72-.21-1.36-.55s-.55-.6-1.28-.68c-.26.51-.77.85-1.02,1.32-.26.51,0,1.28-.34,1.75-.3.47-1.02.68-1.36,1.15-.3.47-.21,1.24-.51,1.71s-.9.77-1.19,1.24c-.34.47-.64.94-.94,1.41-.34.47-.77.85-1.11,1.32l.6.6c.43.21.43,0,1.28.68.85.64.98.51,1.88,1.19l.26-.47c.34-.47.09-.38.47-.85.34-.47.72-.94,1.07-1.41.34-.51,1.15-.64,1.49-1.15.34-.47.43-1.15.77-1.66s.38-1.15.68-1.66.9-.85,1.15-1.41c.3-.51.55-1.07.85-1.58l-.21-.13c-.64-.34-.47-.43-1.11-.77h-.04v-.04h-.03Z"/>
  <path class="st0" d="M177.83,116.61c-.13.55-.64.94-.77,1.49-.13.55.47,1.28.34,1.83-.17.55-.85.94-.98,1.49-.17.55.09,1.19-.09,1.75-.17.55-.72.94-.9,1.49-.17.51-.09,1.15-.3,1.66-.17.55-.51,1.02-.68,1.53v.13c1.07.38.94.64,1.96,1.02s.98,0,2,.38c.13,0,.3-.47.3-.47.21-.55.09-.68.3-1.24s.38-1.11.6-1.66c.17-.55.21-1.15.38-1.75.17-.55.64-1.02.81-1.62.17-.55.21-1.15.38-1.75.13-.6.13-1.19.26-1.79.13-.6.47-1.11.6-1.71v-.26c-1.07-.21-.9-.26-1.96-.47-1.07-.26-1.11-.13-2.22-.09h-.04v.04Z"/>
  <path class="st0" d="M183.97,99.73c0-.6-.13-1.19-.13-1.79s0-1.19-.09-1.75c0-.13.09-.43.09-1.02v-.43h-.38c-.64-.04-.85-.38-1.53-.43h-.38c-1.07.09-1.07.17-2.13.51,0,.55-.17.98-.13,1.53,0,.6-.09,1.11,0,1.71,0,.55.17,1.11.17,1.71v1.71c0,.55-.17,1.11-.21,1.66,0,.55.55,1.15.55,1.71s-.3.81-.34,1.36l-.09.51c1.11.09,1.11.17,2.17.26h.38c.64,0,.6-.13,1.19-.13h.6c0-.6.26-1.19.3-1.75,0-.6-.26-1.19-.26-1.79s.47-1.19.51-1.79c0-.6-.13-1.19-.13-1.79h-.17.01Z"/>
  <path class="st0" d="M175.66,76.45c.17.55.47,1.02.64,1.58.17.51.3,1.07.43,1.62.17.55.55,1.02.68,1.58.13.55.26,1.11.38,1.66s.17.68.26,1.24l.13.3s.13.09.34,0c.34-.09.72-.26.72-.26.6-.09.64,0,1.19-.09,1.11-.13,1.92-.38,1.92-.38-.13-.6-.38-1.19-.51-1.79s-.43-1.15-.55-1.71c-.13-.6-.26-1.15-.43-1.75-.17-.55-.51-1.11-.68-1.66-.17-.6.09-1.28-.09-1.83-.17-.6-.43-1.11-.6-1.66-.21-.55,0-.68-.21-1.24l-.26-.13c-.47.17-.9.34-1.36.51-.68.26-.81-.04-1.49.17-.68.26-.81.17-1.36.68.21.51.47.9.64,1.45.17.51,0,1.11.13,1.66h.09v.04h0Z"/>
  <path class="st0" d="M174.68,61.78c-.26-.51-.64-.98-.94-1.53-.26-.51-.85-.9-1.15-1.41s-.3-1.19-.6-1.71c-.3-.51-.34-1.19-.64-1.71-.34-.51-1.19-.64-1.53-1.15-.34-.51-.21-1.28-.55-1.79-.34-.47-.77-.9-1.11-1.36h-.21c-.9.68-1.02.51-1.88,1.15-.9.64-1.11.47-1.83,1.32.34.47,1.15.9,1.45,1.36.34.47.51,1.02.81,1.49.34.47.26,1.19.55,1.66.3.47.98.68,1.32,1.19.3.47.26,1.15.55,1.66.3.47.77.85,1.02,1.32.3.51.38.64.64,1.15l.13.43h.09c.98-.47,1.11-.26,1.96-.94.38-.3,1.19-.47,1.62-.77l.3-.34h0v-.04.02Z"/>
  <path class="st0" d="M26.82,124.58c-.17-.55-.77-.94-.94-1.49-.17-.55.09-1.19-.09-1.75-.17-.55-.85-.94-.98-1.49-.13-.55.47-1.28.34-1.83s-.64-.94-.77-1.49c-1.07-.04-1.15-.13-2.22.09-1.07.21-1.02.34-2.09.6l.17.17c.13.6.47,1.11.6,1.71.17.6.13,1.19.3,1.79s.21,1.15.38,1.75.68,1.07.85,1.62.21,1.15.38,1.75c.17.55.38,1.11.6,1.66.22.55.09.68.3,1.24,0,0,.17.55.3.47,1.02-.38.98,0,2-.38s.9-.64,1.92-1.02v-.13c-.17-.51-.47-.98-.68-1.53-.17-.51-.13-1.15-.3-1.66h-.09v-.04l.02-.04Z"/>
  <path class="st0" d="M23.28,84.12s.38.26.3.21c-.17-.13.34,0,.34,0l.13-.3c.13-.55.17-.68.3-1.24.13-.55.26-1.11.38-1.66s.51-1.02.64-1.58c.13-.55.3-1.11.47-1.62.17-.55.47-1.02.64-1.58.17-.55-.09-1.11.13-1.66.21-.51.47-.9.64-1.45-.55-.47-.64-.43-1.36-.68-.68-.26-.77.04-1.49-.21-.47-.17-.9-.34-1.36-.51l-.26.13c-.21.55,0,.68-.21,1.24-.17.55-.43,1.11-.6,1.66s.09,1.24-.09,1.83c-.17.55-.51,1.11-.68,1.66-.17.6-.26,1.15-.43,1.75-.13.55-.43,1.11-.55,1.71s-.38,1.19-.47,1.79c0,0,.81.26,1.88.38.55.09.51-.13,1.58.09h.09v.04h-.02Z"/>
  <path class="st0" d="M36.37,144.24c-.3-.47-.85-.77-1.19-1.24-.3-.47-.21-1.24-.51-1.71s-1.07-.68-1.32-1.15c-.3-.47-.04-1.28-.34-1.75-.3-.51-.77-.81-1.07-1.32-.72.09-.64.34-1.28.68-.64.34-.72.17-1.36.55-.64.34-.47.43-1.11.77l-.17.13c.3.51.55,1.07.85,1.58s.9.9,1.19,1.41c.3.51.34,1.15.68,1.66s.43,1.15.77,1.66,1.15.68,1.49,1.15c.34.51.72.94,1.07,1.41s.09.38.47.85l.26.47c.85-.68.98-.51,1.83-1.19.85-.68.85-.47,1.28-.68l.64-.6c-.34-.47-.77-.85-1.11-1.32s-.64-.94-.94-1.41h-.13v.04h0Z"/>
  <path class="st0" d="M20.64,106.85c1.11-.09,1.07-.17,2.17-.26l-.09-.51c-.04-.55-.3-.77-.34-1.36,0-.55.55-1.15.51-1.71,0-.55-.17-1.11-.21-1.66,0-.55,0-1.11-.04-1.71,0-.55.17-1.11.17-1.71,0-.55-.09-1.11-.04-1.71,0-.55-.17-.98-.13-1.53-1.02-.34-1.02-.43-2.13-.51s-1.15.51-2.22.43v.43c0,.6.09.94.09,1.02,0,.6-.09,1.19-.09,1.75,0,.6-.13,1.19-.13,1.79s-.17,1.19-.17,1.79.51,1.19.51,1.79-.3,1.19-.26,1.79c0,.55.26,1.15.3,1.75h.26c1.11-.09.77.21,1.83.09h0v.04h.01Z"/>
  <path class="st0" d="M31.34,63.78s.47-1.07.77-1.58c.26-.47.77-.85,1.02-1.32.3-.51.26-1.15.55-1.66.3-.51,1.02-.68,1.32-1.19.3-.47.21-1.19.51-1.66s.51-1.02.85-1.49c.3-.47,1.11-.9,1.45-1.36-.68-.85-.94-.68-1.83-1.32-.85-.64-.98-.51-1.88-1.15h-.09c-.34.47-.77.9-1.15,1.36-.34.47-.21,1.28-.55,1.79s-1.19.64-1.49,1.15c-.34.47-.34,1.19-.64,1.71-.3.51-.34,1.19-.64,1.71-.3.51-.85.9-1.15,1.41s-.85,1.41-.81,1.41c.98.51.85.72,1.83,1.24.98.51,1.02.43,1.96.94h-.04v.04-.03Z"/>
  <path class="st0" d="M160.82,90.6v-.09c0-.51-.13-.94-.17-1.28,0-.17,0-.3-.09-.47v-.72c0-.43-.09-.81-.13-1.24v-.13c0-.51.09-1.36-.09-2.26-.13-.72-.38-1.28-.55-1.75.09-.64.13-1.58-.17-2.6-.3-.98-.77-1.71-1.02-2.13,0,0,0-.09-.09-.13-.26-.64-.55-1.11-.77-1.49,0-.04,0-.09-.09-.13v-.09c-.09-.51-.26-1.28-.64-2.13v-.09c-.21-.47-.47-.85-.68-1.24-.13-.17-.21-.38-.34-.55v-.13c-.3-.55-.64-1.02-.9-1.45-.09-.13-.17-.26-.26-.43,0-.09-.09-.21-.13-.3-.21-.43-.51-1.02-.94-1.66-.43-.6-.85-1.02-1.19-1.36h0c-.21-.64-.55-1.49-1.32-2.34v-.09c-.9-.94-1.92-1.41-2.64-1.66-.17-.17-.34-.38-.55-.55-.34-.64-.94-1.71-2.09-2.47-.9-.6-1.75-.85-2.3-1.07,0,0-.13,0-.17-.04-.98-.47-1.88-.6-2.43-.68h0c-.6-.26-1.24-.51-1.96-.72h-.09c-1.02-.3-1.92-.26-2.47-.26-.38-.09-.81-.17-1.19-.26l-.47-.09h0s-.17-.04-.26-.09c-.38-.13-.85-.3-1.49-.43h0c-.51-.21-1.32-.55-2.43-.68-.98-.09-1.79.09-2.3.17h-.13c-.47-.09-1.15-.21-1.96-.21h-2.6c-.55.09-1.15.13-1.79.21-1.32.17-2.3.81-2.9,1.24-.26.09-.51.13-.72.21h0c-.64-.04-1.71-.09-2.94.34-.85.34-1.45.77-1.88,1.07-.47.09-1.28.26-2.13.72,0,0-.04,0-.09.04-.47.26-.9.51-1.32.77-.04,0-.13.09-.17.13-.55.13-1.58.43-2.52,1.11-1.07.77-1.62,1.71-1.92,2.34-.34.3-.64.6-.9.85l-.13.13s-.21.17-.34.26c-.38.3-.81.64-1.28,1.11-1.02,1.02-1.49,2.39-1.36,3.71h0c-.13-.77-.47-1.53-1.02-2.17-.13-.13-.26-.3-.34-.43-.3-.38-.64-.77-1.02-1.24,0-.04-.09-.09-.13-.13-.6-.6-1.28-1.02-1.75-1.28-.3-.47-.72-1.07-1.36-1.62h0c-.34-.47-.94-1.24-1.88-1.83-.94-.64-1.88-.85-2.64-.94-.38-.34-.94-.72-1.62-1.07-.85-.38-1.66-.51-2.34-.55-.51-.43-1.19-.81-2.05-1.07-.85-.26-1.62-.26-2.22-.21-.55-.3-1.28-.64-2.17-.77h-.13s-.21-.04-.34-.09c-.47-.13-1.07-.26-1.79-.34-1.28-.13-2.3.21-2.94.47-.43,0-.81.04-1.11.09h-.34c-.51-.09-1.32-.21-2.3-.13-.94.09-1.71.34-2.17.51h-.3c-.47,0-1.11,0-1.88.17-.17,0-.34.04-.51.09-.43.04-.98.13-1.66.26-.85.21-1.49.55-1.96.81-.6,0-1.49.09-2.43.47-.68.26-1.28.6-1.79.85-.13.09-.3.17-.38.21l-.38.17c-.51.26-1.15.55-1.83.98-.6.38-1.11.77-1.53,1.11l-.3.21s-.21.13-.3.17c-.43.26-1.02.6-1.66,1.11-.55.47-.98.94-1.32,1.28l-.26.26s-.04,0-.09.04c-.43.26-1.15.72-1.83,1.49-.6.64-.94,1.28-1.19,1.71,0,.09-.09.13-.13.21-.51.64-.81,1.32-1.02,1.92-.51.38-1.11.9-1.58,1.62,0,0-.04.09-.09.13-.47.77-.68,1.49-.81,2.05-.43.43-.94,1.02-1.32,1.83-.6,1.15-.64,2.26-.64,2.94-.13.38-.21.72-.3,1.02-.04.17-.09.34-.13.47-.26.68-.34,1.32-.43,1.75-.34.47-.81,1.24-1.07,2.17,0,.09-.04.13-.09.21-.21.47-.51,1.19-.68,2.09v.09c-.17,1.15,0,2.09.17,2.77,0,.17-.09.34-.13.55-.43.64-1.02,1.75-1.07,3.16v.09c0,1.02.21,1.83.34,2.34h0v.21c0,.47-.09,1.11,0,1.88.09,1.07.43,1.88.6,2.39v.09c.13.77.38,1.41.64,1.88-.04.51-.09,1.24.09,2v.09s0,.26.04.38c0,.43.09,1.02.26,1.71v.13c.17.68.43,1.24.6,1.66.04.13.13.3.17.43.34.94.81,1.66,1.11,2.09v.13c.13.43.26,1.07.51,1.66.21.6.51,1.07.72,1.41,0,.68.13,1.71.64,2.73,0,0,0,.09.04.09.21.43.47.85.72,1.28.13.21.26.38.34.6,0,0,0,.04.04.09.47.77,1.07,1.32,1.62,1.71.17.51.38,1.11.77,1.66h.04s.13.3.21.43c.17.3.38.68.64,1.11h0c.17.51.47,1.32,1.15,2.22.38.51.77.9,1.11,1.24.13.13.26.26.38.38.13.17.26.34.38.51.26.34.55.72.85,1.07.43.51.85.9,1.24,1.28.13.13.26.21.34.34.47.47.9.85,1.24,1.11.09.09.21.17.3.26.13.13.26.26.38.43.3.34.68.72,1.11,1.15.51.47,1.02.81,1.53,1.02.3.6.72,1.24,1.36,1.83.77.68,1.58,1.02,2.26,1.19.3.43.68.85,1.19,1.24.34.3.72.55,1.11.81.17.13.38.26.55.38.64.51,1.32.81,1.75,1.02.09,0,.17.09.21.09.17.13.34.21.47.34.13.09.26.17.43.3.38.64.98,1.53,2.09,2.22.77.51,1.49.72,2,.9h.13c1.02.55,2,.68,2.73.72.13.09.3.17.43.26.3.38.81.94,1.53,1.45h0c.38.43,1.02,1.11,2,1.66,1.02.55,2.05.72,2.64.77.26.13.47.21.68.3s.38.17.6.26h.09c.55.26,1.07.43,1.45.6.13,0,.21.09.3.13.04,0,.09.09.13.09.38.3.98.72,1.71,1.02.6.26,1.15.43,1.62.51.38.43.94.9,1.66,1.24h.09c.38.3,1.02.81,1.92,1.19.64.26,1.19.43,1.62.55.13,0,.26,0,.34.09.72.3,1.36.43,1.83.55h.26c.55.21,1.11.3,1.66.3.72,0,1.45-.17,2.09-.47.51.17,1.02.3,1.58.3.47,0,.94-.09,1.41-.21h.34c.47-.09,1.07-.17,1.75-.43.13,0,.26-.09.43-.09.43-.09.98-.21,1.66-.47.64-.26,1.11-.51,1.49-.72.13,0,.21-.13.26-.17.9-.34,1.53-.81,1.96-1.19.43-.09.98-.21,1.62-.43h.17c.47-.09,1.15-.21,1.88-.55.64-.26,1.28-.51,1.92-.81h.09c.9-.43,1.49-.98,1.88-1.28h0c.38-.17.72-.38.98-.55.17-.09.34-.21.51-.3.21-.13.47-.21.68-.34.34-.17.72-.34,1.11-.51.13-.09.3-.13.47-.17.38-.17.9-.34,1.41-.64h.09c.26-.13.51-.26.77-.38.3-.13.55-.26.85-.43,0,0,.13-.09.17-.09.47-.26.85-.55,1.15-.77.17-.13.3-.21.47-.3h.09c.21-.13.38-.21.6-.34.38-.17.72-.38,1.11-.6.09,0,.13,0,.21-.09.43-.17,1.02-.38,1.71-.81,0,0,.09,0,.13-.09.47-.34.85-.64,1.19-.94.09-.09.21-.17.34-.26.47-.34.85-.64,1.15-.94.68-.13,1.58-.38,2.47-1.07h.09c.68-.51,1.15-1.07,1.45-1.41l.13-.13c.77-.64,1.24-1.32,1.53-1.75.47-.38.9-.77,1.28-1.11.13-.13.26-.21.43-.3.3-.21.64-.47.98-.77h0c.47-.26,1.24-.64,1.96-1.36.55-.55.94-1.15,1.19-1.71.6-.26,1.19-.68,1.75-1.28.72-.81,1.11-1.71,1.32-2.34.34-.26.72-.6,1.07-1.07h0c.68-.9,1.02-1.75,1.19-2.26h0c.21-.3.38-.55.55-.85,0-.09.13-.17.17-.26.47-.34,1.15-.9,1.75-1.83.38-.6.64-1.15.81-1.58,0-.04,0-.09.09-.17.38-.34.94-.94,1.41-1.79v-.13c.34-.68.51-1.32.6-1.88.47-.43.94-1.02,1.28-1.79,0-.09.09-.13.09-.21.3-.72.43-1.36.51-1.79v-.17s.09-.13.09-.17c.21-.38.55-.98.81-1.71.43-1.11.38-2.09.38-2.73.17-.55.3-1.07.43-1.58.13-.55.3-1.15.43-1.71.3-.51.72-1.32.9-2.43.17-1.07,0-2-.13-2.64.13-.47.3-1.07.34-1.75v-1.96c.13-.51.38-1.32.38-2.34v-.09c0-.98-.3-1.79-.43-2.3l.09-.26v-.04h-.03ZM98.7,106.16h-.04s-.38-.38-.64-.51l-.17-.09-.13-.26-.17-.43-.21-.77s-.13-.47-.26-.68l-.17-.38-.09-.98c0-.26-.04-.55-.13-.81l-.13-.47v-1.66s-.04-.38-.09-.55l-.09-.55.13-1.11s0-.3.04-.47h0v-1.32c.04-.26.09-.55.09-.81v-.26l.09-.26s.09-.21.09-.3l.47-1.58.3-.68s.13-.3.17-.43l.09-.13c.55-.6.94-1.36,1.11-2.17l.13-.51.34-.72s.26.43.43.6v.43c.09.34.17.68.3,1.02l.26.68.17.72c.04.26.13.51.26.72l.26.6.13.6c.04.3.17.55.26.81,0,.77.13,1.49.47,2.22-.13.55-.13,1.15,0,1.71l.09.55-.13.64c-.13.64-.17,1.28,0,1.92-.3.6-.47,1.24-.47,1.92v.85l-.21.38c-.09.21-.17.47-.26.68v.21c-.43.34-.77.72-1.02,1.15-.26.13-.51.26-.77.43h-.47v.04h-.03ZM151.4,94.87v1.75c-.13.38-.3,1.02-.38,1.75s0,1.36.09,1.92c-.21.43-.38.94-.51,1.53-.09.51-.21,1.07-.38,1.62v.09c-.13.47-.26.98-.47,1.62-.26.81-.3,1.53-.26,2.09-.21.34-.43.77-.64,1.32-.17.38-.26.72-.34,1.07-.51.43-1.11,1.07-1.53,1.96-.38.77-.51,1.49-.6,2.13-.26.3-.55.68-.85,1.15-.26.47-.47.9-.6,1.19-.43.34-1.02.85-1.53,1.62-.17.26-.34.51-.51.77-.17.26-.34.51-.47.72-.47.64-.72,1.24-.94,1.71-.34.26-.77.64-1.19,1.15-.34.43-.64.85-.81,1.28-.55.26-1.19.64-1.79,1.24-.68.72-1.07,1.49-1.28,2.17-.3.17-.6.43-.9.68-.09.09-.26.21-.47.34-.34.26-.64.47-.98.77,0,0-.09.09-.13.09-.43.38-.85.77-1.28,1.11-.77.64-1.28,1.36-1.53,1.75h0l-.6.6c-.64.13-1.45.43-2.22.98-.51.34-.9.72-1.15.98-.09.09-.17.17-.26.21-.47.34-.85.64-1.19.94l-.17.17h-.09c-.43.17-1.02.38-1.66.81-.17.13-.38.21-.6.3-.38.17-.72.38-1.07.6-.43.26-.81.51-1.11.72-.13.09-.26.21-.43.3s-.34.17-.47.26c-.38.17-.81.38-1.19.6-.09,0-.3.13-.43.17-.34.13-.81.3-1.24.55-.3.13-.6.3-.9.43s-.55.26-.85.38h-.09c-.34.17-.68.34-.98.55-.21.13-.43.26-.6.34-.9.43-1.53.98-1.92,1.28h0c-.43.17-.85.34-1.28.51h-.17c-.38.09-.98.21-1.62.43h-.17c-.43.09-1.11.21-1.79.47h-.09c-.94.38-1.62.94-2.05,1.32-.38.17-.68.34-.94.47-.13,0-.21.13-.34.17-.13,0-.26.09-.43.09-.34.09-.81.17-1.28.34h-.34c-.38.09-.94.17-1.53.34-.21.09-.47.17-.68.26-.55-.21-1.07-.34-1.45-.43-.09,0-.17,0-.3-.09-.55-.21-1.07-.38-1.45-.47h-.13c-.26-.17-.55-.43-.98-.68-.43-.55-1.15-1.36-2.34-1.88-.81-.38-1.58-.51-2.13-.55-.34-.26-.81-.55-1.41-.85-.51-.26-.98-.43-1.36-.55-.13,0-.3-.09-.43-.17-.3-.17-.64-.3-.98-.47-.21-.09-.43-.17-.64-.3h-.09c-.72-.38-1.41-.55-1.96-.64-.21-.21-.51-.47-.85-.68-.34-.43-.98-1.15-1.96-1.75-.43-.26-.81-.51-1.24-.77l-.34-.21h-.09c-1.15-.68-2.34-.81-3.07-.85-.09,0-.13,0-.21-.09-.34-.51-.85-1.15-1.58-1.66-.09,0-.13-.09-.21-.13-.3-.17-.6-.38-.9-.6-.21-.13-.38-.26-.6-.43-.55-.38-1.11-.64-1.49-.81-.09,0-.13,0-.21-.09-.26-.17-.47-.34-.72-.51-.04,0-.09-.09-.13-.09-.3-.55-.77-1.32-1.58-2,0,0-.04,0-.09-.09-.6-.47-1.19-.77-1.75-.94-.26-.47-.64-.94-1.11-1.36-.81-.72-1.66-1.07-2.26-1.28-.04,0-.09-.09-.13-.13-.21-.21-.43-.43-.6-.64h-.04c-.38-.43-.77-.72-1.07-.98-.09-.09-.21-.13-.3-.21,0,0-.04,0-.09-.09-.17-.17-.38-.38-.55-.55-.26-.21-.47-.47-.64-.68-.17-.17-.3-.38-.47-.6-.21-.3-.47-.6-.72-.9s-.51-.6-.81-.85l-.17-.17c-.17-.51-.47-1.24-1.02-1.96-.09-.13-.13-.26-.21-.38-.09-.17-.17-.34-.3-.51-.09-.6-.3-1.49-.85-2.43,0,0-.04-.09-.09-.13-.64-.98-1.45-1.58-2.09-1.96,0-.64-.13-1.53-.55-2.43-.26-.6-.6-1.07-.81-1.41,0-.04-.09-.09-.09-.17,0-.13-.09-.3-.13-.43-.09-.38-.21-.77-.34-1.11,0-.09-.04-.17-.09-.26-.34-.81-.72-1.36-.98-1.75h0c-.13-.34-.26-.64-.34-.85-.04-.09-.09-.21-.13-.3v-.3c0-.26-.04-.6-.13-.94.09-.51.17-1.36,0-2.39s-.6-1.75-.85-2.26c-.13-.55-.3-1.02-.43-1.32v-.13c0-.34.04-.77.04-1.28,0-.47-.04-.85-.13-1.24.3-.55.6-1.28.64-2.17,0-.09.04-.17.09-.26.09-.38.26-.94.3-1.53.13-.85,0-1.62-.13-2.22.04-.13.13-.3.17-.47.34-.47.85-1.24,1.15-2.22.17-.55.26-1.07.3-1.45v-.26h0c.09-.34.17-.64.26-.94.09-.26.17-.55.17-.64.3-.68.43-1.32.47-1.88.3-.34.64-.72.9-1.24,0-.04.09-.13.09-.17.21-.43.38-.81.47-1.19.47-.34,1.02-.81,1.49-1.49.64-.9.85-1.79,1.02-2.39.17-.26.26-.47.38-.64.38-.26.94-.6,1.45-1.15.26-.26.47-.51.72-.77.13-.13.3-.34.34-.38h0s.21-.13.3-.17c.3-.17.68-.38,1.07-.68,0,0,.09-.04.09-.09l.43-.34c.3-.26.6-.47.81-.6,0,0,.04,0,.09-.04.17-.09.47-.26.77-.38l.55-.26s.43-.21.64-.34c.09-.04.17-.09.26-.13.51,0,1.19,0,2-.26.85-.26,1.49-.6,1.92-.85h.17c.34,0,.72-.09,1.19-.17h.34c.38,0,.85,0,1.41-.09.68-.09,1.24-.3,1.66-.43.43.09,1.07.17,1.71.13.43,0,.81-.04,1.24-.09.17,0,.3,0,.43-.04.9,0,1.66-.17,2.22-.34.13,0,.26.04.38.09.47.3,1.24.72,2.22.98.51.13.94.17,1.36.17.43.34.94.68,1.53.94,0,0,.09,0,.13.04.72.26,1.41.34,2,.34.26.21.6.43.94.64.72.38,1.41.6,2,.68l.38.38c.26.43.68,1.11,1.36,1.71.64.6,1.28.94,1.71,1.19.09.09.17.21.26.3.17.21.34.43.51.64.34.43.77.77,1.19,1.02.09.55.3,1.07.6,1.58l.21.38-.17.3-1.02,1.53s-.17.3-.26.47l-.47.9c-.13.3-.26.6-.34.9-.47.55-.81,1.19-1.02,1.88l-.17.6-.68,1.53c-.13.26-.21.51-.26.77-.38.47-.64.98-.85,1.53l-.26.77-.34.72s-.13.34-.17.51l-.3.98s0,.09-.04.17l-.21.85-.3.81c-.17.47-.26.98-.26,1.49v.64l-.13.6c-.09.43-.09.9-.04,1.32v.9s0,.3-.04.47v1.02c-.04.3,0,.6,0,.9l.13.72v1.58c0,.38,0,.77.13,1.11l.13.6v.64s.09.3.09.43l.17,1.02c.04.38.17.77.34,1.15l.26.6.17.64s.09.26.13.38l.34.94s.17.43.3.64l.47.9s.21.38.34.55l.6.81c.3.43.68.81,1.15,1.11l.47.34.43.43c.51.51,1.11.9,1.79,1.15l1.92.68c.51.17,1.07.3,1.62.3h3.24c1.28-.04,2.47-.55,3.33-1.45.47-.17.9-.38,1.28-.68l.81-.64c.68-.51,1.19-1.24,1.53-2.05.43-.43.81-.9,1.07-1.45l.43-.94c.13-.26.21-.51.3-.81l.17-.64.26-.6c.17-.34.26-.72.34-1.15l.17-1.02v-.3c.38-.68.6-1.41.64-2.22v-1.02c.04-.43,0-.81-.04-1.19h0c.09-.3.09-.6.13-.9v-1.32c.51-1.15.51-2.47.09-3.62l-.3-.72c.17-1.28-.21-2.6-1.07-3.62-.04-.21-.13-.43-.21-.64l-.26-.6-.13-.64s-.09-.38-.17-.6l-.17-.47-.09-.51s-.04-.34-.09-.47l-.26-1.02c-.13-.6-.38-1.15-.72-1.66,0-.17-.09-.34-.13-.55l-.3-.98s0-.09-.04-.17l-.34-.98c-.21-.6-.55-1.19-.98-1.66v-.13c-.09-.9-.43-1.75-.98-2.47.17-.64.21-1.32.09-1.96,1.19,0,2.43-.47,3.33-1.41.09-.09.21-.17.34-.26.26-.21.64-.47.98-.81l.13-.13.26-.26c.3-.3.55-.55.77-.72,0,0,.09-.04.13-.09.55-.47.94-.94,1.19-1.41.38-.13.77-.3,1.19-.6.17-.13.38-.21.55-.34.17-.13.34-.21.55-.34.43-.09,1.11-.21,1.83-.55.43-.17.77-.38,1.07-.6.51,0,1.19,0,1.88-.21.21-.04.43-.13.64-.17.34-.09.64-.17.85-.21h.13c.98-.21,1.71-.64,2.22-.98h2.52c.43.09.98.17,1.62.21.6,0,1.11-.04,1.53-.13.38.17.94.34,1.53.47.09,0,.13.04.21.09.38.13.94.34,1.62.47l.47.09c.38.09.77.13,1.15.26h.09c.81.17,1.58.17,2,.17.3.09.6.21.98.38.81.34,1.49.43,1.96.51.17.09.34.13.47.21.3.47.72,1.02,1.36,1.53.09.04.26.26.43.43.21.21.43.47.64.68h0c.51.51,1.07.85,1.58,1.11.17.34.43.72.72,1.11.34.43.64.77.94,1.02l.21.21s.09.17.13.26c.17.34.38.77.68,1.28h0c.17.26.3.51.47.72.17.26.34.47.43.68.17.3.34.6.51.9.09.13.17.26.21.38h0c.09.43.21,1.11.51,1.79.26.64.55,1.15.77,1.49,0,.09.09.17.13.26.17.38.34.72.51,1.02,0,.6,0,1.36.17,2.22.17.64.38,1.15.55,1.53v1.75c0,.26,0,.55.09.81,0,.3,0,.6.09.9,0,.47.13.9.17,1.24,0,.17.09.38.09.47v.13c0,.68.21,1.24.34,1.66-.13.43-.26,1.02-.26,1.71v.17h.09v.02Z"/>
</svg>