<?xml version="1.0" encoding="UTF-8"?>
<svg id="_レイヤー_1" data-name=" レイヤー 1" xmlns="http://www.w3.org/2000/svg" viewBox="0 0 46.75 46.78">
  <path d="M46.71,24.22c0-.14.03-.28.03-.41,0-.14-.15-.28-.15-.41,0,0,.13-.28.13-.41,0-.14-.19-.27-.2-.41,0-.14.1-.28.09-.41,0-.14-.06-.27-.08-.41,0-.14-.07-.27-.08-.41,0-.14.08-.28.07-.42-.02-.14-.09-.26-.1-.4-.02-.14.13-.29.11-.43s-.03-.27-.05-.41c-.02-.13-.22-.24-.25-.38-.02-.14-.02-.27-.04-.41-.03-.13-.11-.25-.14-.39-.03-.13-.08-.26-.11-.39s.17-.32.13-.45c-.04-.13-.27-.21-.31-.34-.04-.13-.14-.24-.18-.38-.04-.13.17-.34.13-.47-.04-.13-.23-.22-.26-.35-.05-.13.09-.33.05-.46-.05-.13-.18-.23-.22-.36-.05-.13-.23-.21-.27-.34-.05-.13.11-.34.06-.47s-.39-.14-.44-.26c-.05-.13.11-.35.05-.47-.06-.12-.26-.18-.32-.31-.06-.12.09-.35.03-.47-.06-.12-.36-.13-.42-.25-.06-.12,0-.31-.07-.43s-.27-.17-.33-.29c-.07-.12.07-.36,0-.47-.07-.12-.17-.22-.24-.34-.07-.12-.18-.21-.26-.32-.07-.12-.24-.18-.31-.29-.08-.12-.04-.31-.11-.42-.08-.11-.35-.09-.43-.2-.08-.12-.13-.24-.21-.35-.08-.11-.16-.22-.24-.33-.09-.11-.11-.27-.19-.37-.08-.1-.06-.31-.14-.41-.09-.11-.2-.19-.29-.3-.09-.1-.3-.1-.39-.2-.09-.1-.04-.34-.13-.44-.09-.1-.35-.05-.44-.16-.1-.1-.21-.18-.3-.28-.09-.1,0-.39-.09-.48-.1-.09-.22-.17-.32-.26s-.32-.06-.42-.15c-.1-.09-.08-.33-.18-.42-.11-.09-.36,0-.47-.09-.1-.09-.13-.27-.24-.35-.11-.09-.11-.29-.22-.38-.11-.08-.35,0-.46-.08s-.2-.18-.31-.26c-.11-.08-.13-.29-.24-.37s-.33,0-.45-.09c-.11-.08-.19-.2-.3-.28-.12-.08-.15-.27-.27-.34-.11-.08-.22-.16-.34-.23-.11-.07-.33,0-.44-.06-.12-.07-.29-.05-.41-.12-.12-.07-.2-.21-.32-.27-.12-.07-.19-.23-.31-.29-.12-.06-.24-.13-.36-.19s-.31,0-.43-.05c-.12-.06-.27-.06-.4-.12s-.26-.08-.39-.13c-.13-.06-.21-.2-.34-.25-.13-.06-.17-.31-.3-.36-.13-.04-.36.2-.49.15-.13-.05-.25-.12-.37-.17-.13-.04-.17-.35-.3-.4-.12-.04-.3.06-.43.02s-.3.03-.43,0-.26-.09-.39-.13c-.14-.03-.24-.15-.38-.18-.13-.03-.28,0-.41-.04-.13-.03-.24-.19-.38-.21-.13-.03-.26-.1-.39-.12-.14-.02-.29.03-.42,0-.13-.02-.27-.05-.4-.07-.14-.02-.27-.05-.41-.07-.13-.02-.26-.14-.39-.16-.13,0-.29.16-.43.14-.14,0-.28,0-.41,0-.14,0-.27-.1-.41-.11-.13,0-.26-.13-.4-.14-.14,0-.28.14-.42.14s-.28-.09-.41-.1c-.14,0-.28.07-.41.07v-.04c-.14,0-.27.09-.41.09S22.71,0,22.57,0c-.14,0-.27.14-.4.14-.14,0-.27.13-.4.13-.13,0-.28-.1-.42-.09-.13,0-.28-.02-.41,0-.14.02-.27.07-.4.09-.14.02-.28-.04-.42-.02s-.25.19-.38.21c-.14.02-.25.14-.39.16s-.29-.09-.43-.06c-.14.02-.25.15-.38.18s-.31-.13-.45-.1c-.13.03-.22.25-.35.28-.13.04-.29-.04-.42,0s-.24.14-.38.18c-.13.04-.32-.12-.45-.08-.13.04-.26.09-.39.13s-.21.24-.34.29c-.13.05-.29,0-.42.05s-.25.12-.37.17c-.13.05-.23.16-.36.22-.12.05-.22.16-.35.22-.13.06-.25.12-.37.18-.12.05-.23.15-.35.21s-.28.05-.4.11c-.12.06-.3.02-.42.08s-.27.07-.39.14c-.12.06-.12.35-.24.42-.12.07-.31.01-.43.08-.12.07-.27.09-.38.16-.12.07-.24.14-.36.21s-.25.12-.36.2c-.11.07-.26.11-.37.19s-.1.33-.22.41c-.11.08-.35-.01-.46.07-.11.08-.22.17-.33.25s-.18.21-.29.29-.09.33-.2.41c-.1.09-.22.16-.32.25-.11.09-.37,0-.47.09s-.1.3-.2.39c-.1.09-.27.12-.37.21-.1.09-.2.18-.3.28-.1.1-.17.21-.27.31-.09.1-.08.3-.17.4-.09.1-.2.19-.29.29-.09.11-.16.23-.25.33s-.16.22-.25.32c-.09.11-.17.22-.25.32-.09.1-.35.07-.44.18-.08.11,0,.34-.08.45s-.25.15-.34.26c-.08.11-.1.26-.19.38-.08.11-.13.23-.21.35-.08.11-.12.25-.19.36-.08.11-.4.07-.48.18-.07.12.09.38.02.5s-.26.16-.33.28-.14.24-.21.36c-.07.12-.15.23-.22.34-.06.12-.22.2-.28.32-.06.12-.11.25-.17.38-.06.12-.09.26-.15.38-.06.13.1.35.04.48-.05.12-.26.18-.31.3-.06.13-.05.28-.11.4-.05.13-.2.22-.25.35-.05.13.05.31,0,.44-.05.13-.12.25-.17.37-.04.13-.28.2-.32.33s-.09.26-.14.39c-.04.13.15.33.11.47-.04.13-.25.21-.28.35-.04.13.11.31.08.45-.04.13-.12.25-.15.38-.03.14-.25.23-.28.36-.03.13.23.33.21.46-.03.13-.32.21-.34.35-.02.14.08.29.06.43s-.07.27-.09.4c-.02.14.13.29.11.43s-.09.26-.1.4c0,.14-.17.26-.18.4-.01.14-.04.27-.05.41v.41c0,.14.18.28.17.42,0,.14-.29.27-.29.41s.25.28.25.41c0,0-.16-.11-.2-.07,0,.14.22.35.22.48,0,.14-.05.27-.05.41s-.19.29-.18.42c0,.14.3.26.3.4.01.14-.07.28-.05.42,0,.13-.12.28-.1.42.01.14.1.27.12.4s.09.26.11.4c.02.13.08.27.1.4.02.14.03.27.05.4.03.14.07.26.1.4.02.13.03.27.06.41.03.13.07.26.1.4.03.13.14.25.18.38.03.13-.16.32-.13.45.03.13.01.28.05.41s.19.24.23.36c.04.13.04.28.08.41s.29.19.34.32c.04.13-.13.34-.09.47.05.13.13.25.18.37.05.13.27.18.33.31.05.13.08.27.13.39.06.13.16.23.22.36.05.12-.08.33-.02.46.06.12.09.26.15.38.06.13.25.18.31.3.07.12,0,.31.06.43s.23.19.3.31c.06.12.18.21.25.33.07.12.04.3.11.41s.06.29.13.4c.07.12.26.16.34.27.07.11.1.27.18.38.08.12.1.27.18.38s.39.06.47.17c.08.11-.06.39.02.5.08.1.18.2.27.31s.3.12.39.22c.09.11.22.18.31.28.09.11.11.27.2.37s.13.25.22.36c.1.1.26.13.36.23.1.1.08.31.18.41.09.09.17.21.27.3.1.1.37,0,.48.11.1.09.18.2.28.29.1.09.22.16.32.26.1.09.24.13.35.22.11.09.02.39.13.48.1.09.36,0,.47.08.11.08.18.21.29.3.11.08.19.2.3.29.11.08.14.28.25.36s.28.07.4.15c.11.08.27.09.38.17.11.08.17.25.28.32.12.07.31.02.43.09.12.08.2.2.32.27.12.07.2.2.32.27.12.07.35-.06.47,0,.12.07.13.35.25.41.12.07.23.15.36.22.12.06.28.06.4.12.12.06.22.17.34.23.13.06.3.02.42.08.13.05.29,0,.42.06.13.05.24.13.37.18.13.05.22.21.34.26.13.05.25.15.37.19.13.05.28.02.41.07s.26.1.39.14.31-.08.44-.04c.13.04.2.3.33.34.13.03.28.05.41.08.13.03.26.1.39.13.13.03.28,0,.42.03.13.03.28,0,.41.04.13.02.27.03.41.06.13.03.28,0,.41.02.14.02.25.17.39.18.14.02.3-.15.43-.13.13,0,.26.12.4.13.13,0,.26.15.39.16.14,0,.3-.25.43-.24.14,0,.26.21.4.21.13,0,.27.04.41.04s.28.02.41.02c.14,0,.28-.08.41-.08v-.12c.14,0,.28.02.41.02.14,0,.28.13.41.13.14,0,.27-.06.41-.07.14,0,.27-.04.41-.04s.28-.03.41-.04c.13,0,.26-.12.39-.14.14-.02.28.04.42.03.13-.02.26-.11.4-.13.13-.02.27-.03.4-.05s.27-.04.4-.07c.14-.02.31.21.45.18.13-.03.27-.09.4-.12s.22-.28.35-.31c.13-.03.3.1.43.06.13-.03.28-.03.41-.07.14-.03.24-.17.37-.21.13-.04.24-.13.37-.18.13-.04.33.14.46.1.13-.04.27-.06.4-.11.13-.04.25-.11.38-.16.12-.04.23-.18.35-.23.13-.05.28-.04.4-.09.13-.05.17-.31.29-.36.13-.05.24-.14.36-.2.13-.06.33.06.45,0,.13-.06.24-.13.37-.19.12-.06.19-.23.31-.29.12-.06.34.06.46,0s.13-.34.25-.4c.12-.07.26-.09.38-.16.12-.07.26-.09.37-.16.12-.07.15-.27.27-.35.12-.07.35.03.46-.04.11-.08.12-.32.23-.39.11-.08.22-.15.33-.23.11-.08.37.05.48-.03.11-.09.15-.26.26-.35.11-.08.19-.2.3-.28.1-.09.31-.05.41-.14.11-.09.15-.25.26-.34.11-.09.17-.23.27-.32.1-.09.19-.2.29-.29.1-.1.36-.02.46-.11.1-.1.21-.19.3-.29.09-.09.05-.33.15-.43.09-.1.25-.14.34-.24.09-.1.27-.13.36-.23s.04-.34.13-.44.2-.18.29-.29.22-.17.3-.28c.09-.11.03-.33.11-.44.08-.1.4-.03.48-.14.09-.11,0-.34.08-.46.08-.11.26-.15.34-.26.08-.11.22-.18.3-.3.08-.11.06-.29.13-.41.08-.12.19-.21.26-.32.07-.12,0-.31.09-.43.07-.12.17-.22.24-.34.07-.12.3-.15.36-.26.07-.12.12-.25.19-.37s.08-.27.14-.39c.07-.12.03-.3.09-.42s.3-.16.35-.28c.06-.12.12-.25.18-.38.06-.12-.02-.31.04-.43.05-.13.13-.24.18-.37.05-.13.03-.28.08-.41.05-.12.21-.21.26-.34s.16-.24.2-.37c.04-.13-.11-.32-.07-.46.05-.13.05-.27.08-.4.04-.13.17-.23.21-.36.04-.14.1-.26.13-.39.04-.13.21-.23.24-.36.03-.14-.08-.31-.05-.44.03-.13.05-.27.08-.4.03-.14.23-.23.25-.37.02-.13.06-.27.08-.4.03-.14-.2-.31-.18-.45.02-.14.09-.26.11-.4.02-.13.18-.25.2-.38.02-.14.02-.28.04-.41.02-.14-.2-.29-.19-.43,0-.14.16-.26.17-.4,0-.14,0-.27,0-.41,0-.14.13-.27.13-.4l-.04-.05Z"/>
</svg>