<?xml version="1.0" encoding="UTF-8"?>
<svg id="_レイヤー_1" xmlns="http://www.w3.org/2000/svg" version="1.1" viewBox="0 0 46.75 46.78">
  <!-- Generator: Adobe Illustrator 29.8.3, SVG Export Plug-In . SVG Version: 2.1.1 Build 3)  -->
  <defs>
    <style>
      .st0 {
        fill: #fff;
      }
    </style>
  </defs>
  <path class="st0" d="M10.96,8.56s.03.08.05.11c.04.17.06.22.08.25,0,0,.02.03.06.07.03.03.06.06.08.1,0,0,.01.02.03.06.02.06.04.1.06.12.01.02.04.04.07.06h0s.01.05.03.11c.03.14.04.18.06.2.01.01.02.03.04.03s.03.02.04.02c0,.01,0,.03.01.04,0,.05,0,.09.03.13.02.02.04.05.09.08.03.02.04.04.05.05,0,.06.03.12.09.19,0,0,.03.05.12.24.07.15.13.26.18.34,0,.04,0,.08.03.11.01.02.03.04.06.07l.04.04c.05.07.11.09.15.09s.07-.02.09-.03c0,0,.02-.01.04-.04.05,0,.09-.02.12-.04.16-.12.02-.39-.04-.5-.07-.13-.14-.24-.22-.34,0,0-.01-.02-.02-.08-.01-.08-.04-.14-.06-.18-.02-.02-.04-.05-.08-.08-.03-.02-.04-.03-.04-.03,0,0,0-.02-.01-.03-.04-.11-.1-.23-.17-.35,0-.05-.04-.11-.09-.17,0,0-.01-.01-.02-.05.01.01.02.02.03.04.02.03.07.08.15.08l.02.02s.04.04.07.06c.02,0,.04.01.06.01h0s.01.02.02.02c.03.04.08.06.12.04.02.02.05.04.08.06.02.01.04.03.05.05.01.01.02.03.04.03.13.07.2.1.24.12.06.08.17.14.31.2.17.07.21.11.22.12.05.06.13.09.24.1.11,0,.18-.02.24-.06.05-.04.11-.12.1-.28,0-.08-.03-.16-.07-.21h0s.03-.08.01-.12l-.04-.11v-.05c0-.05,0-.11-.03-.15,0-.02,0-.05-.01-.07-.01-.02-.03-.07-.05-.19-.01-.09-.04-.16-.07-.22v-.03c0-.05-.02-.09-.05-.13,0-.02,0-.04-.01-.06v-.02s-.02-.04-.06-.09v-.07c0-.09-.02-.19-.08-.28h.03s.02.02.03.03c0,.04,0,.07.04.1.03.02.06.04.1.05,0,0,.01,0,.04.04.02.03.06.05.11.07.01.04.02.06.04.09,0,0,.02.03.07.07.03.03.06.06.08.1.02.03.06.06.13.07h0s.03.06.04.09c.02.03.06.06.16.11.02,0,.09.06.28.31.02.03.07.06.15.07,0,0,.02.02.03.02.08.07.16.05.18.04s.04-.03.05-.05c.02-.04.06-.08.11-.11.04-.03.06-.07.07-.12,0-.07-.04-.13-.08-.18v-.04s-.02-.04-.03-.05c-.02-.02-.05-.05-.11-.06,0-.02-.01-.03-.02-.05-.03-.04-.07-.06-.13-.07-.05-.06-.12-.12-.21-.2-.14-.11-.17-.15-.17-.15v-.02s-.03-.07-.04-.09c-.04-.05-.11-.13-.22-.22-.1-.08-.16-.15-.2-.2-.03-.04-.07-.07-.12-.09l-.03-.03s-.02-.02-.03-.02c0-.03-.02-.05-.03-.07-.02-.02-.04-.04-.09-.07,0,0-.03-.02-.06-.07,0,0,0-.01-.01-.02-.03-.03-.06-.06-.09-.1-.02-.03-.05-.06-.09-.09-.03-.03-.05-.05-.07-.07-.03-.05-.09-.08-.17-.11-.02,0-.03-.01-.04-.02-.01-.02-.03-.04-.06-.05-.04-.01-.08,0-.11.01,0,0-.03.01-.05.03-.04.02-.07.04-.09.05-.06.05-.13.14-.09.33l.05.18h0c-.05.11.02.17.04.18h0c.01.05.04.14.09.32-.02.04-.02.09,0,.12,0,.02.03.05.05.11v.02c-.03.08,0,.16.04.22v.06c0,.09.01.12.03.15.01.02.03.03.05.04v.16s-.01.06,0,.08c.02.07.07.17.12.3v.02s0,.06.03.09h.01v.04s-.04-.02-.06-.04c-.12-.08-.16-.12-.18-.14-.02-.03-.05-.05-.09-.06-.02-.02-.06-.06-.32-.19-.23-.12-.27-.17-.28-.18-.04-.05-.09-.08-.15-.08h-.05s-.07-.05-.2-.16c-.02-.02-.05-.03-.07-.03,0,0-.03,0-.11-.05v-.03s-.06-.07-.11-.08c-.02,0-.05,0-.1-.04-.06-.03-.07-.05-.07-.05-.03-.04-.09-.09-.21-.08-.08,0-.14.02-.19.05l-.05.05s-.07.04-.09.07c-.03.04-.03.1,0,.14,0,.01.02.04.03.08v.07h.01Z"/>
  <path class="st0" d="M15.55,5.84v.11s.03.07.07.12c.03.04.04.08.05.1v.04s.01.07.02.09c.02.04.04.1.08.17.03.06.06.11.07.14,0,.02.01.05.02.09.01.07.02.11.02.12.01.03.03.06.07.09v.03c0,.05.01.08.02.11,0,.02.03.06.05.1.02.03.03.04.03.05v.02s0,.06.01.09.04.08.08.15c.02.04.04.06.05.08,0,.05,0,.08.01.1.01.03.03.05.06.07,0,.02.02.04.02.05h0c-.02.05-.02.1,0,.13.07.11.09.14.09.14,0,.02.03.05.06.07,0,.04.01.06.02.07.02.04.05.07.09.09.02,0,.05.01.08.01.05,0,.1-.01.17-.04.04,0,.07,0,.1-.01.02,0,.04-.02.05-.04v-.02s.07-.02.1-.04c0,0,.01,0,.02-.01,0,0,.03-.01.1-.02.07,0,.11-.02.14-.03.05-.02.1-.06.15-.11.03,0,.05,0,.08-.01.02,0,.03-.01.05-.03h.1s.04-.03.07-.05c0,0,.02,0,.11-.02.08-.01.14-.02.18-.04.03-.01.05-.03.08-.06.02,0,.04-.01.05-.02.09-.03.15-.12.2-.27v-.08s-.02-.04-.04-.05c0-.02,0-.03-.01-.05-.06-.16-.18-.17-.26-.14-.01,0-.03.01-.05.03h-.09s-.07.02-.09.05c-.01.02-.02.02-.01.01h-.05s-.07.04-.11.07c-.02.02-.03.03-.04.03h0s-.09-.02-.13,0c-.02,0-.04.02-.07.05h0s-.03,0-.05.01c-.02,0-.05.03-.07.05t0,0s-.09,0-.13.02c-.04.02-.08.05-.1.09-.02,0-.04,0-.08.01-.05,0-.08,0-.08.01h-.06s-.02-.05-.04-.08c-.01-.03-.03-.05-.05-.08,0-.01-.01-.02-.01-.02v-.02c0-.05,0-.1-.03-.12-.02-.04-.04-.07-.06-.1,0-.02-.01-.04-.02-.07-.01-.04-.02-.07-.03-.1h0s.06,0,.09-.02c.02-.01.05-.04.1-.09.02-.02.03-.03.04-.04.06.02.11.01.14,0,.03-.01.06-.04.11-.08.02-.02.03-.03.04-.03h.04s.08-.01.1-.02c.03-.01.05-.03.08-.06h.01s.09,0,.13-.01c.02,0,.04-.03.06-.05.03,0,.05,0,.07-.01l.08-.04s.05-.04.06-.07h0c.07-.03.14-.12.08-.26-.08-.2-.25-.28-.45-.2-.03.01-.05.03-.08.06h-.01s-.01.01-.02.01c-.06,0-.1,0-.13.01-.03.01-.06.04-.08.07-.03,0-.05,0-.07.01-.02,0-.05.03-.07.05-.04.02-.09.03-.14.04-.03,0-.07,0-.1.01s-.06.03-.09.07h-.01c-.06-.01-.11.01-.14.07h0s-.07.01-.08.01h-.01s0-.06-.01-.09c0-.02-.03-.05-.05-.08h0c.02-.05.02-.09,0-.13-.01-.03-.03-.07-.07-.13-.02-.03-.03-.05-.04-.07h0s.05-.03.09-.06l.02-.02h.13s.03-.02.05-.03v-.02l.08-.02s.06-.03.09-.06h.14s.05-.02.07-.04h.07s.06-.04.09-.08c.02,0,.06-.02.12-.03.07-.02.12-.03.15-.05.1-.04.15-.08.18-.13.03-.07,0-.16-.01-.21v-.02s0-.08-.02-.11c0,0,0-.01-.01-.02v-.02s-.05-.04-.07-.04l-.09-.04s-.06-.01-.08,0c-.02,0-.04.02-.07.04,0,0-.03.01-.11.02-.08,0-.13.02-.16.03-.04.02-.06.05-.07.07-.02,0-.06.02-.11.03-.08.02-.13.03-.17.05-.01,0-.03.01-.06.04-.03,0-.07-.01-.11,0-.02,0-.03.02-.08.05-.02,0-.04.02-.06.03,0,0-.01.01-.02.01-.04,0-.06.02-.08.02h-.01s-.04.02-.05.04h-.01s-.08-.01-.11,0c-.04.02-.07.05-.1.1h-.02c-.07.01-.09.02-.1.02-.05.02-.09.06-.13.13-.04.08-.03.15-.02.19,0,.02.02.03.03.05,0,0-.02.02-.02.02Z"/>
  <path class="st0" d="M19.51,4.61s0,.03.03.07v.04l.06.4s.01.06.02.11c0,.04.02.08.02.1,0,.01,0,.02.01.03v.02s.03.06.04.1c0,.03.02.04.02.05h0s-.02.08-.02.12c0,.03.01.05.03.07,0,.02-.01.05,0,.07.02.09.03.14.04.15v.28s.02.07.05.12h0c-.02.05-.03.09-.02.13,0,.02,0,.03.05.1-.02.14-.02.18-.01.2,0,.03.02.07.05.09v.07s0,.03.01.04v.02s.04.03.05.04c.03.08.09.12.17.12h.01s.08,0,.12-.02c.03,0,.06-.02.07-.02h0s.09.03.13.03.08-.03.12-.06h.1s.08-.03.13-.07h.01s.1.02.13.02h.04s.03-.03.05-.04h.03c.06,0,.09-.06.11-.1h.02s.08-.01.1-.04c0,0,.02-.02.11-.07.1-.06.15-.1.18-.14,0-.01.01-.02.02-.03h.03c.06-.01.11-.05.13-.12.02-.07.07-.15.13-.23.02-.03.03-.06.03-.09v-.03s0-.02.02-.04c.02-.03.02-.07,0-.1h0v-.03c.01-.08,0-.17-.01-.26.02-.13.02-.27,0-.4,0-.04-.03-.08-.07-.12-.02-.06-.05-.14-.1-.27-.06-.15-.07-.19-.07-.19-.01-.07-.04-.11-.09-.14-.01,0-.03-.01-.04-.01h-.03s-.04-.03-.08-.09c-.09-.1-.11-.12-.11-.12-.03-.04-.07-.07-.25-.13l-.22-.07h-.1c-.06-.03-.13-.04-.21-.02h-.18s-.09-.06-.14-.03c-.02.01-.06.02-.1.04-.03,0-.08,0-.13-.01-.02,0-.05,0-.07.01h-.26c-.06,0-.1.05-.15.14-.05.08-.07.13-.06.19v.12s.05,0,.05,0ZM20.58,4.75s.04-.01.08-.03c.03.01.06.02.09.01.02,0,.03,0,.05-.02.02,0,.1.03.26.2.19.21.24.31.24.36,0,.03.02.06.04.09-.01.04-.02.07-.01.1,0,.02.01.05.04.09.01.02.01.03.02.04t0,0v.34c-.01.05-.03.06-.03.06-.05.02-.08.06-.08.11-.03.01-.06.03-.1.06-.02.01-.04.04-.05.06,0,.01,0,.03-.01.04h-.02s-.03.01-.05.03l-.06.05h-.06s-.06.04-.08.07h-.07s-.09.03-.13.07c0,0-.01,0-.01.01-.04-.01-.07-.02-.1-.01-.04,0-.07.03-.08.04,0,0,0-.02-.01-.04,0-.03-.02-.07-.04-.11v-.02s.02-.07.02-.1c0-.04-.03-.08-.06-.12h0s.03-.08,0-.15c0,0-.01-.05-.04-.22v-.02s.01-.05,0-.08c-.03-.12-.06-.22-.07-.3,0-.02-.01-.05-.03-.08,0-.03.02-.06.01-.09,0-.02-.02-.05-.03-.06.01-.03.03-.06.02-.1,0-.02-.01-.05-.04-.1l-.02-.04s-.01-.05-.03-.07c.01-.02.02-.04.02-.06v-.05h.1s.04,0,.1-.03c.02,0,.03-.01.04-.02h0c.06.05.12.06.17.05v.04h0Z"/>
  <path class="st0" d="M24.05,6.68c0,.08.03.12.06.14.02.02.06.03.12.03.03.02.05.03.08.03h0s.04,0,.07-.02h0s.1-.02.14-.06l.04-.05s.02-.03.02-.05v-.1s.06-.09.06-.13c0-.03,0-.07-.02-.11v-.02s.03-.07.03-.1c0-.04-.01-.08-.04-.12h0s.03-.08.03-.11v-.23s.03-.07.03-.1,0-.06-.02-.1c.01-.03.02-.07.02-.12v-.05s.02-.08,0-.11v-.02h-.01c.03-.05.04-.09.04-.13h0s0-.05-.01-.06v-.02s-.01-.02-.01-.09v-.35s.02-.06.02-.08c0-.03,0-.05-.02-.09.04-.04.05-.08.06-.13,0-.03,0-.06-.01-.11,0-.02,0-.03-.01-.05v-.03s.02-.07.02-.09c0-.1-.02-.18-.08-.23-.05-.05-.13-.08-.21-.08-.03,0-.05,0-.07.02h-.04s-.04,0-.06,0c-.06.03-.1.08-.11.13-.01.04-.01.08,0,.12v.08s-.03.07-.03.1,0,.07.03.12v.03s-.02.07-.02.1v.43s-.02.05-.03.07c-.01.03-.01.06,0,.08l.02.05s-.04.08-.05.12c0,.05,0,.12.02.21,0,.07.01.11.01.14-.01.03-.02.06-.03.09,0,.03,0,.07.01.09s.01.03.02.03h0s0,.06-.02.11c-.01.06-.02.11-.02.14,0,.04,0,.07.01.11-.03.14-.04.2-.04.22,0,.03,0,.05.02.08-.01.01-.02.03-.02.05v.05s0,.06.02.11v.03s-.02.02-.02.02Z"/>
  <path class="st0" d="M26.68,6.27c-.02.06,0,.13.05.22.02.03.02.05.02.04,0,.04-.01.14.12.22,0,.03,0,.06.02.09.02.04.07.05.11.05.02.02.04.03.08.06-.02.07.03.14.1.16h.07c.06.06.13.1.19.12,0,0,.04,0,.07.01h.02l.04.03s.03.02.05.02h.1s.06.03.1.02c.02,0,.04,0,.05-.01h0s.07.06.11.07h.06s.02,0,.06.01c.05.02.1.02.15.01,0,.01.03.02.05.03h.03s.09-.02.15-.06c.02-.01.03-.02.05-.03h.04c.07.03.13,0,.19-.09,0-.02.02-.03.03-.04,0,0,.02,0,.03-.01.07-.03.12-.08.12-.13v-.05s.07-.05.08-.1v-.16s-.04-.06-.07-.08c-.02-.01-.05-.04-.11-.09,0-.01-.02-.02-.04-.02-.04-.02-.09-.02-.14.01-.05,0-.1.03-.13.06-.03,0-.06,0-.08.02-.03.02-.05.04-.05.08,0,0-.02.03-.11.04-.08.02-.14.02-.19.01-.02-.02-.05-.05-.08-.06h-.13s-.06-.02-.17-.07c-.06-.03-.09-.04-.1-.05,0-.02-.02-.05-.03-.08,0-.02-.03-.04-.05-.05-.06-.03-.12-.07-.17-.1-.04-.02-.03-.04-.03-.05,0-.03,0-.07-.03-.25-.02-.12-.03-.16-.03-.16h0s.03-.06.04-.09c0-.04,0-.1-.02-.17,0-.01,0-.02.02-.03.03-.06.06-.12.07-.18h0s.05-.05.05-.09v-.05h0s.02-.02.03-.02h0s.06-.07.08-.15c0,0,.02-.07.24-.16.21-.09.3-.09.34-.08.02,0,.04.01.05.02.03.03.06.04.1.04h.09s.04.04.07.04h.05s.05.02.07.03c.03.01.05.02.07.03,0,.03.03.06.07.1,0,.01.03.02.04.03h.03v.06s.03.06.05.07c0,.05.04.09.09.17.07.09.12.14.18.15.09.02.17.01.23-.02.05-.03.11-.08.13-.19v-.21s0-.05-.03-.07c0,0,0-.01-.03-.04,0-.06,0-.1-.03-.12-.02-.02-.05-.04-.07-.04,0-.02-.02-.06-.03-.1,0-.04-.04-.07-.07-.08-.02-.09-.09-.11-.11-.12h-.09c-.04-.05-.09-.08-.14-.1l-.03-.03s-.09-.07-.13-.08c-.03,0-.07-.01-.14-.02h-.07l-.1-.09s-.1-.04-.14-.01c0,0-.04.03-.12,0-.08-.02-.14-.03-.19-.03-.02-.01-.04-.02-.06-.03-.03,0-.12-.02-.17.09-.03.01-.07.03-.14.07-.08.04-.11.04-.13.03-.08-.02-.12.03-.17.1-.02.02-.03.04-.04.05h0s-.05.07-.06.12c0,0-.03.03-.07.06-.09.08-.13.12-.13.18v.06s-.03.05-.08.12c-.09.13-.1.15-.11.18v.12s-.05.07-.05.1-.01.08-.02.15c0,.06,0,.1-.01.12v.14s-.02.06,0,.09c0,.01,0,.02.01.03-.01.02-.02.04-.03.07-.01.05,0,.1.03.13v.02h-.02Z"/>
  <path class="st0" d="M30.45,8.18c.04.05.06.08.09.1.12.06.28-.02.57-.29.19-.18.27-.23.3-.25.02.01.03.02.05.02,0,.03.03.06.07.08h.02l.22.07c.02.05.05.09.09.11,0,0,.03.01.04.01.07,0,.09.02.09.02h.03l.03.05s.03.03.05.03h.03v.02s0,.02-.02.03c0,.02-.02.04-.02.07v.07c.04.09.04.18,0,.27-.04.07-.04.15,0,.22v.03c-.05.1,0,.2.18.29.03.02.07.02.11.02h.03s.02,0,.03.01h.05c.06,0,.12-.03.15-.09.02-.04.03-.08.03-.14h0v-.06c.03-.06.05-.14.06-.24,0-.08.02-.12.03-.14v-.02s.02-.09,0-.13c.02-.04.03-.08.03-.12,0-.01.02-.03.03-.04.02-.04.02-.09.02-.19v-.11c.03-.05,0-.11,0-.17,0,0,0-.02.02-.07.02-.03.02-.04,0-.24v-.17s.04-.1.05-.19c0-.07.03-.12.05-.16v-.02s.02-.07,0-.11v-.02h0v-.07h0s.03-.07,0-.11c.03-.04.04-.09,0-.13h0v-.02s.03-.06.03-.14v-.09c0-.05,0-.09-.04-.12-.06-.04-.09-.07-.11-.09,0-.01-.02-.02-.04-.03h0c-.09-.05-.2-.03-.35.05-.14.07-.22.14-.24.22v.03c-.1.07-.14.11-.17.14-.03,0-.08.02-.1.07,0,.02-.02.04-.02.06-.02.01-.05.02-.09.04-.13.06-.21.12-.25.19,0,.02-.02.05-.02.08,0,0-.02.02-.06.02,0,0-.03,0-.04.02-.05.03-.08.07-.11.11v.03s-.03.01-.08.02c-.03,0-.06.03-.08.06l-.05.1s-.04.03-.07.05c-.04.03-.08.07-.11.13,0,0-.02,0-.03.01-.07.03-.12.05-.15.1-.02.03-.02.06,0,.09,0,0-.04.02-.08.04-.1.04-.17.09-.21.16-.04.02-.07.05-.09.08,0,.03-.02.06-.02.11v.05s0,.09.04.11c0,0,.02.02.04.05l-.02.03h.01ZM32.31,7.03s-.02.08,0,.12c0,0,0,.02-.03.04-.04.04-.05.09-.02.14,0,.02.02.03.02.04s0,.02-.02.04v.13s-.03-.02-.05-.02h-.04s-.03-.03-.04-.04c-.02-.01-.05-.02-.08-.02-.02-.03-.04-.07-.08-.09-.02-.01-.04-.02-.08-.02,0-.01,0-.02.02-.03v-.05s.02-.01.02-.02c.03,0,.05,0,.08-.02.07-.05.13-.11.16-.17,0,0,0-.01.06-.04.04-.02.08-.05.11-.08v.1h-.03Z"/>
  <path class="st0" d="M33.99,10.33s.03.06.06.07c.08.04.1.05.1.06.02.02.04.03.06.03.02.04.05.08.08.09.06.04.12.08.16.11,0,.03,0,.08.06.12.03.02.06.03.1.03v.03c.03.06.05.09.08.12.04.03.09.05.14.05,0,.01.03.03.06.07.04.05.07.08.09.11.02.02.05.03.07.03h0s.04.06.06.07c.02.02.05.04.09.07.03.02.06.04.07.06.09.07.12.09.14.1.04.02.07.03.11.03.06,0,.12-.03.16-.08,0-.01.02-.02.02-.04l.02-.05h0l.04-.03s0-.01.02-.02c.05-.06.05-.11.04-.15,0-.03-.03-.07-.09-.1-.06-.05-.08-.09-.08-.11,0-.03-.03-.05-.05-.07-.09-.05-.14-.09-.16-.11,0-.02-.02-.05-.04-.07-.04-.03-.09-.04-.13-.04h0v-.02c-.02-.05-.05-.09-.08-.12l-.06-.05s-.03-.02-.05-.02c0-.01-.02-.03-.03-.04s-.03-.02-.05-.03c0-.02-.02-.03-.03-.04,0,0,0-.01-.02-.02,0-.04-.02-.07-.05-.09,0,0-.04-.03-.08-.03-.02-.01-.03-.02-.05-.03h-.03l-.02-.05s-.02-.04-.04-.05l-.04-.03v-.03s.03-.03.06-.05c.04-.03.07-.06.08-.08.02-.03.04-.06.05-.11h0s.07-.04.09-.07c.03-.03.05-.07.08-.13,0-.03.02-.05.03-.06.05,0,.08-.02.11-.05,0-.02.03-.04.03-.06.06-.02.09-.04.11-.07.06-.07.1-.16.12-.24h0c.07-.02.09-.04.12-.06.02-.02.03-.05.04-.09.02-.01.04-.03.06-.05h0s.07-.03.09-.05c.03-.03.06-.08.1-.15.05-.07.07-.11.08-.12h.02s.08-.04.11-.07c.02-.02.03-.05.06-.1.02-.04.03-.05.03-.05.05-.06.06-.14.02-.22,0-.01-.02-.03-.03-.04l-.02-.02v-.02s-.04-.05-.07-.06h-.03v-.02s-.03-.03-.06-.04l-.09-.03s-.09,0-.12.03h-.02s-.06.03-.08.05-.03.04-.04.07c-.06.03-.09.06-.12.08-.03.03-.06.08-.09.14-.04.06-.06.09-.07.1,0,0,0,.01-.04.04s-.06.05-.08.07c-.02.03-.05.06-.08.12-.03.06-.05.08-.05.08,0,.01-.03.03-.1.08-.08.06-.11.09-.13.11-.02.02-.05.06-.08.12-.03.06-.05.08-.06.08-.04.02-.07.04-.09.06s-.04.05-.05.09v.03h0l-.21.25c-.07.08-.11.12-.12.13-.06.01-.1.05-.12.11h0s-.07.03-.1.06c-.02.02-.03.05-.05.1v.03c-.08.09,0,.21,0,.25.04.06.06.09.06.1h0,0Z"/>
  <path class="st0" d="M15.48,38.36l-.07-.04s-.1-.02-.14,0l-.09.08s-.03.02-.05.02c-.03,0-.05,0-.09.03-.03,0-.05.03-.06.06-.02,0-.04,0-.06.02-.02,0-.03.03-.05.05-.02.03-.03.06-.05.11h0s-.07,0-.11.04c0,0-.02.02-.02.03,0,0-.02.03-.1.08-.01,0-.03.02-.03.03s-.01.02-.02.03c-.05.03-.11.07-.2.13-.17.12-.28.21-.33.29h0l-.18.06s-.05.02-.06.04c-.02.03-.02.06-.02.08,0,0-.02.02-.04.03.02-.03.03-.05.04-.06.04-.06.04-.13,0-.19h0s.01-.02.03-.03c.03-.04.05-.07.07-.09,0,0,.01,0,.02-.02.04-.05.02-.11,0-.16v-.02l.09-.14s.06-.08.07-.09h0s.04-.09.05-.17c0-.04.02-.08.05-.12l.02-.04v-.06s.02-.03.02-.04v-.04h0l.03-.06s.02-.1.03-.15c0-.03.02-.07.05-.12v-.03s.03-.08,0-.12h0c.04-.07.06-.14.04-.22-.02-.07-.06-.12-.11-.16-.01,0-.03-.02-.04-.02-.02-.02-.04-.04-.06-.05-.11-.08-.25.02-.37.12-.09.07-.14.11-.16.13h-.08s-.08.04-.09.08h0s-.08.04-.13.1h0s-.06.03-.08.05c-.04,0-.08.03-.1.06l-.04.05s-.05.06-.06.07l-.07.03c-.06.03-.13.09-.21.18-.06.07-.1.1-.12.12h-.1s-.04.03-.1.11v-.06s.01,0,.02-.02c.02-.02.03-.05.03-.09l.02-.04s.02-.03.02-.04.02-.06.04-.12c.03-.1.06-.15.07-.16.02-.04.05-.09.02-.18,0,0,.01-.03.04-.06.02-.03.05-.09.07-.25.01-.09.04-.16.08-.22.04-.05.03-.11.02-.16v-.02s.02-.03.05-.05.05-.06.04-.1c0-.03,0-.07-.02-.11,0-.02.02-.04.02-.07s0-.07-.01-.1l-.03-.05s-.02-.03-.02-.04-.02-.02-.03-.03c-.02-.02-.05-.03-.15-.04-.09,0-.14-.02-.19.02-.02.02-.04.05-.04.08v.03s-.05.04-.07.06c-.03.04-.05.1-.06.19,0,.05-.02.09-.04.12s-.04.09-.05.18c0,.05-.03.1-.06.15-.01.02-.03.04-.13.37-.06.2-.09.29-.09.33-.09.18-.15.31-.11.39,0,0-.02,0-.03.02-.03.02-.05.05-.05.08s0,.05.01.07h0c-.03.06-.04.12-.03.18-.02.02-.04.03-.05.05-.02.03-.03.06-.03.09-.02,0-.03.02-.05.04-.02.04-.02.07-.02.1h0s-.01.02-.01.03l-.02.05s-.01.06,0,.08c-.05.08,0,.16.01.2.03.07.06.11.1.14.03.02.06.03.1.03.02,0,.04,0,.06-.02.02,0,.05-.03.12-.05h.11s.09-.05.13-.1c.03-.03.04-.04.05-.04.14-.06.19-.1.21-.15l.02-.04s.06-.04.1-.07c.06-.04.11-.09.14-.14,0,0,.02-.02.09-.06.11-.06.14-.08.15-.1.02-.02.06-.07.18-.17s.17-.12.17-.13c.06-.02.11-.06.15-.13.02-.03.04-.06.05-.08.04,0,.07-.02.09-.03h.02v.02c-.01.1-.02.14-.02.14l-.04.04s-.05.05-.07.08c-.02.03-.03.08-.04.16,0,.03,0,.06-.02.08-.01.02-.03.03-.05.05-.03.02-.04.05-.05.08v.04s-.04.05-.03.09v.11h-.02s-.05.05-.05.08,0,.06.02.08c-.02,0-.05.03-.07.05s-.03.05-.03.1c-.02.02-.04.03-.05.05-.02.03-.03.07-.03.18,0,0-.02.02-.03.03-.02.03-.04.08-.08.23-.01.06-.02.1-.03.14-.02.04-.03.1,0,.15-.04.08,0,.14.02.16h0s.03.02.04.03h.02v.02s.06.06.08.08c.03.02.06.03.1.03.06,0,.13-.03.18-.06.1-.05.17-.11.21-.18,0,0,.02-.02.1-.06.11-.05.14-.08.17-.1.02-.02.04-.05.06-.09.01-.03.02-.05.02-.06.04-.02.09-.04.16-.06.04,0,.07-.05.08-.09l.07-.04s.03-.02.04-.04h.03s.06-.03.08-.06v-.02c.09-.05.17-.1.26-.15.11-.08.2-.15.25-.23,0,0,.03-.03.08-.07.07-.04.11-.09.15-.13,0,0,.01-.02.07-.05.05-.03.09-.07.13-.11.03,0,.06-.02.08-.04,0,0,.02-.02.07-.05.06-.04.1-.07.12-.11l.02-.04v-.05s.02-.03.02-.04c0-.08-.02-.13-.05-.17-.02-.03-.06-.06-.13-.1l.03.02v.05Z"/>
  <path class="st0" d="M19,39.9s-.04-.05-.06-.06h-.08s-.03,0-.1-.06c-.06-.04-.11-.07-.14-.08h-.1s-.05-.02-.1-.05c-.07-.04-.12-.06-.16-.08h-.07s-.04-.06-.08-.07c-.02,0-.03,0-.09-.02-.02,0-.04-.02-.07,0h-.02s-.06-.03-.07-.03h-.01s-.05,0-.07,0h0s-.05-.07-.08-.08h-.15c-.06-.03-.08-.04-.09-.05-.05-.02-.11,0-.18,0-.09.04-.12.09-.13.13v.06s-.06.06-.07.09-.02.07-.03.14c0,.05-.02.09-.03.11l-.02.04s-.04.06-.05.09c-.01.04-.03.1-.05.18-.02.07-.03.12-.04.15,0,0-.02.04-.05.08-.04.06-.06.09-.06.1,0,0-.01.06,0,.12,0,0-.01.02-.02.03-.03.04-.04.07-.05.1,0,.02-.02.06-.02.11v.06h-.01s-.04.06-.04.08-.02.06-.04.16c0,.04-.01.07-.02.09-.03.04-.05.06-.06.08-.01.03-.01.06,0,.09,0,.02-.02.04-.02.05h-.01s-.07.05-.08.1c-.02.13-.03.16-.03.17,0,.02-.01.05,0,.09-.02.04-.03.05-.03.06-.01.04-.01.08,0,.12.03.06.09.1.2.14.03.03.05.05.08.06h.09s.06.02.1.02h.02s.03,0,.09.05c.07.05.11.06.13.07.05.02.11.02.19.02.02.02.04.03.06.04h.06s.04.05.08.06h.09s.02,0,.09.06c.07.05.12.07.16.09h.1s.04.02.05.02h.08c.07,0,.15-.03.24-.08.02,0,.04-.04.05-.06v-.06s.02-.03.02-.05c.06-.16-.02-.25-.1-.28-.01,0-.03,0-.06-.02h-.01l-.06-.05s-.07-.03-.1-.02h-.02s-.03-.02-.04-.02c-.03,0-.07-.02-.13-.02h-.05s-.06-.08-.1-.09h-.1s-.03,0-.04-.02h-.09s-.07-.05-.11-.07c-.04,0-.08-.02-.14,0-.02,0-.04-.02-.06-.04-.04-.03-.07-.05-.07-.05-.01-.02-.03-.03-.04-.03,0-.02.01-.05.03-.09,0-.03.02-.06.02-.1v-.02l.02-.02s.06-.08.06-.11c.01-.04.02-.08.03-.11,0-.02.02-.04.03-.07.02-.04.03-.07.04-.09h0s.05.04.08.04h.19c.03.06.07.08.1.1.03,0,.07.02.13,0h.05s.02,0,.04.02c.04.03.07.05.09.05h.1s.07.06.1.07h.08s.04.03.06.03l.09.03h.09c.07.03.18,0,.23-.14.04-.1.04-.19,0-.27s-.11-.14-.21-.17h-.12l-.02-.02s-.07-.07-.11-.08h-.11s-.04-.03-.06-.03h-.08s-.09-.04-.13-.06c-.02-.03-.05-.05-.08-.06h-.11c-.03-.06-.09-.08-.15-.05h0c-.06-.03-.07-.05-.07-.06.03-.03.04-.05.05-.08,0-.03.01-.06.01-.1h0s.07-.05.09-.1c.01-.03.02-.08.03-.14,0-.04,0-.06.01-.08h.14s.06.07.1.08h.08l.06.03h.13s.06.07.09.08c.02,0,.04.02.08.02.01.02.03.03.06.04h.12s.06.03.11.05c.06.03.11.05.15.07.1.04.17.04.22.02.07-.03.11-.11.13-.17v-.02s.06-.06.07-.09v-.11l-.05-.09h-.07v.03Z"/>
  <path class="st0" d="M23.11,42.31h0c0-.08-.04-.17-.14-.28-.07-.08-.08-.11-.08-.11,0-.03,0-.06-.02-.09h0s.02,0,.03-.02c.06-.04.08-.09.09-.13h.02s.05-.06.05-.1v-.1s0-.07.02-.12c.01-.06.02-.11.02-.14.02-.04.04-.07.04-.1,0-.04-.02-.08-.05-.11l-.03-.02s0-.03-.01-.04v-.02c0-.06-.03-.12-.15-.23-.08-.08-.15-.13-.21-.15,0,0-.02-.03-.03-.04-.03-.03-.07-.04-.11-.05-.03,0-.06,0-.1.02h0c-.13-.07-.19-.08-.23-.08h-.1s-.14-.02-.31-.04h-.03s-.07-.03-.1-.04c-.17,0-.29.02-.37.11-.05.07-.08.17-.1.33v.09s-.03.1-.05.18v.02s0,.04.01.06c.01.03.02.05.03.06v.02s-.02.07-.02.09v.06s-.03.05-.04.07v.24s0,.02-.02.07c-.01.05-.02.09-.03.12,0,.03,0,.07.03.11h0s-.04.08-.05.12c0,.04,0,.09.04.14-.03.03-.05.06-.05.1v.04s.02.07,0,.2c-.02.02-.03.04-.03.06s-.01.04,0,.06c-.02.03-.03.06-.03.08,0,.03,0,.05.01.08-.02.03-.03.06-.03.09v.16c-.01.12.04.22.14.26.03,0,.07.03.2.04,0,0,.02,0,.08.04.02,0,.04.02.06.02.03,0,.08,0,.14-.02h.06s.02,0,.04.03c.03.02.06.03.1.02.04,0,.08-.02.12-.03.03,0,.05.02.07.02h.09s.06.02.08.02c.04,0,.08,0,.12-.02h.04s.08.02.1.02h.02s.11-.02.16-.07h.05c.06,0,.12-.03.16-.11h.02s.09-.03.11-.07c0-.02.01-.05.01-.07h.03s.08-.1.06-.15c.09-.2.11-.27.11-.31h0c.01-.17,0-.29-.02-.36,0,0-.01-.02-.02-.03v.02-.02ZM21.66,42.82s-.02-.02-.03-.02v-.18s0-.06.03-.13c.02-.07.03-.13.03-.16v-.02s.04-.07.04-.1,0-.06-.01-.09c.03,0,.06,0,.08-.04.02,0,.05,0,.14.03.12.04.13.04.14.04h.05s.09.04.15.04h.04s.05.02.08.03c.01,0,.03.02.04.03v.03s.04.08.08.09c0,0,.01.02.02.02h0s-.01.06-.02.07c0,.04,0,.09.02.15v.03s-.07.06-.09.09v.05h-.02s-.04,0-.06.02c-.04.02-.08.05-.12.07-.02,0-.05.02-.07.02,0,0-.05,0-.14-.02h-.13s-.04-.02-.06-.02c-.04,0-.08,0-.12.04h-.04s-.02-.04-.04-.05v-.03h.01ZM21.76,41.06v-.07s0-.02.03-.03h0s.06,0,.1-.02c.02.02.05.03.08.04h.15s.05,0,.21.06c0,.05.04.09.08.1h.04s.02.06.04.09v.12s-.03.04-.06.05c-.05.03-.1.04-.14.04-.05,0-.1,0-.17.04h-.03s-.05-.02-.07-.02c-.03,0-.07,0-.12.03-.01,0-.05,0-.15-.03h-.04v-.11h0v-.03s.04-.08.04-.1v-.16h0Z"/>
  <path class="st0" d="M27.3,41.67v-.13s-.04-.06-.07-.09c-.03-.05-.06-.09-.09-.14v-.02c-.1-.1-.24-.14-.43-.12-.04-.03-.08-.04-.12-.03-.04,0-.08.03-.13.09-.07.05-.13.09-.2.15-.1.09-.13.22-.1.39,0,.04.02.08.05.13.02.04.03.07.03.08,0,.06.04.1.09.13,0,0,0,.02.01.03.02.03.04.05.07.06,0,0,.03,0,.14.06.03,0,.06.02.11.02h.3s.1-.04.15-.09l.03-.03h0c.09,0,.11-.07.12-.1v-.03s.04-.06.06-.12c.03-.08.04-.13.03-.17,0-.02,0-.04-.03-.06h-.02Z"/>
  <path class="st0" d="M31.17,41.67s-.03-.06-.06-.09h0v-.11s-.04-.07-.09-.09h0s0-.08-.02-.11c0-.03-.03-.07-.06-.13-.02-.03-.03-.06-.04-.08v-.11s-.03-.05-.06-.08c0-.04,0-.08-.03-.12v-.05s-.02-.08-.05-.1l-.02-.02h0v-.13h0s-.02-.04-.04-.05h0s0-.03-.04-.09c0-.04-.04-.08-.08-.15-.03-.06-.05-.1-.07-.13v-.11s-.02-.05-.05-.07c.02-.05.02-.1,0-.14,0-.03-.03-.06-.06-.09,0-.02-.02-.03-.03-.04v-.03s0-.07-.02-.09c-.04-.09-.09-.16-.16-.18-.07-.03-.14-.02-.22,0-.03,0-.04.02-.06.05l-.04.02s-.04.02-.05.04c-.04.05-.06.11-.05.16,0,.04.02.08.04.12.02.03.03.06.03.06v.12s.03.06.07.1v.04s0,.07.02.1c.02.05.05.12.1.21.04.07.06.13.08.17v.08s0,.06.03.08l.04.04v.13s.05.11.1.19c.04.06.06.1.07.12v.09s.02.06.05.08c.02,0,.02.02.03.02,0,.02.02.06.03.1,0,.06.03.11.04.14,0,.03.03.07.05.09.02.14.04.19.05.22,0,.02.02.05.05.07v.1s.03.06.06.09l.02.02c.03.07.08.1.11.1h.03s.06,0,.09-.03h.09s.04-.02.06-.04h0s.09-.06.1-.11l.02-.06v-.06s-.02-.06-.04-.09c.03-.06.02-.11,0-.14l.02-.04h-.04Z"/>
  <path class="st0" d="M34.54,40.03s-.04-.05-.07-.06v-.04s0-.03-.02-.04c-.03-.04-.07-.1-.12-.18l-.03-.03-.02-.02s-.02-.06-.03-.08c-.02-.02-.04-.05-.08-.09l-.04-.04s-.06-.11-.1-.2c-.05-.1-.08-.18-.11-.22-.02-.03-.05-.05-.08-.06-.02-.03-.06-.09-.14-.22,0,0,0-.02-.03-.09s-.04-.12-.06-.16c-.02-.03-.06-.07-.12-.12-.02-.02-.04-.03-.05-.04,0-.03,0-.06-.02-.09,0,0,0-.02-.02-.02,0-.05,0-.09-.04-.12,0-.02.02-.03.03-.04,0,0,.04-.02.09-.04.07-.02.11-.04.14-.06,0,0,.03-.02.11-.1.02-.02.04-.03.06-.03s.05-.02.06-.04c0,0,.02-.03.03-.04.02,0,.04,0,.06-.02.1-.07.18-.2.07-.37v-.02s-.02-.07-.03-.09-.03-.03-.05-.04c-.06-.03-.15-.05-.27.02-.03,0-.06.02-.09.03,0,0-.03.02-.03.03,0,0-.02.03-.05.06h-.02c-.06.03-.08.04-.1.05-.03.02-.05.04-.08.08h-.04s-.05.02-.07.03l-.02.02h-.03s-.07.04-.11.09c-.03.04-.05.04-.05.05-.25.16-.32.17-.32.17h-.06s-.06.02-.08.05c0,.02-.02.04-.03.05l-.04.04s-.03.03-.03.04l-.05.02s-.08.03-.1.05c-.03.02-.05.04-.07.07-.05,0-.09,0-.13.03-.02,0-.06.04-.1.07-.04.03-.06.05-.08.06-.05.03-.07.07-.07.12h0s-.03.08-.02.12v.02l.02.02c.05.07.17.26.33.21.02,0,.03-.02.05-.03.03,0,.07,0,.1-.03l.03-.03h.04l.07-.04s.04-.03.06-.07l.03-.03h0s.1-.03.13-.05c.03-.02.05-.04.08-.08.02-.02.02-.03.02-.03h0c.08-.05.11-.06.11-.06v.02s.03.03.05.07.04.07.06.1c0,.02.03.04.05.05,0,.05,0,.09.03.11,0,.02.04.04.08.07.08.17.09.18.09.19.02.03.04.06.08.09l.04.04h0v.02s.02.07.04.1.05.06.1.08h0s.02.08.04.11c.03.05.09.12.17.22.03.11.05.16.07.18,0,.02.04.04.07.06,0,.03.02.06.03.09,0,0,.02.03.04.04,0,.03,0,.06.02.08,0,.02.03.04.06.08,0,0,.02.03.03.05,0,.03.03.05.06.06,0,.02.02.03.04.04l.04.02h0s.07.06.1.07h.07s.1-.04.14-.07h.02s.06-.02.08-.05l.03-.05s.02-.03.02-.05c0-.05,0-.09-.03-.12,0-.03,0-.07-.02-.12l-.02.07h0Z"/>
  <path class="st0" d="M40.54,32.47c-.15-.08-.17-.05-.32-.13s-.13-.14-.3-.16c-.06.12-.18.2-.24.31-.06.12,0,.3-.08.41-.07.11-.24.16-.32.27-.07.11-.05.29-.12.4s-.21.18-.28.29c-.08.11-.15.22-.22.33-.08.11-.18.2-.26.31l.14.14c.1.05.1,0,.3.16.2.15.23.12.44.28l.06-.11c.08-.11.02-.09.11-.2.08-.11.17-.22.25-.33.08-.12.27-.15.35-.27.08-.11.1-.27.18-.39s.09-.27.16-.39.21-.2.27-.33c.07-.12.13-.25.2-.37l-.05-.03c-.15-.08-.11-.1-.26-.18h-.01Z"/>
  <path class="st0" d="M41.71,27.36c-.03.13-.15.22-.18.35-.03.13.11.3.08.43-.04.13-.2.22-.23.35-.04.13.02.28-.02.41s-.17.22-.21.35c-.04.12-.02.27-.07.39-.04.13-.12.24-.16.36v.03c.25.09.22.15.46.24.24.09.23,0,.47.09.03,0,.07-.11.07-.11.05-.13.02-.16.07-.29s.09-.26.14-.39c.04-.13.05-.27.09-.41.04-.13.15-.24.19-.38.04-.13.05-.27.09-.41.03-.14.03-.28.06-.42.03-.14.11-.26.14-.4v-.06c-.25-.05-.21-.06-.46-.11-.25-.06-.26-.03-.52-.02,0,0,0,0-.01,0Z"/>
  <path class="st0" d="M43.15,23.4c0-.14-.03-.28-.03-.42s0-.28-.02-.41c0-.03.02-.1.02-.24v-.1h-.09c-.15-.01-.2-.09-.36-.1h-.09c-.25.02-.25.04-.5.12,0,.13-.04.23-.03.36,0,.14-.02.26,0,.4,0,.13.04.26.04.4v.4c0,.13-.04.26-.05.39,0,.13.13.27.13.4s-.07.19-.08.32l-.02.12c.26.02.26.04.51.06h.09c.15,0,.14-.03.28-.03h.14c0-.14.06-.28.07-.41,0-.14-.06-.28-.06-.42s.11-.28.12-.42c0-.14-.03-.28-.03-.42h-.04Z"/>
  <path class="st0" d="M41.2,17.94c.04.13.11.24.15.37.04.12.07.25.1.38.04.13.13.24.16.37.03.13.06.26.09.39s.04.16.06.29l.03.07s.03.02.08,0c.08-.02.17-.06.17-.06.14-.02.15,0,.28-.02.26-.03.45-.09.45-.09-.03-.14-.09-.28-.12-.42s-.1-.27-.13-.4c-.03-.14-.06-.27-.1-.41-.04-.13-.12-.26-.16-.39-.04-.14.02-.3-.02-.43-.04-.14-.1-.26-.14-.39-.05-.13,0-.16-.05-.29l-.06-.03c-.11.04-.21.08-.32.12-.16.06-.19-.01-.35.04-.16.06-.19.04-.32.16.05.12.11.21.15.34.04.12,0,.26.03.39h.02,0Z"/>
  <path class="st0" d="M40.97,14.5c-.06-.12-.15-.23-.22-.36-.06-.12-.2-.21-.27-.33s-.07-.28-.14-.4-.08-.28-.15-.4c-.08-.12-.28-.15-.36-.27-.08-.12-.05-.3-.13-.42-.08-.11-.18-.21-.26-.32h-.05c-.21.16-.24.12-.44.27-.21.15-.26.11-.43.31.08.11.27.21.34.32.08.11.12.24.19.35.08.11.06.28.13.39.07.11.23.16.31.28.07.11.06.27.13.39.07.11.18.2.24.31.07.12.09.15.15.27l.03.1h.02c.23-.11.26-.06.46-.22.09-.07.28-.11.38-.18l.07-.08h0Z"/>
  <path class="st0" d="M6.29,29.23c-.04-.13-.18-.22-.22-.35-.04-.13.02-.28-.02-.41s-.2-.22-.23-.35c-.03-.13.11-.3.08-.43-.03-.13-.15-.22-.18-.35-.25-.01-.27-.03-.52.02-.25.05-.24.08-.49.14l.04.04c.03.14.11.26.14.4.04.14.03.28.07.42s.05.27.09.41.16.25.2.38.05.27.09.41c.04.13.09.26.14.39s.02.16.07.29c0,0,.04.13.07.11.24-.09.23,0,.47-.09s.21-.15.45-.24v-.03c-.04-.12-.11-.23-.16-.36-.04-.12-.03-.27-.07-.39h-.02Z"/>
  <path class="st0" d="M5.46,19.74s.09.06.07.05c-.04-.03.08,0,.08,0l.03-.07c.03-.13.04-.16.07-.29.03-.13.06-.26.09-.39s.12-.24.15-.37c.03-.13.07-.26.11-.38.04-.13.11-.24.15-.37.04-.13-.02-.26.03-.39.05-.12.11-.21.15-.34-.13-.11-.15-.1-.32-.16-.16-.06-.18.01-.35-.05-.11-.04-.21-.08-.32-.12l-.06.03c-.05.13,0,.16-.05.29-.04.13-.1.26-.14.39s.02.29-.02.43c-.04.13-.12.26-.16.39-.04.14-.06.27-.1.41-.03.13-.1.26-.13.4s-.09.28-.11.42c0,0,.19.06.44.09.13.02.12-.03.37.02h.02,0Z"/>
  <path class="st0" d="M8.53,33.84c-.07-.11-.2-.18-.28-.29-.07-.11-.05-.29-.12-.4s-.25-.16-.31-.27c-.07-.11-.01-.3-.08-.41-.07-.12-.18-.19-.25-.31-.17.02-.15.08-.3.16-.15.08-.17.04-.32.13-.15.08-.11.1-.26.18l-.04.03c.07.12.13.25.2.37s.21.21.28.33c.07.12.08.27.16.39s.1.27.18.39.27.16.35.27c.08.12.17.22.25.33.08.11.02.09.11.2l.06.11c.2-.16.23-.12.43-.28.2-.16.2-.11.3-.16l.15-.14c-.08-.11-.18-.2-.26-.31s-.15-.22-.22-.33h-.03Z"/>
  <path class="st0" d="M4.84,25.07c.26-.02.25-.04.51-.06l-.02-.12c-.01-.13-.07-.18-.08-.32,0-.13.13-.27.12-.4,0-.13-.04-.26-.05-.39,0-.13,0-.26-.01-.4,0-.13.04-.26.04-.4,0-.13-.02-.26-.01-.4,0-.13-.04-.23-.03-.36-.24-.08-.24-.1-.5-.12s-.27.12-.52.1v.1c0,.14.02.22.02.24,0,.14-.02.28-.02.41,0,.14-.03.28-.03.42s-.04.28-.04.42.12.28.12.42-.07.28-.06.42c0,.13.06.27.07.41h.06c.26-.02.18.05.43.02h0Z"/>
  <path class="st0" d="M7.35,14.97s.11-.25.18-.37c.06-.11.18-.2.24-.31.07-.12.06-.27.13-.39s.24-.16.31-.28c.07-.11.05-.28.12-.39.07-.11.12-.24.2-.35.07-.11.26-.21.34-.32-.16-.2-.22-.16-.43-.31-.2-.15-.23-.12-.44-.27h-.02c-.08.11-.18.21-.27.32-.08.11-.05.3-.13.42s-.28.15-.35.27c-.08.11-.08.28-.15.4s-.08.28-.15.4-.2.21-.27.33-.2.33-.19.33c.23.12.2.17.43.29s.24.1.46.22h-.01,0Z"/>
  <path class="st0" d="M37.72,21.26v-.02c0-.12-.03-.22-.04-.3,0-.04,0-.07-.02-.11v-.17c0-.1-.02-.19-.03-.29v-.03c0-.12.02-.32-.02-.53-.03-.17-.09-.3-.13-.41.02-.15.03-.37-.04-.61-.07-.23-.18-.4-.24-.5,0,0,0-.02-.02-.03-.06-.15-.13-.26-.18-.35,0-.01,0-.02-.02-.03v-.02c-.02-.12-.06-.3-.15-.5v-.02c-.05-.11-.11-.2-.16-.29-.03-.04-.05-.09-.08-.13v-.03c-.07-.13-.15-.24-.21-.34-.02-.03-.04-.06-.06-.1,0-.02-.02-.05-.03-.07-.05-.1-.12-.24-.22-.39-.1-.14-.2-.24-.28-.32h0c-.05-.15-.13-.35-.31-.55v-.02c-.21-.22-.45-.33-.62-.39-.04-.04-.08-.09-.13-.13-.08-.15-.22-.4-.49-.58-.21-.14-.41-.2-.54-.25,0,0-.03,0-.04-.01-.23-.11-.44-.14-.57-.16h0c-.14-.06-.29-.12-.46-.17h-.02c-.24-.07-.45-.06-.58-.06-.09-.02-.19-.04-.28-.06l-.11-.02h0s-.04-.01-.06-.02c-.09-.03-.2-.07-.35-.1h0c-.12-.05-.31-.13-.57-.16-.23-.02-.42.02-.54.04h-.03c-.11-.02-.27-.05-.46-.05h-.61c-.13.02-.27.03-.42.05-.31.04-.54.19-.68.29-.06.02-.12.03-.17.05h0c-.15-.01-.4-.02-.69.08-.2.08-.34.18-.44.25-.11.02-.3.06-.5.17,0,0-.01,0-.02.01-.11.06-.21.12-.31.18-.01,0-.03.02-.04.03-.13.03-.37.1-.59.26-.25.18-.38.4-.45.55-.08.07-.15.14-.21.2l-.03.03s-.05.04-.08.06c-.09.07-.19.15-.3.26-.24.24-.35.56-.32.87h0c-.03-.18-.11-.36-.24-.51-.03-.03-.06-.07-.08-.1-.07-.09-.15-.18-.24-.29,0-.01-.02-.02-.03-.03-.14-.14-.3-.24-.41-.3-.07-.11-.17-.25-.32-.38h0c-.08-.11-.22-.29-.44-.43-.22-.15-.44-.2-.62-.22-.09-.08-.22-.17-.38-.25-.2-.09-.39-.12-.55-.13-.12-.1-.28-.19-.48-.25-.2-.06-.38-.06-.52-.05-.13-.07-.3-.15-.51-.18h-.03s-.05-.01-.08-.02c-.11-.03-.25-.06-.42-.08-.3-.03-.54.05-.69.11-.1,0-.19.01-.26.02h-.08c-.12-.02-.31-.05-.54-.03-.22.02-.4.08-.51.12h-.07c-.11,0-.26,0-.44.04-.04,0-.08.01-.12.02-.1.01-.23.03-.39.06-.2.05-.35.13-.46.19-.14,0-.35.02-.57.11-.16.06-.3.14-.42.2-.03.02-.07.04-.09.05l-.09.04c-.12.06-.27.13-.43.23-.14.09-.26.18-.36.26l-.07.05s-.05.03-.07.04c-.1.06-.24.14-.39.26-.13.11-.23.22-.31.3l-.06.06s-.01,0-.02.01c-.1.06-.27.17-.43.35-.14.15-.22.3-.28.4,0,.02-.02.03-.03.05-.12.15-.19.31-.24.45-.12.09-.26.21-.37.38,0,0-.01.02-.02.03-.11.18-.16.35-.19.48-.1.1-.22.24-.31.43-.14.27-.15.53-.15.69-.03.09-.05.17-.07.24-.01.04-.02.08-.03.11-.06.16-.08.31-.1.41-.08.11-.19.29-.25.51,0,.02-.01.03-.02.05-.05.11-.12.28-.16.49v.02c-.04.27,0,.49.04.65,0,.04-.02.08-.03.13-.1.15-.24.41-.25.74v.02c0,.24.05.43.08.55h0v.05c0,.11-.02.26,0,.44.02.25.1.44.14.56v.02c.03.18.09.33.15.44-.01.12-.02.29.02.47v.02s0,.06.01.09c0,.1.02.24.06.4v.03c.04.16.1.29.14.39.01.03.03.07.04.1.08.22.19.39.26.49v.03c.03.1.06.25.12.39.05.14.12.25.17.33,0,.16.03.4.15.64,0,0,0,.02.01.02.05.1.11.2.17.3.03.05.06.09.08.14,0,0,0,.01.01.02.11.18.25.31.38.4.04.12.09.26.18.39h.01s.03.07.05.1c.04.07.09.16.15.26h0c.04.12.11.31.27.52.09.12.18.21.26.29.03.03.06.06.09.09.03.04.06.08.09.12.06.08.13.17.2.25.1.12.2.21.29.3.03.03.06.05.08.08.11.11.21.2.29.26.02.02.05.04.07.06.03.03.06.06.09.1.07.08.16.17.26.27.12.11.24.19.36.24.07.14.17.29.32.43.18.16.37.24.53.28.07.1.16.2.28.29.08.07.17.13.26.19.04.03.09.06.13.09.15.12.31.19.41.24.02,0,.04.02.05.02.04.03.08.05.11.08.03.02.06.04.1.07.09.15.23.36.49.52.18.12.35.17.47.21h.03c.24.13.47.16.64.17.03.02.07.04.1.06.07.09.19.22.36.34h0c.09.1.24.26.47.39.24.13.48.17.62.18.06.03.11.05.16.07s.09.04.14.06h.02c.13.06.25.1.34.14.03,0,.05.02.07.03.01,0,.02.02.03.02.09.07.23.17.4.24.14.06.27.1.38.12.09.1.22.21.39.29h.02c.09.07.24.19.45.28.15.06.28.1.38.13.03,0,.06,0,.08.02.17.07.32.1.43.13h.06c.13.05.26.07.39.07.17,0,.34-.04.49-.11.12.04.24.07.37.07.11,0,.22-.02.33-.05h.08c.11-.02.25-.04.41-.1.03,0,.06-.02.1-.02.1-.02.23-.05.39-.11.15-.06.26-.12.35-.17.03,0,.05-.03.06-.04.21-.08.36-.19.46-.28.1-.02.23-.05.38-.1h.04c.11-.02.27-.05.44-.13.15-.06.3-.12.45-.19h.02c.21-.1.35-.23.44-.3h0c.09-.04.17-.09.23-.13.04-.02.08-.05.12-.07.05-.03.11-.05.16-.08.08-.04.17-.08.26-.12.03-.02.07-.03.11-.04.09-.04.21-.08.33-.15h.02c.06-.03.12-.06.18-.09.07-.03.13-.06.2-.1,0,0,.03-.02.04-.02.11-.06.2-.13.27-.18.04-.03.07-.05.11-.07h.02s.09-.05.14-.08c.09-.04.17-.09.26-.14.02,0,.03,0,.05-.02.1-.04.24-.09.4-.19,0,0,.02,0,.03-.02.11-.08.2-.15.28-.22.02-.02.05-.04.08-.06.11-.08.2-.15.27-.22.16-.03.37-.09.58-.25h.02c.16-.12.27-.25.34-.33l.03-.03c.18-.15.29-.31.36-.41.11-.09.21-.18.3-.26.03-.03.06-.05.1-.07.07-.05.15-.11.23-.18h0c.11-.06.29-.15.46-.32.13-.13.22-.27.28-.4.14-.06.28-.16.41-.3.17-.19.26-.4.31-.55.08-.06.17-.14.25-.25h0c.16-.21.24-.41.28-.53h0c.05-.07.09-.13.13-.2,0-.02.03-.04.04-.06.11-.08.27-.21.41-.43.09-.14.15-.27.19-.37,0-.01,0-.02.02-.04.09-.08.22-.22.33-.42v-.03c.08-.16.12-.31.14-.44.11-.1.22-.24.3-.42,0-.02.02-.03.02-.05.07-.17.1-.32.12-.42v-.04s.02-.03.02-.04c.05-.09.13-.23.19-.4.1-.26.09-.49.09-.64.04-.13.07-.25.1-.37.03-.13.07-.27.1-.4.07-.12.17-.31.21-.57.04-.25,0-.47-.03-.62.03-.11.07-.25.08-.41v-.46c.03-.12.09-.31.09-.55v-.02c0-.23-.07-.42-.1-.54l.02-.06h0ZM23.15,24.91h-.01s-.09-.09-.15-.12l-.04-.02-.03-.06-.04-.1-.05-.18s-.03-.11-.06-.16l-.04-.09-.02-.23c0-.06-.01-.13-.03-.19l-.03-.11v-.39s-.01-.09-.02-.13l-.02-.13.03-.26s0-.07.01-.11h0v-.31c.01-.06.02-.13.02-.19v-.06l.02-.06s.02-.05.02-.07l.11-.37.07-.16s.03-.07.04-.1l.02-.03c.13-.14.22-.32.26-.51l.03-.12.08-.17s.06.1.1.14v.1c.02.08.04.16.07.24l.06.16.04.17c.01.06.03.12.06.17l.06.14.03.14c.01.07.04.13.06.19,0,.18.03.35.11.52-.03.13-.03.27,0,.4l.02.13-.03.15c-.03.15-.04.3,0,.45-.07.14-.11.29-.11.45v.2l-.05.09s-.04.11-.06.16v.05c-.1.08-.18.17-.24.27-.06.03-.12.06-.18.1h-.11ZM35.51,22.26v.41c-.03.09-.07.24-.09.41s0,.32.02.45c-.05.1-.09.22-.12.36-.02.12-.05.25-.09.38v.02c-.03.11-.06.23-.11.38-.06.19-.07.36-.06.49-.05.08-.1.18-.15.31-.04.09-.06.17-.08.25-.12.1-.26.25-.36.46-.09.18-.12.35-.14.5-.06.07-.13.16-.2.27-.06.11-.11.21-.14.28-.1.08-.24.2-.36.38-.04.06-.08.12-.12.18-.04.06-.08.12-.11.17-.11.15-.17.29-.22.4-.08.06-.18.15-.28.27-.08.1-.15.2-.19.3-.13.06-.28.15-.42.29-.16.17-.25.35-.3.51-.07.04-.14.1-.21.16-.02.02-.06.05-.11.08-.08.06-.15.11-.23.18,0,0-.02.02-.03.02-.1.09-.2.18-.3.26-.18.15-.3.32-.36.41h0l-.14.14c-.15.03-.34.1-.52.23-.12.08-.21.17-.27.23-.02.02-.04.04-.06.05-.11.08-.2.15-.28.22l-.04.04h-.02c-.1.04-.24.09-.39.19-.04.03-.09.05-.14.07-.09.04-.17.09-.25.14-.1.06-.19.12-.26.17-.03.02-.06.05-.1.07s-.08.04-.11.06c-.09.04-.19.09-.28.14-.02,0-.07.03-.1.04-.08.03-.19.07-.29.13-.07.03-.14.07-.21.1s-.13.06-.2.09h-.02c-.08.04-.16.08-.23.13-.05.03-.1.06-.14.08-.21.1-.36.23-.45.3h0c-.1.04-.2.08-.3.12h-.04c-.09.02-.23.05-.38.1h-.04c-.1.02-.26.05-.42.11h-.02c-.22.09-.38.22-.48.31-.09.04-.16.08-.22.11-.03,0-.05.03-.08.04-.03,0-.06.02-.1.02-.08.02-.19.04-.3.08h-.08c-.09.02-.22.04-.36.08-.05.02-.11.04-.16.06-.13-.05-.25-.08-.34-.1-.02,0-.04,0-.07-.02-.13-.05-.25-.09-.34-.11h-.03c-.06-.04-.13-.1-.23-.16-.1-.13-.27-.32-.55-.44-.19-.09-.37-.12-.5-.13-.08-.06-.19-.13-.33-.2-.12-.06-.23-.1-.32-.13-.03,0-.07-.02-.1-.04-.07-.04-.15-.07-.23-.11-.05-.02-.1-.04-.15-.07h-.02c-.17-.09-.33-.13-.46-.15-.05-.05-.12-.11-.2-.16-.08-.1-.23-.27-.46-.41-.1-.06-.19-.12-.29-.18l-.08-.05h-.02c-.27-.16-.55-.19-.72-.2-.02,0-.03,0-.05-.02-.08-.12-.2-.27-.37-.39-.02,0-.03-.02-.05-.03-.07-.04-.14-.09-.21-.14-.05-.03-.09-.06-.14-.1-.13-.09-.26-.15-.35-.19-.02,0-.03,0-.05-.02-.06-.04-.11-.08-.17-.12-.01,0-.02-.02-.03-.02-.07-.13-.18-.31-.37-.47,0,0-.01,0-.02-.02-.14-.11-.28-.18-.41-.22-.06-.11-.15-.22-.26-.32-.19-.17-.39-.25-.53-.3-.01,0-.02-.02-.03-.03-.05-.05-.1-.1-.14-.15h-.01c-.09-.1-.18-.17-.25-.23-.02-.02-.05-.03-.07-.05,0,0-.01,0-.02-.02-.04-.04-.09-.09-.13-.13-.06-.05-.11-.11-.15-.16-.04-.04-.07-.09-.11-.14-.05-.07-.11-.14-.17-.21s-.12-.14-.19-.2l-.04-.04c-.04-.12-.11-.29-.24-.46-.02-.03-.03-.06-.05-.09-.02-.04-.04-.08-.07-.12-.02-.14-.07-.35-.2-.57,0,0-.01-.02-.02-.03-.15-.23-.34-.37-.49-.46,0-.15-.03-.36-.13-.57-.06-.14-.14-.25-.19-.33,0-.01-.02-.02-.02-.04,0-.03-.02-.07-.03-.1-.02-.09-.05-.18-.08-.26,0-.02-.01-.04-.02-.06-.08-.19-.17-.32-.23-.41h0c-.03-.08-.06-.15-.08-.2-.01-.02-.02-.05-.03-.07v-.07c0-.06-.01-.14-.03-.22.02-.12.04-.32,0-.56s-.14-.41-.2-.53c-.03-.13-.07-.24-.1-.31v-.03c0-.08.01-.18.01-.3,0-.11-.01-.2-.03-.29.07-.13.14-.3.15-.51,0-.02.01-.04.02-.06.02-.09.06-.22.07-.36.03-.2,0-.38-.03-.52.01-.03.03-.07.04-.11.08-.11.2-.29.27-.52.04-.13.06-.25.07-.34v-.06h0c.02-.08.04-.15.06-.22.02-.06.04-.13.04-.15.07-.16.1-.31.11-.44.07-.08.15-.17.21-.29,0-.01.02-.03.02-.04.05-.1.09-.19.11-.28.11-.08.24-.19.35-.35.15-.21.2-.42.24-.56.04-.06.06-.11.09-.15.09-.06.22-.14.34-.27.06-.06.11-.12.17-.18.03-.03.07-.08.08-.09h0s.05-.03.07-.04c.07-.04.16-.09.25-.16,0,0,.02-.01.02-.02l.1-.08c.07-.06.14-.11.19-.14,0,0,.01,0,.02-.01.04-.02.11-.06.18-.09l.13-.06s.1-.05.15-.08c.02-.01.04-.02.06-.03.12,0,.28,0,.47-.06.2-.06.35-.14.45-.2h.04c.08,0,.17-.02.28-.04h.08c.09,0,.2,0,.33-.02.16-.02.29-.07.39-.1.1.02.25.04.4.03.1,0,.19-.01.29-.02.04,0,.07,0,.1-.01.21,0,.39-.04.52-.08.03,0,.06.01.09.02.11.07.29.17.52.23.12.03.22.04.32.04.1.08.22.16.36.22,0,0,.02,0,.03.01.17.06.33.08.47.08.06.05.14.1.22.15.17.09.33.14.47.16l.09.09c.06.1.16.26.32.4.15.14.3.22.4.28.02.02.04.05.06.07.04.05.08.1.12.15.08.1.18.18.28.24.02.13.07.25.14.37l.05.09-.04.07-.24.36s-.04.07-.06.11l-.11.21c-.03.07-.06.14-.08.21-.11.13-.19.28-.24.44l-.04.14-.16.36c-.03.06-.05.12-.06.18-.09.11-.15.23-.2.36l-.06.18-.08.17s-.03.08-.04.12l-.07.23s0,.02-.01.04l-.05.2-.07.19c-.04.11-.06.23-.06.35v.15l-.03.14c-.02.1-.02.21-.01.31v.21s0,.07-.01.11v.24c-.01.07,0,.14,0,.21l.03.17v.37c0,.09,0,.18.03.26l.03.14v.15s.02.07.02.1l.04.24c.01.09.04.18.08.27l.06.14.04.15s.02.06.03.09l.08.22s.04.1.07.15l.11.21s.05.09.08.13l.14.19c.07.1.16.19.27.26l.11.08.1.1c.12.12.26.21.42.27l.45.16c.12.04.25.07.38.07h.76c.3-.01.58-.13.78-.34.11-.04.21-.09.3-.16l.19-.15c.16-.12.28-.29.36-.48.1-.1.19-.21.25-.34l.1-.22c.03-.06.05-.12.07-.19l.04-.15.06-.14c.04-.08.06-.17.08-.27l.04-.24v-.07c.09-.16.14-.33.15-.52v-.24c.01-.1,0-.19-.01-.28h0c.02-.07.02-.14.03-.21v-.31c.12-.27.12-.58.02-.85l-.07-.17c.04-.3-.05-.61-.25-.85-.01-.05-.03-.1-.05-.15l-.06-.14-.03-.15s-.02-.09-.04-.14l-.04-.11-.02-.12s-.01-.08-.02-.11l-.06-.24c-.03-.14-.09-.27-.17-.39,0-.04-.02-.08-.03-.13l-.07-.23s0-.02-.01-.04l-.08-.23c-.05-.14-.13-.28-.23-.39v-.03c-.02-.21-.1-.41-.23-.58.04-.15.05-.31.02-.46.28,0,.57-.11.78-.33.02-.02.05-.04.08-.06.06-.05.15-.11.23-.19l.03-.03.06-.06c.07-.07.13-.13.18-.17,0,0,.02-.01.03-.02.13-.11.22-.22.28-.33.09-.03.18-.07.28-.14.04-.03.09-.05.13-.08.04-.03.08-.05.13-.08.1-.02.26-.05.43-.13.1-.04.18-.09.25-.14.12,0,.28,0,.44-.05.05-.01.1-.03.15-.04.08-.02.15-.04.2-.05h.03c.23-.05.4-.15.52-.23h.59c.1.02.23.04.38.05.14,0,.26-.01.36-.03.09.04.22.08.36.11.02,0,.03.01.05.02.09.03.22.08.38.11l.11.02c.09.02.18.03.27.06h.02c.19.04.37.04.47.04.07.02.14.05.23.09.19.08.35.1.46.12.04.02.08.03.11.05.07.11.17.24.32.36.02.01.06.06.1.1.05.05.1.11.15.16h0c.12.12.25.2.37.26.04.08.1.17.17.26.08.1.15.18.22.24l.05.05s.02.04.03.06c.04.08.09.18.16.3h0c.04.06.07.12.11.17.04.06.08.11.1.16.04.07.08.14.12.21.02.03.04.06.05.09h0c.02.1.05.26.12.42.06.15.13.27.18.35,0,.02.02.04.03.06.04.09.08.17.12.24,0,.14,0,.32.04.52.04.15.09.27.13.36v.41c0,.06,0,.13.02.19,0,.07,0,.14.02.21,0,.11.03.21.04.29,0,.04.02.09.02.11v.03c0,.16.05.29.08.39-.03.1-.06.24-.06.4v.04h.02Z"/>
</svg>