<?xml version="1.0" encoding="UTF-8"?>
<svg id="_レイヤー_1" data-name="レイヤー_1" xmlns="http://www.w3.org/2000/svg" version="1.1" viewBox="0 0 127.3 17.1">
  <!-- Generator: Adobe Illustrator 29.8.3, SVG Export Plug-In . SVG Version: 2.1.1 Build 3)  -->
  <defs>
    <style>
      .st0 {
        fill: #f64676;
      }
    </style>
  </defs>
  <path class="st0" d="M10.8,5.7h-4.8v1.6c0,.5-.3,1-1.6,1.2-.1-.5-.5-.7-1.3-1v-.1c.2,0,1.2.1,1.5.1.4,0,.5,0,.5-.3v-1.5H1.7c-.7,0-1,0-1.3.1l-.2-.4c.7,0,1.6.1,1.7.1h3.2c0-.6,0-.7-.2-1.2l1,.2c.1-.1.8-.8.8-.9h-3c-.7,0-1,0-1.3.1l-.1-.3h4.5l.7-.4h.2c.1,0,.2,0,.2.1l.7.6c.1,0,.1.1.1.1,0,.2-.3.2-1,.2-.6.3-1.1.4-1.6.6.1,0,.1.1.1.1,0,.1-.1.2-.2.3v.5h2.9l.6-.5c.1-.1.2-.2.3-.2,0,0,.1,0,.2.1l.9.6.1.1c0,.1-.1.1-.2.1M10.1,2.8c-.1,0-.6.4-.7.4-.2.1-.3.2-.7.4h-.1c.2-.3.4-1.2.4-1.3H2.2c0,.9-.7,1.7-1.4,1.7-.3,0-.5-.2-.5-.4,0-.3.1-.4.6-.7.7-.4.8-.8,1-1.3h.1c.1.2.1.3.2.4h4.5c.3-.4,1-1.4,1-2.1v-.1l1.3.5c.1,0,.2.1.2.2,0,.2-.4.2-.5.2-.6.5-1.3,1-1.8,1.3h2.2l.5-.3c.1-.1.2-.1.2-.1q.1,0,.2.1l.7.5c.1.1.2.1.2.2,0,.3-.3.3-.8.4M3.3,1.8c-.3,0-.5-.2-.6-.6-.2-.3-.3-.7-.8-1.1h0c.9.1,1.9.6,1.9,1.2.1.1,0,.5-.5.5M5.7,1.7c-.5,0-.6-.3-.7-.7-.1-.3-.2-.5-.8-1h0c1.1.2,1.9.7,1.9,1.2.1.2,0,.5-.4.5M18.8,2.9h-.3c-.3.2-.9.6-2,1.1.1.1.2.2.2.4,0,.3-.3.5-.5.5-.4,0-.5-.3-.5-.4-.1-.4-.3-.7-.5-.8v4.1c0,.2,0,.5-.1.6,0,0-.2.3-.6.3-.2,0-.4-.1-.4-.4,0-.5.1-1.4.1-2,0-.5.1-1.5.1-2.2-.6.9-1.4,1.7-2.4,2.4l-.1-.1c.6-.8,2-2.4,2.3-3.9h-.5c-.7,0-1,0-1.3.1l-.2-.4c.7,0,1.6.1,1.7.1h.4C14.2,1.3,14.1.3,13.9,0l1.4.3c.1,0,.2,0,.2.1s-.3.2-.4.3v1.6h.3l.4-.4q.1-.1.2-.1c.1,0,.2.1.2.1l.6.4.1.1c0,.1-.1.1-.2.1h-1.6v1c.8.2,1.1.3,1.2.4.2-.2.8-.7.9-.8.4-.4.6-.7.8-1l.9.5q.1.1.1.2c0,.1-.1.1-.2.1M22.6,7.9c-.5.3-.5.4-.6.5-1.2-.4-2.1-.8-3-1.8-1.2,1-2.7,1.5-3.7,1.6h0c1.2-.5,2.3-1.2,3.2-2.1-.5-.8-.8-1.6-.8-2.5h.1c.4,1.1.8,1.6,1.1,2,.3-.4,1-1.3.9-2.2l1.2.5q.3.1.3.2t-.5.3c-.5.9-.9,1.4-1.3,1.8,1.3,1.1,3,1.4,3.8,1.4v.1c-.1-.1-.4,0-.7.2M22.5,1.8h-4.5c-.7,0-1,0-1.3.1l-.2-.3c.7,0,1.6.1,1.7.1h.5C18.7,1.3,18.7.6,18.5,0l1.3.2c.1,0,.2.1.2.2s-.3.2-.4.3v1h1.4l.5-.5q.1-.1.2-.1s.1,0,.2.1l.8.5c.1,0,.1.1.1.1h-.3M21.9,4c-.2,0-.3-.1-.8-.6-.5-.6-.7-.8-1.2-1.2h0c.8.1,2.5.6,2.5,1.3.1.2-.1.5-.5.5M.2,11.7c.5,0,1.9.3,1.9,1,0,.2-.2.5-.6.5-.2,0-.4,0-.6-.4q-.3-.5-.7-1.1H.2ZM3.6,10.7c-.2.5-.8,2.9-.9,3.4-.1.2-.4,1.2-.5,1.4v.3c0,.2,0,.3.2.7.2.7.3.7.3.9,0,.3-.2.6-.6.6-.7,0-.7-.5-.7-.6,0-.2.1-.9.1-1.1,0-.4-.4-.7-.9-.9h0c.8-.1.9-.3,1.1-.6.3-.6.7-1.3,1-1.8.6-2,.8-2.2.9-2.3h0ZM1.3,9.3c1.1.1,1.9.5,1.9,1.1,0,.1-.1.5-.5.5s-.5-.2-.7-.6c-.2-.1-.7-.8-.7-1h0ZM9,13.5l.6-.6q.1-.1.2-.1c.1,0,.2.1.2.1l.8.6c.1,0,.1.1.1.1,0,.1-.1.1-.2.1h-3.4s-.9,1.2-2.4,2.7c2.6-.2,2.8-.2,3.5-.3-.3-.4-.8-.8-1.2-1h0c2.2.6,3.2,1.5,3.2,2.1,0,.3-.4.5-.6.5-.3,0-.6-.3-.7-.4-.3-.5-.4-.6-.6-.9-.8.3-1.9.5-2.3.6-.8.2-1.7.3-2.4.5q-.1.2-.2.2c-.1,0-.1-.1-.2-.2l-.5-1c.4,0,.5.1.8.1h.9c.4-.5,1.1-2,1.4-2.7h-1.5c-.7,0-1,0-1.3.1l-.2-.6c.6,0,1.1.1,1.7.1h1.5v-2.1h-.9c-.7,0-1,0-1.3.1l-.2-.4c.6,0,1.1.1,1.7.1h.7v-1.3c0-.1-.2-.6-.3-.8l1.5.3c.1,0,.2.1.2.2s-.3.2-.4.2v1.4h1.4l.5-.5q.1-.1.2-.1.1,0,.2.1l.8.5c.1,0,.1.1.1.1,0,.1-.1.1-.2.1h-3v2.1h1.8ZM22.9,16.8c-.8.2-1,.4-1.4.8-1.5-.7-2.4-1.9-3-3.2-.7-1.5-.8-3-.8-4.4h-.1c0,1.4-.2,3.3-1.2,4.8-.5.8-1.8,2.1-4.1,2.6l-.1-.1c1.4-.7,2.7-2,3.2-2.9.8-1.3,1.1-3.3,1.1-4.4,0-.6-.1-.7-.2-.9l1.7.5c.1,0,.3.1.3.2s-.1.2-.3.3c.1,2.1.9,3.9,2,5,.7.7,1.7,1.2,2.9,1.7h0ZM122.4,5.4h-5v-.7h4.1v-1.3h-4.1v-.7h-4v.6h-4.1v1.4h4.1v.7h-4.9v1.4h13.9v-1.4ZM113.4,12.7v1.7h4v-1.7l1.6,1.3h3.7l-1-.8h.7v-1.4h-2.4l-.5-.4h2.8v-3.9h-13.8v3.9h2.9l-3.2,2.6h3.7l1.5-1.3ZM113.3,8.9h4.4v1.1h-4.4v-1.1ZM124.6.1h-18.3c-1.5,0-2.5.9-2.5,2.2v12.6c0,1.4,1,2.2,2.5,2.2h18.3c1.6,0,2.4-.9,2.4-2.2V2.3c.1-1.3-.8-2.2-2.4-2.2M123.1,15.1h-15.3V2.1h15.3v13ZM81.9,3.9h15v3.8h4v-3.6c0-1.3-.9-2.2-2.4-2.2h-1.4l.5-1.9h-4l-.6,1.9h-1.7V.1h-4v1.8h-1.7l-.5-1.9h-4l.5,1.9h-1.2c-1.5,0-2.5.9-2.5,2.2v3.6h4v-3.8ZM92.7,10l1.8-2.1c.8-.9.3-2.3-.9-2.3h-10.4v2h6.3l-2,2.4h-9.6v2h9.6v3.1h-3v2h5.6c1,0,1.4-.6,1.4-1.4v-3.6l.1-.1h9.3v-2h-8.2ZM72.9,7.7h2.1v-2h-8.9c-.3,0-.6-.2-.6-.6v-.7c0-.3.2-.6.6-.6h8.9c0-1.3-.6-2-2-2h-6.9c-.3,0-.5-.1-.5-.5V.1h-4v1.3c0,.4-.2.5-.5.5h-8.9v2h8.9c.4,0,.6.2.6.6v.7c0,.4-.2.6-.6.6h-8.9v2h2.1c.3,0,.5.2.5.5,0,.2.1.7.2,1,0,.2-.1.4-.4.4h-2.4v2h8.9c.4,0,.6.2.6.6v.7c0,.4-.2.6-.6.6h-8.9v2h9c.3,0,.4.2.4.4v1.4h4v-1.4c0-.2.2-.4.4-.4h9.1v-2h-8.9c-.3,0-.6-.2-.6-.6v-1c0-.3.2-.6.6-.6h8.9v-2h-2.4c-.3,0-.4-.1-.4-.4s.1-.8.2-1c0-.1.2-.3.4-.3M68.2,9c0,.2-.2.4-.5.4h-8.2c-.3,0-.5-.2-.5-.4-.1-.3-.1-.8-.1-.9,0-.3.1-.5.5-.5h8.6c.3,0,.5.2.5.5-.1.2-.2.6-.3.9M46.8,1.4h-19.3v2h21.2c0-1.3-.6-2-1.9-2M47.9,8.1h-19.6v2h19.5v-2h.1ZM26.5,17.1h23.2v-2h-23.2v2Z"/>
</svg>