<?xml version="1.0" encoding="UTF-8"?>
<svg id="_レイヤー_1" data-name="レイヤー 1" xmlns="http://www.w3.org/2000/svg" viewBox="0 0 645.5 67.5">
  <defs>
    <style>
      .cls-1 {
        fill: #f64676;
      }

      .cls-2 {
        fill: #febbce;
      }
    </style>
  </defs>
  <path class="cls-1" d="M24.1,10.71h8.62c3.54,0,3.54,2.56,3.54,4.89v9.31c0,3.72-2.54,3.72-4.64,3.72h-2.65c1.55,4.07,5.09,7.91,9.29,11.29.33.23.77.7.77,1.51,0,.93-.66,1.63-1.44,1.63s-8.29-3.26-13.71-10.13v8.38c0,2.56-1.44,3.26-3.76,3.26-2.87,0-3.65-1.4-3.65-3.26v-8.26c-5.86,7.22-12.94,10.13-13.6,10.13s-1.33-.58-1.33-1.63c0-.93.44-1.28,1-1.63,4.53-3.49,7.96-8.03,9.18-11.06h-3.65c-3.54,0-3.54-2.56-3.54-4.89v-9.31c0-3.72,2.54-3.72,4.64-3.72h7.52v-2.79H2.87c-.55,0-1.44-.12-1.44-1.63,0-1.63,1.11-1.63,1.44-1.63h13.82v-1.16c0-2.56,1.33-3.26,3.76-3.26,2.87,0,3.65,1.4,3.65,3.26v1.16h13.82c.55,0,1.44.12,1.44,1.63,0,1.63-1.11,1.63-1.44,1.63h-13.82v2.56ZM16.7,14.08h-4.2c-.55,0-.88,0-.88.93v3.03h4.98v-3.96h.11ZM16.7,21.41h-4.98v3.03c0,.93.22.93.88.93h4.2v-3.96h-.11ZM24.1,18.04h4.98v-3.03c0-.93-.22-.93-.88-.93h-4.2v3.96h.11ZM24.1,25.37h4.2c.55,0,.88,0,.88-.93v-3.03h-5.09s0,3.96,0,3.96Z"/>
  <path class="cls-1" d="M56.39,3.38c0-2.09,1-3.26,3.65-3.26,2.21,0,3.76.7,3.76,3.26v2.33h13.82c.33,0,1.44,0,1.44,1.63s-1,1.63-1.44,1.63h-34.94c-.44,0-1.44,0-1.44-1.63,0-1.4.66-1.63,1.44-1.63h13.71s0-2.33,0-2.33ZM54.84,31.54c0,3.72-11.06,11.06-12.27,11.06-.77,0-1.44-.7-1.44-1.63,0-.7.22-.93.77-1.63,2.99-3.38,3.98-5.7,5.09-8.73.33-.7,1-2.33,2.43-2.33,4.53,0,5.42,2.33,5.42,3.26M63.69,26.3v12.22c0,2.91-.22,4.31-1.77,5.12-1,.47-1.33.47-3.54.47h-6.97c-.55,0-1.44-.12-1.44-1.63,0-1.63,1.11-1.63,1.44-1.63h4.09c.88,0,1-.23,1-1.16v-13.38h-8.4c-3.1,0-3.43-1.63-3.43-4.66v-5.7c0-3.49,2.43-3.49,4.53-3.49h23c3.43,0,3.43,2.33,3.43,4.66v5.7c0,3.49-2.43,3.49-4.53,3.49h-7.41ZM51.86,22.11c0,.81.11.93.77.93h14.93c.55,0,.88,0,.88-.93v-5.47c0-.81-.11-.93-.88-.93h-14.93c-.55,0-.77.12-.77.93v5.47ZM70.99,39.57c-1.33-2.91-2.99-5.59-4.75-8.15-.22-.35-.44-.81-.44-1.28,0-.81.55-1.63,1.44-1.63.77,0,3.54,1.86,4.53,2.56,6.41,4.42,6.52,5.94,6.52,6.98,0,2.33-2.65,4.07-4.09,4.07-1.66,0-2.21-.47-3.21-2.56"/>
  <path class="cls-1" d="M89.89,38.99c0,1.05.22,1.16,1,1.16h26.43c.88,0,1.44.35,1.44,1.63,0,1.16-.44,1.63-1.44,1.63h-29.41c-2.54,0-5.31,0-5.31-4.19V7.56c0-2.79,0-5.59,4.09-5.59h29.74c.88,0,1.44.35,1.44,1.63s-.44,1.63-1.44,1.63h-25.65c-.88,0-1,.23-1,1.16l.11,32.59h0ZM98.07,13.62c-2.54,3.49-5.31,5.94-6.08,5.94-.88,0-1.44-.7-1.44-1.63,0-.35.11-.58.33-1.16s1.44-3.49,2.1-7.45c.44-2.33.66-3.72,2.65-3.72s4.75,1.16,4.75,3.38c0,.47-.22.93-.44,1.4h14.6c1.11,0,1.44.58,1.44,1.63,0,1.4-.77,1.63-1.44,1.63h-6.86c0,3.72-.11,5.47-.11,6.4h8.85c1.11,0,1.44.58,1.44,1.63,0,1.4-.66,1.63-1.44,1.63h-7.96c2.54,7.22,6.63,10.36,8.96,12.22.33.23.88.7.88,1.63,0,.7-.55,1.63-1.44,1.63-.55,0-7.52-2.33-12.38-8.96-4.42,6.63-12.6,9.19-12.72,9.19-.55,0-1.33-.58-1.33-1.63,0-.93.55-1.4.88-1.63,3.54-2.56,7.3-5.12,8.51-12.34h-8.18c-1,0-1.44-.47-1.44-1.63,0-1.28.66-1.63,1.44-1.63h8.51c.11-1.28.22-3.26.22-6.4h-2.32v-.12Z"/>
  <path class="cls-1" d="M155.79,13.85c2.1.7,2.1,2.68,2.1,2.91,0,.7,0,1.4-2.87,2.44.55.7,1.33,1.51,2.87,2.68.44.35.88.7.88,1.51,0,.93-.66,1.63-1.44,1.63-.55,0-1.33-.35-2.21-.81v6.05c0,3.84-2.65,3.84-4.87,3.84h-1.99v5.7c0,4.54-3.21,4.54-5.86,4.54h-4.64c-.55,0-1.44-.12-1.44-1.63,0-1.63,1.11-1.63,1.44-1.63h2.65c.88,0,.88-.81.88-1.4v-5.59h-3.43c-3.54,0-3.54-2.68-3.54-5.12v-4.77c-1.44.81-1.88.93-2.21.93s-.66-.23-.77-.35c-.33,4.19-.66,8.61-4.31,14.08-1.55,2.33-4.2,5.47-5.2,5.47-.77,0-1.44-.81-1.44-1.63,0-.47.11-.58.66-1.75,2.1-3.72,2.76-8.61,3.1-11.06-1.22,1.86-1.77,2.33-2.43,2.33-1.11,0-1.88-1.86-1.88-3.61,0-2.21.88-2.68,1.44-3.03.44-.23,2.87-1.51,3.32-1.86v-3.26c-.66.7-1.22.7-1.44.7-.88,0-1.33-.7-1.44-1.16-.22-.58-.66-3.72-.88-4.42-.11-.58-.88-3.72-.88-3.96,0-.93.66-1.63,1.44-1.63.88,0,2.32,1.86,3.21,3.37v-5.24c0-4.19,2.99-4.19,5.31-4.19h7.52c0-1.86,0-3.96,3.76-3.96s3.65,2.09,3.65,3.96h12.27c1.22,0,1.33,1.05,1.33,1.75,0,1.4-.77,1.63-1.44,1.63h-12.16c1.55.7,1.66,1.63,1.66,2.44,0,.23,0,.47-.11.81h9.84c1.11,0,1.44.58,1.44,1.63,0,1.4-.77,1.63-1.44,1.63h-.44ZM136.55,40.73c-2.1,1.51-5.42,3.26-6.19,3.26-.88,0-1.33-.93-1.33-1.51s.33-1.05.77-1.51c1.33-1.63,1.99-3.03,2.87-4.89.66-1.4,1.11-2.21,2.65-2.21,2.21,0,4.2,1.86,4.2,3.14-.11.81-.33,1.75-2.99,3.72M139.21,10.47c.88-2.44.88-2.68,1.44-3.26h-8.4c-.55,0-.77.47-.77.93v13.73c.44-.35,2.32-1.98,2.65-2.33-.44-.23-.44-.35-.88-1.51-.22-.47-1.22-2.56-1.22-3.03,0-.58.44-1.05.88-1.28-.44,0-1.22-.23-1.22-1.63,0-1.16.33-1.63,1.44-1.63,0,0,6.08,0,6.08,0ZM133.35,13.85c1,.23,2.99,1.51,3.43,2.33.44-.81.55-1.05,1.22-2.33h-4.64ZM149.38,20.02c-1.22-1.16-3.21-3.03-4.64-5.7-1.99,3.03-4.09,5-4.98,5.7h9.62ZM148.49,25.14v-1.05c0-.81-.44-.81-.88-.81h-5.75c-.44,0-.88,0-.88.81v1.05h7.52ZM140.98,28.4v1.28c0,.81.44.81.88.81h5.75c.44,0,.88,0,.88-.81v-1.28h-7.52ZM150.37,34.22c.44,0,3.1,1.16,5.09,2.44,2.54,1.63,2.87,2.44,2.87,3.49,0,2.33-2.32,3.84-3.87,3.84-1.44,0-1.88-.93-2.76-2.79-1.11-2.44-1.77-3.26-2.43-4.31-.22-.35-.55-.93-.33-1.51.11-.47.55-1.16,1.44-1.16M151.7,13.85c.44,1.16.88,1.86,1.11,2.44,1.22-1.98,1.33-2.21,1.88-2.44h-2.99Z"/>
  <path class="cls-1" d="M164.42,32.12c-2.21,3.72-2.54,3.72-3.1,3.72-.88,0-1.44-.81-1.44-1.63,0-.35.11-.58.44-1.28,2.87-6.87,3.54-11.99,3.98-16.41h-2.43c-.55,0-1.44-.12-1.44-1.63,0-1.63,1.11-1.63,1.44-1.63h2.54v-5.59c-.88.12-2.21.35-2.54.35-.88,0-1.33-.93-1.33-1.63,0-.12,0-1.4,1.11-1.63,3.76-1.05,5.31-1.4,8.62-3.38,1.11-.7,1.55-.81,2.21-.81,1.88,0,2.99,1.75,2.99,3.14s-.55,1.86-4.31,2.79v6.75h2.21c.77,0,1.44.35,1.44,1.63,0,1.63-1.11,1.63-1.44,1.63h-2.21v.93c.88,3.37,1.88,5.47,2.87,7.22.88-3.26,1.22-5.59,1.55-8.73.22-1.75,1.22-1.75,1.55-1.75,1.44,0,1.44,1.4,1.44,2.91,0,2.33-.11,10.82-1.33,14.9-.33.93-.88,1.75-1.77,1.75-1.33,0-3.21-1.28-3.21-3.49,0-.93.11-1.16.77-2.56-.44-.23-1.33-1.16-1.77-1.75v15.48c0,1.98-.88,3.14-3.43,3.14-2.87,0-3.43-1.63-3.43-3.14v-9.31h0ZM179.45,13.62c0-1.63.55-3.03,3.21-3.03,2.32,0,3.43.93,3.43,3.03v7.45c1.22-4.19,1.44-5.24,2.43-11.75-1.22,1.51-2.43,1.63-2.87,1.63-1.22,0-1.88-.93-2.54-1.98-2.1-3.03-2.43-3.26-5.42-5.7-.22-.23-.66-.58-.66-1.4,0-.93.55-1.63,1.44-1.63.11,0,3.65.81,7.63,2.68,2.65,1.28,3.43,1.86,3.43,3.61.77-.81,1.99-.81,2.21-.81,1.33,0,4.2.81,4.2,3.72,0,2.09-2.43,9.43-2.43,9.66.66.12.88.47,1.33,1.28,2.43,4.42,3.87,8.5,3.87,10.24,0,1.86-1.44,3.14-2.76,3.49.66.7.88,1.28.88,2.33,0,.35,0,2.33-1,4.77-.55,1.4-1.55,3.14-4.87,3.14h-7.96c-1.99,0-3.65-1.05-3.65-3.49v-.81c-2.54,1.98-5.42,3.84-6.08,3.84s-1.44-.7-1.44-1.63.44-1.28,1-1.75c3.32-2.79,5.31-5,6.41-6.4V13.62h.22ZM188.85,40.85c1,0,1.44-.58,1.77-3.61.44-3.03.55-3.96,2.32-4.31-.33-.7-.33-.93-.33-3.26,0-4.42-.22-6.28-.33-7.45-1.99,4.66-4.09,8.03-6.3,10.82v6.75c0,.58,0,1.05.66,1.05,0,0,2.21,0,2.21,0Z"/>
  <path class="cls-1" d="M222.57,18.5h11.06c.88,0,1.44.35,1.44,1.63,0,1.16-.44,1.63-1.44,1.63h-11.06v1.63h14.04c.88,0,1.44.35,1.44,1.63,0,1.16-.44,1.63-1.44,1.63h-35.05c-.66,0-1.44-.12-1.44-1.63,0-1.16.33-1.63,1.44-1.63h13.82v-1.63h-10.84c-.66,0-1.44-.12-1.44-1.63,0-1.16.33-1.63,1.44-1.63h10.84v-1.63h-9.84c-.66,0-1.44-.12-1.44-1.63,0-1.16.33-1.63,1.44-1.63h9.84v-1.63h-13.82c-.66,0-1.44-.12-1.44-1.63,0-1.16.44-1.63,1.44-1.63h13.82v-1.63h-9.84c-.66,0-1.44-.23-1.44-1.63,0-1.16.33-1.63,1.44-1.63h9.84c0-1.51.11-3.61,3.54-3.61,3.21,0,3.65,1.51,3.65,3.61h7.19c1.99,0,4.2,0,4.2,3.37v1.4h2.65c.88,0,1.44.35,1.44,1.63,0,1.16-.44,1.63-1.44,1.63h-2.65c0,2.79,0,5-3.21,5h-8.18v1.63ZM208.2,43.88c-2.1,0-4.42,0-4.42-3.61v-7.45c0-2.33,0-4.66,3.43-4.66h22.78c2.1,0,4.53,0,4.53,3.61v7.45c0,2.33,0,4.77-3.43,4.77l-22.89-.12h0ZM227.33,34.33v-1.86c0-.93-.22-.93-.88-.93h-14.82c-.66,0-.77.12-.77.93v1.86h16.47ZM210.85,37.71v2.09c0,.81.11.93.77.93h14.82c.55,0,.88,0,.88-.93v-2.09h-16.47ZM222.57,8.61h4.53v-.81c0-.7-.11-.93-.77-.93h-3.76v1.75ZM222.57,13.62h3.76c.55,0,.77-.12.77-.93v-.81h-4.53v1.75Z"/>
  <path class="cls-1" d="M255.97,11.87V3.38c0-2.56,1.44-3.26,3.65-3.26,2.65,0,3.54,1.16,3.54,3.26v1.16h10.5c1.11,0,1.44.58,1.44,1.63,0,1.4-.77,1.63-1.44,1.63h-10.5v4.07h13.27c1.11,0,1.44.58,1.44,1.63,0,1.4-.77,1.63-1.44,1.63h-35.16c-1,0-1.44-.47-1.44-1.63,0-1.4.66-1.63,1.44-1.63h3.32v-5.24c0-2.56,1.44-3.26,3.65-3.26,2.54,0,3.54,1.16,3.54,3.26v5.24h4.2ZM245.13,15.71c1.99,0,3.54.35,3.54,2.91v20.83c0,1.05.22,1.16.88,1.16h18.35c.77,0,.88-.12.88-1.16v-20.72c0-2.21,1.22-2.91,3.32-2.91,1.88,0,3.54.35,3.54,2.91v19.78c0,2.68,0,5.35-3.87,5.35h-24.88c-2.43,0-5.09,0-5.09-4.07v-21.06c0-2.33,1.22-3.03,3.32-3.03M255.08,20.72c0,1.63-1.99,2.91-3.54,2.91-1.66,0-1.77-.93-2.1-3.37,0-.47-.66-2.56-.66-2.91,0-1.28,1-1.4,1.22-1.4.55,0,5.09,2.44,5.09,4.77M262.05,36.89c0,1.86-.77,3.03-3.1,3.03-2.1,0-3.21-.7-3.21-3.03v-3.72c-1.77,1.86-4.53,4.07-5.31,4.07-.66,0-1.44-.7-1.44-1.63,0-.58.22-.93.77-1.63,1-1.4,2.54-4.31,3.43-6.75h-2.54c-.66,0-1.44-.23-1.44-1.63,0-1.16.33-1.63,1.44-1.63h5.2v-5.35c0-1.86.77-2.91,3.1-2.91,1.99,0,3.32.58,3.32,2.91v5.35h5.2c.55,0,1.44.12,1.44,1.63s-.77,1.63-1.44,1.63h-2.87c.22.7,1.44,3.96,3.65,7.22.22.23.44.7.44,1.28,0,.93-.66,1.63-1.44,1.63-.88,0-3.54-2.33-5.31-4.07v3.61s.11,0,.11,0ZM262.38,22c0-.23.66-3.03.77-3.72.22-1.28.44-2.56,2.1-2.56,1.88,0,3.54,1.75,3.54,3.14,0,2.09-4.64,4.54-5.2,4.54-.77-.12-1.22-.81-1.22-1.4"/>
  <path class="cls-1" d="M292.01,41.43c0,1.98-1,3.14-3.32,3.14-2.65,0-3.43-1.28-3.43-3.14v-10.82c-1.11,1.63-2.32,3.26-3.65,4.77-.22.23-.44.58-1,.58-.77,0-1.44-.7-1.44-1.63,0-.47.11-.58.44-1.28,3.43-6.28,4.64-12.57,5.42-16.53h-3.87c-.44,0-1.44,0-1.44-1.63,0-1.4.66-1.63,1.44-1.63h4.09v-5.82c-1.22.23-3.32.35-3.65.35-1,0-1.44-.93-1.44-1.63,0-1.4,1.11-1.63,1.99-1.86,4.98-.93,7.63-2.44,9.18-3.26.88-.47,1.44-.7,2.1-.7,1.99,0,3.43,1.63,3.43,3.26,0,1.75-1.55,2.21-4.75,2.91v6.75h2.99c.44,0,1.44,0,1.44,1.63,0,1.51-.77,1.63-1.44,1.63h-2.99v.23c.44,1.63,1.55,6.17,4.31,10.59.44.81.55.93.55,1.4,0,.81-.55,1.63-1.44,1.63s-2.43-1.98-3.54-3.37v14.43h0ZM315.67,24.21c.11,0,.44-.12.55-.12,1.11,0,1.22,1.51,1.22,1.98,0,.23,0,.93-1.11,1.28l-2.1.7v13.27c0,1.98-.88,3.14-3.43,3.14-2.21,0-3.65-.7-3.65-3.14v-10.94l-10.39,3.49q-.33.12-.55.12c-.88,0-1.22-.93-1.22-1.98,0-.7.44-1.16,1.11-1.28l11.17-3.72V9.54c-.55,2.33-2.1,3.26-3.21,3.26-1.33,0-1.88-1.28-2.32-2.33-1-2.21-2.21-4.42-3.65-6.63-.33-.47-.44-.7-.44-1.28,0-.93.66-1.63,1.44-1.63.55,0,7.63,3.96,8.29,6.63V3.26c0-2.09,1-3.14,3.43-3.14,2.1,0,3.65.58,3.65,3.14v21.41l1.22-.47ZM298.09,12.45c.66,0,3.54,2.09,4.42,2.91,4.2,3.26,4.31,4.31,4.31,5.35,0,2.68-1.99,4.77-3.87,4.77-1.44,0-1.77-.93-2.65-3.26-1.22-3.26-1.44-3.72-3.21-6.87-.33-.58-.44-.7-.44-1.4.11-.58.55-1.51,1.44-1.51"/>
  <path class="cls-1" d="M332.37,7.56c-.77,0-1.66,0-1.66-1.63,0-1.16.33-1.63,1.44-1.63h.77l.33-2.09C333.36,1.51,333.7,0,335.47,0,335.8,0,339.34,0,339.34,2.79c0,.47,0,.58-.11,1.51h2.1c1.77,0,3.76,0,3.76,3.03v4.19c1.11,0,1.99,0,1.99,1.63,0,.35,0,.47-.11.58h8.73c.33,0,1.44,0,1.44,1.63s-.88,1.63-2.1,1.63v21.53c0,2.33,0,2.79-.44,3.72-.33.7-1.33,1.86-3.32,1.86h-5.2c-.66,0-1.44-.23-1.44-1.63,0-1.16.33-1.63,1.44-1.63h1.55c.77,0,.88-.23.88-1.05v-22.81h-1.77c-.44,0-1.44,0-1.44-1.63,0-.23,0-.47.11-.58h-14.15c-.44,0-.55,0-.88-.23-.44.81-1.44,2.44-2.1,3.49v23.51c0,1.86-.66,2.91-3.1,2.91-1.99,0-3.21-.58-3.21-2.91v-14.78c-1,1.16-1.33,1.51-1.88,1.51-.88,0-1.44-.7-1.44-1.63,0-.47.11-.7.66-1.75,2.54-4.66,4.31-10.01,5.2-12.69.22-.7.33-.81.44-1.05-1.11,1.4-3.65,4.19-4.53,4.19-.77,0-1.44-.7-1.44-1.63,0-.47.11-.58.66-1.75,2.54-4.89,3.21-7.68,3.76-9.54.44-1.4,1.22-2.21,2.54-2.21,1.66,0,3.76,1.28,3.76,3.38,0,1.4-2.76,5.12-3.98,6.52.33-.12.66-.35,1.33-.35,1,0,2.43.58,3.21,1.86.33-.23.55-.23,1.44-.23l.66-3.84ZM335.58,38.29h-5.64c-.66,0-1.44-.12-1.44-1.63,0-1.63,1-1.63,1.66-1.63v-3.72c0-3.03,1.99-3.03,3.76-3.03h1.77v-1.63h-2.54c-2.65,0-2.65-1.98-2.65-3.96v-3.49c0-3.03,1.88-3.03,3.54-3.03h9.07c2.65,0,2.65,1.98,2.65,3.96v3.61c0,3.03-1.88,3.03-3.32,3.03v1.63h2.43c1.11,0,1.44.58,1.44,1.63,0,1.4-.77,1.63-1.44,1.63h-2.43v3.38h3.43c.88,0,1.44.35,1.44,1.63,0,1.63-1.11,1.63-1.44,1.63h-3.43v3.26c0,2.44-1.44,3.03-3.43,3.03-2.54,0-3.32-1.16-3.32-3.03v-3.26s-.11,0-.11,0ZM335.58,31.66h-.66c-.44,0-.55,0-.55.7v2.79h1.22v-3.49ZM337.23,19.32c-.55,0-.77.12-.77.93v2.44c0,.7.11.93.77.93h1.55c.55,0,.77-.12.77-.93v-2.44c0-.7-.11-.93-.77-.93h-1.55ZM339.56,11.52v-3.26c0-.7-.11-.7-1-.7l-.66,3.96h1.66ZM355.26,2.56c.33,0,1.44,0,1.44,1.63s-1,1.63-1.44,1.63h-7.96c-.44,0-1.44,0-1.44-1.63,0-1.4.66-1.63,1.44-1.63h7.96Z"/>
  <path class="cls-1" d="M374.5,9.08V3.38c0-1.98.88-3.26,3.65-3.26,2.21,0,3.76.7,3.76,3.26v5.7h12.05c.88,0,1.44.35,1.44,1.63,0,1.16-.44,1.63-1.44,1.63h-12.05v11.06h10.06c.88,0,1.44.35,1.44,1.63,0,1.16-.44,1.63-1.44,1.63h-10.06v13.38h13.71c.88,0,1.44.35,1.44,1.63,0,1.16-.44,1.63-1.44,1.63h-35.16c-.66,0-1.44-.12-1.44-1.63,0-1.16.44-1.63,1.44-1.63h14.04v-13.27h-10.39c-.55,0-1.44-.12-1.44-1.63,0-1.16.33-1.63,1.44-1.63h10.39v-11.06h-5.97c-1.77,3.49-4.53,7.8-6.86,10.12-.44.47-.66.7-1.22.7-.77,0-1.44-.7-1.44-1.63,0-.47,1.44-3.84,1.66-4.54,1.66-4.66,2.21-8.03,2.99-13.15.33-2.33,1.55-2.91,3.32-2.91,1.55,0,4.53.7,4.53,3.38,0,1.28-.44,2.21-1.44,4.66,0,0,4.42,0,4.42,0Z"/>
  <path class="cls-1" d="M435.53,35.96c.44.47,1.33,1.51,1.33,2.91,0,2.56-2.21,5.24-4.64,5.24-1.11,0-1.66-.7-2.32-1.51l-2.21-2.56c-1.66,1.4-4.98,3.96-11.83,3.96s-13.05-2.21-13.05-11.29c0-5.82,2.32-8.38,8.07-11.87-2.1-3.37-3.32-5.7-3.32-9.19,0-6.05,3.87-8.73,11.06-8.73,1.99,0,6.19.35,8.51,3.14.44.58,1.33,1.86,1.33,4.77,0,4.89-2.32,6.17-7.41,9.19l6.3,6.98c.11-1.28.33-4.42,4.2-4.42,1.77,0,3.98,1.16,3.98,3.96,0,2.33-1.11,4.66-2.32,6.87l2.32,2.56ZM413.86,24.44c-2.87,2.33-3.1,6.17-3.1,8.26,0,4.77,1.44,7.68,5.86,7.68,1.66,0,4.2-.35,7.41-4.42l-10.17-11.52ZM420.82,10.59c0-2.09-.77-3.84-2.76-3.84-2.65,0-2.65,2.44-2.65,3.61,0,2.68.88,4.07,2.54,6.17,1.77-1.51,2.87-2.79,2.87-5.94"/>
  <path class="cls-1" d="M452.12,39.69c0,1.16,0,1.98-.55,2.79-.77,1.16-2.21,1.75-3.43,1.75-.88,0-1.99-.23-2.87-1.05-1.11-.93-1.11-2.21-1.11-3.49V7.68c0-1.16,0-1.98.55-2.79.77-1.28,2.21-1.75,3.43-1.75.88,0,1.99.35,2.99,1.05,1.11.93,1.11,2.21,1.11,3.49v32s-.11,0-.11,0Z"/>
  <path class="cls-1" d="M474.89,39.69c0,1.16,0,1.98-.55,2.79-.77,1.16-2.21,1.75-3.43,1.75-.88,0-2.1-.23-2.99-1.05-1.11-.93-1.11-2.21-1.11-3.49V7.56h-7.96c-1,0-1.66-.93-1.66-1.86s.66-1.86,1.66-1.86h23.88c1,0,1.66.93,1.66,1.86s-.55,1.86-1.66,1.86h-7.96v32.12h.11Z"/>
  <path class="cls-1" d="M489.6,33.05c-.66,0-1.44-.12-1.44-1.63,0-1.16.33-1.63,1.44-1.63h21.45v-1.51c0-.7.11-1.05.11-1.4h-14.93c-2.21,0-4.64,0-4.64-3.72v-8.5c0-2.44,0-4.89,3.54-4.89h8.29v-2.68h-13.82c-.66,0-1.44-.12-1.44-1.63,0-1.16.33-1.63,1.44-1.63h13.82c0-1.4,0-3.61,3.65-3.61,3.43,0,3.76,1.63,3.76,3.61h13.93c.88,0,1.44.35,1.44,1.63,0,1.16-.44,1.63-1.44,1.63h-13.93v2.68h7.19c2.21,0,4.64,0,4.64,3.72v8.61c0,2.44,0,4.89-3.54,4.89h-.88c.11.47.22.93.22,1.4v1.51h6.3c.88,0,1.44.35,1.44,1.63,0,1.16-.44,1.63-1.44,1.63h-6.3v5.24c0,2.44,0,3.03-.55,3.96-1,1.98-2.87,1.98-3.76,1.98h-9.29c-.44,0-1.44,0-1.44-1.63,0-1.4.66-1.63,1.44-1.63h4.98c.55,0,1.33,0,1.33-1.16v-6.87h-14.71c3.21,1.28,5.64,2.79,6.08,3.26.44.35,1.33.93,1.33,2.33,0,2.44-2.21,4.42-4.2,4.42-1.33,0-1.66-.7-2.76-2.56-1.33-2.44-1.55-2.79-3.21-5.12-.22-.35-.55-.7-.55-1.28s.22-.81.33-1.05c0,0-3.87,0-3.87,0ZM503.42,12.92h-3.87c-.66,0-.88,0-.88.93v2.56h4.75v-3.49ZM503.42,19.78h-4.75v2.79c0,.93.22.93.88.93h3.87v-3.72ZM510.83,16.53h4.64v-2.56c0-.93-.22-.93-.88-.93h-3.76v3.49ZM510.83,23.51h3.76c.66,0,.88,0,.88-.93v-2.79h-4.64v3.72Z"/>
  <path class="cls-1" d="M536.37,41.43c0,1.86-.77,3.14-3.43,3.14-2.21,0-3.54-.7-3.54-3.14V7.22c0-2.79,0-5.59,4.09-5.59h9.18c3.54,0,3.65,2.21,3.65,3.96v11.06c0,3.72-2.1,3.96-3.65,3.96h-6.19v20.83s-.11,0-.11,0ZM539.69,9.43v-3.49c0-.93-.22-.93-.88-.93h-1.66c-.66,0-.77.12-.77.93v3.49h3.32ZM536.37,12.69v4.54h2.43c.55,0,.88,0,.88-.93v-3.61h-3.32ZM551.18,20.6c-3.54,0-3.65-2.21-3.65-3.96V5.59c0-3.72,2.1-3.96,3.65-3.96h7.85c2.54,0,5.31,0,5.31,4.19v32.59c0,2.79,0,5.59-4.09,5.59h-7.96c-.66,0-1.44-.12-1.44-1.63,0-1.16.33-1.63,1.44-1.63h4.09c.88,0,1-.23,1-1.16v-18.97h-6.19ZM557.38,9.43v-3.49c0-.93-.22-.93-.77-.93h-1.66c-.66,0-.77.12-.77.93v3.49h3.21ZM554.17,12.69v3.61c0,.81.11.93.77.93h2.43v-4.54h-3.21Z"/>
  <path class="cls-1" d="M604.04,28.4c.33,0,1.44,0,1.44,1.63s-1,1.63-1.44,1.63h-13.6v6.87c0,2.33,0,3.49-1,4.54s-2.21,1.05-4.2,1.05h-8.07c-.44,0-1.44,0-1.44-1.63,0-1.4.66-1.63,1.44-1.63h4.64c.55,0,1.22,0,1.22-1.16v-8.03h-13.82c-.44,0-1.44,0-1.44-1.63,0-1.4.66-1.63,1.44-1.63h13.82v-2.33c0-2.91,1.99-3.26,4.09-3.14.44-.35,2.1-1.86,2.1-2.21,0-.23-.11-.47-.44-.47h-12.05c-.66,0-1.44-.12-1.44-1.63,0-1.16.33-1.63,1.44-1.63h19.24c1.11,0,2.43,1.05,2.43,2.79,0,2.09-.66,2.68-7.85,5.94v2.68h13.49ZM585.24,9.89c-1.44-.35-1.55-1.16-2.1-3.61-.33-1.4-.55-2.21-1.11-3.61-.11-.23-.22-.58-.22-.93,0-.81.55-1.63,1.55-1.63.88,0,2.65,1.4,3.54,2.21,1,.81,3.43,2.79,3.43,4.42,0,.58-.22,2.44-2.99,3.14h5.53c-.11-.23-.22-.47-.22-1.05,0-.7,1-3.49,1.11-3.96.77-2.91,1.11-3.96,3.43-3.96s4.64,1.28,4.64,3.14c0,2.09-3.87,4.66-6.08,5.82h4.87c1.99,0,4.2,0,4.2,3.49v3.38c0,2.09-.88,3.26-3.54,3.26-2.21,0-3.65-.7-3.65-3.26v-2.56c0-.81-.11-.93-.77-.93h-21.12c-.66,0-.77.23-.77.93v2.56c0,2.09-.88,3.26-3.43,3.26-2.32,0-3.65-.7-3.65-3.26v-2.33c0-2.21,0-4.54,3.21-4.54h2.65c-.44-.47-.55-.7-1.44-3.49-.22-.7-1.44-3.26-1.44-3.96,0-.93.77-1.63,1.44-1.63.55,0,7.41,3.49,7.41,6.4,0,1.4-1,2.09-1.99,2.56l7.52.12h0Z"/>
  <path class="cls-1" d="M619.07,13.15v2.21c1,4.42,2.43,8.5,4.42,12.34.44.81.44.93.44,1.4,0,.93-.55,1.63-1.44,1.63-.44,0-.66-.23-.88-.35-1.22-1.4-2.32-3.03-2.65-3.49v14.66c0,2.56-1.44,3.14-3.65,3.14-2.54,0-3.43-1.16-3.43-3.14v-10.82c-.66,1.05-1.44,2.21-2.65,3.72-.11.23-.44.58-1.11.58-.77,0-1.44-.7-1.44-1.63,0-.47.11-.7.33-1.05,1.77-3.61,3.87-8.96,4.87-18.39v-.7h-3.1c-.66,0-1.44-.12-1.44-1.63,0-1.63,1.11-1.63,1.44-1.63h3.1V3.26c0-2.56,1.55-3.14,3.65-3.14,2.43,0,3.43,1.05,3.43,3.14v6.52h1.88c.88,0,1.44.35,1.44,1.63,0,1.63-1.11,1.63-1.44,1.63h-1.77v.12h0ZM636.88,10.13c2.99,1.86,5.31,3.49,7.74,6.05.44.47.88,1.05.88,2.21,0,2.21-1.66,4.19-3.32,4.19-.88,0-1.22-.35-1.44-.7,0,.7-.33,6.05-4.87,12.34,3.21,4.19,6.3,5.82,8.62,6.98.44.23,1,.7,1,1.63s-.55,1.63-1.44,1.63c-.44,0-6.63-1.86-11.72-6.4-5.75,5.12-11.5,6.4-11.61,6.4-.77,0-1.44-.7-1.44-1.63,0-1.05.66-1.4,1-1.63,2.21-1.16,5.42-2.79,8.51-6.98-3.43-4.66-4.75-10.59-4.75-12.1,0-.47,0-.7.11-.93-1.33.93-1.44.93-1.88.93-.77,0-1.44-.7-1.44-1.63,0-.58.22-.93.44-1.16.77-1.16,2.21-3.14,3.43-6.75.33-.81.66-1.86,1.66-2.33h-3.76c-.55,0-1.44-.12-1.44-1.63,0-1.63,1.11-1.63,1.44-1.63h6.08v-3.49c0-2.56,1.44-3.26,3.65-3.26,2.65,0,3.54,1.16,3.54,3.26v3.49h7.63c.88,0,1.44.35,1.44,1.63,0,1.63-1.11,1.63-1.44,1.63h-6.63v-.12h0ZM628.8,10.13c1.77.47,2.99,1.75,2.99,3.26,0,1.63-2.87,4.07-4.42,5.35.22,0,.55-.12,1-.12,1.88,0,2.54.93,2.87,2.91.22,1.4.55,3.72,1.22,6.05.66-2.09.66-2.56,1.22-6.28.33-1.98,1.22-2.56,2.87-2.56.44,0,1.55,0,2.99.93-1.44-2.44-2.87-4.77-4.53-6.87-.33-.35-.55-.7-.55-1.4s.33-.93.44-1.16l-6.08-.12h0Z"/>
  <g>
    <path class="cls-2" d="M8.73,64.59v1.4H0c1-1.05,2.65-2.68,4.31-4.66,1.88-2.21,2.43-3.38,2.43-4.66,0-1.51-1.11-2.33-2.32-2.33-1.88,0-2.76,1.75-3.1,2.21l-.55-1.63c.88-1.28,2.21-1.98,3.65-1.98,1.55,0,3.76.93,3.76,3.72,0,1.28-.33,2.21-1.55,3.96-.66.93-1.66,2.09-3.43,4.07h5.53v-.12Z"/>
    <path class="cls-2" d="M10.5,59.59c0-1.28,0-6.63,4.2-6.63s4.2,5.35,4.2,6.63,0,6.63-4.2,6.63-4.2-5.35-4.2-6.63ZM17.47,59.59c0-2.09-.33-5.24-2.76-5.24s-2.76,3.03-2.76,5.24c0,2.33.33,5.24,2.76,5.24s2.76-3.03,2.76-5.24Z"/>
    <path class="cls-2" d="M29.19,64.59v1.4h-8.73c1-1.05,2.65-2.68,4.31-4.66,1.88-2.21,2.43-3.38,2.43-4.66,0-1.51-1.11-2.33-2.32-2.33-1.88,0-2.76,1.75-3.1,2.21l-.55-1.63c.88-1.28,2.21-1.98,3.65-1.98,1.55,0,3.76.93,3.76,3.72,0,1.28-.33,2.21-1.55,3.96-.66.93-1.66,2.09-3.43,4.07h5.53v-.12Z"/>
    <path class="cls-2" d="M38.26,54.58h-5.2v3.84c.44-.12.88-.35,1.88-.35,2.87,0,4.31,1.98,4.31,4.07,0,1.98-1.44,4.19-4.75,4.19-1.33,0-2.54-.35-3.65-1.05l.44-1.4c.88.7,1.99,1.05,3.21,1.05,2.65,0,3.32-1.75,3.32-2.79,0-1.63-1.22-2.68-2.99-2.68-1,0-1.66.47-1.88.58h-1.33v-6.75h6.63s0,1.28,0,1.28Z"/>
    <path class="cls-2" d="M54.51,53.88v1.28h-5.09v2.56h4.53v1.28h-4.53v3.38h5.75v1.28h-5.75v3.84h-1.33v-3.84h-7.41v-1.28h2.21v-4.54h5.2v-2.68h-3.76c-1,1.63-1.66,2.56-2.87,3.49l-.88-1.16c1.88-1.51,2.99-3.38,3.54-5.35l1.44.35c-.11.47-.22.7-.55,1.4h9.51ZM48.21,59h-3.87v3.38h3.87v-3.38Z"/>
    <path class="cls-2" d="M62.14,65.99v-2.91h-5.64v-1.28l5.64-8.61h1.55v8.61h1.66v1.4h-1.66v2.91h-1.55v-.12ZM57.94,61.8h4.2v-6.63l-4.2,6.63Z"/>
    <path class="cls-2" d="M79.06,65.75c0,.81-.33,1.51-1.44,1.51h-2.87l-.22-1.4h2.65c.44,0,.44-.12.44-.58v-3.49h-8.07c-.22,2.56-1.11,4.42-1.99,5.59l-1.22-.93c.77-.93,1.88-2.56,1.88-6.4v-7.22h10.73v12.92h.11ZM69.66,54v2.56h8.07v-2.56h-8.07ZM69.66,57.84v2.68h8.07v-2.68h-8.07Z"/>
    <path class="cls-2" d="M95.97,54.81h-6.52v1.16h5.42v6.05h-4.53c1.55,1.75,4.09,3.14,5.75,3.72l-.77,1.28c-.77-.35-3.76-1.63-5.97-4.42v4.77h-1.22v-4.77c-1.44,1.86-3.76,3.49-5.97,4.42l-.77-1.28c2.21-.93,4.31-2.09,5.75-3.72h-4.53v-6.05h5.42v-1.16h-6.52v-1.28h6.52v-1.4h1.22v1.4h6.52v1.28h.22ZM83.92,57.14v1.4h4.2v-1.4h-4.2ZM83.92,59.47v1.4h4.2v-1.4h-4.2ZM93.76,57.14h-4.31v1.4h4.31v-1.4ZM93.76,59.47h-4.31v1.4h4.31v-1.4Z"/>
    <path class="cls-2" d="M96.97,65.87c.66-.47,2.1-1.4,3.43-3.61l1.11.7c-.77,1.28-1.88,2.68-3.54,3.96l-1-1.05ZM111.45,54.93h-14.37v-1.28h6.41v-1.4h1.33v1.4h6.52v1.28h.11ZM109.79,61.56h-4.98v4.42c0,.81-.22,1.4-1.33,1.4h-2.32l-.33-1.4h2.1c.44,0,.55,0,.55-.47v-3.96h-4.98v-5.24h11.28v5.24ZM108.58,57.49h-8.62v2.91h8.62v-2.91ZM107.92,62.15c1.22,1.75,2.21,2.68,3.54,3.49l-.88,1.16c-1.77-1.05-2.76-2.33-3.87-3.96l1.22-.7Z"/>
    <path class="cls-2" d="M126.49,52.72v1.28h-12.16v11.75h12.38v1.28h-13.6v-14.31h13.38ZM125.94,59.47v1.16h-4.31c.55,1.05,2.21,2.56,4.64,3.14l-.66,1.28c-3.54-1.16-4.75-3.26-5.09-4.19-1,2.44-2.99,3.49-4.75,4.19l-.77-1.16c.77-.23,3.21-.81,4.31-3.26h-4.09v-1.16h4.53c.11-.47.11-1.05.11-2.21h-2.32c-.55.81-.88,1.16-1.44,1.75l-1-.93c1.11-.93,1.99-2.09,2.54-3.72l1.22.23c-.22.7-.33.93-.55,1.4h7.08v1.16h-4.31c0,.93,0,1.51-.11,2.21h4.98v.12Z"/>
    <path class="cls-2" d="M130.03,53.53h5.31v-1.28h1.22v1.28h5.75v1.16h-11.17v4.42c0,5.35-1.66,7.45-2.32,8.26l-1-.93c.66-.93,1.55-2.09,1.88-5.12-.77.58-1.33.81-1.88,1.05l-.22-1.28c1.11-.47,1.44-.58,2.21-1.05v-6.52h.22ZM128.59,58.19c-.22-.93-.44-1.98-.77-2.91l1-.47c.44.93.77,2.09.88,2.91l-1.11.47ZM130.69,65.99c1.22-.47,1.99-.93,3.1-1.98l.88.81c-1.33,1.4-2.32,1.86-3.32,2.33l-.66-1.16ZM140.75,63.66h-3.43v2.68c0,1.05-.66,1.05-1.11,1.05h-1.66l-.22-1.16h1.44c.33,0,.33-.12.33-.35v-2.09h-3.32v-3.38c-.33.23-.44.23-.77.47l-.66-.93c.55-.23,1-.47,1.44-.81q-.55-.58-1-.93l.66-.7c.44.35.88.93,1.11,1.05.44-.35.88-.81,1.33-1.4h-3.1v-1.05h3.76c.11-.35.22-.58.33-.93l1.22.12c-.11.47-.22.58-.33.81h5.64v1.05h-3.65c.33.35.66.93,1.44,1.51.44-.47.77-1.05,1-1.28l.88.58c-.44.7-1,1.16-1.11,1.28.66.35,1.11.58,1.55.7l-.55,1.05c-.44-.23-.66-.35-1.22-.7v3.37ZM139.65,59.82h-5.75v.93h5.75v-.93ZM139.65,61.68h-5.75v1.05h5.75v-1.05ZM139.1,58.89c-.88-.81-1.33-1.51-1.66-1.98h-1.33c-.22.35-.66,1.05-1.66,1.98h4.64ZM139.43,63.89c1.11,1.16,1.77,1.51,3.21,2.09l-.66,1.16c-1.22-.47-2.54-1.28-3.32-2.33l.77-.93Z"/>
    <path class="cls-2" d="M147.17,56.44h1.77v1.28h-1.77v.35c.55,1.16,1,1.86,1.44,2.44l-.55,1.16c-.22-.23-.44-.58-.88-1.63v7.45h-1.22v-7.33c-.11.23-1,2.91-2.21,4.19l-.44-1.51c1.33-1.51,2.21-3.72,2.54-5h-2.32v-1.28h2.43v-2.33c-1.22.12-1.77.23-2.21.23l-.22-1.16c2.43-.12,3.87-.35,4.98-.81l.44,1.05c-.44.23-.88.35-1.88.47v2.44h.11ZM157.34,53.07c-.22,1.28-.88,4.54-2.87,8.03-.77,1.4-1.33,2.09-1.66,2.44v1.75c0,.23,0,.47.44.47h1.66c.33,0,.44-.23.44-.47l.11-1.86,1.22.23c-.11,2.79-.11,3.38-1.55,3.38h-2.32c-1.11,0-1.22-.7-1.22-1.28v-.81c-1.22,1.28-2.21,1.75-2.76,2.09l-.77-1.16c.66-.35,1.88-1.05,3.43-2.79v-6.52h1.22v5c1.66-2.56,2.65-5.59,3.21-8.61l1.44.12ZM150.82,57.72c-.11,1.86-.44,4.31-1.22,5.94l-1.22-.58c1-1.86,1.22-4.42,1.22-5.47l1.22.12ZM154.24,55.4c-1.22-1.05-2.43-1.75-3.54-2.33l.66-1.05c1.55.7,2.54,1.4,3.54,2.21l-.66,1.16ZM156.9,63.31c-.11-1.51-.77-3.96-1.11-4.89l1.11-.47c.66,1.86,1.22,4.66,1.22,5l-1.22.35Z"/>
    <path class="cls-2" d="M165.41,53.19v-.93h1.22v.93h5.31v1.86h1.33v.93h-1.33v1.86h-5.31v.81h5.75v.93h-5.75v.81h6.74v1.05h-14.37v-1.05h6.41v-.81h-5.64v-.93h5.64v-.81h-5.31v-.93h5.31v-.93h-6.41v-.93h6.41v-1.05h-5.31v-.93h5.31v.12ZM171.82,62.26v4.89h-11.39v-4.89s11.39,0,11.39,0ZM161.76,63.08v1.05h8.85v-1.05h-8.85ZM161.76,65.06v1.05h8.85v-1.05h-8.85ZM170.83,54h-4.2v.93h4.2v-.93ZM170.83,55.86h-4.2v.93h4.2v-.93Z"/>
    <path class="cls-2" d="M179.23,62.03c-.55-.7-.77-.93-1.44-1.98v7.33h-1.22v-6.52c-.77.81-1.22,1.16-1.77,1.63l-.55-1.28c1.33-1.05,2.99-2.56,4.09-5.12h-3.87v-1.16h2.1v-2.68h1.22v2.68h1.88v1.16c-.33.81-.55,1.4-1.44,2.68.88,1.16,1.55,1.86,1.77,1.98v-1.16h8.4v7.45h-8.4v-6.28l-.77,1.28ZM188.85,53.77h-9.29v-1.16h9.29v1.16ZM187.75,58.66h-7.3v-3.84h7.3v3.84ZM183.54,60.63h-2.43v2.09h2.43v-2.09ZM183.54,63.78h-2.43v2.33h2.43v-2.33ZM186.64,55.75h-4.98v1.86h4.98v-1.86ZM187.08,60.63h-2.43v2.09h2.43v-2.09ZM187.08,63.78h-2.43v2.33h2.43v-2.33Z"/>
    <path class="cls-2" d="M195.49,62.26c-.33-.35-1.11-.93-1.77-1.98v7.1h-1.22v-6.52c-.88.81-1.55,1.28-2.1,1.63l-.55-1.28c2.65-1.51,4.09-3.49,4.64-5h-4.42v-1.28h2.43v-2.68h1.22v2.68h1.99v1.28c-.22.47-.55,1.51-1.66,2.91.11.23.88,1.28,2.1,2.09l-.66,1.05ZM201.12,52.25v5h2.76v1.28h-2.76v6.98h3.21v1.28h-9.4v-1.4h1.66v-9.66h1.22v9.66h2.1v-13.15h1.22Z"/>
    <path class="cls-2" d="M216.16,65.99h-1.77l-.88-1.16c-1.66,1.4-3.21,1.51-3.76,1.51-2.65,0-4.2-1.86-4.2-3.96,0-2.33,1.77-3.38,2.87-4.07l-.22-.35c-.88-1.05-1-1.75-1-2.44,0-1.63,1.33-2.56,2.99-2.56,1.55,0,2.87.81,2.87,2.56,0,1.63-1.11,2.33-2.54,3.14l3.21,4.07c.88-1.16,1.33-2.21,1.55-3.03l1.11.81c-.66,1.63-1.44,2.68-1.88,3.14l1.66,2.33ZM209.31,59.24c-1.22.7-2.32,1.28-2.32,2.91,0,1.51,1.22,2.68,2.87,2.68,1.22,0,2.21-.58,2.87-1.16l-3.43-4.42ZM209.64,57.61c1.44-.81,1.99-1.28,1.99-2.09,0-.47-.22-1.4-1.55-1.4-1,0-1.55.58-1.55,1.4,0,.47.33,1.05.77,1.75l.33.35Z"/>
    <path class="cls-2" d="M219.59,53.19v12.8h-1.55v-12.8h1.55Z"/>
    <path class="cls-2" d="M226.67,65.99h-1.44v-11.41h-4.09v-1.4h9.62v1.4h-4.09v11.41Z"/>
    <path class="cls-2" d="M238.16,52.25h1.22v1.16h6.41v1.16h-6.41v1.05h5.2v5.35h-1.77v1.05h3.1v1.16h-3.1v2.91c0,1.05-.66,1.28-1.33,1.28h-2.32l-.33-1.4h2.32q.33,0,.33-.47v-2.44h-9.95v-1.16h9.95v-.93h-8.73v-5.47h5.31v-1.05h-6.52v-1.16h6.52v-1.05h.11ZM236.51,66.8c-1-1.4-2.21-2.33-2.54-2.68l1-.81c.77.58,1.99,1.75,2.65,2.56l-1.11.93ZM238.16,56.56h-4.09v1.28h4.09v-1.28ZM238.16,58.77h-4.09v1.16h4.09v-1.16ZM243.36,56.56h-3.98v1.28h3.98v-1.28ZM243.36,58.77h-3.98v1.16h3.98v-1.16Z"/>
    <path class="cls-2" d="M253.31,52.84v6.28h-4.53v8.26h-1.22v-14.55h5.75ZM248.78,54v1.4h3.32v-1.4h-3.32ZM248.78,56.33v1.51h3.32v-1.51h-3.32ZM260.83,65.87c0,1.4-1,1.51-1.44,1.51h-2.32l-.22-1.4h2.21c.44,0,.55-.12.55-.58v-6.4h-4.64v-6.17h5.86v13.03h0ZM256.19,54v1.4h3.43v-1.4h-3.43ZM256.19,56.33v1.51h3.43v-1.51h-3.43Z"/>
    <path class="cls-2" d="M274.32,58.66c-1.22,1.16-2.65,1.98-3.98,2.68v.35h6.41v1.28h-6.41v3.26c0,1.05-.77,1.28-1.22,1.28h-2.76l-.22-1.4h2.54c.44,0,.55-.12.55-.47v-2.56h-6.63v-1.28h6.63v-1.4h.66c.33-.12,1.55-.7,2.54-1.51h-7.3v-1.16h9.29v.93h-.11ZM272.77,54.81c.44-.93,1-2.33,1.11-2.68l1.33.47c-.33.81-.66,1.51-1.11,2.21h2.21v3.61h-1.22v-2.44h-11.06v2.44h-1.22v-3.61h2.21c-.33-.93-.77-1.75-1.11-2.09l1.11-.47c.66.81,1,1.75,1.22,2.33l-.77.35h7.3v-.12ZM269.46,54.81c-.33-.7-.66-1.63-1.22-2.33l1.22-.47c.66.93,1.11,2.09,1.22,2.33l-1.22.47Z"/>
    <path class="cls-2" d="M282.83,62.03c-.77-1.28-1.11-1.75-1.55-2.68v8.03h-1.22v-7.91c-.77,2.56-1.44,3.61-1.88,4.19l-.44-1.63c.44-.7,1.55-2.21,2.21-5.35h-2.1v-1.28h2.21v-3.14h1.22v3.14h1.77v1.28h-1.77v.81c.77,1.86,1.77,2.79,2.1,3.26l-.55,1.28ZM282.5,66.1c2.21-.7,3.32-1.51,4.2-2.33-1.22-1.51-1.88-3.26-2.1-4.31l1.11-.35c.55,1.98,1.22,2.91,1.88,3.72.55-.7,1.22-1.63,1.88-3.72l1.22.47c-.77,2.21-1.55,3.38-2.21,4.19,1,.93,2.21,1.63,4.2,2.21l-.66,1.28c-1.77-.58-3.1-1.4-4.42-2.56-1.11,1.05-2.43,1.86-4.42,2.68l-.66-1.28ZM282.95,58.54c.44-.35,1.66-1.05,2.65-2.68l1.11.58c-.88,1.63-2.32,2.68-2.87,3.03l-.88-.93ZM288.36,52.25v1.75h3.98v1.16h-9.07v-1.16h3.87v-1.75h1.22ZM291.79,59.47c-1.66-1.16-2.76-2.68-2.99-3.03l1-.58c1.11,1.28,1.88,1.98,2.87,2.68l-.88.93Z"/>
    <path class="cls-2" d="M300.86,60.87c3.1,1.05,4.87,2.68,5.64,3.49l-1,1.4c-1-1.16-2.76-2.56-4.64-3.38v1.16c0,.93-.11,3.03-3.32,3.03-2.54,0-3.65-1.28-3.65-2.91,0-2.21,2.21-3.14,4.42-3.14.55,0,.77,0,1.22.12l-.11-7.68h1.44v2.68h5.2v1.51h-5.2v3.72ZM299.53,61.91c-.33-.12-.77-.12-1.44-.12-1.33,0-2.76.58-2.76,1.86,0,1.51,1.99,1.51,2.32,1.51,1.77,0,1.88-1.16,1.88-1.75v-1.51Z"/>
    <path class="cls-2" d="M310.92,53.3c-.22,1.4-.55,3.03-.55,5.82.22-.35.66-1.16,1.22-2.09l.77.81c-1.77,2.68-1.77,3.72-1.77,4.42l-1.33.12c-.11-.58-.22-1.98-.22-3.72,0-2.68.33-4.42.44-5.47l1.44.12ZM318.22,53.19c.11,1.75.22,3.61.22,5.35,0,3.49-.22,6.75-5.75,8.26l-1.11-1.16c5.31-1.4,5.42-3.72,5.42-7.56,0-1.51,0-1.98-.22-5h1.44v.12Z"/>
    <path class="cls-2" d="M325.51,62.03c-.77-1.28-1.11-1.75-1.55-2.68v8.03h-1.22v-7.91c-.77,2.56-1.44,3.61-1.88,4.19l-.44-1.63c.44-.7,1.55-2.21,2.21-5.35h-2.1v-1.28h2.21v-3.14h1.22v3.14h1.77v1.28h-1.77v.81c.77,1.86,1.77,2.79,2.1,3.26l-.55,1.28ZM325.18,66.1c2.21-.7,3.32-1.51,4.2-2.33-1.22-1.51-1.88-3.26-2.1-4.31l1.11-.35c.55,1.98,1.22,2.91,1.88,3.72.55-.7,1.22-1.63,1.88-3.72l1.22.47c-.77,2.21-1.55,3.38-2.21,4.19,1,.93,2.21,1.63,4.2,2.21l-.66,1.28c-1.77-.58-3.1-1.4-4.42-2.56-1.11,1.05-2.43,1.86-4.42,2.68l-.66-1.28ZM325.62,58.54c.44-.35,1.66-1.05,2.65-2.68l1.11.58c-.88,1.63-2.32,2.68-2.87,3.03l-.88-.93ZM331.04,52.25v1.75h3.98v1.16h-9.07v-1.16h3.87v-1.75h1.22ZM334.36,59.47c-1.66-1.16-2.76-2.68-2.99-3.03l1-.58c1.11,1.28,1.88,1.98,2.87,2.68l-.88.93Z"/>
    <path class="cls-2" d="M336.46,56.91c2.65-.93,4.53-2.79,5.75-4.77l1.33.35c-.22.35-.33.58-.77,1.16h5.75v1.28c-1.66,3.03-3.65,4.54-5.2,5.59h6.41v6.63h-9.62v-5c-.88.35-1.77.7-3.65,1.28l-.44-1.4c3.21-.7,5.09-1.75,6.3-2.44-1.11-1.16-2.21-2.09-2.99-2.68-.77.47-1.33.81-2.32,1.28l-.55-1.28ZM341.77,54.81c-.77.7-1.22,1.16-1.44,1.28,1.22.93,1.88,1.4,3.1,2.68,1.33-1.05,2.54-2.09,3.65-3.96,0,0-5.31,0-5.31,0ZM348.51,61.56h-7.08v4.19h7.08v-4.19Z"/>
    <path class="cls-2" d="M359.46,53.65h6.52v1.28h-4.75v3.72c0,.7-.44,1.05-1,1.05h-1.66l-.22-1.4h1.22c.33,0,.44-.12.44-.47v-3.03h-2.21c-.11,1.63-.66,3.84-3.1,5.47l-.88-.93c1.99-1.28,2.54-2.91,2.65-4.54h-4.98v-1.28h6.52v-1.4h1.33v1.51h.11ZM351.61,58.42c1.11-.81,1.77-1.51,2.54-2.91l1.11.47c-.88,1.63-1.99,2.56-2.87,3.38l-.77-.93ZM351.72,66.1c2.54-.35,4.2-.7,5.75-1.28-.66-.47-1.44-1.16-2.21-2.09-1.11.81-1.99,1.16-2.76,1.4l-.66-1.16c3.43-1.28,4.53-2.91,5.2-3.72l1.22.47c-.22.35-.33.47-.66.93h5.97v1.05c-.44.58-1.33,1.86-3.32,3.03,2.1.81,4.09,1.05,5.86,1.28l-.55,1.4c-4.2-.58-6.63-1.86-6.74-1.86-1.22.47-3.1,1.28-6.52,1.86l-.55-1.28ZM356.36,61.8c-.11.12-.22.12-.22.23,1.33,1.4,2.32,1.98,2.76,2.21,1.55-.81,2.54-1.86,2.99-2.33h-5.53v-.12ZM362.89,55.51c.77,1.16,1.55,1.98,2.99,3.14l-.77,1.05c-1.55-1.16-2.43-2.44-3.1-3.38l.88-.81Z"/>
    <path class="cls-2" d="M380.25,55.4v6.52h-5.75c-.33,1.28-.77,2.09-1.22,2.56,2.76,1.28,6.08,1.4,8.18,1.4l-.44,1.4c-2.99,0-5.86-.47-8.51-1.98-1.55,1.4-3.87,1.75-4.87,1.98l-.55-1.28c.77-.12,2.65-.35,4.2-1.28-1-.7-1.44-1.16-1.99-1.86l1-.58c.66.81,1.22,1.16,1.99,1.75.33-.47.77-1.05,1-1.98h-4.98v-6.52h5.42v-1.51h-6.52v-1.16h14.26v1.16h-6.52v1.4h5.31ZM373.61,58.07v-1.51h-4.2v1.51h4.2ZM373.5,60.75c.11-.58.11-1.05.11-1.63h-4.2v1.63h4.09ZM374.83,59.12c0,.58,0,1.05-.11,1.63h4.2v-1.63h-4.09ZM374.83,56.56v1.51h4.09v-1.51h-4.09Z"/>
  </g>
</svg>