<svg width="34" height="34" viewBox="0 0 34 34" fill="none" xmlns="http://www.w3.org/2000/svg">
<path d="M17 0C26.3888 0 34 7.61116 34 17C34 26.3888 26.3888 34 17 34C7.61116 34 0 26.3888 0 17C0 7.61116 7.61116 0 17 0ZM17.0049 9.5C14.8319 9.5 14.5595 9.50937 13.7061 9.54688C12.8556 9.58438 12.2702 9.72203 11.7637 9.91895C11.2355 10.1252 10.7885 10.397 10.3447 10.8438C9.89762 11.2876 9.62531 11.7347 9.41895 12.2598C9.22195 12.7692 9.0844 13.351 9.04688 14.2012C9.00936 15.0574 9 15.3299 9 17.502C9 19.6737 9.00936 19.9458 9.04688 20.7988C9.0844 21.649 9.22195 22.2339 9.41895 22.7402C9.62531 23.2684 9.89762 23.7154 10.3447 24.1592C10.7886 24.6029 11.2356 24.8779 11.7607 25.0811C12.2704 25.278 12.8526 25.4156 13.7031 25.4531C14.5565 25.4906 14.8291 25.5 17.002 25.5C19.1747 25.5 19.4472 25.4906 20.3008 25.4531C21.1511 25.4156 21.7357 25.2779 22.2422 25.0811C22.7674 24.8779 23.2143 24.6029 23.6582 24.1592C24.1022 23.7153 24.3778 23.2683 24.5811 22.7432C24.778 22.2337 24.9156 21.6519 24.9531 20.8018C24.9906 19.9488 25 19.6766 25 17.5049C25 15.3326 24.9906 15.0603 24.9531 14.207C24.9156 13.3572 24.778 12.7728 24.5811 12.2666C24.3841 11.7352 24.1122 11.2876 23.665 10.8438C23.221 10.3999 22.7733 10.125 22.248 9.92188C21.7385 9.72503 21.157 9.5873 20.3066 9.5498C19.4499 9.50917 19.1779 9.5 17.0049 9.5ZM17.0049 10.9404C19.1435 10.9404 19.3972 10.9498 20.2383 10.9873C21.0193 11.0217 21.4413 11.1534 21.7227 11.2627C22.0947 11.4065 22.3643 11.5813 22.6426 11.8594C22.9239 12.1406 23.0955 12.4066 23.2393 12.7783C23.3487 13.0596 23.4803 13.4854 23.5146 14.2637C23.5522 15.1074 23.5615 15.3607 23.5615 17.4951C23.5615 19.633 23.5522 19.8867 23.5146 20.7275C23.4802 21.5087 23.3487 21.9307 23.2393 22.2119C23.0954 22.5837 22.9208 22.8527 22.6426 23.1309C22.3612 23.4122 22.0947 23.5838 21.7227 23.7275C21.4413 23.8369 21.0163 23.9685 20.2383 24.0029C19.3941 24.0404 19.1403 24.0498 17.0049 24.0498C14.8661 24.0498 14.6126 24.0404 13.7715 24.0029C12.9898 23.9685 12.5675 23.8369 12.2861 23.7275C11.9142 23.5838 11.6454 23.4089 11.3672 23.1309C11.0858 22.8496 10.9134 22.5839 10.7695 22.2119C10.6601 21.9306 10.5286 21.5056 10.4941 20.7275C10.4566 19.8836 10.4473 19.6299 10.4473 17.4951C10.4473 15.3576 10.4566 15.1042 10.4941 14.2637C10.5285 13.4823 10.6601 13.0596 10.7695 12.7783C10.9133 12.4065 11.089 12.1375 11.3672 11.8594C11.6485 11.5783 11.9142 11.4064 12.2861 11.2627C12.5675 11.1533 12.9929 11.0217 13.7715 10.9873C14.6126 10.9498 14.8661 10.9404 17.0049 10.9404ZM17 13.5C14.7916 13.5 13 15.2916 13 17.5C13 19.7084 14.7916 21.5 17 21.5C19.2084 21.5 21 19.7084 21 17.5C21 15.2916 19.2084 13.5 17 13.5ZM17 14.9053C18.4327 14.9053 19.5947 16.0673 19.5947 17.5C19.5947 18.9327 18.4327 20.0947 17 20.0947C15.5673 20.0947 14.4053 18.9327 14.4053 17.5C14.4053 16.0673 15.5673 14.9053 17 14.9053ZM21.5 12.5C21.2248 12.5 21 12.7231 21 13C21 13.2752 21.2231 13.5 21.5 13.5C21.7752 13.5 22 13.2769 22 13C22 12.7248 21.7752 12.5 21.5 12.5Z" fill="white"/>
</svg>
