<svg width="34" height="34" viewBox="0 0 34 34" fill="none" xmlns="http://www.w3.org/2000/svg">
<path d="M17 0C26.3888 0 34 7.61116 34 17C34 26.3888 26.3888 34 17 34C7.61116 34 0 26.3888 0 17C0 7.61116 7.61116 0 17 0ZM17.3477 9.5C12.7396 9.5 9.0001 12.561 9 16.3145C9 19.6824 11.965 22.5079 15.9785 23.0352C16.2523 23.0981 16.62 23.2161 16.7139 23.4521C16.7997 23.6645 16.7686 23.9946 16.7373 24.2148C16.6747 24.6083 16.6358 24.8477 16.6201 24.9316C16.5887 25.1445 16.4563 25.7574 17.3477 25.3799C18.2397 25.002 22.1508 22.5389 23.9033 20.5088C25.1082 19.171 25.6953 17.8174 25.6953 16.3145C25.6952 12.561 21.9478 9.50007 17.3477 9.5ZM12.3584 14.3711C12.4444 14.3711 12.5146 14.4418 12.5146 14.5283V17.4404H14.1113C14.1973 17.4405 14.2676 17.5112 14.2676 17.5977V18.1953C14.2676 18.2818 14.1973 18.3524 14.1113 18.3525H11.7637C11.6778 18.3523 11.6074 18.2818 11.6074 18.1953V14.5283C11.6075 14.4419 11.6778 14.3713 11.7637 14.3711H12.3584ZM15.5195 14.3711C15.6057 14.3713 15.6757 14.4416 15.6758 14.5283V18.1953C15.6758 18.2821 15.6058 18.3524 15.5195 18.3525H14.9248C14.8384 18.3525 14.7686 18.2822 14.7686 18.1953V14.5283C14.7686 14.4415 14.8384 14.3711 14.9248 14.3711H15.5195ZM17.0449 14.3711C17.0449 14.3763 17.0476 14.3789 17.0527 14.3789H17.0605C17.0605 14.3789 17.0632 14.3815 17.0684 14.3867H17.084V14.3945C17.0891 14.3945 17.0917 14.3972 17.0918 14.4023H17.0996L17.123 14.4258C17.1281 14.4309 17.1307 14.4363 17.1309 14.4414L18.7979 16.7002V14.5283C18.7979 14.4418 18.8759 14.3711 18.9619 14.3711H19.5488C19.6425 14.3712 19.7128 14.4419 19.7129 14.5283V18.1953C19.7129 18.2818 19.6426 18.3524 19.5488 18.3525H18.9619C18.9463 18.3525 18.9333 18.35 18.9229 18.3447H18.9072V18.3369H18.8916L18.876 18.3213H18.8682C18.8526 18.3109 18.8395 18.2978 18.8291 18.2822L17.1621 16.0156V18.1953C17.1621 18.2819 17.0919 18.3525 16.998 18.3525H16.4111C16.3251 18.3525 16.2471 18.2818 16.2471 18.1953V14.5283C16.2472 14.4419 16.3252 14.3712 16.4111 14.3711H17.0449ZM22.7871 14.3711C22.8731 14.3711 22.9443 14.4418 22.9443 14.5283V15.127C22.9441 15.2133 22.873 15.2842 22.7871 15.2842H21.1914V15.9053H22.7871C22.873 15.9053 22.9441 15.9761 22.9443 16.0625V16.6611C22.9442 16.7476 22.8731 16.8184 22.7871 16.8184H21.1914V17.4404H22.7871C22.8732 17.4404 22.9443 17.5111 22.9443 17.5977V18.1953C22.9443 18.2819 22.8732 18.3525 22.7871 18.3525H20.4404C20.3544 18.3525 20.2842 18.2819 20.2842 18.1953V14.5283C20.2843 14.4418 20.3544 14.3711 20.4404 14.3711H22.7871Z" fill="white"/>
</svg>
