<svg width="34" height="34" viewBox="0 0 34 34" fill="none" xmlns="http://www.w3.org/2000/svg">
<path d="M17 0C26.3888 0 34 7.61116 34 17C34 26.3888 26.3888 34 17 34C7.61116 34 0 26.3888 0 17C0 7.61116 7.61116 0 17 0ZM17.5312 19.3984C17.5312 20.697 16.4686 21.7637 15.1465 21.7637C13.8245 21.7635 12.7627 20.6969 12.7627 19.3984C12.7627 18.1231 13.8013 17.0796 15.0762 17.0332V14.2969C12.2667 14.3432 10.0001 16.5927 10 19.3984C10 22.2273 12.3134 24.4998 15.1699 24.5C18.0266 24.5 20.3408 22.2043 20.3408 19.3984V13.8105C21.3796 14.5525 22.6544 14.9924 24 15.0156V12.2793C21.9225 12.2097 20.293 10.5406 20.293 8.5H17.5312V19.3984Z" fill="white"/>
</svg>
