<svg width="34" height="34" viewBox="0 0 34 34" fill="none" xmlns="http://www.w3.org/2000/svg">
<path d="M17 0C26.3888 0 34 7.61116 34 17C34 26.3888 26.3888 34 17 34C7.61116 34 0 26.3888 0 17C0 7.61116 7.61116 0 17 0ZM16.9971 11.5C16.9971 11.5 13.6379 11.4996 11.4004 11.6621C11.0879 11.6996 10.4063 11.7033 9.79688 12.3408C9.32051 12.8204 9.16516 13.9061 9.16211 13.9277C9.16211 13.9277 9.00002 15.2249 9 16.5186V17.7314C9.00002 19.0251 9.15918 20.3223 9.15918 20.3223C9.16241 20.3448 9.32079 21.4298 9.79395 21.9092C10.4033 22.5467 11.2033 22.525 11.5596 22.5938C12.8405 22.7156 16.9967 22.7529 17 22.7529C17.0007 22.7529 20.3624 22.7472 22.5996 22.5879C22.9121 22.5504 23.5937 22.5467 24.2031 21.9092C24.6793 21.4298 24.8376 20.3448 24.8408 20.3223C24.8408 20.3223 25 19.0283 25 17.7314V16.5186C25 15.2249 24.8408 13.9277 24.8408 13.9277C24.8376 13.9052 24.6793 12.8202 24.2031 12.3408C23.5937 11.7033 22.9121 11.6996 22.5996 11.6621C20.3621 11.4996 17.0029 11.5 17.0029 11.5H16.9971ZM19.6689 16.9629L15.3467 19.2031V14.7061L19.6689 16.9629Z" fill="white"/>
</svg>
