<svg width="24" height="24" viewBox="0 0 24 24" fill="none" xmlns="http://www.w3.org/2000/svg">
<path fill-rule="evenodd" clip-rule="evenodd" d="M12 5C12.5523 5 13 5.44772 13 6V10C13 10.5523 12.5523 11 12 11C11.4477 11 11 10.5523 11 10V6C11 5.44772 11.4477 5 12 5Z" fill="#E95383"/>
<path fill-rule="evenodd" clip-rule="evenodd" d="M9 14C9 13.4477 9.44772 13 10 13H14C14.5523 13 15 13.4477 15 14C15 14.5523 14.5523 15 14 15H10C9.44772 15 9 14.5523 9 14Z" fill="#E95383"/>
<path fill-rule="evenodd" clip-rule="evenodd" d="M9 18C9 17.4477 9.44772 17 10 17H14C14.5523 17 15 17.4477 15 18C15 18.5523 14.5523 19 14 19H10C9.44772 19 9 18.5523 9 18Z" fill="#E95383"/>
<path fill-rule="evenodd" clip-rule="evenodd" d="M9 8C9 7.44772 9.44772 7 10 7H14C14.5523 7 15 7.44772 15 8C15 8.55228 14.5523 9 14 9H10C9.44772 9 9 8.55228 9 8Z" fill="#E95383"/>
<path fill-rule="evenodd" clip-rule="evenodd" d="M4 10C3.73478 10 3.48043 10.1054 3.29289 10.2929C3.10536 10.4804 3 10.7348 3 11V20C3 20.2652 3.10536 20.5196 3.29289 20.7071C3.48043 20.8946 3.73478 21 4 21H20C20.2652 21 20.5196 20.8946 20.7071 20.7071C20.8946 20.5196 21 20.2652 21 20V14C21 13.7348 20.8946 13.4804 20.7071 13.2929C20.5196 13.1054 20.2652 13 20 13H18C17.4477 13 17 12.5523 17 12C17 11.4477 17.4477 11 18 11H20C20.7957 11 21.5587 11.3161 22.1213 11.8787C22.6839 12.4413 23 13.2043 23 14V20C23 20.7957 22.6839 21.5587 22.1213 22.1213C21.5587 22.6839 20.7957 23 20 23H4C3.20435 23 2.44129 22.6839 1.87868 22.1213C1.31607 21.5587 1 20.7956 1 20V11C1 10.2044 1.31607 9.44129 1.87868 8.87868C2.44129 8.31607 3.20435 8 4 8H6C6.55228 8 7 8.44772 7 9C7 9.55228 6.55228 10 6 10H4Z" fill="#E95383"/>
<path fill-rule="evenodd" clip-rule="evenodd" d="M5.87868 1.87868C6.44129 1.31607 7.20435 1 8 1H16C16.7956 1 17.5587 1.31607 18.1213 1.87868C18.6839 2.44129 19 3.20435 19 4V22C19 22.5523 18.5523 23 18 23C17.4477 23 17 22.5523 17 22V4C17 3.73478 16.8946 3.48043 16.7071 3.29289C16.5196 3.10536 16.2652 3 16 3H8C7.73478 3 7.48043 3.10536 7.29289 3.29289C7.10536 3.48043 7 3.73478 7 4V22C7 22.5523 6.55228 23 6 23C5.44772 23 5 22.5523 5 22V4C5 3.20435 5.31607 2.44129 5.87868 1.87868Z" fill="#E95383"/>
</svg>
