<svg width="24" height="24" viewBox="0 0 24 24" fill="none" xmlns="http://www.w3.org/2000/svg">
<path fill-rule="evenodd" clip-rule="evenodd" d="M8 12C8 11.4477 8.44772 11 9 11H9.01C9.56228 11 10.01 11.4477 10.01 12C10.01 12.5523 9.56228 13 9.01 13H9C8.44772 13 8 12.5523 8 12Z" fill="#ED6C00"/>
<path fill-rule="evenodd" clip-rule="evenodd" d="M14 12C14 11.4477 14.4477 11 15 11H15.01C15.5623 11 16.01 11.4477 16.01 12C16.01 12.5523 15.5623 13 15.01 13H15C14.4477 13 14 12.5523 14 12Z" fill="#ED6C00"/>
<path fill-rule="evenodd" clip-rule="evenodd" d="M9.14266 15.4857C9.42681 15.0121 10.0411 14.8585 10.5146 15.1427C10.8402 15.338 11.3578 15.5002 12.0002 15.5002C12.6425 15.5002 13.1601 15.338 13.4857 15.1427C13.9592 14.8585 14.5735 15.0121 14.8576 15.4857C15.1418 15.9592 14.9882 16.5735 14.5146 16.8576C13.8402 17.2623 12.9578 17.5002 12.0002 17.5002C11.0425 17.5002 10.1601 17.2623 9.48566 16.8576C9.01208 16.5735 8.85851 15.9592 9.14266 15.4857Z" fill="#ED6C00"/>
<path fill-rule="evenodd" clip-rule="evenodd" d="M11.9985 2L12.0005 2C13.1754 2 14.2634 2.32205 15.0848 2.91347C15.9112 3.50849 16.5005 4.41139 16.5005 5.5C16.5005 7.23955 15.3438 9 13.5005 9C12.9481 9 12.3782 8.86431 11.9136 8.56866C11.4428 8.26904 11.0005 7.73886 11.0005 7C11.0005 6.44772 11.4482 6 12.0005 6C12.514 6 12.9372 6.38712 12.994 6.88547C13.0819 6.93889 13.2591 7 13.5005 7C13.8571 7 14.5005 6.56046 14.5005 5.5C14.5005 5.18861 14.3398 4.84151 13.9162 4.53654C13.4878 4.22808 12.8261 4.00019 12.0015 4C10.1606 4.00395 8.37749 4.64263 6.95275 5.80833C5.52774 6.97424 4.54852 8.596 4.18028 10.4C4.11796 10.7053 3.91685 10.9642 3.63638 11.1C3.46731 11.1819 3.32472 11.3097 3.22495 11.4689C3.12518 11.6281 3.07227 11.8121 3.07227 12C3.07227 12.1879 3.12518 12.3719 3.22495 12.5311C3.32472 12.6903 3.46731 12.8181 3.63638 12.9C3.91373 13.0343 4.11366 13.289 4.17826 13.5904C4.562 15.3801 5.54789 16.9842 6.97143 18.1348C8.39497 19.2855 10.17 19.9132 12.0005 19.9132C13.8309 19.9132 15.606 19.2855 17.0295 18.1348C18.4531 16.9842 19.439 15.3801 19.8227 13.5904C19.8873 13.289 20.0872 13.0343 20.3646 12.9C20.5337 12.8181 20.6763 12.6903 20.776 12.5311C20.8758 12.3719 20.9287 12.1879 20.9287 12C20.9287 11.8121 20.8758 11.6281 20.776 11.4689C20.6763 11.3097 20.5337 11.1819 20.3646 11.1C20.081 10.9626 19.8787 10.6996 19.8188 10.3903C19.573 9.12253 19.0241 7.93311 18.2188 6.92362C17.8743 6.49188 17.9451 5.86269 18.3769 5.51827C18.8086 5.17386 19.4378 5.24465 19.7822 5.67638C20.6949 6.82051 21.3442 8.14956 21.6864 9.56884C21.998 9.79412 22.2647 10.0782 22.4707 10.4067C22.77 10.8843 22.9287 11.4364 22.9287 12C22.9287 12.5636 22.77 13.1157 22.4707 13.5933C22.2625 13.9253 21.9923 14.2119 21.6764 14.4383C21.1378 16.5024 19.9518 18.3444 18.2868 19.6902C16.5074 21.1286 14.2885 21.9132 12.0005 21.9132C9.71244 21.9132 7.49359 21.1286 5.71417 19.6902C4.04919 18.3444 2.86317 16.5024 2.32455 14.4383C2.00868 14.2119 1.73844 13.9253 1.53032 13.5933C1.23101 13.1157 1.07227 12.5636 1.07227 12C1.07227 11.4364 1.23101 10.8843 1.53032 10.4067C1.73735 10.0764 2.00584 9.79109 2.31957 9.56524C2.84172 7.48506 4.02027 5.6235 5.68627 4.26041C7.46753 2.80302 9.69698 2.00465 11.9985 2Z" fill="#ED6C00"/>
</svg>
