<svg width="24" height="24" viewBox="0 0 24 24" fill="none" xmlns="http://www.w3.org/2000/svg">
<path d="M14 21.54V17C14 16.2043 14.3163 15.4415 14.8789 14.8789C15.4415 14.3163 16.2043 14 17 14H21.54L21.6426 14.0049C22.1467 14.0562 22.54 14.4823 22.54 15C22.54 15.5177 22.1467 15.9438 21.6426 15.9951L21.54 16H17C16.7348 16 16.4805 16.1054 16.293 16.293C16.1054 16.4805 16 16.7348 16 17V21.54C16 22.0923 15.5523 22.54 15 22.54C14.4477 22.54 14 22.0923 14 21.54Z" fill="#00AC97"/>
<path d="M11 10C11 9.73482 10.8945 9.4805 10.707 9.29297C10.5195 9.10543 10.2652 9 10 9C8.93917 9 7.92201 8.57822 7.17188 7.82812C6.42177 7.07802 6.00004 6.06081 6 5V3.33984C6 2.78756 6.44772 2.33984 7 2.33984C7.55228 2.33984 8 2.78756 8 3.33984V5C8.00004 5.53038 8.2109 6.03903 8.58594 6.41406C8.961 6.78909 9.4696 7 10 7C10.7957 7 11.5585 7.3163 12.1211 7.87891C12.6837 8.44151 13 9.20439 13 10C13.0001 10.5476 13.4523 11 14 11C14.2652 11 14.5195 10.8945 14.707 10.707C14.8945 10.5195 15 10.2652 15 10C15 8.34772 16.3477 7 18 7H21.1699L21.2725 7.00488C21.7766 7.05619 22.1699 7.4823 22.1699 8C22.1698 8.51764 21.7766 8.94383 21.2725 8.99512L21.1699 9H18C17.4523 9 17 9.45228 17 10C17 10.7956 16.6837 11.5585 16.1211 12.1211C15.5585 12.6837 14.7956 13 14 13C12.3478 13 11.0001 11.6522 11 10Z" fill="#00AC97"/>
<path d="M10 21.9502V18C10 17.7348 9.89451 17.4805 9.70703 17.293C9.54293 17.1289 9.32756 17.0276 9.09863 17.0049L9 17C8.2044 17 7.44151 16.6836 6.87891 16.1211C6.38671 15.6289 6.08291 14.9835 6.01465 14.2969L6 14V13C6 12.7348 5.89451 12.4805 5.70703 12.293C5.54293 12.1289 5.32756 12.0276 5.09863 12.0049L5 12H2.0498C1.49752 12 1.0498 11.5523 1.0498 11C1.0498 10.4477 1.49752 10 2.0498 10H5L5.2959 10.0146C5.98282 10.0828 6.62871 10.3865 7.12109 10.8789C7.68364 11.4415 8 12.2044 8 13V14L8.00488 14.0986C8.02758 14.3276 8.12883 14.5429 8.29297 14.707C8.45715 14.8712 8.67234 14.9725 8.90137 14.9951L9.2959 15.0146C9.98282 15.0828 10.6287 15.3865 11.1211 15.8789C11.6836 16.4415 12 17.2044 12 18V21.9502C11.9999 22.5023 11.5521 22.9501 11 22.9502C10.4478 22.9502 10.0001 22.5024 10 21.9502Z" fill="#00AC97"/>
<path d="M21 12C21 7.02944 16.9706 3 12 3C7.02944 3 3 7.02944 3 12C3 16.9706 7.02944 21 12 21C16.9706 21 21 16.9706 21 12ZM23 12C23 18.0751 18.0751 23 12 23C5.92487 23 1 18.0751 1 12C1 5.92487 5.92487 1 12 1C18.0751 1 23 5.92487 23 12Z" fill="#00AC97"/>
</svg>
