<svg width="24" height="24" viewBox="0 0 24 24" fill="none" xmlns="http://www.w3.org/2000/svg">
<path fill-rule="evenodd" clip-rule="evenodd" d="M17.0053 1.01472C17.7917 1.01075 18.5711 1.16272 19.2984 1.46183C20.0258 1.76095 20.6866 2.20128 21.2426 2.75736C21.7987 3.31345 22.2391 3.97425 22.5382 4.70157C22.8373 5.42889 22.9893 6.20829 22.9853 6.9947C22.9813 7.78111 22.8215 8.55894 22.515 9.2832C22.2093 10.0058 21.7636 10.6608 21.2037 11.2105L11.2105 21.2037C10.6608 21.7636 10.0058 22.2093 9.2832 22.515C8.55894 22.8215 7.78111 22.9813 6.9947 22.9853C6.20829 22.9893 5.42889 22.8373 4.70157 22.5382C3.97425 22.2391 3.31345 21.7987 2.75736 21.2426C2.20128 20.6866 1.76095 20.0258 1.46183 19.2984C1.16272 18.5711 1.01075 17.7917 1.01472 17.0053C1.0187 16.2189 1.17853 15.4411 1.48497 14.7168C1.79074 13.9942 2.23641 13.3392 2.79633 12.7895L12.7895 2.79633C13.3392 2.23641 13.9942 1.79074 14.7168 1.48497C15.4411 1.17853 16.2189 1.0187 17.0053 1.01472ZM18.5377 3.31152C18.0549 3.11295 17.5375 3.01206 17.0154 3.0147C16.4933 3.01734 15.977 3.12344 15.4962 3.32688C15.0153 3.53032 14.5796 3.82706 14.2142 4.19993L14.2071 4.20715L4.19997 14.2143C3.82709 14.5797 3.53032 15.0153 3.32688 15.4962C3.12344 15.977 3.01734 16.4933 3.0147 17.0154C3.01206 17.5375 3.11295 18.0549 3.31152 18.5377C3.51009 19.0206 3.80241 19.4593 4.17158 19.8284C4.54074 20.1976 4.97943 20.4899 5.46227 20.6885C5.94511 20.8871 6.46253 20.9879 6.9846 20.9853C7.50667 20.9827 8.02304 20.8766 8.50385 20.6731C8.98466 20.4697 9.42037 20.173 9.78579 19.8001L9.79286 19.7929L19.8 9.78575C20.1729 9.42034 20.4697 8.98466 20.6731 8.50385C20.8766 8.02304 20.9827 7.50667 20.9853 6.9846C20.9879 6.46253 20.8871 5.94511 20.6885 5.46227C20.4899 4.97943 20.1976 4.54074 19.8284 4.17158C19.4593 3.80241 19.0206 3.51009 18.5377 3.31152Z" fill="#00AC97"/>
<path fill-rule="evenodd" clip-rule="evenodd" d="M7.79289 7.79289C8.18342 7.40237 8.81658 7.40237 9.20711 7.79289L16.2071 14.7929C16.5976 15.1834 16.5976 15.8166 16.2071 16.2071C15.8166 16.5976 15.1834 16.5976 14.7929 16.2071L7.79289 9.20711C7.40237 8.81658 7.40237 8.18342 7.79289 7.79289Z" fill="#00AC97"/>
</svg>
