<svg width="24" height="24" viewBox="0 0 24 24" fill="none" xmlns="http://www.w3.org/2000/svg">
<path fill-rule="evenodd" clip-rule="evenodd" d="M8.01367 3.00115C9.17634 3.005 10.1184 3.49857 10.7887 3.88323C10.9048 3.94987 11.0083 4.01053 11.1032 4.06621C11.3108 4.18794 11.4777 4.28582 11.6474 4.37007C11.89 4.49044 11.9851 4.50002 12 4.50002C12.0149 4.50002 12.11 4.49044 12.3526 4.37007C12.5223 4.28582 12.6892 4.18794 12.8968 4.06621C12.9917 4.01053 13.0952 3.94987 13.2113 3.88323C13.8819 3.49842 14.8244 3.00462 15.9877 3.00115C17.3884 2.97084 18.6672 3.67596 19.5722 4.82101C20.4748 5.96297 20.9688 7.48342 20.9998 9.04212L21 9.06199C21 11.4409 20.3186 14.7913 19.3424 17.541C18.8535 18.9183 18.2703 20.2036 17.6234 21.165C17.3005 21.645 16.9365 22.0823 16.5281 22.4086C16.1209 22.7339 15.6034 23 15 23C14.4168 23 14.0389 22.6227 13.8631 22.4105C13.6634 22.1694 13.5032 21.8736 13.3739 21.5999C13.1385 21.1015 12.9109 20.4653 12.7006 19.8774C12.6781 19.8146 12.6558 19.7524 12.6338 19.6909C12.4105 19.0687 12.2047 18.5144 12 18.0988C11.7953 18.5144 11.5895 19.0687 11.3662 19.6909C11.3442 19.7524 11.3219 19.8146 11.2994 19.8774C11.0891 20.4653 10.8615 21.1015 10.6261 21.5999C10.4968 21.8736 10.3366 22.1694 10.1369 22.4105C9.96106 22.6227 9.58322 23 9 23C8.39661 23 7.87907 22.7339 7.47187 22.4086C7.06351 22.0823 6.69953 21.645 6.37657 21.165C5.72971 20.2036 5.14655 18.9183 4.65762 17.541C3.68144 14.7913 3 11.4409 3 9.06199L3.00017 9.04365C3.02879 7.48359 3.52206 5.96089 4.42549 4.81787C5.33113 3.67204 6.61177 2.96753 8.01367 3.00115ZM12.3023 17.6132C12.3023 17.6133 12.301 17.6145 12.2983 17.6167C12.301 17.6142 12.3023 17.6131 12.3023 17.6132ZM11.7017 17.6167C11.699 17.6145 11.6977 17.6133 11.6977 17.6132C11.6977 17.6131 11.699 17.6142 11.7017 17.6167ZM7.97261 5.00075C7.30587 4.98248 6.58543 5.31045 5.99456 6.05803C5.40003 6.81025 5.02348 7.89028 5 9.07132C5.00184 11.1603 5.61993 14.2735 6.54238 16.8719C7.00345 18.1707 7.52029 19.2821 8.03593 20.0485C8.29422 20.4324 8.52712 20.6917 8.72032 20.8461C8.73227 20.8556 8.74385 20.8646 8.75508 20.8731C8.77458 20.8351 8.79546 20.7928 8.81763 20.7458C9.00853 20.3416 9.20211 19.8013 9.42282 19.1853C9.44291 19.1293 9.46323 19.0726 9.48378 19.0153C9.71659 18.3666 9.98256 17.638 10.2794 17.0701C10.427 16.7877 10.6119 16.4857 10.8455 16.2418C11.0726 16.0048 11.4603 15.7061 12 15.7061C12.5397 15.7061 12.9274 16.0048 13.1545 16.2418C13.3881 16.4857 13.573 16.7877 13.7206 17.0701C14.0174 17.638 14.2834 18.3666 14.5162 19.0153C14.5368 19.0726 14.5571 19.1292 14.5772 19.1853C14.7979 19.8013 14.9915 20.3416 15.1824 20.7458C15.2045 20.7928 15.2254 20.8351 15.2449 20.8731C15.2561 20.8646 15.2677 20.8556 15.2797 20.8461C15.4729 20.6917 15.7058 20.4324 15.9641 20.0485C16.4797 19.2821 16.9965 18.1707 17.4576 16.8719C18.38 14.2739 18.998 11.1611 19 9.0721C18.9746 7.89184 18.5975 6.81312 18.0032 6.06117C17.4123 5.31361 16.692 4.98433 16.0247 5.00082C16.0165 5.00103 16.0082 5.00113 16 5.00113C15.393 5.00113 14.8398 5.25464 14.2067 5.61791C14.1332 5.66007 14.0544 5.70632 13.9723 5.75446C13.7381 5.89173 13.4778 6.04439 13.2417 6.16156C12.918 6.32223 12.4851 6.50002 12 6.50002C11.5149 6.50002 11.082 6.32223 10.7583 6.16156C10.5222 6.04439 10.2619 5.89173 10.0277 5.75446C9.94563 5.70632 9.86675 5.66007 9.79328 5.61791C9.16023 5.25464 8.60704 5.00113 8 5.00113C7.99087 5.00113 7.98173 5.001 7.97261 5.00075ZM15.4188 21.1515C15.4188 21.1519 15.4152 21.1485 15.408 21.1401C15.4152 21.1469 15.4188 21.1511 15.4188 21.1515ZM8.58121 21.1515C8.58121 21.1511 8.58482 21.1469 8.59205 21.1401C8.58482 21.1485 8.58121 21.1519 8.58121 21.1515Z" fill="#005BAC"/>
</svg>
