<svg width="24" height="24" viewBox="0 0 24 24" fill="none" xmlns="http://www.w3.org/2000/svg">
<path fill-rule="evenodd" clip-rule="evenodd" d="M11.8918 3.03886C10.0424 4.65217 7.32107 6.00045 5 6.00045V13.0004C5 15.2364 5.77079 16.8615 6.98675 18.1068C8.22994 19.3801 9.98374 20.3002 11.9964 20.9952L12.019 21.0033C14.0241 20.3036 15.773 19.3818 17.0139 18.1087C18.2292 16.8618 19 15.2363 19 13.0004V6.00045C16.6797 6.00045 13.9684 4.6629 12.1081 3.03878C12.0777 3.01373 12.0395 3 12 3C11.9605 3 11.9223 3.01376 11.8918 3.03886ZM10.5904 1.52015C10.9834 1.18445 11.4832 1 12 1C12.5168 1 13.0166 1.18445 13.4096 1.52015L13.4182 1.52756L13.4182 1.52761C15.0577 2.96101 17.3229 4.00045 19 4.00045C19.5304 4.00045 20.0391 4.21116 20.4142 4.58624C20.7893 4.96131 21 5.47002 21 6.00045V13.0004C21 15.7646 20.0208 17.8891 18.4461 19.5047C16.8987 21.0924 14.8206 22.1448 12.6691 22.8947L12.661 22.8976L12.6609 22.8976C12.2297 23.0437 11.7616 23.0382 11.3341 22.8824C9.18016 22.1376 7.10279 21.0885 5.55575 19.5041C3.97921 17.8894 3 15.7645 3 13.0004V6.00045C3 5.47002 3.21071 4.96131 3.58579 4.58624C3.96086 4.21116 4.46957 4.00045 5 4.00045C6.67639 4.00045 8.95161 2.95168 10.5821 1.52734L10.5904 1.5201L10.5904 1.52015Z" fill="#3071B9"/>
<path fill-rule="evenodd" clip-rule="evenodd" d="M8 12C8 11.4477 8.44772 11 9 11H15C15.5523 11 16 11.4477 16 12C16 12.5523 15.5523 13 15 13H9C8.44772 13 8 12.5523 8 12Z" fill="#3071B9"/>
<path fill-rule="evenodd" clip-rule="evenodd" d="M12 8C12.5523 8 13 8.44772 13 9V15C13 15.5523 12.5523 16 12 16C11.4477 16 11 15.5523 11 15V9C11 8.44772 11.4477 8 12 8Z" fill="#3071B9"/>
</svg>
