<svg width="24" height="24" viewBox="0 0 24 24" fill="none" xmlns="http://www.w3.org/2000/svg">
<path fill-rule="evenodd" clip-rule="evenodd" d="M1.87868 3.87868C2.44129 3.31607 3.20435 3 4 3H16C16.7956 3 17.5587 3.31607 18.1213 3.87868C18.6839 4.44129 19 5.20435 19 6V8C19 8.55228 18.5523 9 18 9C17.4477 9 17 8.55228 17 8V6C17 5.73478 16.8946 5.48043 16.7071 5.29289C16.5196 5.10536 16.2652 5 16 5H4C3.73478 5 3.48043 5.10536 3.29289 5.29289C3.10536 5.48043 3 5.73478 3 6V13C3 13.2652 3.10536 13.5196 3.29289 13.7071C3.48043 13.8946 3.73478 14 4 14H12C12.5523 14 13 14.4477 13 15C13 15.5523 12.5523 16 12 16H4C3.20435 16 2.44129 15.6839 1.87868 15.1213C1.31607 14.5587 1 13.7956 1 13V6C1 5.20435 1.31607 4.44129 1.87868 3.87868Z" fill="#00B9EF"/>
<path fill-rule="evenodd" clip-rule="evenodd" d="M10 14.04C10.5523 14.04 11 14.4878 11 15.04V19C11 19.5523 10.5523 20 10 20C9.44772 20 9 19.5523 9 19V15.04C9 14.4878 9.44772 14.04 10 14.04Z" fill="#00B9EF"/>
<path fill-rule="evenodd" clip-rule="evenodd" d="M6 19C6 18.4477 6.44772 18 7 18H12C12.5523 18 13 18.4477 13 19C13 19.5523 12.5523 20 12 20H7C6.44772 20 6 19.5523 6 19Z" fill="#00B9EF"/>
<path fill-rule="evenodd" clip-rule="evenodd" d="M18 13C17.4477 13 17 13.4477 17 14V20C17 20.5523 17.4477 21 18 21H20C20.5523 21 21 20.5523 21 20V14C21 13.4477 20.5523 13 20 13H18ZM15 14C15 12.3431 16.3431 11 18 11H20C21.6569 11 23 12.3431 23 14V20C23 21.6569 21.6569 23 20 23H18C16.3431 23 15 21.6569 15 20V14Z" fill="#00B9EF"/>
</svg>
