<?xml version="1.0" encoding="UTF-8"?>
<svg id="_レイヤー_1" data-name="レイヤー 1" xmlns="http://www.w3.org/2000/svg" viewBox="0 0 763.69 763.69">
  <defs>
    <style>
      .cls-1 {
        fill: #fff200;
      }

      .cls-2 {
        fill: #fff;
      }
    </style>
  </defs>
  <path class="cls-1" d="M384.1,659.67c-29.13-152.73-124.92-246.42-286-279.7,155.59-35.77,251.42-135.16,286.03-296.72,37.82,155.49,133.91,254.56,286.82,295.76-151.95,28.2-248.01,122.21-286.85,280.66Z"/>
  <path class="cls-2" d="M384.84,132.55c40.72,119.34,120.04,201.13,237.16,244.6-116.22,34.21-195.37,111.74-236.76,231.93-35.35-115.79-114.39-192.61-236.44-229.79,118.8-40.29,197.74-122.8,236.04-246.74M383.07,0C363.29,238.96,235.77,366.09,0,380.62c255.23,14.6,379.16,145.59,380.62,383.07,20.81-241.74,142.97-376.2,383.07-380.62C534.3,357.24,407.43,229.55,383.07,0h0Z"/>
</svg>