<?xml version="1.0" encoding="UTF-8"?>
<svg id="_レイヤー_1" data-name="レイヤー 1" xmlns="http://www.w3.org/2000/svg" viewBox="0 0 665.37 664.35">
  <defs>
    <style>
      .cls-1 {
        fill: #231815;
        font-family: KozGoPr6N-Regular-90ms-RKSJ-H, 'Kozuka Gothic Pr6N';
        font-size: 48px;
      }
    </style>
  </defs>
  <text class="cls-1" transform="translate(15.47 367.62) rotate(76.98)"><tspan x="0" y="0">オ</tspan></text>
  <text class="cls-1" transform="translate(27.35 417.77) rotate(67.67)"><tspan x="0" y="0">ー</tspan></text>
  <text class="cls-1" transform="translate(47.2 465.33) rotate(58.4)"><tspan x="0" y="0">キ</tspan></text>
  <text class="cls-1" transform="translate(74.43 509.04) rotate(49.19)"><tspan x="0" y="0">ャ</tspan></text>
  <text class="cls-1" transform="translate(108.3 547.84) rotate(40.01)"><tspan x="0" y="0">ン</tspan></text>
  <text class="cls-1" transform="translate(147.92 580.73) rotate(30.8)"><tspan x="0" y="0">で</tspan></text>
  <text class="cls-1" transform="translate(192.35 606.88) rotate(21.51)"><tspan x="0" y="0">は</tspan></text>
  <text class="cls-1" transform="translate(240.39 625.51) rotate(12.2)"><tspan x="0" y="0">じ</tspan></text>
  <text class="cls-1" transform="translate(290.82 636.11) rotate(2.97)"><tspan x="0" y="0">め</tspan></text>
  <text class="cls-1" transform="translate(342.24 638.51) rotate(-6.14)"><tspan x="0" y="0">の</tspan></text>
  <text class="cls-1" transform="translate(393.44 632.72) rotate(-15.42)"><tspan x="0" y="0">一</tspan></text>
  <text class="cls-1" transform="translate(443.06 618.73) rotate(-24.73)"><tspan x="0" y="0">歩</tspan></text>
  <text class="cls-1" transform="translate(489.71 596.93) rotate(-33.98)"><tspan x="0" y="0">を</tspan></text>
  <text class="cls-1" transform="translate(532.26 567.9) rotate(-43.18)"><tspan x="0" y="0">踏</tspan></text>
  <text class="cls-1" transform="translate(569.63 532.45) rotate(-52.37)"><tspan x="0" y="0">み</tspan></text>
  <text class="cls-1" transform="translate(600.86 491.48) rotate(-61.6)"><tspan x="0" y="0">出</tspan></text>
  <text class="cls-1" transform="translate(625.12 446.02) rotate(-70.89)"><tspan x="0" y="0">そ</tspan></text>
  <text class="cls-1" transform="translate(641.73 397.21) rotate(-80.2)"><tspan x="0" y="0">う</tspan></text>
</svg>